<?xml version="1.0" encoding="UTF-8"?>
<svg xmlns="http://www.w3.org/2000/svg" version="1.1" viewBox="0 0 396.9 538.6">
  <defs>
    <style>
      .cls-1 {
        font-family: Avenir-Black, Avenir;
        font-size: 28.2px;
        font-weight: 800;
      }

      .cls-1, .cls-2, .cls-3, .cls-4, .cls-5, .cls-6, .cls-7, .cls-8, .cls-9, .cls-10 {
        isolation: isolate;
      }

      .cls-11, .cls-12, .cls-13, .cls-2, .cls-14, .cls-3, .cls-15, .cls-16, .cls-17, .cls-6, .cls-18, .cls-19, .cls-20, .cls-21 {
        stroke-miterlimit: 10;
      }

      .cls-11, .cls-12, .cls-13, .cls-14, .cls-15, .cls-16 {
        stroke: #000;
      }

      .cls-11, .cls-13, .cls-14, .cls-3, .cls-17, .cls-6, .cls-18, .cls-19, .cls-20 {
        fill: none;
      }

      .cls-11, .cls-16, .cls-17 {
        stroke-width: .5px;
      }

      .cls-12 {
        stroke-width: .2px;
      }

      .cls-12, .cls-15, .cls-16 {
        fill: #c7b299;
      }

      .cls-2, .cls-3, .cls-6 {
        stroke-width: 2px;
      }

      .cls-2, .cls-4, .cls-21, .cls-22, .cls-8, .cls-9 {
        fill: #ed1c24;
      }

      .cls-2, .cls-6, .cls-18, .cls-21 {
        stroke: #ed1c24;
      }

      .cls-2, .cls-10 {
        opacity: .7;
      }

      .cls-14 {
        stroke-width: .8px;
      }

      .cls-3 {
        stroke: blue;
      }

      .cls-3, .cls-23, .cls-4, .cls-6, .cls-7 {
        opacity: .7;
      }

      .cls-17 {
        stroke: #666;
      }

      .cls-19 {
        stroke: #4d4d4d;
      }

      .cls-20 {
        stroke: #1a1a1a;
      }

      .cls-7, .cls-10 {
        fill: blue;
      }

      .cls-8 {
        opacity: .7;
      }

      .cls-9 {
        opacity: .7;
      }
    </style>
  </defs>
  <!-- Generator: Adobe Illustrator 28.7.5, SVG Export Plug-In . SVG Version: 1.2.0 Build 176)  -->
  <g>
    <g id="Layer_1">
      <g id="tap_set_g0">
        <path class="cls-14" d="M30,105.9c.9-3,2.7-6.6,2.9-9.8,0-1.6-1.1-3.3-2.2-4.9-1.5-2.8-2.7-5.8-5.3-7.9-1.7-1.8-1.7-4.5-3.4-6.4-1.1-1.2-2.6-2.3-4.1-3.1-1.5-.7-2.8-1.2-3.6-2.5-.6-.9,0-1.8.9-2.1,2.5-1,5.9.7,7.9,2.6,1.5,1.3,2.6,3,3.7,4.7,1,1.6,2,2.1,2.9.4,2.5-4.4,1.7-9.7.4-14.3-.5-2.2-.6-4.5-1.2-6.6-.7-2.3-1.5-4.6-1.9-7-.3-1.4.6-3.5,2.2-2.6.8.5,1.5,1.5,1.9,2.4,2.2,3.5,1.2,7.6,3.4,11,.5.9,1.2,2.4,1.7,3.2,1.5,1.8,2.4-1.8,2.6-3,.5-5.3,0-10.5.2-15.8-.2-4,4.8-4.6,5-.5.1,6.5,0,13,0,19.4,0,.8.3,1,.8.3,1-1.4,1.6-3.5,1.7-5.2,0-2.8,0-5.4,1.3-7.9,1.2-2,1.7-6.3,4.1-6.4,3.6,1.3.2,7.8.7,10.8,0,3-1.8,5.8-1.3,8.8.2,1,.5,2,1.6,1.7,3.6-.7,5-12,8.5-10.5,3.8,3.8-4.7,13.4-5.7,17.4-.5,2.1-.2,4.1-.4,6.2-.3,2.7-.8,5.3-1.3,8-2,9.2-5.3,9-3.7,19.7"/>
        <path class="cls-11" d="M29.1,54.6c1,0,1.8-.2,2.5-.7"/>
        <path class="cls-11" d="M30.1,58.8c1,0,1.8-.2,2.5-.7"/>
        <path class="cls-11" d="M30.7,58c.5,0,.9,0,1.2-.3"/>
        <path class="cls-11" d="M40.2,50.9c.9.3,1.8.3,2.6,0"/>
        <path class="cls-11" d="M40.3,57.5c.9.3,1.8.3,2.6,0"/>
        <path class="cls-11" d="M48.6,59.1c.9.3,1.8.3,2.6,0"/>
        <path class="cls-11" d="M49,51.9c.9.3,1.8.3,2.6,0"/>
        <path class="cls-11" d="M58.2,61.1c.7.6,1.5,1,2.5,1"/>
        <path class="cls-11" d="M56.2,64.8c.7.6,1.5,1,2.5,1"/>
        <path class="cls-11" d="M41,56.6c.4.2.8.2,1.2,0"/>
        <path class="cls-11" d="M49.3,58.5c.4.2.8.2,1.2,0"/>
        <path class="cls-11" d="M57.1,64.5c.4.3.8.4,1.2.4"/>
        <path class="cls-15" d="M29,47.5c-1.7.3-1.6,1-1.5,3,0,1.2,2.6,0,3.2-.2.2,0,.4-.2.5-.5,0-.5-.6-1.5-1-1.9-.8-.8-1.7,0-2.6.3"/>
        <path class="cls-15" d="M42.3,42.4c-2.3,0-2.4,1-2.8,3.8-.3,1.7,3.3.7,4,.6.2,0,.6-.2.7-.5.2-.6-.3-2.2-.6-2.9-.7-1.4-2.1-.6-3.4-.2"/>
        <path class="cls-16" d="M53.2,45.3c-1.9-.5-2.3.3-3.6,2.9-.8,1.5,2.5,1.5,3.2,1.5.2,0,.6,0,.8-.3.4-.5.5-2.2.4-2.8-.2-1.5-1.6-1.1-2.8-1"/>
        <path class="cls-12" d="M61.8,56.2c-1.9-.5-2.3.3-3.6,2.9-.8,1.5,2.5,1.5,3.2,1.5.2,0,.6,0,.8-.3.4-.5.5-2.2.4-2.8-.2-1.5-1.6-1.1-2.8-1"/>
      </g>
      <g>
        <path class="cls-14" d="M90.6,105.9c.9-3,2.7-6.6,2.9-9.8,0-1.6-1.2-3.3-2.2-4.9-1.6-2.8-2.7-5.8-5.3-7.9-1.7-1.8-1.7-4.5-3.4-6.4-1.1-1.2-2.6-2.3-4.1-3.1-1.4-.7-2.8-1.2-3.6-2.5-.6-.9,0-1.8.9-2.1,2.5-1,5.9.7,7.9,2.6,1.5,1.3,2.6,3,3.7,4.7,1,1.6,2,2.1,2.9.4,2.4-4.4,1.7-9.7.4-14.3-.5-2.2-.6-4.5-1.2-6.6-.7-2.3-1.5-4.6-1.9-7-.3-1.4.6-3.5,2.2-2.6.8.5,1.5,1.5,1.9,2.4,2.2,3.5,1.2,7.6,3.4,11,.6.9,1.2,2.4,1.7,3.2,1.5,1.8,2.4-1.8,2.6-3,.5-5.3,0-10.5.2-15.8-.2-4,4.8-4.6,5.1-.5.1,6.5,0,13,0,19.4,0,.8.3,1,.8.3,1-1.4,1.6-3.5,1.7-5.2,0-2.8,0-5.4,1.3-7.9,1.2-2,1.7-6.3,4.1-6.4,3.6,1.3.2,7.8.7,10.8,0,3-1.8,5.8-1.3,8.8.2,1,.5,2,1.6,1.7,3.6-.7,5-12,8.5-10.5,3.8,3.8-4.7,13.4-5.7,17.4-.5,2.1-.2,4.1-.4,6.2-.3,2.7-.8,5.3-1.3,8-2,9.2-5.3,9-3.7,19.7"/>
        <path class="cls-11" d="M89.6,52.9c.9,0,1.8-.2,2.6-.7"/>
        <path class="cls-11" d="M90.6,57.1c.9,0,1.8-.2,2.6-.7"/>
        <path class="cls-11" d="M91.3,56.3c.4,0,.8,0,1.2-.3"/>
        <path class="cls-9" d="M85.8,81.2c1,0,1.8-1.4,2.3-2.3.6-1,.4-2.2-.4-3-1.5-1.3-2.5-3.2-3.9-4.3-2.2-1.6-4.5-3.6-7.1-2.7-1.6.4-1.7,2.1-.3,3.3.8.7,1.9,1.2,2.8,1.7,1.3.8,2.5,1.7,3.6,2.9.8.9,1.4,2.2,2,3.3.2.5.5,1.1,1,1.1h0,0Z"/>
        <path class="cls-11" d="M100.7,49.2c.9.3,1.8.3,2.6,0"/>
        <path class="cls-11" d="M100.9,55.8c.9.3,1.8.3,2.6,0"/>
        <path class="cls-11" d="M109.2,57.3c.9.3,1.8.3,2.6,0"/>
        <path class="cls-11" d="M109.5,50.2c.9.3,1.8.3,2.6,0"/>
        <path class="cls-11" d="M118.8,59.4c.7.6,1.5,1,2.5,1"/>
        <path class="cls-11" d="M116.8,63.1c.7.6,1.5,1,2.5,1"/>
        <path class="cls-11" d="M101.5,54.8c.4.2.8.2,1.2,0"/>
        <path class="cls-11" d="M109.8,56.8c.4.2.8.2,1.2,0"/>
        <path class="cls-11" d="M117.6,62.8c.4.3.8.4,1.2.4"/>
        <path class="cls-15" d="M89.6,45.8c-1.7.3-1.6,1-1.5,3,0,1.2,2.6,0,3.2-.2.2,0,.4-.2.4-.5,0-.5-.6-1.5-.9-1.9-.8-.8-1.7,0-2.6.3"/>
        <path class="cls-15" d="M102.8,40.6c-2.3,0-2.4,1-2.8,3.8-.3,1.7,3.3.7,4.1.6.2,0,.6-.2.7-.5.2-.6-.3-2.2-.6-2.9-.7-1.4-2.1-.6-3.4-.2"/>
        <path class="cls-16" d="M113.8,43.6c-1.9-.5-2.3.3-3.6,2.9-.8,1.5,2.5,1.5,3.2,1.5.2,0,.6,0,.8-.3.4-.5.5-2.2.4-2.8-.2-1.5-1.6-1.1-2.8-1"/>
        <path class="cls-12" d="M122.4,54.5c-1.9-.5-2.3.3-3.6,2.9-.8,1.5,2.5,1.5,3.2,1.5.2,0,.6,0,.8-.3.4-.5.5-2.2.4-2.8-.2-1.5-1.6-1.1-2.8-1"/>
      </g>
      <g>
        <path class="cls-14" d="M151.1,106c.9-3,2.7-6.6,2.9-9.8,0-1.6-1.1-3.3-2.2-4.9-1.6-2.8-2.7-5.8-5.3-7.9-1.7-1.8-1.7-4.5-3.4-6.4-1.1-1.2-2.6-2.3-4.1-3.1-1.4-.7-2.8-1.2-3.6-2.5-.6-.9,0-1.8.9-2.1,2.5-1,5.9.7,7.9,2.6,1.5,1.3,2.6,3,3.7,4.7,1,1.6,2,2.1,2.9.4,2.4-4.4,1.7-9.7.4-14.3-.5-2.2-.6-4.5-1.2-6.6-.7-2.3-1.5-4.6-1.9-7-.3-1.4.6-3.5,2.2-2.6.8.5,1.5,1.5,1.9,2.4,2.2,3.5,1.2,7.6,3.4,11,.6.9,1.2,2.4,1.7,3.2,1.5,1.8,2.4-1.8,2.6-3,.5-5.3,0-10.5.2-15.8-.2-4,4.8-4.6,5.1-.5.1,6.5,0,13,0,19.4,0,.8.3,1,.8.3,1-1.4,1.6-3.5,1.7-5.2,0-2.8,0-5.4,1.3-7.9,1.2-2,1.7-6.3,4.1-6.4,3.6,1.3.2,7.8.7,10.8,0,3-1.8,5.8-1.3,8.8.2,1,.5,2,1.6,1.7,3.6-.7,5-12,8.5-10.5,3.8,3.8-4.7,13.4-5.7,17.4-.5,2.1-.2,4.1-.4,6.2-.3,2.7-.8,5.3-1.3,8-2,9.2-5.3,9-3.7,19.7"/>
        <path class="cls-11" d="M150.2,52.8c.9,0,1.8-.2,2.6-.7"/>
        <path class="cls-11" d="M151.2,57c.9,0,1.8-.2,2.6-.7"/>
        <path class="cls-11" d="M151.9,56.2c.4,0,.9,0,1.2-.3"/>
        <path class="cls-9" d="M152,64.4c.8.5,2.3-.6,3.2-1.3,1-.7,1.5-2.1,1.2-3.3-.6-2-.5-4.4-1.2-6.3-1.1-2.6-2.1-5.8-4.9-6.1-1.6-.3-2.6,1.4-1.9,3.2.3,1.1,1.1,2.1,1.6,3.1.8,1.4,1.4,2.9,1.7,4.6.2,1.3.1,2.9,0,4.3,0,.6,0,1.3.3,1.6h0s0,0,0,0Z"/>
        <path class="cls-11" d="M161.3,49.1c.9.3,1.8.3,2.6,0"/>
        <path class="cls-11" d="M161.4,55.7c.9.3,1.8.3,2.6,0"/>
        <path class="cls-11" d="M169.7,57.2c.9.3,1.8.3,2.6,0"/>
        <path class="cls-11" d="M170.1,50.1c.9.3,1.8.3,2.6,0"/>
        <path class="cls-11" d="M179.4,59.3c.7.6,1.5,1,2.5,1"/>
        <path class="cls-11" d="M177.4,63c.7.6,1.5,1,2.5,1"/>
        <path class="cls-11" d="M162.1,54.8c.4.2.8.2,1.2,0"/>
        <path class="cls-11" d="M170.4,56.7c.4.2.8.2,1.2,0"/>
        <path class="cls-11" d="M178.2,62.7c.4.3.8.4,1.2.4"/>
        <path class="cls-15" d="M150.1,45.7c-1.7.3-1.6,1-1.5,3,0,1.2,2.6,0,3.2-.2.2,0,.4-.2.4-.5,0-.5-.6-1.5-.9-1.9-.8-.8-1.7,0-2.6.3"/>
        <path class="cls-15" d="M163.4,40.5c-2.3,0-2.4,1-2.8,3.8-.3,1.7,3.3.7,4.1.6.2,0,.6-.2.7-.5.2-.6-.4-2.2-.6-2.9-.7-1.4-2.1-.6-3.4-.2"/>
        <path class="cls-16" d="M174.4,43.5c-1.9-.5-2.3.3-3.6,2.9-.8,1.5,2.5,1.5,3.2,1.5.2,0,.6,0,.8-.3.4-.5.5-2.2.4-2.8-.1-1.5-1.6-1.1-2.8-1"/>
        <path class="cls-12" d="M183,54.4c-1.9-.5-2.3.3-3.6,2.9-.8,1.5,2.5,1.5,3.2,1.5.2,0,.6,0,.8-.3.4-.5.5-2.2.4-2.8-.1-1.5-1.6-1.1-2.8-1"/>
      </g>
      <g>
        <path class="cls-14" d="M211.7,106c.9-3,2.7-6.6,2.9-9.8,0-1.6-1.1-3.3-2.2-4.9-1.6-2.8-2.7-5.8-5.3-7.9-1.7-1.8-1.7-4.5-3.4-6.4-1.1-1.2-2.6-2.3-4.1-3.1-1.4-.7-2.8-1.2-3.6-2.5-.6-.9,0-1.8.9-2.1,2.5-1,5.9.7,7.9,2.6,1.5,1.3,2.6,3,3.7,4.7,1,1.6,2,2.1,2.9.4,2.4-4.4,1.7-9.7.4-14.3-.5-2.2-.6-4.5-1.2-6.6-.7-2.3-1.5-4.6-1.9-7-.3-1.4.6-3.5,2.2-2.6.8.5,1.5,1.5,1.9,2.4,2.2,3.5,1.2,7.6,3.4,11,.6.9,1.2,2.4,1.7,3.2,1.5,1.8,2.4-1.8,2.6-3,.5-5.3,0-10.5.2-15.8-.2-4,4.8-4.6,5.1-.5.1,6.5,0,13,0,19.4,0,.8.3,1,.8.3,1-1.4,1.6-3.5,1.7-5.2,0-2.8,0-5.4,1.3-7.9,1.2-2,1.7-6.3,4.1-6.4,3.6,1.3.2,7.8.7,10.8,0,3-1.8,5.8-1.3,8.8.2,1,.5,2,1.6,1.7,3.6-.7,5-12,8.5-10.5,3.8,3.8-4.7,13.4-5.7,17.4-.5,2.1-.2,4.1-.4,6.2-.3,2.7-.8,5.3-1.3,8-2,9.2-5.3,9-3.7,19.7"/>
        <path class="cls-11" d="M210.8,52.8c.9,0,1.8-.2,2.6-.7"/>
        <path class="cls-11" d="M211.8,57c.9,0,1.8-.2,2.6-.7"/>
        <path class="cls-11" d="M212.4,56.2c.4,0,.9,0,1.2-.3"/>
        <path class="cls-11" d="M221.9,49.1c.9.3,1.8.3,2.6,0"/>
        <path class="cls-11" d="M222,55.7c.9.3,1.8.3,2.6,0"/>
        <path class="cls-11" d="M230.3,57.2c.9.3,1.8.3,2.6,0"/>
        <path class="cls-11" d="M230.7,50.1c.9.3,1.8.3,2.6,0"/>
        <path class="cls-11" d="M239.9,59.3c.7.6,1.5,1,2.5,1"/>
        <path class="cls-11" d="M237.9,63c.7.6,1.5,1,2.5,1"/>
        <path class="cls-11" d="M222.7,54.8c.4.2.8.2,1.2,0"/>
        <path class="cls-11" d="M231,56.7c.4.2.8.2,1.2,0"/>
        <path class="cls-11" d="M238.8,62.7c.4.3.8.4,1.2.4"/>
        <path class="cls-15" d="M210.7,45.7c-1.7.3-1.6,1-1.5,3,0,1.2,2.6,0,3.2-.2.2,0,.4-.2.4-.5,0-.5-.6-1.5-.9-1.9-.8-.8-1.7,0-2.6.3"/>
        <path class="cls-15" d="M223.9,40.5c-2.3,0-2.4,1-2.8,3.8-.3,1.7,3.3.7,4.1.6.2,0,.6-.2.7-.5.2-.6-.4-2.2-.6-2.9-.7-1.4-2.1-.6-3.4-.2"/>
        <path class="cls-16" d="M234.9,43.5c-1.9-.5-2.3.3-3.6,2.9-.8,1.5,2.5,1.5,3.2,1.5.2,0,.6,0,.8-.3.4-.5.5-2.2.4-2.8-.1-1.5-1.6-1.1-2.8-1"/>
        <path class="cls-12" d="M243.5,54.4c-1.9-.5-2.3.3-3.6,2.9-.8,1.5,2.5,1.5,3.2,1.5.2,0,.6,0,.8-.3.4-.5.5-2.2.4-2.8-.1-1.5-1.6-1.1-2.8-1"/>
        <path class="cls-8" d="M220.8,63c.3-6.6-.7-13.5.5-19.9.5-2,2.4-3.1,3.6-.7.6,1.2.8,2.9.8,4.3,0,3.4.1,7,0,10.3-.2,2.7-1.6,4.2-4.2,5.5"/>
      </g>
      <g>
        <path class="cls-14" d="M272.3,106c.9-3,2.7-6.6,2.9-9.8,0-1.6-1.1-3.3-2.2-4.9-1.5-2.8-2.7-5.8-5.3-7.9-1.7-1.8-1.7-4.5-3.4-6.4-1.1-1.2-2.6-2.3-4.1-3.1-1.5-.7-2.8-1.2-3.5-2.5-.6-.9,0-1.8,1-2.1,2.5-1,5.9.7,7.9,2.6,1.5,1.3,2.6,3,3.7,4.7,1,1.6,2,2.1,2.9.4,2.5-4.4,1.7-9.7.4-14.3-.5-2.2-.6-4.5-1.2-6.6-.7-2.3-1.5-4.6-1.9-7-.3-1.4.6-3.5,2.2-2.6.8.5,1.5,1.5,1.9,2.4,2.2,3.5,1.2,7.6,3.4,11,.5.9,1.2,2.4,1.7,3.2,1.5,1.8,2.4-1.8,2.6-3,.5-5.3,0-10.5.2-15.8-.2-4,4.8-4.6,5-.5.1,6.5,0,13,0,19.4,0,.8.3,1,.8.3,1-1.4,1.6-3.5,1.7-5.2,0-2.8,0-5.4,1.3-7.9,1.2-2,1.7-6.3,4.1-6.4,3.6,1.3.2,7.8.7,10.8,0,3-1.8,5.8-1.3,8.8.2,1,.5,2,1.6,1.7,3.6-.7,5-12,8.5-10.5,3.8,3.8-4.7,13.4-5.7,17.4-.5,2.1-.2,4.1-.4,6.2-.3,2.7-.8,5.3-1.3,8-2,9.2-5.3,9-3.7,19.7"/>
        <path class="cls-11" d="M271.3,52.8c1,0,1.8-.2,2.5-.7"/>
        <path class="cls-11" d="M272.3,57c1,0,1.8-.2,2.5-.7"/>
        <path class="cls-11" d="M273,56.2c.5,0,.9,0,1.2-.3"/>
        <path class="cls-11" d="M282.4,49.1c.9.3,1.8.3,2.6,0"/>
        <path class="cls-11" d="M282.6,55.7c.9.3,1.8.3,2.6,0"/>
        <path class="cls-11" d="M290.8,57.2c.9.3,1.8.3,2.6,0"/>
        <path class="cls-11" d="M291.2,50.1c.9.3,1.8.3,2.6,0"/>
        <path class="cls-11" d="M300.5,59.3c.7.6,1.5,1,2.5,1"/>
        <path class="cls-11" d="M298.5,63c.7.6,1.5,1,2.5,1"/>
        <path class="cls-11" d="M283.2,54.8c.4.2.8.2,1.2,0"/>
        <path class="cls-11" d="M291.5,56.7c.4.2.8.2,1.2,0"/>
        <path class="cls-11" d="M299.3,62.7c.4.3.8.4,1.2.4"/>
        <path class="cls-15" d="M271.2,45.7c-1.7.3-1.6,1-1.5,3,0,1.2,2.6,0,3.2-.2.2,0,.4-.2.5-.5,0-.5-.6-1.5-1-1.9-.8-.8-1.7,0-2.6.3"/>
        <path class="cls-15" d="M284.5,40.5c-2.3,0-2.4,1-2.8,3.8-.3,1.7,3.3.7,4,.6.2,0,.6-.2.7-.5.2-.6-.4-2.2-.6-2.9-.7-1.4-2.1-.6-3.4-.2"/>
        <path class="cls-16" d="M295.5,43.5c-1.9-.5-2.3.3-3.6,2.9-.8,1.5,2.5,1.5,3.2,1.5.2,0,.6,0,.8-.3.4-.5.5-2.2.4-2.8-.1-1.5-1.6-1.1-2.8-1"/>
        <path class="cls-12" d="M304.1,54.4c-1.9-.5-2.3.3-3.6,2.9-.8,1.5,2.5,1.5,3.2,1.5.2,0,.6,0,.8-.3.4-.5.5-2.2.4-2.8-.1-1.5-1.6-1.1-2.8-1"/>
        <path class="cls-8" d="M288.3,64.4c1.5-6.5,1.9-13.4,4.2-19.5.8-1.9,3-2.6,3.7,0,.4,1.3.2,3,0,4.4-.6,3.3-1.2,6.9-2,10.1-.7,2.7-2.4,3.8-5.1,4.6"/>
      </g>
      <g>
        <path class="cls-14" d="M332.4,106c.9-3,2.7-6.6,2.9-9.8,0-1.6-1.1-3.3-2.2-4.9-1.5-2.8-2.7-5.8-5.3-7.9-1.7-1.8-1.7-4.5-3.4-6.4-1.1-1.2-2.6-2.3-4.1-3.1-1.5-.7-2.8-1.2-3.5-2.5-.6-.9,0-1.8,1-2.1,2.5-1,5.9.7,7.9,2.6,1.5,1.3,2.6,3,3.7,4.7,1,1.6,2,2.1,2.9.4,2.5-4.4,1.7-9.7.4-14.3-.5-2.2-.6-4.5-1.2-6.6-.7-2.3-1.5-4.6-1.9-7-.3-1.4.6-3.5,2.2-2.6.8.5,1.5,1.5,1.9,2.4,2.2,3.5,1.2,7.6,3.4,11,.5.9,1.2,2.4,1.7,3.2,1.5,1.8,2.4-1.8,2.6-3,.5-5.3,0-10.5.2-15.8-.2-4,4.8-4.6,5-.5.1,6.5,0,13,0,19.4,0,.8.3,1,.8.3,1-1.4,1.6-3.5,1.7-5.2,0-2.8,0-5.4,1.3-7.9,1.2-2,1.7-6.3,4.1-6.4,3.6,1.3.2,7.8.7,10.8,0,3-1.8,5.8-1.3,8.8.2,1,.5,2,1.6,1.7,3.6-.7,5-12,8.5-10.5,3.8,3.8-4.7,13.4-5.7,17.4-.5,2.1-.2,4.1-.4,6.2-.3,2.7-.8,5.3-1.3,8-2,9.2-5.3,9-3.7,19.7"/>
        <path class="cls-11" d="M331.5,52.8c1,0,1.8-.2,2.5-.7"/>
        <path class="cls-11" d="M332.5,57c1,0,1.8-.2,2.5-.7"/>
        <path class="cls-11" d="M333.1,56.2c.5,0,.9,0,1.2-.3"/>
        <path class="cls-11" d="M342.6,49.1c.9.3,1.8.3,2.6,0"/>
        <path class="cls-11" d="M342.7,55.7c.9.3,1.8.3,2.6,0"/>
        <path class="cls-11" d="M351,57.2c.9.3,1.8.3,2.6,0"/>
        <path class="cls-11" d="M351.4,50.1c.9.3,1.8.3,2.6,0"/>
        <path class="cls-11" d="M360.6,59.3c.7.6,1.5,1,2.5,1"/>
        <path class="cls-11" d="M358.6,63c.7.6,1.5,1,2.5,1"/>
        <path class="cls-11" d="M343.4,54.8c.4.2.8.2,1.2,0"/>
        <path class="cls-11" d="M351.7,56.7c.4.2.8.2,1.2,0"/>
        <path class="cls-11" d="M359.5,62.7c.4.3.8.4,1.2.4"/>
        <path class="cls-15" d="M331.4,45.7c-1.7.3-1.6,1-1.5,3,0,1.2,2.6,0,3.2-.2.2,0,.4-.2.5-.5,0-.5-.6-1.5-1-1.9-.8-.8-1.7,0-2.6.3"/>
        <path class="cls-15" d="M344.6,40.5c-2.3,0-2.4,1-2.8,3.8-.3,1.7,3.3.7,4,.6.2,0,.6-.2.7-.5.2-.6-.4-2.2-.6-2.9-.7-1.4-2.1-.6-3.4-.2"/>
        <path class="cls-16" d="M355.6,43.5c-1.9-.5-2.3.3-3.6,2.9-.8,1.5,2.5,1.5,3.2,1.5.2,0,.6,0,.8-.3.4-.5.5-2.2.4-2.8-.1-1.5-1.6-1.1-2.8-1"/>
        <path class="cls-12" d="M364.2,54.4c-1.9-.5-2.3.3-3.6,2.9-.8,1.5,2.5,1.5,3.2,1.5.2,0,.6,0,.8-.3.4-.5.5-2.2.4-2.8-.1-1.5-1.6-1.1-2.8-1"/>
        <path class="cls-8" d="M354.4,69.3c2.7-4.8,4.5-10.3,8-14.4,1.2-1.2,3.3-1.2,3.5,1.1,0,1.2-.4,2.5-.9,3.5-1.2,2.5-2.6,5.2-4,7.6-1.2,1.9-3,2.4-5.8,2.1"/>
      </g>
      <g class="cls-5">
        <text class="cls-1" transform="translate(7.2 24.9)"><tspan x="0" y="0">Tap Set</tspan></text>
      </g>
      <g>
        <path class="cls-14" d="M90.1,172.4c.9-3,2.7-6.6,2.9-9.8,0-1.6-1.2-3.3-2.2-4.9-1.6-2.8-2.7-5.8-5.3-7.9-1.7-1.8-1.7-4.5-3.4-6.4-1.1-1.2-2.6-2.3-4.1-3.1-1.4-.7-2.8-1.2-3.6-2.5-.6-.9,0-1.8.9-2.1,2.5-1,5.9.7,7.9,2.6,1.5,1.3,2.6,3,3.7,4.7,1,1.6,2,2.1,2.9.4,2.4-4.4,1.7-9.7.4-14.4-.5-2.2-.6-4.5-1.2-6.6-.7-2.3-1.5-4.6-1.9-7-.3-1.4.6-3.5,2.2-2.6.8.5,1.5,1.5,1.9,2.4,2.2,3.6,1.2,7.6,3.4,11,.6.9,1.2,2.4,1.7,3.2,1.5,1.8,2.4-1.8,2.6-3,.5-5.3,0-10.5.2-15.8-.2-4,4.8-4.6,5.1-.5.1,6.5,0,13,0,19.4,0,.8.3,1,.8.3,1-1.4,1.6-3.5,1.7-5.2,0-2.8,0-5.4,1.3-7.9,1.2-2,1.7-6.3,4.1-6.4,3.6,1.3.2,7.8.7,10.8,0,3-1.8,5.8-1.3,8.8.2,1,.5,1.9,1.6,1.7,3.6-.7,5-12.1,8.5-10.5,3.8,3.8-4.7,13.4-5.7,17.4-.5,2.1-.2,4.1-.4,6.2-.3,2.7-.8,5.3-1.3,8-2,9.2-5.3,9-3.7,19.7"/>
        <path class="cls-11" d="M89.1,119.2c.9,0,1.8-.2,2.6-.7"/>
        <path class="cls-11" d="M90.2,123.3c.9,0,1.8-.2,2.6-.7"/>
        <path class="cls-11" d="M90.8,122.6c.4,0,.8,0,1.2-.3"/>
        <path class="cls-11" d="M100.2,115.5c.9.3,1.8.3,2.6,0"/>
        <path class="cls-11" d="M100.4,122.1c.9.3,1.8.3,2.6,0"/>
        <path class="cls-11" d="M108.7,123.6c.9.3,1.8.3,2.6,0"/>
        <path class="cls-11" d="M109.1,116.5c.9.3,1.8.3,2.6,0"/>
        <path class="cls-11" d="M118.3,125.7c.7.6,1.5,1,2.5,1"/>
        <path class="cls-11" d="M116.3,129.4c.7.6,1.5,1,2.5,1"/>
        <path class="cls-11" d="M101.1,121.1c.4.2.8.2,1.2,0"/>
        <path class="cls-11" d="M109.4,123.1c.4.2.8.2,1.2,0"/>
        <path class="cls-11" d="M117.2,129c.4.3.8.4,1.2.4"/>
        <path class="cls-15" d="M89.1,112.1c-1.7.3-1.6,1-1.5,3,0,1.2,2.6,0,3.2-.2.2,0,.4-.2.4-.5,0-.4-.6-1.5-.9-1.9-.8-.8-1.7,0-2.6.3"/>
        <path class="cls-15" d="M102.3,106.9c-2.3,0-2.4,1-2.8,3.8-.3,1.7,3.3.7,4.1.6.2,0,.6-.2.7-.5.2-.6-.3-2.2-.6-2.9-.7-1.4-2.1-.6-3.4-.2"/>
        <path class="cls-16" d="M113.3,109.8c-1.9-.5-2.3.3-3.6,2.9-.8,1.5,2.5,1.5,3.2,1.5.2,0,.6,0,.8-.3.4-.5.5-2.2.4-2.8-.2-1.5-1.6-1.1-2.8-1"/>
        <path class="cls-12" d="M121.9,120.8c-1.9-.5-2.3.3-3.6,2.9-.8,1.5,2.5,1.5,3.2,1.5.2,0,.6,0,.8-.3.4-.5.5-2.2.4-2.8-.2-1.5-1.6-1.1-2.8-1"/>
        <path class="cls-8" d="M112.1,135.7c2.7-4.8,4.5-10.3,8-14.4,1.2-1.2,3.3-1.2,3.5,1.1,0,1.2-.4,2.5-.9,3.5-1.2,2.5-2.6,5.2-3.9,7.6-1.2,1.9-3.1,2.4-5.8,2.1"/>
        <path class="cls-8" d="M105.3,132.5c1.7-6.9,2.3-14.4,4.8-20.8.9-2,3-2.8,3.7,0,.3,1.4,0,3.2-.2,4.7-.7,3.5-1.4,7.4-2.3,10.9-.8,2.8-2.5,4.1-5.3,4.9"/>
        <path class="cls-8" d="M99.5,129.8c.4-7.1-.4-14.6.9-21.4.5-2.1,2.5-3.3,3.6-.7.6,1.3.7,3.2.7,4.6,0,3.6,0,7.6-.3,11.1-.2,2.9-1.7,4.5-4.3,5.8"/>
        <path class="cls-8" d="M92.3,136.2c-1.5-7-4.3-13.9-4.9-20.8,0-2.2,1.4-3.8,3.2-1.6.9,1.1,1.5,2.9,1.9,4.3.9,3.5,2,7.3,2.7,10.8.6,2.9-.4,4.8-2.5,6.8"/>
        <g>
          <path class="cls-18" d="M112.1,141.9c0-1.1-4.5-2.2-9-2.2s-6.7.9-8.2,2"/>
          <polygon class="cls-18" points="95.7 142.1 94.1 143 94.3 141.2 95.7 142.1 95.7 142.1"/>
        </g>
        <polygon class="cls-21" points="93.1 144.6 97.7 143.1 94 139.9 93.1 144.6"/>
      </g>
      <path class="cls-14" d="M29.6,176c.9-3,2.7-6.6,2.9-9.8,0-1.6-1.1-3.3-2.2-4.9-1.5-2.8-2.7-5.8-5.3-7.9-1.7-1.8-1.7-4.5-3.4-6.4-1.1-1.2-2.6-2.3-4.1-3.1-1.5-.7-2.8-1.2-3.6-2.5-.6-.9,0-1.8.9-2.1,2.5-1,5.9.7,7.9,2.6,1.5,1.3,2.6,3,3.7,4.7,1,1.6,2,2.1,2.9.4,2.5-4.4,1.7-9.7.4-14.4-.5-2.2-.6-4.5-1.2-6.6-.7-2.3-1.5-4.6-1.9-7-.3-1.4.6-3.5,2.2-2.6.8.5,1.5,1.5,1.9,2.4,2.2,3.6,1.2,7.6,3.4,11,.5.9,1.2,2.4,1.7,3.1,1.5,1.8,2.4-1.8,2.6-3,.5-5.3,0-10.5.2-15.8-.2-4,4.8-4.6,5-.5.1,6.5,0,13,0,19.4,0,.8.3,1,.8.3,1-1.4,1.6-3.5,1.7-5.2,0-2.8,0-5.4,1.3-7.9,1.2-2,1.7-6.3,4.1-6.4,3.6,1.3.2,7.8.7,10.8,0,3-1.8,5.8-1.3,8.8.2,1,.5,1.9,1.6,1.7,3.6-.7,5-12.1,8.5-10.5,3.8,3.8-4.7,13.4-5.7,17.4-.5,2.1-.2,4.1-.4,6.2-.3,2.7-.8,5.3-1.3,8-2,9.2-5.3,9-3.7,19.7"/>
      <path class="cls-11" d="M28.6,122.7c1,0,1.8-.2,2.5-.7"/>
      <path class="cls-11" d="M29.6,126.9c1,0,1.8-.2,2.6-.7"/>
      <path class="cls-11" d="M30.3,126.2c.5,0,.9,0,1.2-.3"/>
      <path class="cls-11" d="M39.8,119c.9.3,1.8.3,2.6,0"/>
      <path class="cls-11" d="M39.9,125.7c.9.3,1.8.3,2.6,0"/>
      <path class="cls-11" d="M48.2,127.2c.9.3,1.8.3,2.6,0"/>
      <path class="cls-11" d="M48.6,120c.9.3,1.8.3,2.6,0"/>
      <path class="cls-11" d="M57.8,129.2c.7.6,1.5,1,2.5,1"/>
      <path class="cls-11" d="M55.8,132.9c.7.6,1.5,1,2.5,1"/>
      <path class="cls-11" d="M40.6,124.7c.4.2.8.2,1.2,0"/>
      <path class="cls-11" d="M48.9,126.7c.4.2.8.2,1.2,0"/>
      <path class="cls-11" d="M56.7,132.6c.4.3.8.4,1.2.4"/>
      <path class="cls-15" d="M28.6,115.7c-1.7.3-1.6,1-1.5,3,0,1.2,2.6,0,3.2-.2.2,0,.4-.2.5-.5,0-.4-.6-1.5-1-1.9-.8-.8-1.7,0-2.6.3"/>
      <path class="cls-15" d="M41.8,110.5c-2.3,0-2.4,1-2.8,3.8-.3,1.7,3.3.7,4,.6.2,0,.6-.2.7-.5.2-.6-.3-2.2-.6-2.9-.7-1.4-2.1-.6-3.4-.2"/>
      <path class="cls-16" d="M52.8,113.4c-1.9-.5-2.3.3-3.6,2.9-.8,1.5,2.5,1.5,3.2,1.5.2,0,.6,0,.8-.3.4-.5.5-2.2.4-2.8-.2-1.5-1.6-1.1-2.8-1"/>
      <path class="cls-12" d="M61.4,124.3c-1.9-.5-2.3.3-3.6,2.9-.8,1.5,2.5,1.5,3.2,1.5.2,0,.6,0,.8-.3.4-.5.5-2.2.4-2.8-.2-1.5-1.6-1.1-2.8-1"/>
      <path class="cls-8" d="M51.6,139.3c2.7-4.8,4.5-10.3,8-14.4,1.2-1.2,3.3-1.2,3.5,1.1,0,1.2-.4,2.5-.9,3.5-1.2,2.5-2.6,5.2-4,7.6-1.2,1.9-3,2.4-5.8,2.1"/>
      <path class="cls-8" d="M44.8,136.1c1.7-6.9,2.3-14.4,4.8-20.8.9-2,3-2.8,3.7,0,.3,1.4,0,3.2-.2,4.7-.7,3.5-1.4,7.4-2.3,10.9-.8,2.8-2.5,4.1-5.3,4.9"/>
      <path class="cls-8" d="M39,133.3c.4-7.1-.4-14.6.9-21.4.5-2.1,2.5-3.3,3.6-.7.6,1.3.7,3.2.7,4.6,0,3.6,0,7.6-.3,11.1-.2,2.9-1.7,4.5-4.3,5.8"/>
      <path class="cls-8" d="M31.8,139.8c-1.5-7-4.3-13.9-4.9-20.8-.1-2.2,1.5-3.8,3.2-1.6.9,1.1,1.5,2.9,1.9,4.3.9,3.5,2,7.3,2.7,10.8.6,2.9-.4,4.8-2.5,6.8"/>
      <g>
        <path class="cls-18" d="M50.5,143.9c0-1.1-4.5-2.2-9-2.2s-6.7.9-8.2,2"/>
        <polygon class="cls-18" points="34.1 144.1 32.5 145 32.7 143.1 34.1 144.1 34.1 144.1"/>
      </g>
      <polygon class="cls-21" points="48.5 145.6 53 144 49.4 140.9 48.5 145.6"/>
      <g>
        <g>
          <path class="cls-18" d="M102.6,267.4c-.6-.4-2.9,1.2-4.8,3.3-1.3,1.5-2.2,3.3-2.3,4.4"/>
          <polygon class="cls-18" points="96 274.8 95.8 275.9 95 275.1 96 274.8 96 274.8"/>
        </g>
        <polygon class="cls-21" points="102.7 268.9 103.7 266.3 100.6 266.8 102.7 268.9"/>
      </g>
      <g>
        <g>
          <path class="cls-18" d="M176.4,265.4c-.6-.4-2.9,1.2-4.8,3.3-1.4,1.5-2.2,3.3-2.3,4.4"/>
          <polygon class="cls-18" points="169.8 272.8 169.6 273.8 168.8 273.1 169.8 272.8 169.8 272.8"/>
        </g>
        <polygon class="cls-21" points="176.4 266.9 177.5 264.3 174.4 264.8 176.4 266.9"/>
      </g>
      <g>
        <g>
          <path class="cls-18" d="M252.4,265.4c-.6-.4-2.9,1.2-4.8,3.3-1.4,1.5-2.2,3.3-2.3,4.4"/>
          <polygon class="cls-18" points="245.8 272.8 245.6 273.8 244.8 273.1 245.8 272.8 245.8 272.8"/>
        </g>
        <polygon class="cls-21" points="252.4 266.9 253.5 264.3 250.4 264.8 252.4 266.9"/>
      </g>
      <g>
        <g>
          <path class="cls-18" d="M328.4,265.4c-.6-.4-3,1.2-4.8,3.3-1.4,1.5-2.2,3.3-2.3,4.4"/>
          <polygon class="cls-18" points="321.8 272.8 321.6 273.8 320.8 273.1 321.8 272.8 321.8 272.8"/>
        </g>
        <polygon class="cls-21" points="328.4 266.9 329.5 264.3 326.4 264.8 328.4 266.9"/>
      </g>
      <g class="cls-5">
        <text class="cls-1" transform="translate(7.2 201.6)"><tspan x="0" y="0">Bend Set</tspan></text>
      </g>
      <g class="cls-5">
        <text class="cls-1" transform="translate(7.2 344.6)"><tspan x="0" y="0">Multi-Finger Set</tspan></text>
      </g>
      <g>
        <path class="cls-13" d="M71.6,224.9c-7.3,2.9-13.7,1.4-20-3.2-5.2-3.6-10.5-8.5-14.7-13-3.6-3.3-4.3,3.3-3.1,5.6.9,2.8,3.6,4.6,5.4,6.7,2.8,3.5-.7,4.5-3.7,4.2-5.3-.3-10.4-2.2-15.5-3.7-3.5-.7-7.3-2.5-10.6-1.2-2.1,1.4-.4,3.6,1.5,4.8,3.8,2,8.7,2.4,12.6,4.3,6.3,3.3-3.4,3.6-6.2,3.6-3.8.2-9.5-.7-12.2,1.5-1.4,1.1-1.2,2.9.3,3.9,2.4,1.6,5.7,1.2,8.6,1.2,2.3,0,4.9,0,7.2,0,5.6.4,3.7,1.6-.5,2.3-3.2.9-14.9,1.2-14.6,5.4,2.1,5.2,12.5.7,16.5,0,1.9-.4,4.7-1.2,6.2,0,.7,2.2-7.2,3.9-8.8,5.1-2.5,1.4-4.4,3.4-3.3,5.3,4.5,4.5,14.1-6,19.3-6.6,4.7-1.1,9.7-.2,14.5-1,2.9-.4,5.4-1.8,8-3,4-1.9,8.6-1.8,13-1.8"/>
        <path class="cls-20" d="M61.1,242.5c0-4-1.1-7.8-.4-11.6"/>
        <path class="cls-19" d="M35.5,232.7c-.2,4.9,1.7,9.7,4.5,13.6"/>
        <path class="cls-19" d="M37.9,227c-.6,5.9,3.1,10.9,6.4,15.5"/>
        <path class="cls-19" d="M40.1,230.8c4.4,4.7,11.4,5.9,17.6,5.8"/>
        <path class="cls-13" d="M63.6,234.7h2.6"/>
        <path class="cls-13" d="M63.6,239.6h2.6"/>
        <path class="cls-20" d="M33.2,252c-2-2.5-4-5-5-8.1-.8-2.4-2-4.7-2.6-7.1-.9-4.2,1.1-8.6,3.6-12"/>
        <path class="cls-20" d="M51.9,222.1c-1.5-1.1-3.5-2-5.4-1.6-1.1.3-2.1.8-3.2,1.1-1.4.5-2.5,1.4-3.7,2.3"/>
        <path class="cls-17" d="M14.6,225.4l.9-3.7"/>
        <path class="cls-17" d="M19.9,226.7l.9-3.7"/>
        <g>
          <path class="cls-17" d="M22.1,257.4c-.4-.8-1.4-2.9-1.6-3.5"/>
          <path class="cls-17" d="M27.1,255.2l-1.6-3.5"/>
        </g>
        <g>
          <path class="cls-17" d="M14.4,248.2l-.9-3.7"/>
          <path class="cls-17" d="M19.7,247.1l-.9-3.7"/>
        </g>
        <g>
          <path class="cls-17" d="M12.8,238.1v-3.8"/>
          <path class="cls-17" d="M18.3,238.3v-3.8"/>
        </g>
      </g>
      <g>
        <path class="cls-13" d="M147.2,224.9c-7.3,2.9-13.7,1.4-19.9-3.2-5.2-3.6-10.5-8.5-14.7-13-3.6-3.3-4.3,3.3-3.1,5.6.9,2.8,3.6,4.6,5.4,6.7,2.8,3.5-.7,4.5-3.7,4.2-5.3-.3-10.4-2.2-15.5-3.7-3.5-.7-7.3-2.5-10.7-1.2-2.1,1.4-.4,3.6,1.5,4.8,3.8,2,8.7,2.4,12.6,4.3,6.3,3.3-3.4,3.6-6.2,3.6-3.8.2-9.5-.7-12.2,1.5-1.4,1.1-1.2,2.9.3,3.9,2.4,1.6,5.7,1.2,8.6,1.2,2.3,0,4.9,0,7.2,0,5.6.4,3.7,1.6-.5,2.3-3.2.9-14.9,1.2-14.6,5.4,2.1,5.2,12.4.7,16.5,0,1.9-.4,4.7-1.2,6.2,0,.7,2.2-7.2,3.9-8.8,5.1-2.5,1.4-4.4,3.4-3.3,5.3,4.5,4.5,14.1-6,19.3-6.6,4.7-1.1,9.7-.2,14.5-1,2.9-.4,5.4-1.8,8-3,4.1-1.9,8.6-1.8,13-1.8"/>
        <path class="cls-20" d="M136.7,242.5c0-4-1.1-7.8-.4-11.6"/>
        <path class="cls-19" d="M111.1,232.7c-.2,4.9,1.7,9.7,4.5,13.6"/>
        <path class="cls-19" d="M113.5,227c-.6,5.9,3.1,10.9,6.4,15.5"/>
        <path class="cls-19" d="M115.7,230.8c4.4,4.7,11.4,5.9,17.6,5.8"/>
        <path class="cls-13" d="M139.2,234.7h2.6"/>
        <path class="cls-13" d="M139.2,239.6h2.6"/>
        <path class="cls-20" d="M108.8,252c-2-2.5-4-5-5-8.1-.8-2.4-2-4.7-2.6-7.1-.9-4.2,1.1-8.6,3.6-12"/>
        <path class="cls-20" d="M127.5,222.1c-1.6-1.1-3.5-2-5.4-1.6-1.1.3-2.1.8-3.2,1.1-1.4.5-2.5,1.4-3.7,2.3"/>
        <path class="cls-17" d="M90.2,225.4l.9-3.7"/>
        <path class="cls-17" d="M95.5,226.7l.9-3.7"/>
        <g>
          <path class="cls-17" d="M97.7,257.4c-.4-.8-1.4-2.9-1.7-3.5"/>
          <path class="cls-17" d="M102.7,255.2l-1.7-3.5"/>
        </g>
        <g>
          <path class="cls-17" d="M90,248.2l-.9-3.7"/>
          <path class="cls-17" d="M95.3,247.1l-.9-3.7"/>
        </g>
        <g>
          <path class="cls-17" d="M88.4,238.1v-3.8"/>
          <path class="cls-17" d="M93.9,238.3v-3.8"/>
        </g>
      </g>
      <g>
        <path class="cls-13" d="M222.8,224.9c-7.3,2.9-13.7,1.4-19.9-3.2-5.2-3.6-10.5-8.5-14.7-13-3.6-3.3-4.3,3.3-3.1,5.6.9,2.8,3.6,4.6,5.4,6.7,2.8,3.5-.7,4.5-3.7,4.2-5.3-.3-10.4-2.2-15.5-3.7-3.5-.7-7.3-2.5-10.6-1.2-2.1,1.4-.4,3.6,1.5,4.8,3.8,2,8.7,2.4,12.6,4.3,6.3,3.3-3.4,3.6-6.2,3.6-3.8.2-9.5-.7-12.2,1.5-1.4,1.1-1.2,2.9.3,3.9,2.4,1.6,5.7,1.2,8.6,1.2,2.3,0,4.9,0,7.2,0,5.6.4,3.7,1.6-.5,2.3-3.2.9-14.9,1.2-14.6,5.4,2.1,5.2,12.4.7,16.5,0,1.9-.4,4.7-1.2,6.2,0,.7,2.2-7.2,3.9-8.8,5.1-2.5,1.4-4.4,3.4-3.3,5.3,4.5,4.5,14.1-6,19.3-6.6,4.7-1.1,9.7-.2,14.5-1,2.9-.4,5.4-1.8,8-3,4.1-1.9,8.6-1.8,13-1.8"/>
        <path class="cls-20" d="M212.3,242.5c0-4-1.1-7.8-.4-11.6"/>
        <path class="cls-19" d="M186.7,232.7c-.2,4.9,1.7,9.7,4.5,13.6"/>
        <path class="cls-19" d="M189.1,227c-.6,5.9,3.1,10.9,6.4,15.5"/>
        <path class="cls-19" d="M191.2,230.8c4.4,4.7,11.4,5.9,17.6,5.8"/>
        <path class="cls-13" d="M214.8,234.7h2.6"/>
        <path class="cls-13" d="M214.8,239.6h2.6"/>
        <path class="cls-20" d="M184.4,252c-2-2.5-4-5-5-8.1-.8-2.4-2-4.7-2.6-7.1-.9-4.2,1.1-8.6,3.6-12"/>
        <path class="cls-20" d="M203.1,222.1c-1.6-1.1-3.5-2-5.4-1.6-1.1.3-2.1.8-3.2,1.1-1.4.5-2.5,1.4-3.6,2.3"/>
        <path class="cls-17" d="M165.8,225.4l.9-3.7"/>
        <path class="cls-17" d="M171.1,226.7l.9-3.7"/>
        <g>
          <path class="cls-17" d="M173.3,257.4c-.4-.8-1.4-2.9-1.6-3.5"/>
          <path class="cls-17" d="M178.3,255.2l-1.6-3.5"/>
        </g>
        <g>
          <path class="cls-17" d="M165.6,248.2l-.9-3.7"/>
          <path class="cls-17" d="M170.9,247.1c-.2-.8-.7-3.1-.9-3.7"/>
        </g>
        <g>
          <path class="cls-17" d="M164,238.1v-3.8"/>
          <path class="cls-17" d="M169.5,238.3v-3.8"/>
        </g>
      </g>
      <g>
        <path class="cls-13" d="M298.4,224.9c-7.3,2.9-13.7,1.4-20-3.2-5.2-3.6-10.5-8.5-14.7-13-3.6-3.3-4.3,3.3-3.1,5.6.9,2.8,3.6,4.6,5.4,6.7,2.8,3.5-.7,4.5-3.7,4.2-5.3-.3-10.4-2.2-15.5-3.7-3.5-.7-7.3-2.5-10.6-1.2-2.1,1.4-.4,3.6,1.5,4.8,3.8,2,8.7,2.4,12.6,4.3,6.3,3.3-3.4,3.6-6.2,3.6-3.8.2-9.5-.7-12.2,1.5-1.4,1.1-1.2,2.9.3,3.9,2.4,1.6,5.7,1.2,8.6,1.2,2.3,0,4.9,0,7.2,0,5.6.4,3.7,1.6-.5,2.3-3.2.9-14.9,1.2-14.6,5.4,2.1,5.2,12.4.7,16.5,0,1.9-.4,4.7-1.2,6.2,0,.7,2.2-7.2,3.9-8.8,5.1-2.5,1.4-4.4,3.4-3.3,5.3,4.5,4.5,14.1-6,19.3-6.6,4.7-1.1,9.7-.2,14.5-1,2.9-.4,5.4-1.8,8-3,4-1.9,8.6-1.8,13-1.8"/>
        <path class="cls-20" d="M287.9,242.5c0-4-1.1-7.8-.4-11.6"/>
        <path class="cls-19" d="M262.3,232.7c-.2,4.9,1.7,9.7,4.5,13.6"/>
        <path class="cls-19" d="M264.7,227c-.6,5.9,3.1,10.9,6.4,15.5"/>
        <path class="cls-19" d="M266.8,230.8c4.4,4.7,11.4,5.9,17.6,5.8"/>
        <path class="cls-13" d="M290.3,234.7h2.6"/>
        <path class="cls-13" d="M290.3,239.6h2.6"/>
        <path class="cls-20" d="M260,252c-2-2.5-4-5-5-8.1-.8-2.4-2-4.7-2.6-7.1-.9-4.2,1.1-8.6,3.6-12"/>
        <path class="cls-20" d="M278.7,222.1c-1.5-1.1-3.5-2-5.4-1.6-1.1.3-2.1.8-3.2,1.1-1.4.5-2.5,1.4-3.6,2.3"/>
        <path class="cls-17" d="M241.4,225.4l.9-3.7"/>
        <path class="cls-17" d="M246.6,226.7l.9-3.7"/>
        <g>
          <path class="cls-17" d="M248.9,257.4c-.4-.8-1.4-2.9-1.6-3.5"/>
          <path class="cls-17" d="M253.9,255.2c-.4-.8-1.4-2.9-1.6-3.5"/>
        </g>
        <g>
          <path class="cls-17" d="M241.1,248.2c-.2-.8-.7-3.1-.9-3.7"/>
          <path class="cls-17" d="M246.5,247.1c-.2-.8-.7-3.1-.9-3.7"/>
        </g>
        <g>
          <path class="cls-17" d="M239.6,238.1v-3.8"/>
          <path class="cls-17" d="M245.1,238.3c0-.9,0-3.2,0-3.8"/>
        </g>
      </g>
      <g>
        <path class="cls-13" d="M374.8,224.9c-7.3,2.9-13.7,1.4-20-3.2-5.2-3.6-10.5-8.5-14.7-13-3.6-3.3-4.3,3.3-3.1,5.6.9,2.8,3.6,4.6,5.4,6.7,2.8,3.5-.7,4.5-3.7,4.2-5.3-.3-10.4-2.2-15.5-3.7-3.5-.7-7.3-2.5-10.6-1.2-2.1,1.4-.4,3.6,1.5,4.8,3.8,2,8.7,2.4,12.6,4.3,6.3,3.3-3.4,3.6-6.2,3.6-3.8.2-9.5-.7-12.2,1.5-1.4,1.1-1.2,2.9.3,3.9,2.4,1.6,5.7,1.2,8.6,1.2,2.3,0,4.9,0,7.2,0,5.6.4,3.7,1.6-.5,2.3-3.2.9-14.9,1.2-14.6,5.4,2,5.2,12.5.7,16.5,0,1.9-.4,4.7-1.2,6.2,0,.7,2.2-7.2,3.9-8.8,5.1-2.5,1.4-4.4,3.4-3.3,5.3,4.5,4.5,14.1-6,19.3-6.6,4.7-1.1,9.7-.2,14.5-1,2.9-.4,5.4-1.8,8-3,4-1.9,8.6-1.8,13-1.8"/>
        <path class="cls-20" d="M364.3,242.5c0-4-1.1-7.8-.4-11.6"/>
        <path class="cls-19" d="M338.8,232.7c-.2,4.9,1.7,9.7,4.5,13.6"/>
        <path class="cls-19" d="M341.1,227c-.6,5.9,3.1,10.9,6.4,15.5"/>
        <path class="cls-19" d="M343.3,230.8c4.4,4.7,11.4,5.9,17.6,5.8"/>
        <path class="cls-13" d="M366.8,234.7h2.6"/>
        <path class="cls-13" d="M366.8,239.6h2.6"/>
        <path class="cls-20" d="M336.4,252c-2-2.5-4-5-5-8.1-.8-2.4-2-4.7-2.6-7.1-.9-4.2,1.1-8.6,3.6-12"/>
        <path class="cls-20" d="M355.1,222.1c-1.5-1.1-3.5-2-5.4-1.6-1.1.3-2.1.8-3.2,1.1-1.4.5-2.5,1.4-3.6,2.3"/>
        <path class="cls-17" d="M317.8,225.4l.9-3.7"/>
        <path class="cls-17" d="M323.1,226.7l.9-3.7"/>
        <g>
          <path class="cls-17" d="M325.4,257.4l-1.6-3.5"/>
          <path class="cls-17" d="M330.3,255.2c-.4-.8-1.4-2.9-1.6-3.5"/>
        </g>
        <g>
          <path class="cls-17" d="M317.6,248.2l-.9-3.7"/>
          <path class="cls-17" d="M322.9,247.1c-.2-.8-.7-3.1-.9-3.7"/>
        </g>
        <g>
          <path class="cls-17" d="M316,238.1c0-.9,0-3.2,0-3.8"/>
          <path class="cls-17" d="M321.5,238.3v-3.8"/>
        </g>
      </g>
      <g>
        <path class="cls-13" d="M71.6,281.3c-7.3,2.9-13.7,1.4-20-3.2-5.2-3.5-10.5-8.5-14.7-13-3.6-3.3-4.3,3.3-3.1,5.6.9,2.8,3.6,4.5,5.4,6.7,2.8,3.5-.7,4.5-3.7,4.2-5.3-.3-10.4-2.2-15.5-3.7-3.5-.7-7.3-2.5-10.6-1.2-2.1,1.4-.4,3.6,1.5,4.8,3.8,2,8.7,2.4,12.6,4.3,6.3,3.3-3.4,3.6-6.2,3.5-3.8.2-9.5-.7-12.2,1.5-1.4,1.1-1.2,2.9.3,3.9,2.4,1.6,5.7,1.2,8.6,1.2,2.3,0,4.9,0,7.2,0,5.6.4,3.7,1.6-.5,2.3-3.2.9-14.9,1.2-14.6,5.4,2.1,5.2,12.5.7,16.5,0,1.9-.4,4.7-1.2,6.2,0,.7,2.2-7.2,3.9-8.8,5.1-2.5,1.4-4.4,3.4-3.3,5.3,4.5,4.5,14.1-6,19.3-6.6,4.7-1.1,9.7-.2,14.5-1,2.9-.4,5.4-1.8,8-3,4-1.9,8.6-1.8,13-1.8"/>
        <path class="cls-20" d="M61.1,298.8c0-4-1.1-7.8-.4-11.6"/>
        <path class="cls-19" d="M35.5,289c-.2,4.9,1.7,9.7,4.5,13.6"/>
        <path class="cls-19" d="M37.9,283.3c-.6,5.9,3.1,10.9,6.4,15.5"/>
        <path class="cls-19" d="M40.1,287.2c4.4,4.7,11.4,5.9,17.6,5.8"/>
        <path class="cls-13" d="M63.6,291h2.6"/>
        <path class="cls-13" d="M63.6,295.9h2.6"/>
        <path class="cls-20" d="M33.2,308.3c-2-2.5-4-5-5-8.1-.8-2.4-2-4.7-2.6-7.1-.9-4.2,1.1-8.6,3.6-12"/>
        <path class="cls-20" d="M51.9,278.5c-1.5-1.1-3.5-2-5.4-1.6-1.1.3-2.1.8-3.2,1.1-1.4.5-2.5,1.4-3.7,2.3"/>
        <path class="cls-17" d="M14.6,281.7l.9-3.7"/>
        <path class="cls-17" d="M19.9,283.1l.9-3.7"/>
        <g>
          <path class="cls-17" d="M22.1,313.7c-.4-.8-1.4-2.9-1.6-3.5"/>
          <path class="cls-17" d="M27.1,311.5l-1.6-3.5"/>
        </g>
        <g>
          <path class="cls-17" d="M14.4,304.6l-.9-3.7"/>
          <path class="cls-17" d="M19.7,303.4l-.9-3.7"/>
        </g>
        <g>
          <path class="cls-17" d="M12.8,294.4v-3.8"/>
          <path class="cls-17" d="M18.3,294.6v-3.8"/>
        </g>
      </g>
      <g>
        <path class="cls-13" d="M147.2,281.3c-7.3,2.9-13.7,1.4-19.9-3.2-5.2-3.5-10.5-8.5-14.7-13-3.6-3.3-4.3,3.3-3.1,5.6.9,2.8,3.6,4.5,5.4,6.7,2.8,3.5-.7,4.5-3.7,4.2-5.3-.3-10.4-2.2-15.5-3.7-3.5-.7-7.3-2.5-10.7-1.2-2.1,1.4-.4,3.6,1.5,4.8,3.8,2,8.7,2.4,12.6,4.3,6.3,3.3-3.4,3.6-6.2,3.5-3.8.2-9.5-.7-12.2,1.5-1.4,1.1-1.2,2.9.3,3.9,2.4,1.6,5.7,1.2,8.6,1.2,2.3,0,4.9,0,7.2,0,5.6.4,3.7,1.6-.5,2.3-3.2.9-14.9,1.2-14.6,5.4,2.1,5.2,12.4.7,16.5,0,1.9-.4,4.7-1.2,6.2,0,.7,2.2-7.2,3.9-8.8,5.1-2.5,1.4-4.4,3.4-3.3,5.3,4.5,4.5,14.1-6,19.3-6.6,4.7-1.1,9.7-.2,14.5-1,2.9-.4,5.4-1.8,8-3,4.1-1.9,8.6-1.8,13-1.8"/>
        <path class="cls-20" d="M136.7,298.8c0-4-1.1-7.8-.4-11.6"/>
        <path class="cls-19" d="M111.1,289c-.2,4.9,1.7,9.7,4.5,13.6"/>
        <path class="cls-19" d="M113.5,283.3c-.6,5.9,3.1,10.9,6.4,15.5"/>
        <path class="cls-19" d="M115.7,287.2c4.4,4.7,11.4,5.9,17.6,5.8"/>
        <path class="cls-13" d="M139.2,291h2.6"/>
        <path class="cls-13" d="M139.2,295.9h2.6"/>
        <path class="cls-20" d="M108.8,308.3c-2-2.5-4-5-5-8.1-.8-2.4-2-4.7-2.6-7.1-.9-4.2,1.1-8.6,3.6-12"/>
        <path class="cls-20" d="M127.5,278.5c-1.6-1.1-3.5-2-5.4-1.6-1.1.3-2.1.8-3.2,1.1-1.4.5-2.5,1.4-3.7,2.3"/>
        <path class="cls-17" d="M90.2,281.7l.9-3.7"/>
        <path class="cls-17" d="M95.5,283.1l.9-3.7"/>
        <g>
          <path class="cls-17" d="M97.7,313.7c-.4-.8-1.4-2.9-1.7-3.5"/>
          <path class="cls-17" d="M102.7,311.5l-1.7-3.5"/>
        </g>
        <g>
          <path class="cls-17" d="M90,304.6l-.9-3.7"/>
          <path class="cls-17" d="M95.3,303.4l-.9-3.7"/>
        </g>
        <g>
          <path class="cls-17" d="M88.4,294.4v-3.8"/>
          <path class="cls-17" d="M93.9,294.6v-3.8"/>
        </g>
      </g>
      <g>
        <path class="cls-13" d="M222.8,281.3c-7.3,2.9-13.7,1.4-19.9-3.2-5.2-3.5-10.5-8.5-14.7-13-3.6-3.3-4.3,3.3-3.1,5.6.9,2.8,3.6,4.5,5.4,6.7,2.8,3.5-.7,4.5-3.7,4.2-5.3-.3-10.4-2.2-15.5-3.7-3.5-.7-7.3-2.5-10.6-1.2-2.1,1.4-.4,3.6,1.5,4.8,3.8,2,8.7,2.4,12.6,4.3,6.3,3.3-3.4,3.6-6.2,3.5-3.8.2-9.5-.7-12.2,1.5-1.4,1.1-1.2,2.9.3,3.9,2.4,1.6,5.7,1.2,8.6,1.2,2.3,0,4.9,0,7.2,0,5.6.4,3.7,1.6-.5,2.3-3.2.9-14.9,1.2-14.6,5.4,2.1,5.2,12.4.7,16.5,0,1.9-.4,4.7-1.2,6.2,0,.7,2.2-7.2,3.9-8.8,5.1-2.5,1.4-4.4,3.4-3.3,5.3,4.5,4.5,14.1-6,19.3-6.6,4.7-1.1,9.7-.2,14.5-1,2.9-.4,5.4-1.8,8-3,4.1-1.9,8.6-1.8,13-1.8"/>
        <path class="cls-20" d="M212.3,298.8c0-4-1.1-7.8-.4-11.6"/>
        <path class="cls-19" d="M186.7,289c-.2,4.9,1.7,9.7,4.5,13.6"/>
        <path class="cls-19" d="M189.1,283.3c-.6,5.9,3.1,10.9,6.4,15.5"/>
        <path class="cls-19" d="M191.2,287.2c4.4,4.7,11.4,5.9,17.6,5.8"/>
        <path class="cls-13" d="M214.8,291h2.6"/>
        <path class="cls-13" d="M214.8,295.9h2.6"/>
        <path class="cls-20" d="M184.4,308.3c-2-2.5-4-5-5-8.1-.8-2.4-2-4.7-2.6-7.1-.9-4.2,1.1-8.6,3.6-12"/>
        <path class="cls-20" d="M203.1,278.5c-1.6-1.1-3.5-2-5.4-1.6-1.1.3-2.1.8-3.2,1.1-1.4.5-2.5,1.4-3.6,2.3"/>
        <path class="cls-17" d="M165.8,281.7l.9-3.7"/>
        <path class="cls-17" d="M171.1,283.1l.9-3.7"/>
        <g>
          <path class="cls-17" d="M173.3,313.7c-.4-.8-1.4-2.9-1.6-3.5"/>
          <path class="cls-17" d="M178.3,311.5l-1.6-3.5"/>
        </g>
        <g>
          <path class="cls-17" d="M165.6,304.6l-.9-3.7"/>
          <path class="cls-17" d="M170.9,303.4c-.2-.8-.7-3.1-.9-3.7"/>
        </g>
        <g>
          <path class="cls-17" d="M164,294.4v-3.8"/>
          <path class="cls-17" d="M169.5,294.6v-3.8"/>
        </g>
      </g>
      <g>
        <path class="cls-13" d="M298.4,281.3c-7.3,2.9-13.7,1.4-20-3.2-5.2-3.5-10.5-8.5-14.7-13-3.6-3.3-4.3,3.3-3.1,5.6.9,2.8,3.6,4.5,5.4,6.7,2.8,3.5-.7,4.5-3.7,4.2-5.3-.3-10.4-2.2-15.5-3.7-3.5-.7-7.3-2.5-10.6-1.2-2.1,1.4-.4,3.6,1.5,4.8,3.8,2,8.7,2.4,12.6,4.3,6.3,3.3-3.4,3.6-6.2,3.5-3.8.2-9.5-.7-12.2,1.5-1.4,1.1-1.2,2.9.3,3.9,2.4,1.6,5.7,1.2,8.6,1.2,2.3,0,4.9,0,7.2,0,5.6.4,3.7,1.6-.5,2.3-3.2.9-14.9,1.2-14.6,5.4,2.1,5.2,12.4.7,16.5,0,1.9-.4,4.7-1.2,6.2,0,.7,2.2-7.2,3.9-8.8,5.1-2.5,1.4-4.4,3.4-3.3,5.3,4.5,4.5,14.1-6,19.3-6.6,4.7-1.1,9.7-.2,14.5-1,2.9-.4,5.4-1.8,8-3,4-1.9,8.6-1.8,13-1.8"/>
        <path class="cls-20" d="M287.9,298.8c0-4-1.1-7.8-.4-11.6"/>
        <path class="cls-19" d="M262.3,289c-.2,4.9,1.7,9.7,4.5,13.6"/>
        <path class="cls-19" d="M264.7,283.3c-.6,5.9,3.1,10.9,6.4,15.5"/>
        <path class="cls-19" d="M266.8,287.2c4.4,4.7,11.4,5.9,17.6,5.8"/>
        <path class="cls-13" d="M290.3,291h2.6"/>
        <path class="cls-13" d="M290.3,295.9h2.6"/>
        <path class="cls-20" d="M260,308.3c-2-2.5-4-5-5-8.1-.8-2.4-2-4.7-2.6-7.1-.9-4.2,1.1-8.6,3.6-12"/>
        <path class="cls-20" d="M278.7,278.5c-1.5-1.1-3.5-2-5.4-1.6-1.1.3-2.1.8-3.2,1.1-1.4.5-2.5,1.4-3.6,2.3"/>
        <path class="cls-17" d="M241.4,281.7l.9-3.7"/>
        <path class="cls-17" d="M246.6,283.1l.9-3.7"/>
        <g>
          <path class="cls-17" d="M248.9,313.7c-.4-.8-1.4-2.9-1.6-3.5"/>
          <path class="cls-17" d="M253.9,311.5c-.4-.8-1.4-2.9-1.6-3.5"/>
        </g>
        <g>
          <path class="cls-17" d="M241.1,304.6c-.2-.8-.7-3.1-.9-3.7"/>
          <path class="cls-17" d="M246.5,303.4c-.2-.8-.7-3.1-.9-3.7"/>
        </g>
        <g>
          <path class="cls-17" d="M239.6,294.4v-3.8"/>
          <path class="cls-17" d="M245.1,294.6c0-.9,0-3.2,0-3.8"/>
        </g>
      </g>
      <g>
        <path class="cls-13" d="M374.8,281.3c-7.3,2.9-13.7,1.4-20-3.2-5.2-3.5-10.5-8.5-14.7-13-3.6-3.3-4.3,3.3-3.1,5.6.9,2.8,3.6,4.5,5.4,6.7,2.8,3.5-.7,4.5-3.7,4.2-5.3-.3-10.4-2.2-15.5-3.7-3.5-.7-7.3-2.5-10.6-1.2-2.1,1.4-.4,3.6,1.5,4.8,3.8,2,8.7,2.4,12.6,4.3,6.3,3.3-3.4,3.6-6.2,3.5-3.8.2-9.5-.7-12.2,1.5-1.4,1.1-1.2,2.9.3,3.9,2.4,1.6,5.7,1.2,8.6,1.2,2.3,0,4.9,0,7.2,0,5.6.4,3.7,1.6-.5,2.3-3.2.9-14.9,1.2-14.6,5.4,2,5.2,12.5.7,16.5,0,1.9-.4,4.7-1.2,6.2,0,.7,2.2-7.2,3.9-8.8,5.1-2.5,1.4-4.4,3.4-3.3,5.3,4.5,4.5,14.1-6,19.3-6.6,4.7-1.1,9.7-.2,14.5-1,2.9-.4,5.4-1.8,8-3,4-1.9,8.6-1.8,13-1.8"/>
        <path class="cls-20" d="M364.3,298.8c0-4-1.1-7.8-.4-11.6"/>
        <path class="cls-19" d="M338.8,289c-.2,4.9,1.7,9.7,4.5,13.6"/>
        <path class="cls-19" d="M341.1,283.3c-.6,5.9,3.1,10.9,6.4,15.5"/>
        <path class="cls-19" d="M343.3,287.2c4.4,4.7,11.4,5.9,17.6,5.8"/>
        <path class="cls-13" d="M366.8,291h2.6"/>
        <path class="cls-13" d="M366.8,295.9h2.6"/>
        <path class="cls-20" d="M336.4,308.3c-2-2.5-4-5-5-8.1-.8-2.4-2-4.7-2.6-7.1-.9-4.2,1.1-8.6,3.6-12"/>
        <path class="cls-20" d="M355.1,278.5c-1.5-1.1-3.5-2-5.4-1.6-1.1.3-2.1.8-3.2,1.1-1.4.5-2.5,1.4-3.6,2.3"/>
        <path class="cls-17" d="M317.8,281.7l.9-3.7"/>
        <path class="cls-17" d="M323.1,283.1l.9-3.7"/>
        <g>
          <path class="cls-17" d="M325.4,313.7l-1.6-3.5"/>
          <path class="cls-17" d="M330.3,311.5c-.4-.8-1.4-2.9-1.6-3.5"/>
        </g>
        <g>
          <path class="cls-17" d="M317.6,304.6l-.9-3.7"/>
          <path class="cls-17" d="M322.9,303.4c-.2-.8-.7-3.1-.9-3.7"/>
        </g>
        <g>
          <path class="cls-17" d="M316,294.4c0-.9,0-3.2,0-3.8"/>
          <path class="cls-17" d="M321.5,294.6v-3.8"/>
        </g>
      </g>
      <g>
        <path class="cls-13" d="M71.6,373.9c-7.3,2.9-13.7,1.4-20-3.2-5.2-3.5-10.5-8.5-14.7-13-3.6-3.3-4.3,3.3-3.1,5.6.9,2.8,3.6,4.5,5.4,6.7,2.8,3.5-.7,4.5-3.7,4.2-5.3-.3-10.4-2.2-15.5-3.7-3.5-.7-7.3-2.5-10.6-1.2-2.1,1.4-.4,3.6,1.5,4.8,3.8,2,8.7,2.4,12.6,4.3,6.3,3.3-3.4,3.6-6.2,3.5-3.8.2-9.5-.7-12.2,1.5-1.4,1.1-1.2,2.9.3,3.9,2.4,1.6,5.7,1.2,8.6,1.2,2.3,0,4.9,0,7.2,0,5.6.4,3.7,1.6-.5,2.3-3.2.9-14.9,1.2-14.6,5.4,2.1,5.2,12.5.7,16.5,0,1.9-.4,4.7-1.2,6.2,0,.7,2.2-7.2,3.9-8.8,5.1-2.5,1.4-4.4,3.4-3.3,5.3,4.5,4.5,14.1-6,19.3-6.6,4.7-1.1,9.7-.2,14.5-1,2.9-.4,5.4-1.8,8-3,4-1.9,8.6-1.8,13-1.8"/>
        <path class="cls-20" d="M61.1,391.4c0-4-1.1-7.8-.4-11.6"/>
        <path class="cls-19" d="M35.5,381.7c-.2,4.9,1.7,9.7,4.5,13.6"/>
        <path class="cls-19" d="M37.9,375.9c-.6,5.9,3.1,10.9,6.4,15.5"/>
        <path class="cls-19" d="M40.1,379.8c4.4,4.7,11.4,5.9,17.6,5.8"/>
        <path class="cls-13" d="M63.6,383.7h2.6"/>
        <path class="cls-13" d="M63.6,388.5h2.6"/>
        <path class="cls-20" d="M33.2,400.9c-2-2.5-4-5-5-8.1-.8-2.4-2-4.7-2.6-7.1-.9-4.2,1.1-8.6,3.6-12"/>
        <path class="cls-20" d="M51.9,371.1c-1.5-1.1-3.5-2-5.4-1.6-1.1.3-2.1.8-3.2,1.1-1.4.5-2.5,1.4-3.7,2.3"/>
        <path class="cls-17" d="M14.6,374.3l.9-3.7"/>
        <path class="cls-17" d="M19.9,375.7l.9-3.7"/>
        <g>
          <path class="cls-17" d="M22.1,406.4c-.4-.8-1.4-2.9-1.6-3.5"/>
          <path class="cls-17" d="M27.1,404.1l-1.6-3.5"/>
        </g>
        <g>
          <path class="cls-17" d="M14.4,397.2l-.9-3.7"/>
          <path class="cls-17" d="M19.7,396l-.9-3.7"/>
        </g>
        <g>
          <path class="cls-17" d="M12.8,387v-3.8"/>
          <path class="cls-17" d="M18.3,387.2v-3.8"/>
        </g>
      </g>
      <g>
        <path class="cls-13" d="M147.2,373.9c-7.3,2.9-13.7,1.4-19.9-3.2-5.2-3.5-10.5-8.5-14.7-13-3.6-3.3-4.3,3.3-3.1,5.6.9,2.8,3.6,4.5,5.4,6.7,2.8,3.5-.7,4.5-3.7,4.2-5.3-.3-10.4-2.2-15.5-3.7-3.5-.7-7.3-2.5-10.7-1.2-2.1,1.4-.4,3.6,1.5,4.8,3.8,2,8.7,2.4,12.6,4.3,6.3,3.3-3.4,3.6-6.2,3.5-3.8.2-9.5-.7-12.2,1.5-1.4,1.1-1.2,2.9.3,3.9,2.4,1.6,5.7,1.2,8.6,1.2,2.3,0,4.9,0,7.2,0,5.6.4,3.7,1.6-.5,2.3-3.2.9-14.9,1.2-14.6,5.4,2.1,5.2,12.4.7,16.5,0,1.9-.4,4.7-1.2,6.2,0,.7,2.2-7.2,3.9-8.8,5.1-2.5,1.4-4.4,3.4-3.3,5.3,4.5,4.5,14.1-6,19.3-6.6,4.7-1.1,9.7-.2,14.5-1,2.9-.4,5.4-1.8,8-3,4.1-1.9,8.6-1.8,13-1.8"/>
        <path class="cls-20" d="M136.7,391.4c0-4-1.1-7.8-.4-11.6"/>
        <path class="cls-19" d="M111.1,381.7c-.2,4.9,1.7,9.7,4.5,13.6"/>
        <path class="cls-19" d="M113.5,375.9c-.6,5.9,3.1,10.9,6.4,15.5"/>
        <path class="cls-19" d="M115.7,379.8c4.4,4.7,11.4,5.9,17.6,5.8"/>
        <path class="cls-13" d="M139.2,383.7h2.6"/>
        <path class="cls-13" d="M139.2,388.5h2.6"/>
        <path class="cls-20" d="M108.8,400.9c-2-2.5-4-5-5-8.1-.8-2.4-2-4.7-2.6-7.1-.9-4.2,1.1-8.6,3.6-12"/>
        <path class="cls-20" d="M127.5,371.1c-1.6-1.1-3.5-2-5.4-1.6-1.1.3-2.1.8-3.2,1.1-1.4.5-2.5,1.4-3.7,2.3"/>
        <path class="cls-17" d="M90.2,374.3l.9-3.7"/>
        <path class="cls-17" d="M95.5,375.7l.9-3.7"/>
        <g>
          <path class="cls-17" d="M97.7,406.4c-.4-.8-1.4-2.9-1.7-3.5"/>
          <path class="cls-17" d="M102.7,404.1l-1.7-3.5"/>
        </g>
        <g>
          <path class="cls-17" d="M90,397.2l-.9-3.7"/>
          <path class="cls-17" d="M95.3,396l-.9-3.7"/>
        </g>
        <g>
          <path class="cls-17" d="M88.4,387v-3.8"/>
          <path class="cls-17" d="M93.9,387.2v-3.8"/>
        </g>
      </g>
      <g>
        <path class="cls-13" d="M222.8,373.9c-7.3,2.9-13.7,1.4-19.9-3.2-5.2-3.5-10.5-8.5-14.7-13-3.6-3.3-4.3,3.3-3.1,5.6.9,2.8,3.6,4.5,5.4,6.7,2.8,3.5-.7,4.5-3.7,4.2-5.3-.3-10.4-2.2-15.5-3.7-3.5-.7-7.3-2.5-10.6-1.2-2.1,1.4-.4,3.6,1.5,4.8,3.8,2,8.7,2.4,12.6,4.3,6.3,3.3-3.4,3.6-6.2,3.5-3.8.2-9.5-.7-12.2,1.5-1.4,1.1-1.2,2.9.3,3.9,2.4,1.6,5.7,1.2,8.6,1.2,2.3,0,4.9,0,7.2,0,5.6.4,3.7,1.6-.5,2.3-3.2.9-14.9,1.2-14.6,5.4,2.1,5.2,12.4.7,16.5,0,1.9-.4,4.7-1.2,6.2,0,.7,2.2-7.2,3.9-8.8,5.1-2.5,1.4-4.4,3.4-3.3,5.3,4.5,4.5,14.1-6,19.3-6.6,4.7-1.1,9.7-.2,14.5-1,2.9-.4,5.4-1.8,8-3,4.1-1.9,8.6-1.8,13-1.8"/>
        <path class="cls-20" d="M212.3,391.4c0-4-1.1-7.8-.4-11.6"/>
        <path class="cls-19" d="M186.7,381.7c-.2,4.9,1.7,9.7,4.5,13.6"/>
        <path class="cls-19" d="M189.1,375.9c-.6,5.9,3.1,10.9,6.4,15.5"/>
        <path class="cls-19" d="M191.2,379.8c4.4,4.7,11.4,5.9,17.6,5.8"/>
        <path class="cls-13" d="M214.8,383.7h2.6"/>
        <path class="cls-13" d="M214.8,388.5h2.6"/>
        <path class="cls-20" d="M184.4,400.9c-2-2.5-4-5-5-8.1-.8-2.4-2-4.7-2.6-7.1-.9-4.2,1.1-8.6,3.6-12"/>
        <path class="cls-20" d="M203.1,371.1c-1.6-1.1-3.5-2-5.4-1.6-1.1.3-2.1.8-3.2,1.1-1.4.5-2.5,1.4-3.6,2.3"/>
        <path class="cls-17" d="M165.8,374.3l.9-3.7"/>
        <path class="cls-17" d="M171.1,375.7l.9-3.7"/>
        <g>
          <path class="cls-17" d="M173.3,406.4c-.4-.8-1.4-2.9-1.6-3.5"/>
          <path class="cls-17" d="M178.3,404.1l-1.6-3.5"/>
        </g>
        <g>
          <path class="cls-17" d="M165.6,397.2l-.9-3.7"/>
          <path class="cls-17" d="M170.9,396c-.2-.8-.7-3.1-.9-3.7"/>
        </g>
        <g>
          <path class="cls-17" d="M164,387v-3.8"/>
          <path class="cls-17" d="M169.5,387.2v-3.8"/>
        </g>
      </g>
      <g>
        <path class="cls-13" d="M298.4,373.9c-7.3,2.9-13.7,1.4-20-3.2-5.2-3.5-10.5-8.5-14.7-13-3.6-3.3-4.3,3.3-3.1,5.6.9,2.8,3.6,4.5,5.4,6.7,2.8,3.5-.7,4.5-3.7,4.2-5.3-.3-10.4-2.2-15.5-3.7-3.5-.7-7.3-2.5-10.6-1.2-2.1,1.4-.4,3.6,1.5,4.8,3.8,2,8.7,2.4,12.6,4.3,6.3,3.3-3.4,3.6-6.2,3.5-3.8.2-9.5-.7-12.2,1.5-1.4,1.1-1.2,2.9.3,3.9,2.4,1.6,5.7,1.2,8.6,1.2,2.3,0,4.9,0,7.2,0,5.6.4,3.7,1.6-.5,2.3-3.2.9-14.9,1.2-14.6,5.4,2.1,5.2,12.4.7,16.5,0,1.9-.4,4.7-1.2,6.2,0,.7,2.2-7.2,3.9-8.8,5.1-2.5,1.4-4.4,3.4-3.3,5.3,4.5,4.5,14.1-6,19.3-6.6,4.7-1.1,9.7-.2,14.5-1,2.9-.4,5.4-1.8,8-3,4-1.9,8.6-1.8,13-1.8"/>
        <path class="cls-20" d="M287.9,391.4c0-4-1.1-7.8-.4-11.6"/>
        <path class="cls-19" d="M262.3,381.7c-.2,4.9,1.7,9.7,4.5,13.6"/>
        <path class="cls-19" d="M264.7,375.9c-.6,5.9,3.1,10.9,6.4,15.5"/>
        <path class="cls-19" d="M266.8,379.8c4.4,4.7,11.4,5.9,17.6,5.8"/>
        <path class="cls-13" d="M290.3,383.7h2.6"/>
        <path class="cls-13" d="M290.3,388.5h2.6"/>
        <path class="cls-20" d="M260,400.9c-2-2.5-4-5-5-8.1-.8-2.4-2-4.7-2.6-7.1-.9-4.2,1.1-8.6,3.6-12"/>
        <path class="cls-20" d="M278.7,371.1c-1.5-1.1-3.5-2-5.4-1.6-1.1.3-2.1.8-3.2,1.1-1.4.5-2.5,1.4-3.6,2.3"/>
        <path class="cls-17" d="M241.4,374.3l.9-3.7"/>
        <path class="cls-17" d="M246.6,375.7l.9-3.7"/>
        <g>
          <path class="cls-17" d="M248.9,406.4c-.4-.8-1.4-2.9-1.6-3.5"/>
          <path class="cls-17" d="M253.9,404.1c-.4-.8-1.4-2.9-1.6-3.5"/>
        </g>
        <g>
          <path class="cls-17" d="M241.1,397.2c-.2-.8-.7-3.1-.9-3.7"/>
          <path class="cls-17" d="M246.5,396c-.2-.8-.7-3.1-.9-3.7"/>
        </g>
        <g>
          <path class="cls-17" d="M239.6,387v-3.8"/>
          <path class="cls-17" d="M245.1,387.2c0-.9,0-3.2,0-3.8"/>
        </g>
      </g>
      <g>
        <path class="cls-13" d="M374.8,373.9c-7.3,2.9-13.7,1.4-20-3.2-5.2-3.5-10.5-8.5-14.7-13-3.6-3.3-4.3,3.3-3.1,5.6.9,2.8,3.6,4.5,5.4,6.7,2.8,3.5-.7,4.5-3.7,4.2-5.3-.3-10.4-2.2-15.5-3.7-3.5-.7-7.3-2.5-10.6-1.2-2.1,1.4-.4,3.6,1.5,4.8,3.8,2,8.7,2.4,12.6,4.3,6.3,3.3-3.4,3.6-6.2,3.5-3.8.2-9.5-.7-12.2,1.5-1.4,1.1-1.2,2.9.3,3.9,2.4,1.6,5.7,1.2,8.6,1.2,2.3,0,4.9,0,7.2,0,5.6.4,3.7,1.6-.5,2.3-3.2.9-14.9,1.2-14.6,5.4,2,5.2,12.5.7,16.5,0,1.9-.4,4.7-1.2,6.2,0,.7,2.2-7.2,3.9-8.8,5.1-2.5,1.4-4.4,3.4-3.3,5.3,4.5,4.5,14.1-6,19.3-6.6,4.7-1.1,9.7-.2,14.5-1,2.9-.4,5.4-1.8,8-3,4-1.9,8.6-1.8,13-1.8"/>
        <path class="cls-20" d="M364.3,391.4c0-4-1.1-7.8-.4-11.6"/>
        <path class="cls-19" d="M338.8,381.7c-.2,4.9,1.7,9.7,4.5,13.6"/>
        <path class="cls-19" d="M341.1,375.9c-.6,5.9,3.1,10.9,6.4,15.5"/>
        <path class="cls-19" d="M343.3,379.8c4.4,4.7,11.4,5.9,17.6,5.8"/>
        <path class="cls-13" d="M366.8,383.7h2.6"/>
        <path class="cls-13" d="M366.8,388.5h2.6"/>
        <path class="cls-20" d="M336.4,400.9c-2-2.5-4-5-5-8.1-.8-2.4-2-4.7-2.6-7.1-.9-4.2,1.1-8.6,3.6-12"/>
        <path class="cls-20" d="M355.1,371.1c-1.5-1.1-3.5-2-5.4-1.6-1.1.3-2.1.8-3.2,1.1-1.4.5-2.5,1.4-3.6,2.3"/>
        <path class="cls-17" d="M317.8,374.3l.9-3.7"/>
        <path class="cls-17" d="M323.1,375.7l.9-3.7"/>
        <g>
          <path class="cls-17" d="M325.4,406.4l-1.6-3.5"/>
          <path class="cls-17" d="M330.3,404.1c-.4-.8-1.4-2.9-1.6-3.5"/>
        </g>
        <g>
          <path class="cls-17" d="M317.6,397.2l-.9-3.7"/>
          <path class="cls-17" d="M322.9,396c-.2-.8-.7-3.1-.9-3.7"/>
        </g>
        <g>
          <path class="cls-17" d="M316,387c0-.9,0-3.2,0-3.8"/>
          <path class="cls-17" d="M321.5,387.2v-3.8"/>
        </g>
      </g>
      <g>
        <path class="cls-13" d="M71.6,430.2c-7.3,2.9-13.7,1.4-20-3.2-5.2-3.5-10.5-8.5-14.7-13-3.6-3.3-4.3,3.3-3.1,5.6.9,2.8,3.6,4.5,5.4,6.7,2.8,3.5-.7,4.5-3.7,4.2-5.3-.3-10.4-2.2-15.5-3.7-3.5-.7-7.3-2.5-10.6-1.2-2.1,1.4-.4,3.6,1.5,4.8,3.8,2,8.7,2.4,12.6,4.3,6.3,3.3-3.4,3.6-6.2,3.5-3.8.2-9.5-.7-12.2,1.5-1.4,1.1-1.2,2.9.3,3.9,2.4,1.6,5.7,1.2,8.6,1.2,2.3,0,4.9,0,7.2,0,5.6.4,3.7,1.6-.5,2.3-3.2.9-14.9,1.2-14.6,5.4,2.1,5.2,12.5.7,16.5,0,1.9-.4,4.7-1.2,6.2,0,.7,2.2-7.2,3.9-8.8,5.1-2.5,1.4-4.4,3.4-3.3,5.3,4.5,4.5,14.1-6,19.3-6.6,4.7-1.1,9.7-.2,14.5-1,2.9-.4,5.4-1.8,8-3,4-1.9,8.6-1.8,13-1.8"/>
        <path class="cls-20" d="M61.1,447.7c0-4-1.1-7.8-.4-11.6"/>
        <path class="cls-19" d="M35.5,438c-.2,4.9,1.7,9.7,4.5,13.6"/>
        <path class="cls-19" d="M37.9,432.2c-.6,5.9,3.1,10.9,6.4,15.5"/>
        <path class="cls-19" d="M40.1,436.1c4.4,4.7,11.4,5.9,17.6,5.8"/>
        <path class="cls-13" d="M63.6,440h2.6"/>
        <path class="cls-13" d="M63.6,444.8h2.6"/>
        <path class="cls-20" d="M29.2,430c-2.5,3.5-4.5,7.9-3.6,12,.6,2.4,1.8,4.7,2.6,7.1,1.1,3.1,3,5.6,5,8.1"/>
        <path class="cls-20" d="M51.9,427.4c-1.5-1.1-3.5-2-5.4-1.6-1.1.3-2.1.8-3.2,1.1-1.4.5-2.5,1.4-3.7,2.3"/>
        <path class="cls-17" d="M14.6,430.6l.9-3.7"/>
        <path class="cls-17" d="M19.9,432l.9-3.7"/>
        <g>
          <path class="cls-17" d="M22.1,462.7c-.4-.8-1.4-2.9-1.6-3.5"/>
          <path class="cls-17" d="M27.1,460.4l-1.6-3.5"/>
        </g>
        <g>
          <path class="cls-17" d="M14.4,453.5l-.9-3.7"/>
          <path class="cls-17" d="M19.7,452.4l-.9-3.7"/>
        </g>
        <g>
          <path class="cls-17" d="M12.8,443.3v-3.8"/>
          <path class="cls-17" d="M18.3,443.5v-3.8"/>
        </g>
      </g>
      <g>
        <path class="cls-13" d="M147.2,430.2c-7.3,2.9-13.7,1.4-19.9-3.2-5.2-3.5-10.5-8.5-14.7-13-3.6-3.3-4.3,3.3-3.1,5.6.9,2.8,3.6,4.5,5.4,6.7,2.8,3.5-.7,4.5-3.7,4.2-5.3-.3-10.4-2.2-15.5-3.7-3.5-.7-7.3-2.5-10.7-1.2-2.1,1.4-.4,3.6,1.5,4.8,3.8,2,8.7,2.4,12.6,4.3,6.3,3.3-3.4,3.6-6.2,3.5-3.8.2-9.5-.7-12.2,1.5-1.4,1.1-1.2,2.9.3,3.9,2.4,1.6,5.7,1.2,8.6,1.2,2.3,0,4.9,0,7.2,0,5.6.4,3.7,1.6-.5,2.3-3.2.9-14.9,1.2-14.6,5.4,2.1,5.2,12.4.7,16.5,0,1.9-.4,4.7-1.2,6.2,0,.7,2.2-7.2,3.9-8.8,5.1-2.5,1.4-4.4,3.4-3.3,5.3,4.5,4.5,14.1-6,19.3-6.6,4.7-1.1,9.7-.2,14.5-1,2.9-.4,5.4-1.8,8-3,4.1-1.9,8.6-1.8,13-1.8"/>
        <path class="cls-20" d="M136.7,447.7c0-4-1.1-7.8-.4-11.6"/>
        <path class="cls-19" d="M111.1,438c-.2,4.9,1.7,9.7,4.5,13.6"/>
        <path class="cls-19" d="M113.5,432.2c-.6,5.9,3.1,10.9,6.4,15.5"/>
        <path class="cls-19" d="M115.7,436.1c4.4,4.7,11.4,5.9,17.6,5.8"/>
        <path class="cls-13" d="M139.2,440h2.6"/>
        <path class="cls-13" d="M139.2,444.8h2.6"/>
        <path class="cls-20" d="M108.8,457.2c-2-2.5-4-5-5-8.1-.8-2.4-2-4.7-2.6-7.1-.9-4.2,1.1-8.6,3.6-12"/>
        <path class="cls-20" d="M127.5,427.4c-1.6-1.1-3.5-2-5.4-1.6-1.1.3-2.1.8-3.2,1.1-1.4.5-2.5,1.4-3.7,2.3"/>
        <path class="cls-17" d="M90.2,430.6l.9-3.7"/>
        <path class="cls-17" d="M95.5,432l.9-3.7"/>
        <g>
          <path class="cls-17" d="M97.7,462.7c-.4-.8-1.4-2.9-1.7-3.5"/>
          <path class="cls-17" d="M102.7,460.4l-1.7-3.5"/>
        </g>
        <g>
          <path class="cls-17" d="M90,453.5l-.9-3.7"/>
          <path class="cls-17" d="M95.3,452.4l-.9-3.7"/>
        </g>
        <g>
          <path class="cls-17" d="M88.4,443.3v-3.8"/>
          <path class="cls-17" d="M93.9,443.5v-3.8"/>
        </g>
      </g>
      <g>
        <path class="cls-13" d="M222.8,430.2c-7.3,2.9-13.7,1.4-19.9-3.2-5.2-3.5-10.5-8.5-14.7-13-3.6-3.3-4.3,3.3-3.1,5.6.9,2.8,3.6,4.5,5.4,6.7,2.8,3.5-.7,4.5-3.7,4.2-5.3-.3-10.4-2.2-15.5-3.7-3.5-.7-7.3-2.5-10.6-1.2-2.1,1.4-.4,3.6,1.5,4.8,3.8,2,8.7,2.4,12.6,4.3,6.3,3.3-3.4,3.6-6.2,3.5-3.8.2-9.5-.7-12.2,1.5-1.4,1.1-1.2,2.9.3,3.9,2.4,1.6,5.7,1.2,8.6,1.2,2.3,0,4.9,0,7.2,0,5.6.4,3.7,1.6-.5,2.3-3.2.9-14.9,1.2-14.6,5.4,2.1,5.2,12.4.7,16.5,0,1.9-.4,4.7-1.2,6.2,0,.7,2.2-7.2,3.9-8.8,5.1-2.5,1.4-4.4,3.4-3.3,5.3,4.5,4.5,14.1-6,19.3-6.6,4.7-1.1,9.7-.2,14.5-1,2.9-.4,5.4-1.8,8-3,4.1-1.9,8.6-1.8,13-1.8"/>
        <path class="cls-20" d="M212.3,447.7c0-4-1.1-7.8-.4-11.6"/>
        <path class="cls-19" d="M186.7,438c-.2,4.9,1.7,9.7,4.5,13.6"/>
        <path class="cls-19" d="M189.1,432.2c-.6,5.9,3.1,10.9,6.4,15.5"/>
        <path class="cls-19" d="M191.2,436.1c4.4,4.7,11.4,5.9,17.6,5.8"/>
        <path class="cls-13" d="M214.8,440h2.6"/>
        <path class="cls-13" d="M214.8,444.8h2.6"/>
        <path class="cls-20" d="M184.4,457.2c-2-2.5-4-5-5-8.1-.8-2.4-2-4.7-2.6-7.1-.9-4.2,1.1-8.6,3.6-12"/>
        <path class="cls-20" d="M203.1,427.4c-1.6-1.1-3.5-2-5.4-1.6-1.1.3-2.1.8-3.2,1.1-1.4.5-2.5,1.4-3.6,2.3"/>
        <path class="cls-17" d="M165.8,430.6l.9-3.7"/>
        <path class="cls-17" d="M171.1,432l.9-3.7"/>
        <g>
          <path class="cls-17" d="M173.3,462.7c-.4-.8-1.4-2.9-1.6-3.5"/>
          <path class="cls-17" d="M178.3,460.4l-1.6-3.5"/>
        </g>
        <g>
          <path class="cls-17" d="M165.6,453.5l-.9-3.7"/>
          <path class="cls-17" d="M170.9,452.4c-.2-.8-.7-3.1-.9-3.7"/>
        </g>
        <g>
          <path class="cls-17" d="M164,443.3v-3.8"/>
          <path class="cls-17" d="M169.5,443.5v-3.8"/>
        </g>
      </g>
      <g>
        <path class="cls-13" d="M298.4,430.2c-7.3,2.9-13.7,1.4-20-3.2-5.2-3.5-10.5-8.5-14.7-13-3.6-3.3-4.3,3.3-3.1,5.6.9,2.8,3.6,4.5,5.4,6.7,2.8,3.5-.7,4.5-3.7,4.2-5.3-.3-10.4-2.2-15.5-3.7-3.5-.7-7.3-2.5-10.6-1.2-2.1,1.4-.4,3.6,1.5,4.8,3.8,2,8.7,2.4,12.6,4.3,6.3,3.3-3.4,3.6-6.2,3.5-3.8.2-9.5-.7-12.2,1.5-1.4,1.1-1.2,2.9.3,3.9,2.4,1.6,5.7,1.2,8.6,1.2,2.3,0,4.9,0,7.2,0,5.6.4,3.7,1.6-.5,2.3-3.2.9-14.9,1.2-14.6,5.4,2.1,5.2,12.4.7,16.5,0,1.9-.4,4.7-1.2,6.2,0,.7,2.2-7.2,3.9-8.8,5.1-2.5,1.4-4.4,3.4-3.3,5.3,4.5,4.5,14.1-6,19.3-6.6,4.7-1.1,9.7-.2,14.5-1,2.9-.4,5.4-1.8,8-3,4-1.9,8.6-1.8,13-1.8"/>
        <path class="cls-20" d="M287.9,447.7c0-4-1.1-7.8-.4-11.6"/>
        <path class="cls-19" d="M262.3,438c-.2,4.9,1.7,9.7,4.5,13.6"/>
        <path class="cls-19" d="M264.7,432.2c-.6,5.9,3.1,10.9,6.4,15.5"/>
        <path class="cls-19" d="M266.8,436.1c4.4,4.7,11.4,5.9,17.6,5.8"/>
        <path class="cls-13" d="M290.3,440h2.6"/>
        <path class="cls-13" d="M290.3,444.8h2.6"/>
        <path class="cls-20" d="M260,457.2c-2-2.5-4-5-5-8.1-.8-2.4-2-4.7-2.6-7.1-.9-4.2,1.1-8.6,3.6-12"/>
        <path class="cls-20" d="M278.7,427.4c-1.5-1.1-3.5-2-5.4-1.6-1.1.3-2.1.8-3.2,1.1-1.4.5-2.5,1.4-3.6,2.3"/>
        <path class="cls-17" d="M241.4,430.6l.9-3.7"/>
        <path class="cls-17" d="M246.6,432l.9-3.7"/>
        <g>
          <path class="cls-17" d="M248.9,462.7c-.4-.8-1.4-2.9-1.6-3.5"/>
          <path class="cls-17" d="M253.9,460.4c-.4-.8-1.4-2.9-1.6-3.5"/>
        </g>
        <g>
          <path class="cls-17" d="M241.1,453.5c-.2-.8-.7-3.1-.9-3.7"/>
          <path class="cls-17" d="M246.5,452.4c-.2-.8-.7-3.1-.9-3.7"/>
        </g>
        <g>
          <path class="cls-17" d="M239.6,443.3v-3.8"/>
          <path class="cls-17" d="M245.1,443.5c0-.9,0-3.2,0-3.8"/>
        </g>
      </g>
      <g>
        <path class="cls-13" d="M374.8,430.2c-7.3,2.9-13.7,1.4-20-3.2-5.2-3.5-10.5-8.5-14.7-13-3.6-3.3-4.3,3.3-3.1,5.6.9,2.8,3.6,4.5,5.4,6.7,2.8,3.5-.7,4.5-3.7,4.2-5.3-.3-10.4-2.2-15.5-3.7-3.5-.7-7.3-2.5-10.6-1.2-2.1,1.4-.4,3.6,1.5,4.8,3.8,2,8.7,2.4,12.6,4.3,6.3,3.3-3.4,3.6-6.2,3.5-3.8.2-9.5-.7-12.2,1.5-1.4,1.1-1.2,2.9.3,3.9,2.4,1.6,5.7,1.2,8.6,1.2,2.3,0,4.9,0,7.2,0,5.6.4,3.7,1.6-.5,2.3-3.2.9-14.9,1.2-14.6,5.4,2,5.2,12.5.7,16.5,0,1.9-.4,4.7-1.2,6.2,0,.7,2.2-7.2,3.9-8.8,5.1-2.5,1.4-4.4,3.4-3.3,5.3,4.5,4.5,14.1-6,19.3-6.6,4.7-1.1,9.7-.2,14.5-1,2.9-.4,5.4-1.8,8-3,4-1.9,8.6-1.8,13-1.8"/>
        <path class="cls-20" d="M364.3,447.7c0-4-1.1-7.8-.4-11.6"/>
        <path class="cls-19" d="M338.8,438c-.2,4.9,1.7,9.7,4.5,13.6"/>
        <path class="cls-19" d="M341.1,432.2c-.6,5.9,3.1,10.9,6.4,15.5"/>
        <path class="cls-19" d="M343.3,436.1c4.4,4.7,11.4,5.9,17.6,5.8"/>
        <path class="cls-13" d="M366.8,440h2.6"/>
        <path class="cls-13" d="M366.8,444.8h2.6"/>
        <path class="cls-20" d="M336.4,457.2c-2-2.5-4-5-5-8.1-.8-2.4-2-4.7-2.6-7.1-.9-4.2,1.1-8.6,3.6-12"/>
        <path class="cls-20" d="M355.1,427.4c-1.5-1.1-3.5-2-5.4-1.6-1.1.3-2.1.8-3.2,1.1-1.4.5-2.5,1.4-3.6,2.3"/>
        <path class="cls-17" d="M317.8,430.6l.9-3.7"/>
        <path class="cls-17" d="M323.1,432l.9-3.7"/>
        <g>
          <path class="cls-17" d="M325.4,462.7l-1.6-3.5"/>
          <path class="cls-17" d="M330.3,460.4c-.4-.8-1.4-2.9-1.6-3.5"/>
        </g>
        <g>
          <path class="cls-17" d="M317.6,453.5l-.9-3.7"/>
          <path class="cls-17" d="M322.9,452.4c-.2-.8-.7-3.1-.9-3.7"/>
        </g>
        <g>
          <path class="cls-17" d="M316,443.3c0-.9,0-3.2,0-3.8"/>
          <path class="cls-17" d="M321.5,443.5v-3.8"/>
        </g>
      </g>
      <g>
        <path class="cls-13" d="M71.6,495c-7.3,2.9-13.7,1.4-20-3.2-5.2-3.5-10.5-8.5-14.7-13-3.6-3.3-4.3,3.3-3.1,5.6.9,2.8,3.6,4.5,5.4,6.7,2.8,3.5-.7,4.5-3.7,4.2-5.3-.3-10.4-2.2-15.5-3.7-3.5-.7-7.3-2.5-10.6-1.2-2.1,1.4-.4,3.6,1.5,4.8,3.8,2,8.7,2.4,12.6,4.3,6.3,3.3-3.4,3.6-6.2,3.5-3.8.2-9.5-.7-12.2,1.5-1.4,1.1-1.2,2.9.3,3.9,2.4,1.6,5.7,1.2,8.6,1.2,2.3,0,4.9,0,7.2,0,5.6.4,3.7,1.6-.5,2.3-3.2.9-14.9,1.2-14.6,5.4,2.1,5.2,12.5.7,16.5,0,1.9-.3,4.7-1.2,6.2,0,.7,2.2-7.2,3.9-8.8,5.2-2.5,1.4-4.4,3.4-3.3,5.3,4.5,4.5,14.1-6,19.3-6.6,4.7-1.1,9.7-.2,14.5-1,2.9-.4,5.4-1.8,8-3,4-1.9,8.6-1.8,13-1.8"/>
        <path class="cls-20" d="M61.1,512.6c0-4-1.1-7.8-.4-11.6"/>
        <path class="cls-19" d="M35.5,502.8c-.2,4.9,1.7,9.7,4.5,13.6"/>
        <path class="cls-19" d="M37.9,497.1c-.6,5.9,3.1,10.9,6.4,15.5"/>
        <path class="cls-19" d="M40.1,500.9c4.4,4.7,11.4,5.9,17.6,5.8"/>
        <path class="cls-13" d="M63.6,504.8h2.6"/>
        <path class="cls-13" d="M63.6,509.6h2.6"/>
        <path class="cls-20" d="M33.2,522.1c-2-2.5-4-5-5-8.1-.8-2.4-2-4.7-2.6-7.1-.9-4.2,1.1-8.6,3.6-12"/>
        <path class="cls-20" d="M51.9,492.2c-1.5-1.1-3.5-2-5.4-1.6-1.1.3-2.1.8-3.2,1.1-1.4.5-2.5,1.4-3.7,2.3"/>
        <path class="cls-17" d="M14.6,495.5l.9-3.7"/>
        <path class="cls-17" d="M19.9,496.8l.9-3.7"/>
        <g>
          <path class="cls-17" d="M22.1,527.5l-1.6-3.5"/>
          <path class="cls-17" d="M27.1,525.3c-.4-.8-1.4-2.9-1.6-3.5"/>
        </g>
        <g>
          <path class="cls-17" d="M14.4,518.3l-.9-3.7"/>
          <path class="cls-17" d="M19.7,517.2c-.2-.8-.7-3.1-.9-3.7"/>
        </g>
        <g>
          <path class="cls-17" d="M12.8,508.1c0-.9,0-3.2,0-3.8"/>
          <path class="cls-17" d="M18.3,508.4v-3.8"/>
        </g>
      </g>
      <path class="cls-4" d="M175.5,230c-4.7-1.4-10.5-2.7-14.4-5.7-1.6-1.3-2.4-3.9,0-4.9,1.8-.9,4.6-.2,7.1.4,2.1.6,4.2,1.2,6.3,1.8,1.8.5,3.8.9,4.5,1.9,1.3,2.1-.3,4.4-.9,6.5"/>
      <path class="cls-4" d="M248.6,240c-4.9-.1-10.9.1-15.4-1.6-1.9-.8-3.3-3.2-1.3-4.7,1.5-1.3,4.4-1.4,7-1.5,2.2,0,4.4,0,6.5,0,1.9,0,3.9-.1,4.9.6,1.8,1.6.9,4.4.8,6.5"/>
      <path class="cls-4" d="M328.8,247.2c-5.3.9-11.8,2.2-16.7,1.7-2.1-.3-3.6-1.9-1.5-3.4,1.6-1.3,4.7-2,7.5-2.5,2.4-.4,4.7-.8,7.1-1.2,2.1-.3,4.2-.8,5.3-.4,2,.9,1,3.3,1,5"/>
      <path class="cls-4" d="M116.9,222.3c-2.8-3-6.4-6.5-7.9-10.4-.6-1.7,0-4.1,2.2-3.9,1.7,0,3.4,1.7,5,3.2,1.3,1.3,2.5,2.7,3.8,4,1.1,1.2,2.3,2.3,2.4,3.4,0,2.2-2.3,3.5-3.7,4.9"/>
      <path class="cls-4" d="M31.5,311.3c-3.5,1.4-7.7,3.3-11.6,3.3-1.6,0-3.4-1.3-2.4-3,.7-1.4,2.7-2.3,4.6-3.1,1.5-.6,3.1-1.2,4.7-1.9,1.4-.5,2.8-1.2,3.7-1,1.8.7,2,2.9,2.6,4.5"/>
      <path class="cls-4" d="M115.5,278.3c-2.4-3.1-5.6-6.6-6.7-10.5-.4-1.6.4-4,2.4-3.7,1.6,0,3.2,1.8,4.5,3.4,1.1,1.3,2.1,2.7,3.2,4,.9,1.2,2,2.3,2,3.4-.2,2.1-2.5,3.2-3.9,4.5"/>
      <path class="cls-4" d="M100.7,286.2c-4.8-1.2-10.6-2.3-14.7-5-1.7-1.2-2.5-3.7-.2-4.7,1.7-.9,4.6-.4,7.2.2,2.1.5,4.2,1,6.4,1.5,1.8.5,3.8.8,4.6,1.7,1.4,1.9-.2,4.3-.7,6.3"/>
      <path class="cls-4" d="M172.8,296.9c-4.9,0-10.9.3-15.5-1.4-1.9-.8-3.3-3-1.3-4.5,1.5-1.3,4.4-1.5,7-1.5,2.2,0,4.4,0,6.5,0,1.9,0,3.9-.2,4.9.6,1.8,1.6.9,4.2.8,6.3"/>
      <path class="cls-4" d="M191.3,277.9c-2.4-3.1-5.6-6.6-6.7-10.5-.4-1.6.4-4,2.4-3.7,1.6,0,3.1,1.8,4.5,3.4,1.1,1.3,2.1,2.7,3.2,4,.9,1.2,2,2.3,2,3.4-.2,2.1-2.5,3.2-3.9,4.5"/>
      <path class="cls-4" d="M250.8,304.8c-4.7,1.3-10.4,3.1-15.3,2.8-2-.2-4-2-2.5-4,1.1-1.6,3.8-2.6,6.3-3.3,2.1-.6,4.2-1.1,6.3-1.8,1.8-.5,3.7-1.2,4.9-.8,2.1,1,2,3.9,2.5,5.9"/>
      <path class="cls-4" d="M267.3,278.9c-2.4-3.1-5.5-6.6-6.7-10.5-.4-1.6.4-4,2.4-3.7,1.6,0,3.1,1.8,4.5,3.4,1.1,1.3,2.1,2.7,3.2,4,.9,1.2,2,2.3,2,3.4-.2,2.1-2.5,3.2-3.9,4.5"/>
      <path class="cls-4" d="M334.9,310.1c-3.4,1.8-7.4,4.2-11.2,4.7-1.6.2-3.5-.9-2.8-2.7.5-1.5,2.4-2.7,4.2-3.7,1.5-.8,3-1.6,4.5-2.5,1.3-.7,2.6-1.6,3.6-1.4,1.9.5,2.3,2.7,3.2,4.2"/>
      <path class="cls-4" d="M343.3,278.6c-2.4-3.1-5.5-6.6-6.7-10.5-.4-1.6.4-4,2.4-3.7,1.6,0,3.1,1.8,4.5,3.4,1.1,1.3,2.1,2.7,3.2,4,.9,1.2,2,2.3,2,3.4-.2,2.1-2.5,3.2-3.9,4.5"/>
      <path class="cls-4" d="M98.3,389.2c-4.9-.1-10.8.1-15.4-1.6-1.9-.8-3.3-3.2-1.3-4.7,1.5-1.3,4.4-1.4,7-1.5,2.2,0,4.3,0,6.5,0,1.9,0,3.9-.1,4.9.6,1.8,1.6.9,4.4.8,6.5"/>
      <path class="cls-4" d="M100.1,380c-4.7-1.4-10.5-2.7-14.4-5.7-1.6-1.3-2.4-3.9,0-4.9,1.8-.9,4.6-.2,7.1.4,2.1.6,4.2,1.2,6.3,1.8,1.8.5,3.8.9,4.5,1.9,1.3,2-.3,4.5-.9,6.5"/>
      <path class="cls-4" d="M177.4,396.4c-5.3.9-11.8,2.2-16.7,1.7-2.1-.3-3.6-1.9-1.5-3.4,1.6-1.3,4.7-2,7.5-2.5,2.4-.4,4.7-.8,7.1-1.2,2.1-.3,4.2-.8,5.3-.4,2,.9,1,3.3,1,5"/>
      <path class="cls-4" d="M182.7,402.8c-3.4,1.8-7.4,4.2-11.2,4.7-1.6.2-3.5-.9-2.8-2.7.5-1.5,2.4-2.7,4.2-3.7,1.5-.8,3-1.6,4.5-2.5,1.3-.7,2.6-1.6,3.6-1.4,1.9.5,2.3,2.7,3.2,4.2"/>
      <path class="cls-4" d="M251.8,395.9c-5.3.9-11.8,2.2-16.7,1.7-2.1-.3-3.6-1.9-1.5-3.4,1.6-1.3,4.7-2,7.5-2.5,2.4-.4,4.7-.8,7.1-1.2,2.1-.3,4.2-.8,5.3-.4,2,.9,1,3.3,1,5"/>
      <path class="cls-4" d="M257.1,403.2c-3.4,1.8-7.4,4.2-11.2,4.7-1.6.2-3.5-.9-2.8-2.7.5-1.5,2.4-2.7,4.2-3.7,1.5-.8,3-1.6,4.5-2.5,1.3-.7,2.6-1.6,3.6-1.4,1.9.5,2.3,2.7,3.2,4.2"/>
      <path class="cls-4" d="M249,388.9c-4.9-.1-10.9.1-15.4-1.6-1.9-.8-3.3-3.2-1.4-4.7,1.5-1.3,4.4-1.4,7-1.5,2.2,0,4.4,0,6.5,0,1.9,0,3.9-.1,4.9.6,1.8,1.6.9,4.4.8,6.5"/>
      <path class="cls-4" d="M250.8,379.7c-4.7-1.4-10.5-2.7-14.4-5.7-1.6-1.3-2.4-3.9,0-4.9,1.8-.9,4.6-.2,7.1.4,2.1.6,4.2,1.2,6.3,1.8,1.8.5,3.8.9,4.5,1.9,1.3,2-.3,4.5-.9,6.5"/>
      <path class="cls-4" d="M333.1,394.7c-6.7,1.3-14.8,3.2-21,3.1-2.5-.1-4.4-1.6-1.6-3.4,2.1-1.5,6-2.4,9.6-3.2,3-.6,5.9-1.2,8.9-1.8,2.6-.5,5.3-1.2,6.6-.9,2.4.8,1,3.3.8,5"/>
      <path class="cls-4" d="M333.6,403.7c-3.4,1.8-7.4,4.2-11.2,4.7-1.6.2-3.5-.9-2.8-2.7.5-1.5,2.4-2.7,4.2-3.7,1.5-.8,3-1.6,4.5-2.5,1.3-.7,2.6-1.6,3.6-1.4,1.9.5,2.3,2.7,3.2,4.2"/>
      <path class="cls-4" d="M332.1,387.8c-6.8.3-15.1,1.1-21.4-.3-2.6-.6-4.4-2.9-1.5-4.6,2.2-1.5,6.2-1.9,9.9-2.1,3-.2,6.1-.3,9.1-.5,2.6-.1,5.4-.5,6.7.2,2.4,1.5.8,4.4.6,6.6"/>
      <path class="cls-4" d="M331.5,380.3c-5.9-1.5-13.2-2.9-18.3-5.9-2-1.3-3-4-.1-4.9,2.2-.8,5.8-.2,9,.5,2.6.6,5.3,1.3,7.9,1.9,2.3.6,4.8,1,5.7,2,1.7,2.1-.3,4.5-1.1,6.5"/>
      <path class="cls-4" d="M344.8,372.1c-2.7-3.3-6.3-7.1-7.7-11.2-.5-1.7.2-4.1,2.4-3.7,1.7.2,3.5,2,5,3.7,1.3,1.4,2.4,2.9,3.7,4.4,1.1,1.3,2.3,2.5,2.3,3.6,0,2.2-2.5,3.2-3.9,4.5"/>
      <path class="cls-4" d="M331.5,398.4c-.2-6.2-1.1-13.7,1.4-20.1,1.1-2.7,4.9-5.3,7.5-3.2,2.2,1.4,2.7,5,3,8.4.2,2.8.3,5.5.5,8.3.1,2.4.5,4.9-.6,6.4-2.5,2.8-7.1,2.5-10.6,3.2"/>
      <path class="cls-4" d="M24.9,453c-5.5.9-12.2,2.3-17.3,1.9-2.1-.2-3.8-1.8-1.5-3.4,1.7-1.3,4.9-2,7.8-2.6,2.4-.5,4.9-.8,7.3-1.3,2.1-.4,4.4-.9,5.5-.5,2,.9,1,3.3.9,5"/>
      <path class="cls-4" d="M31.5,459.6c-3.4,1.8-7.4,4.2-11.2,4.7-1.6.2-3.5-.9-2.8-2.7.5-1.5,2.4-2.7,4.2-3.7,1.5-.8,3-1.6,4.5-2.5,1.3-.7,2.6-1.6,3.6-1.4,1.9.5,2.3,2.7,3.2,4.2"/>
      <path class="cls-4" d="M22.8,445.9c-5.3,0-11.8.4-16.7-1.3-2-.8-3.6-3.1-1.4-4.7,1.6-1.3,4.8-1.5,7.6-1.6,2.4,0,4.7,0,7.1,0,2.1,0,4.2-.2,5.3.5,1.9,1.6.9,4.4.8,6.5"/>
      <path class="cls-4" d="M24.6,435.1c-4.8-1.3-10.8-2.6-14.9-5.3-1.7-1.2-2.5-3.6,0-4.5,1.8-.8,4.7-.2,7.3.4,2.2.5,4.3,1.1,6.5,1.7,1.9.5,3.9.9,4.7,1.8,1.4,1.9-.3,4.1-.9,5.9"/>
      <path class="cls-4" d="M41.6,428.8c-3-3-6.9-6.4-8.6-10.7-.7-1.8,0-4.6,2.2-4.6,1.8-.2,3.7,1.5,5.3,3,1.4,1.3,2.7,2.7,4.1,4,1.2,1.2,2.5,2.3,2.6,3.5,0,2.4-2.3,4.1-3.8,5.8"/>
      <path class="cls-22" d="M33.2,455.9"/>
      <path class="cls-4" d="M31.1,455.2c-4.5-4.1-8.6-19.8-2.7-24.4,2.8-1.8,6.4-.5,9.4-1.7,3.8-1.2,7.3-3.7,11.3-2.6,2.5.6,4.8,2.2,7.1,3.2,1.9.8,3.9,1.2,5.6,2.1,2.5,1.2,2.7,5.3,2.6,8.4.2,3.9-.4,8.3-3.8,10.1-6.2,3.1-12.7,5.1-19.5,5.4-3.4.2-7.2,1.2-9.9-.6h-.1c0,0,0,0,0,0Z"/>
      <path class="cls-7" d="M176.9,453.3c-5.5.9-12.2,2.3-17.3,1.9-2.1-.2-3.8-1.8-1.5-3.4,1.6-1.3,4.9-2,7.8-2.6,2.4-.5,4.9-.8,7.3-1.3,2.1-.4,4.4-.9,5.5-.5,2,.9,1,3.3.9,5"/>
      <path class="cls-7" d="M183.5,459.9c-3.4,1.8-7.4,4.2-11.2,4.7-1.6.2-3.5-.9-2.8-2.7.5-1.5,2.4-2.7,4.2-3.7,1.5-.8,3-1.6,4.5-2.5,1.3-.7,2.6-1.6,3.6-1.4,1.9.5,2.3,2.7,3.2,4.2"/>
      <path class="cls-7" d="M174.8,446.2c-5.3,0-11.8.4-16.7-1.3-2-.8-3.6-3.1-1.4-4.7,1.6-1.3,4.8-1.5,7.6-1.6,2.4,0,4.7,0,7.1,0,2.1,0,4.2-.2,5.3.5,1.9,1.6.9,4.4.8,6.5"/>
      <path class="cls-7" d="M176.6,435.5c-4.8-1.3-10.8-2.6-14.9-5.3-1.7-1.2-2.5-3.6,0-4.5,1.8-.8,4.7-.2,7.3.4,2.2.5,4.3,1.1,6.5,1.7,1.9.5,3.9.9,4.7,1.8,1.4,1.9-.3,4.1-.9,5.9"/>
      <path class="cls-7" d="M193.6,429.1c-3-3-6.9-6.4-8.6-10.7-.7-1.8,0-4.6,2.2-4.6,1.8-.2,3.7,1.5,5.4,3,1.4,1.3,2.7,2.7,4.1,4,1.2,1.2,2.5,2.3,2.6,3.5,0,2.4-2.3,4.1-3.8,5.8"/>
      <path class="cls-7" d="M182.8,455.5c-4.3-4.1-8.2-19.8-2.6-24.4,2.7-1.8,6-.5,8.9-1.7,3.6-1.2,6.9-3.7,10.7-2.6,2.4.6,4.5,2.2,6.8,3.2,1.8.8,3.7,1.2,5.4,2.1,2.4,1.2,2.6,5.3,2.5,8.4.2,3.9-.4,8.3-3.6,10.1-5.9,3.1-12.1,5.1-18.5,5.4-3.2.2-6.8,1.2-9.4-.6h-.1c0,0,0,0,0,0Z"/>
      <g>
        <g>
          <path class="cls-18" d="M331.4,413.9c-.6-.4-3,1.2-4.8,3.3-1.4,1.5-2.2,3.3-2.3,4.4"/>
          <polygon class="cls-18" points="324.8 421.3 324.6 422.4 323.8 421.6 324.8 421.3 324.8 421.3"/>
        </g>
        <polygon class="cls-21" points="331.4 415.4 332.5 412.8 329.4 413.3 331.4 415.4"/>
      </g>
      <g>
        <g>
          <path class="cls-18" d="M25.4,478.9c-.6-.4-3,1.2-4.8,3.3-1.4,1.5-2.2,3.3-2.3,4.4"/>
          <polygon class="cls-18" points="18.8 486.3 18.6 487.4 17.8 486.6 18.8 486.3 18.8 486.3"/>
        </g>
        <polygon class="cls-21" points="25.4 480.4 26.5 477.8 23.4 478.3 25.4 480.4"/>
      </g>
      <path class="cls-7" d="M100.3,452.9c-5.5.9-12.2,2.3-17.3,1.9-2.1-.2-3.8-1.8-1.5-3.4,1.7-1.3,4.9-2,7.8-2.6,2.4-.5,4.9-.8,7.3-1.3,2.1-.4,4.4-.9,5.5-.5,2,.9,1,3.3.9,5"/>
      <path class="cls-7" d="M106.9,459.5c-3.4,1.8-7.4,4.2-11.2,4.7-1.6.2-3.5-.9-2.8-2.7.5-1.5,2.4-2.7,4.2-3.7,1.5-.8,3-1.6,4.5-2.5,1.3-.7,2.6-1.6,3.6-1.4,1.9.5,2.3,2.7,3.2,4.2"/>
      <path class="cls-7" d="M98.3,445.7c-5.3,0-11.8.4-16.7-1.3-2-.8-3.6-3.1-1.4-4.7,1.6-1.3,4.8-1.5,7.6-1.6,2.4,0,4.7,0,7.1,0,2.1,0,4.2-.2,5.3.5,1.9,1.6.9,4.4.8,6.5"/>
      <path class="cls-7" d="M100.1,435c-4.8-1.3-10.8-2.6-14.9-5.3-1.7-1.2-2.5-3.6,0-4.5,1.8-.8,4.7-.2,7.3.4,2.2.5,4.3,1.1,6.5,1.7,1.9.5,3.9.9,4.7,1.8,1.3,1.9-.3,4.1-.9,5.9"/>
      <path class="cls-7" d="M117.1,428.7c-3-3-6.9-6.4-8.7-10.7-.7-1.8,0-4.6,2.2-4.6,1.8-.2,3.7,1.5,5.3,3,1.4,1.3,2.7,2.7,4.1,4,1.2,1.2,2.5,2.3,2.6,3.5,0,2.4-2.3,4.1-3.8,5.8"/>
      <path class="cls-7" d="M250.3,445.7c-5.3,0-11.8.4-16.7-1.3-2-.8-3.6-3.1-1.4-4.7,1.6-1.3,4.8-1.5,7.6-1.6,2.4,0,4.7,0,7.1,0,2.1,0,4.2-.2,5.3.5,1.9,1.6.9,4.4.8,6.5"/>
      <path class="cls-7" d="M252.1,435c-4.8-1.3-10.8-2.6-14.9-5.3-1.7-1.2-2.5-3.6,0-4.5,1.8-.8,4.7-.2,7.3.4,2.2.5,4.3,1.1,6.5,1.7,1.9.5,3.9.9,4.7,1.8,1.3,1.9-.3,4.1-.9,5.9"/>
      <path class="cls-7" d="M269.1,428.7c-3-3-6.9-6.4-8.6-10.7-.7-1.8,0-4.6,2.2-4.6,1.8-.2,3.7,1.5,5.4,3,1.4,1.3,2.7,2.7,4.1,4,1.2,1.2,2.5,2.3,2.6,3.5,0,2.4-2.3,4.1-3.8,5.8"/>
      <path class="cls-4" d="M25.3,517.9c-5.5.9-12.2,2.3-17.3,1.9-2.1-.2-3.8-1.8-1.5-3.4,1.6-1.3,4.9-2,7.8-2.6,2.4-.5,4.9-.8,7.3-1.3,2.1-.4,4.4-.9,5.5-.5,2,.9,1,3.3.9,5"/>
      <path class="cls-4" d="M31.9,524.5c-3.4,1.8-7.4,4.2-11.2,4.7-1.6.2-3.5-.9-2.8-2.7.5-1.5,2.4-2.7,4.2-3.7,1.5-.8,3-1.6,4.5-2.5,1.3-.7,2.6-1.6,3.6-1.4,1.9.5,2.3,2.7,3.2,4.2"/>
      <path class="cls-4" d="M23.3,510.7c-5.3,0-11.8.4-16.7-1.3-2-.8-3.6-3.1-1.4-4.7,1.6-1.3,4.8-1.5,7.6-1.6,2.4,0,4.7,0,7.1,0,2.1,0,4.2-.2,5.3.5,1.9,1.6.9,4.4.8,6.5"/>
      <path class="cls-4" d="M25.1,500c-4.8-1.3-10.8-2.6-14.9-5.3-1.7-1.2-2.5-3.6,0-4.5,1.8-.8,4.7-.2,7.3.4,2.2.5,4.3,1.1,6.5,1.7,1.9.5,3.9.9,4.7,1.8,1.4,1.9-.3,4.1-.9,5.9"/>
      <path class="cls-4" d="M42.1,493.7c-3-3-6.9-6.4-8.7-10.7-.7-1.8,0-4.6,2.2-4.6,1.8-.2,3.7,1.5,5.3,3,1.4,1.3,2.7,2.7,4.1,4,1.2,1.2,2.5,2.3,2.6,3.5,0,2.4-2.3,4.1-3.8,5.8"/>
      <g>
        <line class="cls-3" x1="94.7" y1="414.3" x2="94.7" y2="425.3"/>
        <polygon class="cls-10" points="94.6 410.8 90.7 416.8 98.7 417 94.6 410.8"/>
      </g>
      <g>
        <line class="cls-3" x1="176.4" y1="414.3" x2="176.4" y2="425.3"/>
        <polygon class="cls-10" points="176.3 410.8 172.4 416.8 180.4 417 176.3 410.8"/>
      </g>
      <g>
        <line class="cls-3" x1="250.4" y1="414.3" x2="250.4" y2="425.3"/>
        <polygon class="cls-10" points="250.3 410.8 246.4 416.8 254.4 417 250.3 410.8"/>
      </g>
      <path class="cls-4" d="M325.8,445.4c-5.3,0-11.8.4-16.7-1.3-2-.8-3.6-3.1-1.4-4.7,1.6-1.3,4.8-1.5,7.6-1.6,2.4,0,4.7,0,7.1,0,2.1,0,4.2-.2,5.3.5,1.9,1.6.9,4.4.8,6.5"/>
      <path class="cls-4" d="M327.6,434.6c-4.8-1.3-10.8-2.6-14.9-5.3-1.7-1.2-2.5-3.6,0-4.5,1.8-.8,4.7-.2,7.3.4,2.2.5,4.3,1.1,6.5,1.7,1.9.5,3.9.9,4.7,1.8,1.4,1.9-.3,4.1-.9,5.9"/>
      <path class="cls-4" d="M344.6,428.3c-3-3-6.9-6.4-8.6-10.7-.7-1.8,0-4.6,2.2-4.6,1.8-.2,3.7,1.5,5.4,3,1.4,1.3,2.7,2.7,4.1,4,1.2,1.2,2.5,2.3,2.6,3.5,0,2.4-2.3,4.1-3.8,5.8"/>
      <g class="cls-23">
        <line class="cls-6" x1="328.5" y1="365.2" x2="319.5" y2="358.8"/>
        <polygon class="cls-2" points="331.4 367.1 328.8 360.5 324 366.9 331.4 367.1"/>
      </g>
      <g class="cls-23">
        <line class="cls-6" x1="251.4" y1="361.4" x2="242.5" y2="355"/>
        <polygon class="cls-2" points="254.4 363.3 251.7 356.7 246.9 363.1 254.4 363.3"/>
      </g>
    </g>
  </g>
</svg>