<?xml version="1.0" encoding="UTF-8"?>
<svg xmlns="http://www.w3.org/2000/svg" version="1.1" viewBox="0 0 396.85 538.58">
  <defs>
    <style>
      .cls-1 {
        stroke: blue;
      }

      .cls-1, .cls-2, .cls-3, .cls-4, .cls-5, .cls-6, .cls-7, .cls-8, .cls-9, .cls-10, .cls-11, .cls-12, .cls-13, .cls-14, .cls-15 {
        stroke-miterlimit: 10;
      }

      .cls-1, .cls-2, .cls-4, .cls-5, .cls-9, .cls-10, .cls-11, .cls-12, .cls-13 {
        fill: none;
      }

      .cls-1, .cls-6, .cls-16, .cls-17, .cls-18 {
        opacity: .66;
      }

      .cls-1, .cls-6, .cls-15 {
        stroke-width: 2px;
      }

      .cls-2, .cls-3, .cls-4, .cls-5, .cls-7, .cls-8 {
        stroke: #000;
      }

      .cls-2, .cls-8, .cls-10 {
        stroke-width: .5px;
      }

      .cls-3 {
        stroke-width: .25px;
      }

      .cls-3, .cls-7, .cls-8 {
        fill: #c7b299;
      }

      .cls-5 {
        stroke-width: .75px;
      }

      .cls-19, .cls-17 {
        fill: blue;
      }

      .cls-19, .cls-15 {
        opacity: .69;
      }

      .cls-6, .cls-16, .cls-20, .cls-14, .cls-21, .cls-22, .cls-15 {
        fill: #ed1c24;
      }

      .cls-6, .cls-9, .cls-11, .cls-14, .cls-15 {
        stroke: #ed1c24;
      }

      .cls-23 {
        font-family: Avenir-Heavy, Avenir;
        font-size: 28.16px;
        font-weight: 800;
      }

      .cls-9 {
        fill-rule: evenodd;
      }

      .cls-10 {
        stroke: #666;
      }

      .cls-20 {
        opacity: .7;
      }

      .cls-12 {
        stroke: #4d4d4d;
      }

      .cls-13 {
        stroke: #1a1a1a;
      }

      .cls-22 {
        opacity: .68;
      }
    </style>
  </defs>
  <!-- Generator: Adobe Illustrator 28.7.5, SVG Export Plug-In . SVG Version: 1.2.0 Build 176)  -->
  <g>
    <g id="Layer_1">
	  
	   <g id="tap_set_g0">
        <path class="cls-5" d="M30,105.88c.9-3.04,2.69-6.55,2.93-9.81-.02-1.56-1.15-3.27-2.18-4.89-1.55-2.83-2.7-5.81-5.27-7.9-1.66-1.83-1.67-4.54-3.36-6.38-1.14-1.23-2.6-2.33-4.06-3.11-1.45-.74-2.78-1.19-3.55-2.47-.57-.87.07-1.82.95-2.13,2.52-.96,5.92.66,7.93,2.56,1.54,1.26,2.64,2.97,3.66,4.67,1,1.59,1.97,2.12,2.87.4,2.45-4.42,1.69-9.72.4-14.35-.46-2.17-.56-4.48-1.24-6.57-.7-2.35-1.54-4.62-1.89-7.03-.31-1.42.6-3.48,2.19-2.62.81.49,1.47,1.47,1.92,2.38,2.18,3.55,1.17,7.64,3.41,11,.55.9,1.17,2.41,1.66,3.15,1.53,1.77,2.38-1.81,2.62-3.01.46-5.3.04-10.46.19-15.81-.23-4.03,4.79-4.56,5.05-.47.13,6.48-.08,12.98.06,19.42.07.83.33,1,.81.32,1.01-1.43,1.56-3.53,1.66-5.24.02-2.83.04-5.37,1.31-7.87,1.18-1.99,1.69-6.27,4.11-6.44,3.57,1.29.24,7.82.71,10.8-.03,3.04-1.75,5.77-1.28,8.78.22,1.01.52,1.95,1.56,1.73,3.59-.68,5.02-12.05,8.52-10.48,3.81,3.79-4.66,13.35-5.69,17.36-.48,2.06-.24,4.11-.43,6.24-.32,2.71-.84,5.32-1.33,8.04-1.96,9.21-5.3,8.96-3.67,19.73"/>
        <path class="cls-2" d="M29.06,54.62c.95.04,1.8-.15,2.55-.7"/>
        <path class="cls-2" d="M30.07,58.8c.95.04,1.8-.15,2.55-.7"/>
        <path class="cls-2" d="M30.74,58.04c.45.02.85-.07,1.21-.33"/>
        <path class="cls-2" d="M40.17,50.93c.91.29,1.78.33,2.64,0"/>
        <path class="cls-2" d="M40.32,57.53c.91.29,1.78.33,2.64,0"/>
        <path class="cls-2" d="M48.59,59.06c.91.29,1.78.33,2.64,0"/>
        <path class="cls-2" d="M48.98,51.93c.91.29,1.78.33,2.64,0"/>
        <path class="cls-2" d="M58.24,61.12c.74.6,1.53.96,2.46.96"/>
        <path class="cls-2" d="M56.24,64.79c.74.6,1.53.96,2.46.96"/>
        <path class="cls-2" d="M40.98,56.59c.43.15.84.19,1.25.05"/>
        <path class="cls-2" d="M49.28,58.54c.43.15.84.19,1.25.05"/>
        <path class="cls-2" d="M57.08,64.49c.37.26.75.41,1.19.38"/>
        <path class="cls-7" d="M29,47.55c-1.74.35-1.64,1.01-1.53,3.02.04,1.23,2.62.02,3.18-.19.18-.09.42-.23.45-.46.05-.45-.63-1.49-.95-1.89-.79-.85-1.73-.09-2.62.35"/>
        <path class="cls-7" d="M42.26,42.36c-2.29.03-2.36.97-2.81,3.8-.32,1.72,3.28.72,4.05.59.25-.08.59-.21.7-.53.2-.61-.35-2.24-.64-2.88-.74-1.39-2.14-.59-3.39-.21"/>
        <path class="cls-8" d="M53.23,45.3c-1.92-.53-2.29.34-3.61,2.88-.84,1.54,2.49,1.47,3.18,1.53.23-.01.56-.06.76-.32.37-.52.46-2.18.43-2.85-.15-1.48-1.59-1.07-2.76-1.02"/>
        <path class="cls-3" d="M61.84,56.2c-1.92-.53-2.29.34-3.61,2.88-.84,1.54,2.49,1.47,3.18,1.53.23-.01.56-.06.76-.32.37-.52.46-2.18.43-2.85-.15-1.48-1.59-1.07-2.76-1.02"/>
      </g>
	  
      <g>
        <path class="cls-5" d="M90.57,105.94c.9-3.04,2.69-6.55,2.93-9.81-.02-1.56-1.15-3.27-2.18-4.89-1.55-2.83-2.7-5.81-5.27-7.9-1.66-1.83-1.67-4.54-3.36-6.38-1.14-1.23-2.6-2.33-4.06-3.11-1.45-.74-2.78-1.19-3.55-2.47-.57-.87.07-1.82.95-2.13,2.52-.96,5.92.66,7.93,2.56,1.54,1.26,2.64,2.97,3.66,4.67,1,1.59,1.97,2.12,2.87.4,2.45-4.42,1.69-9.72.4-14.35-.46-2.17-.56-4.48-1.24-6.57-.7-2.35-1.54-4.62-1.89-7.03-.31-1.42.6-3.48,2.19-2.62.81.49,1.47,1.47,1.92,2.38,2.18,3.55,1.17,7.64,3.41,11,.55.9,1.17,2.41,1.66,3.15,1.53,1.77,2.38-1.81,2.62-3.01.46-5.3.04-10.46.19-15.81-.23-4.03,4.79-4.56,5.05-.47.13,6.48-.08,12.98.06,19.42.07.83.33,1,.81.32,1.01-1.43,1.56-3.53,1.66-5.24.02-2.83.04-5.37,1.31-7.87,1.18-1.99,1.69-6.27,4.11-6.44,3.57,1.29.24,7.82.71,10.8-.03,3.04-1.75,5.77-1.28,8.78.22,1.01.52,1.95,1.56,1.73,3.59-.68,5.02-12.05,8.52-10.48,3.81,3.79-4.66,13.35-5.69,17.36-.48,2.06-.24,4.11-.43,6.24-.32,2.71-.84,5.32-1.33,8.04-1.96,9.21-5.3,8.96-3.67,19.73"/>
        <path class="cls-2" d="M89.63,52.88c.95.04,1.8-.15,2.55-.7"/>
        <path class="cls-2" d="M90.64,57.06c.95.04,1.8-.15,2.55-.7"/>
        <path class="cls-2" d="M91.31,56.31c.45.02.85-.07,1.21-.33"/>
        <path class="cls-20" d="M85.82,81.16c.99.05,1.8-1.4,2.31-2.32.58-.98.41-2.24-.41-3-1.46-1.29-2.47-3.19-3.88-4.34-2.16-1.59-4.53-3.59-7.13-2.7-1.57.45-1.68,2.13-.3,3.27.78.71,1.91,1.21,2.81,1.74,1.32.76,2.54,1.68,3.57,2.88.8.92,1.37,2.15,1.96,3.32.24.47.53,1.05,1.02,1.13h.06Z"/>
        <path class="cls-2" d="M100.74,49.19c.91.29,1.78.33,2.64,0"/>
        <path class="cls-2" d="M100.88,55.8c.91.29,1.78.33,2.64,0"/>
        <path class="cls-2" d="M109.15,57.33c.91.29,1.78.33,2.64,0"/>
        <path class="cls-2" d="M109.54,50.19c.91.29,1.78.33,2.64,0"/>
        <path class="cls-2" d="M118.8,59.39c.74.6,1.53.96,2.46.96"/>
        <path class="cls-2" d="M116.81,63.06c.74.6,1.53.96,2.46.96"/>
        <path class="cls-2" d="M101.54,54.85c.43.15.84.19,1.25.05"/>
        <path class="cls-2" d="M109.85,56.8c.43.15.84.19,1.25.05"/>
        <path class="cls-2" d="M117.64,62.75c.37.26.75.41,1.19.38"/>
        <path class="cls-7" d="M89.56,45.81c-1.74.35-1.64,1.01-1.53,3.02.04,1.23,2.62.02,3.18-.19.18-.09.42-.23.45-.46.05-.45-.63-1.49-.95-1.89-.79-.85-1.73-.09-2.62.35"/>
        <path class="cls-7" d="M102.82,40.63c-2.29.03-2.36.97-2.81,3.8-.32,1.72,3.28.72,4.05.59.25-.08.59-.21.7-.53.2-.61-.35-2.24-.64-2.88-.74-1.39-2.14-.59-3.39-.21"/>
        <path class="cls-8" d="M113.79,43.56c-1.92-.53-2.29.34-3.61,2.88-.84,1.54,2.49,1.47,3.18,1.53.23-.01.56-.06.76-.32.37-.52.46-2.18.43-2.85-.15-1.48-1.59-1.07-2.76-1.02"/>
        <path class="cls-3" d="M122.41,54.46c-1.92-.53-2.29.34-3.61,2.88-.84,1.54,2.49,1.47,3.18,1.53.23-.01.56-.06.76-.32.37-.52.46-2.18.43-2.85-.15-1.48-1.59-1.07-2.76-1.02"/>
      </g>
     
      <g>
        <path class="cls-5" d="M151.13,106.04c.9-3.04,2.69-6.55,2.93-9.81-.02-1.56-1.15-3.27-2.18-4.89-1.55-2.83-2.7-5.81-5.27-7.9-1.66-1.83-1.67-4.54-3.36-6.38-1.14-1.23-2.6-2.33-4.06-3.11-1.45-.74-2.78-1.19-3.55-2.47-.57-.87.07-1.82.95-2.13,2.52-.96,5.92.66,7.93,2.56,1.54,1.26,2.64,2.97,3.66,4.67,1,1.59,1.97,2.12,2.87.4,2.45-4.42,1.69-9.72.4-14.35-.46-2.17-.56-4.48-1.24-6.57-.7-2.35-1.54-4.62-1.89-7.03-.31-1.42.6-3.48,2.19-2.62.81.49,1.47,1.47,1.92,2.38,2.18,3.55,1.17,7.64,3.41,11,.55.9,1.17,2.41,1.66,3.15,1.53,1.77,2.38-1.81,2.62-3.01.46-5.3.04-10.46.19-15.81-.23-4.03,4.79-4.56,5.05-.47.13,6.48-.08,12.98.06,19.42.07.83.33,1,.81.32,1.01-1.43,1.56-3.53,1.66-5.24.02-2.83.04-5.37,1.31-7.87,1.18-1.99,1.69-6.27,4.11-6.44,3.57,1.29.24,7.82.71,10.8-.03,3.04-1.75,5.77-1.28,8.78.22,1.01.52,1.95,1.56,1.73,3.59-.68,5.02-12.05,8.52-10.48,3.81,3.79-4.66,13.35-5.69,17.36-.48,2.06-.24,4.11-.43,6.24-.32,2.71-.84,5.32-1.33,8.04-1.96,9.21-5.3,8.96-3.67,19.73"/>
        <path class="cls-2" d="M150.19,52.77c.95.04,1.8-.15,2.55-.7"/>
        <path class="cls-2" d="M151.2,56.96c.95.04,1.8-.15,2.55-.7"/>
        <path class="cls-2" d="M151.87,56.2c.45.02.85-.07,1.21-.33"/>
        <path class="cls-20" d="M152.04,64.41c.84.51,2.29-.61,3.21-1.32,1.01-.74,1.5-2.12,1.17-3.29-.62-2-.54-4.44-1.19-6.27-1.09-2.64-2.14-5.81-4.88-6.08-1.6-.26-2.56,1.42-1.93,3.23.32,1.1,1.06,2.13,1.57,3.1.77,1.4,1.37,2.91,1.66,4.63.23,1.32.1,2.86.02,4.34-.03.6-.07,1.32.32,1.63l.05.03Z"/>
        <path class="cls-2" d="M161.3,49.09c.91.29,1.78.33,2.64,0"/>
        <path class="cls-2" d="M161.44,55.69c.91.29,1.78.33,2.64,0"/>
        <path class="cls-2" d="M169.71,57.22c.91.29,1.78.33,2.64,0"/>
        <path class="cls-2" d="M170.1,50.09c.91.29,1.78.33,2.64,0"/>
        <path class="cls-2" d="M179.36,59.28c.74.6,1.53.96,2.46.96"/>
        <path class="cls-2" d="M177.37,62.95c.74.6,1.53.96,2.46.96"/>
        <path class="cls-2" d="M162.11,54.75c.43.15.84.19,1.25.05"/>
        <path class="cls-2" d="M170.41,56.7c.43.15.84.19,1.25.05"/>
        <path class="cls-2" d="M178.2,62.65c.37.26.75.41,1.19.38"/>
        <path class="cls-7" d="M150.13,45.7c-1.74.35-1.64,1.01-1.53,3.02.04,1.23,2.62.02,3.18-.19.18-.09.42-.23.45-.46.05-.45-.63-1.49-.95-1.89-.79-.85-1.73-.09-2.62.35"/>
        <path class="cls-7" d="M163.38,40.52c-2.29.03-2.36.97-2.81,3.8-.32,1.72,3.28.72,4.05.59.25-.08.59-.21.7-.53.2-.61-.35-2.24-.64-2.88-.74-1.39-2.14-.59-3.39-.21"/>
        <path class="cls-8" d="M174.36,43.46c-1.92-.53-2.29.34-3.61,2.88-.84,1.54,2.49,1.47,3.18,1.53.23-.01.56-.06.76-.32.37-.52.46-2.18.43-2.85-.15-1.48-1.59-1.07-2.76-1.02"/>
        <path class="cls-3" d="M182.97,54.36c-1.92-.53-2.29.34-3.61,2.88-.84,1.54,2.49,1.47,3.18,1.53.23-.01.56-.06.76-.32.37-.52.46-2.18.43-2.85-.15-1.48-1.59-1.07-2.76-1.02"/>
      </g>
      <g>
        <path class="cls-5" d="M211.69,106.04c.9-3.04,2.69-6.55,2.93-9.81-.02-1.56-1.15-3.27-2.18-4.89-1.55-2.83-2.7-5.81-5.27-7.9-1.66-1.83-1.67-4.54-3.36-6.38-1.14-1.23-2.6-2.33-4.06-3.11-1.45-.74-2.78-1.19-3.55-2.47-.57-.87.07-1.82.95-2.13,2.52-.96,5.92.66,7.93,2.56,1.54,1.26,2.64,2.97,3.66,4.67,1,1.59,1.97,2.12,2.87.4,2.45-4.42,1.69-9.72.4-14.35-.46-2.17-.56-4.48-1.24-6.57-.7-2.35-1.54-4.62-1.89-7.03-.31-1.42.6-3.48,2.19-2.62.81.49,1.47,1.47,1.92,2.38,2.18,3.55,1.17,7.64,3.41,11,.55.9,1.17,2.41,1.66,3.15,1.53,1.77,2.38-1.81,2.62-3.01.46-5.3.04-10.46.19-15.81-.23-4.03,4.79-4.56,5.05-.47.13,6.48-.08,12.98.06,19.42.07.83.33,1,.81.32,1.01-1.43,1.56-3.53,1.66-5.24.02-2.83.04-5.37,1.31-7.87,1.18-1.99,1.69-6.27,4.11-6.44,3.57,1.29.24,7.82.71,10.8-.03,3.04-1.75,5.77-1.28,8.78.22,1.01.52,1.95,1.56,1.73,3.59-.68,5.02-12.05,8.52-10.48,3.81,3.79-4.66,13.35-5.69,17.36-.48,2.06-.24,4.11-.43,6.24-.32,2.71-.84,5.32-1.33,8.04-1.96,9.21-5.3,8.96-3.67,19.73"/>
        <path class="cls-2" d="M210.75,52.77c.95.04,1.8-.15,2.55-.7"/>
        <path class="cls-2" d="M211.76,56.96c.95.04,1.8-.15,2.55-.7"/>
        <path class="cls-2" d="M212.43,56.2c.45.02.85-.07,1.21-.33"/>
        <path class="cls-2" d="M221.86,49.09c.91.29,1.78.33,2.64,0"/>
        <path class="cls-2" d="M222.01,55.69c.91.29,1.78.33,2.64,0"/>
        <path class="cls-2" d="M230.28,57.22c.91.29,1.78.33,2.64,0"/>
        <path class="cls-2" d="M230.67,50.09c.91.29,1.78.33,2.64,0"/>
        <path class="cls-2" d="M239.93,59.28c.74.6,1.53.96,2.46.96"/>
        <path class="cls-2" d="M237.93,62.95c.74.6,1.53.96,2.46.96"/>
        <path class="cls-2" d="M222.67,54.75c.43.15.84.19,1.25.05"/>
        <path class="cls-2" d="M230.97,56.7c.43.15.84.19,1.25.05"/>
        <path class="cls-2" d="M238.77,62.65c.37.26.75.41,1.19.38"/>
        <path class="cls-7" d="M210.69,45.7c-1.74.35-1.64,1.01-1.53,3.02.04,1.23,2.62.02,3.18-.19.18-.09.42-.23.45-.46.05-.45-.63-1.49-.95-1.89-.79-.85-1.73-.09-2.62.35"/>
        <path class="cls-7" d="M223.95,40.52c-2.29.03-2.36.97-2.81,3.8-.32,1.72,3.28.72,4.05.59.25-.08.59-.21.7-.53.2-.61-.35-2.24-.64-2.88-.74-1.39-2.14-.59-3.39-.21"/>
        <path class="cls-8" d="M234.92,43.46c-1.92-.53-2.29.34-3.61,2.88-.84,1.54,2.49,1.47,3.18,1.53.23-.01.56-.06.76-.32.37-.52.46-2.18.43-2.85-.15-1.48-1.59-1.07-2.76-1.02"/>
        <path class="cls-3" d="M243.53,54.36c-1.92-.53-2.29.34-3.61,2.88-.84,1.54,2.49,1.47,3.18,1.53.23-.01.56-.06.76-.32.37-.52.46-2.18.43-2.85-.15-1.48-1.59-1.07-2.76-1.02"/>
        <path class="cls-22" d="M220.76,63.01c.26-6.63-.67-13.55.5-19.89.46-1.98,2.41-3.11,3.62-.71.6,1.19.75,2.92.79,4.3.02,3.36.12,7.04-.05,10.32-.17,2.73-1.63,4.22-4.19,5.5"/>
      </g>
      <g>
        <path class="cls-5" d="M272.26,106.04c.9-3.04,2.69-6.55,2.93-9.81-.02-1.56-1.15-3.27-2.18-4.89-1.55-2.83-2.7-5.81-5.27-7.9-1.66-1.83-1.67-4.54-3.36-6.38-1.14-1.23-2.6-2.33-4.06-3.11-1.45-.74-2.78-1.19-3.55-2.47-.57-.87.07-1.82.95-2.13,2.52-.96,5.92.66,7.93,2.56,1.54,1.26,2.64,2.97,3.66,4.67,1,1.59,1.97,2.12,2.87.4,2.45-4.42,1.69-9.72.4-14.35-.46-2.17-.56-4.48-1.24-6.57-.7-2.35-1.54-4.62-1.89-7.03-.31-1.42.6-3.48,2.19-2.62.81.49,1.47,1.47,1.92,2.38,2.18,3.55,1.17,7.64,3.41,11,.55.9,1.17,2.41,1.66,3.15,1.53,1.77,2.38-1.81,2.62-3.01.46-5.3.04-10.46.19-15.81-.23-4.03,4.79-4.56,5.05-.47.13,6.48-.08,12.98.06,19.42.07.83.33,1,.81.32,1.01-1.43,1.56-3.53,1.66-5.24.02-2.83.04-5.37,1.31-7.87,1.18-1.99,1.69-6.27,4.11-6.44,3.57,1.29.24,7.82.71,10.8-.03,3.04-1.75,5.77-1.28,8.78.22,1.01.52,1.95,1.56,1.73,3.59-.68,5.02-12.05,8.52-10.48,3.81,3.79-4.66,13.35-5.69,17.36-.48,2.06-.24,4.11-.43,6.24-.32,2.71-.84,5.32-1.33,8.04-1.96,9.21-5.3,8.96-3.67,19.73"/>
        <path class="cls-2" d="M271.32,52.77c.95.04,1.8-.15,2.55-.7"/>
        <path class="cls-2" d="M272.33,56.96c.95.04,1.8-.15,2.55-.7"/>
        <path class="cls-2" d="M272.99,56.2c.45.02.85-.07,1.21-.33"/>
        <path class="cls-2" d="M282.43,49.09c.91.29,1.78.33,2.64,0"/>
        <path class="cls-2" d="M282.57,55.69c.91.29,1.78.33,2.64,0"/>
        <path class="cls-2" d="M290.84,57.22c.91.29,1.78.33,2.64,0"/>
        <path class="cls-2" d="M291.23,50.09c.91.29,1.78.33,2.64,0"/>
        <path class="cls-2" d="M300.49,59.28c.74.6,1.53.96,2.46.96"/>
        <path class="cls-2" d="M298.5,62.95c.74.6,1.53.96,2.46.96"/>
        <path class="cls-2" d="M283.23,54.75c.43.15.84.19,1.25.05"/>
        <path class="cls-2" d="M291.54,56.7c.43.15.84.19,1.25.05"/>
        <path class="cls-2" d="M299.33,62.65c.37.26.75.41,1.19.38"/>
        <path class="cls-7" d="M271.25,45.7c-1.74.35-1.64,1.01-1.53,3.02.04,1.23,2.62.02,3.18-.19.18-.09.42-.23.45-.46.05-.45-.63-1.49-.95-1.89-.79-.85-1.73-.09-2.62.35"/>
        <path class="cls-7" d="M284.51,40.52c-2.29.03-2.36.97-2.81,3.8-.32,1.72,3.28.72,4.05.59.25-.08.59-.21.7-.53.2-.61-.35-2.24-.64-2.88-.74-1.39-2.14-.59-3.39-.21"/>
        <path class="cls-8" d="M295.48,43.46c-1.92-.53-2.29.34-3.61,2.88-.84,1.54,2.49,1.47,3.18,1.53.23-.01.56-.06.76-.32.37-.52.46-2.18.43-2.85-.15-1.48-1.59-1.07-2.76-1.02"/>
        <path class="cls-3" d="M304.1,54.36c-1.92-.53-2.29.34-3.61,2.88-.84,1.54,2.49,1.47,3.18,1.53.23-.01.56-.06.76-.32.37-.52.46-2.18.43-2.85-.15-1.48-1.59-1.07-2.76-1.02"/>
        <path class="cls-22" d="M288.32,64.36c1.49-6.47,1.87-13.44,4.2-19.45.82-1.86,2.95-2.6,3.69-.02.37,1.29.19,3.01-.03,4.37-.6,3.3-1.2,6.93-1.97,10.13-.67,2.65-2.39,3.84-5.14,4.63"/>
      </g>
      <g>
        <path class="cls-5" d="M332.4,106.04c.9-3.04,2.69-6.55,2.93-9.81-.02-1.56-1.15-3.27-2.18-4.89-1.55-2.83-2.7-5.81-5.27-7.9-1.66-1.83-1.67-4.54-3.36-6.38-1.14-1.23-2.6-2.33-4.06-3.11-1.45-.74-2.78-1.19-3.55-2.47-.57-.87.07-1.82.95-2.13,2.52-.96,5.92.66,7.93,2.56,1.54,1.26,2.64,2.97,3.66,4.67,1,1.59,1.97,2.12,2.87.4,2.45-4.42,1.69-9.72.4-14.35-.46-2.17-.56-4.48-1.24-6.57-.7-2.35-1.54-4.62-1.89-7.03-.31-1.42.6-3.48,2.19-2.62.81.49,1.47,1.47,1.92,2.38,2.18,3.55,1.17,7.64,3.41,11,.55.9,1.17,2.41,1.66,3.15,1.53,1.77,2.38-1.81,2.62-3.01.46-5.3.04-10.46.19-15.81-.23-4.03,4.79-4.56,5.05-.47.13,6.48-.08,12.98.06,19.42.07.83.33,1,.81.32,1.01-1.43,1.56-3.53,1.66-5.24.02-2.83.04-5.37,1.31-7.87,1.18-1.99,1.69-6.27,4.11-6.44,3.57,1.29.24,7.82.71,10.8-.03,3.04-1.75,5.77-1.28,8.78.22,1.01.52,1.95,1.56,1.73,3.59-.68,5.02-12.05,8.52-10.48,3.81,3.79-4.66,13.35-5.69,17.36-.48,2.06-.24,4.11-.43,6.24-.32,2.71-.84,5.32-1.33,8.04-1.96,9.21-5.3,8.96-3.67,19.73"/>
        <path class="cls-2" d="M331.46,52.77c.95.04,1.8-.15,2.55-.7"/>
        <path class="cls-2" d="M332.47,56.96c.95.04,1.8-.15,2.55-.7"/>
        <path class="cls-2" d="M333.14,56.2c.45.02.85-.07,1.21-.33"/>
        <path class="cls-2" d="M342.57,49.09c.91.29,1.78.33,2.64,0"/>
        <path class="cls-2" d="M342.71,55.69c.91.29,1.78.33,2.64,0"/>
        <path class="cls-2" d="M350.98,57.22c.91.29,1.78.33,2.64,0"/>
        <path class="cls-2" d="M351.37,50.09c.91.29,1.78.33,2.64,0"/>
        <path class="cls-2" d="M360.63,59.28c.74.6,1.53.96,2.46.96"/>
        <path class="cls-2" d="M358.64,62.95c.74.6,1.53.96,2.46.96"/>
        <path class="cls-2" d="M343.38,54.75c.43.15.84.19,1.25.05"/>
        <path class="cls-2" d="M351.68,56.7c.43.15.84.19,1.25.05"/>
        <path class="cls-2" d="M359.47,62.65c.37.26.75.41,1.19.38"/>
        <path class="cls-7" d="M331.39,45.7c-1.74.35-1.64,1.01-1.53,3.02.04,1.23,2.62.02,3.18-.19.18-.09.42-.23.45-.46.05-.45-.63-1.49-.95-1.89-.79-.85-1.73-.09-2.62.35"/>
        <path class="cls-7" d="M344.65,40.52c-2.29.03-2.36.97-2.81,3.8-.32,1.72,3.28.72,4.05.59.25-.08.59-.21.7-.53.2-.61-.35-2.24-.64-2.88-.74-1.39-2.14-.59-3.39-.21"/>
        <path class="cls-8" d="M355.63,43.46c-1.92-.53-2.29.34-3.61,2.88-.84,1.54,2.49,1.47,3.18,1.53.23-.01.56-.06.76-.32.37-.52.46-2.18.43-2.85-.15-1.48-1.59-1.07-2.76-1.02"/>
        <path class="cls-3" d="M364.24,54.36c-1.92-.53-2.29.34-3.61,2.88-.84,1.54,2.49,1.47,3.18,1.53.23-.01.56-.06.76-.32.37-.52.46-2.18.43-2.85-.15-1.48-1.59-1.07-2.76-1.02"/>
        <path class="cls-22" d="M354.44,69.32c2.74-4.76,4.54-10.28,7.98-14.41,1.16-1.25,3.32-1.18,3.49,1.13.08,1.15-.44,2.49-.93,3.53-1.25,2.48-2.56,5.23-3.95,7.58-1.18,1.93-3.05,2.36-5.81,2.13"/>
      </g>
      <text class="cls-23" transform="translate(7.18 24.88)"><tspan x="0" y="0">Tap Set</tspan></text>
      <g>
        <path class="cls-5" d="M90.08,172.44c.9-3.04,2.69-6.55,2.93-9.81-.02-1.56-1.15-3.27-2.18-4.89-1.55-2.83-2.7-5.81-5.27-7.9-1.66-1.83-1.67-4.54-3.36-6.38-1.14-1.23-2.6-2.33-4.06-3.11-1.45-.74-2.78-1.19-3.55-2.47-.57-.87.07-1.82.95-2.13,2.52-.96,5.92.66,7.93,2.56,1.54,1.26,2.64,2.97,3.66,4.67,1,1.59,1.97,2.12,2.87.4,2.45-4.42,1.69-9.72.4-14.35-.46-2.17-.56-4.48-1.24-6.57-.7-2.35-1.54-4.62-1.89-7.03-.31-1.42.6-3.48,2.19-2.62.81.49,1.47,1.47,1.92,2.38,2.18,3.55,1.17,7.64,3.41,11,.55.9,1.17,2.41,1.66,3.15,1.53,1.77,2.38-1.81,2.62-3.01.46-5.3.04-10.46.19-15.81-.23-4.03,4.79-4.56,5.05-.47.13,6.48-.08,12.98.06,19.42.07.83.33,1,.81.32,1.01-1.43,1.56-3.53,1.66-5.24.02-2.83.04-5.37,1.31-7.87,1.18-1.99,1.69-6.27,4.11-6.44,3.57,1.29.24,7.82.71,10.8-.03,3.04-1.75,5.77-1.28,8.78.22,1.01.52,1.95,1.56,1.73,3.59-.68,5.02-12.05,8.52-10.48,3.81,3.79-4.66,13.35-5.69,17.36-.48,2.06-.24,4.11-.43,6.24-.32,2.71-.84,5.32-1.33,8.04-1.96,9.21-5.3,8.96-3.67,19.73"/>
        <path class="cls-2" d="M89.14,119.17c.95.04,1.8-.15,2.55-.7"/>
        <path class="cls-2" d="M90.15,123.35c.95.04,1.8-.15,2.55-.7"/>
        <path class="cls-2" d="M90.82,122.6c.45.02.85-.07,1.21-.33"/>
        <path class="cls-2" d="M100.25,115.48c.91.29,1.78.33,2.64,0"/>
        <path class="cls-2" d="M100.39,122.09c.91.29,1.78.33,2.64,0"/>
        <path class="cls-2" d="M108.66,123.62c.91.29,1.78.33,2.64,0"/>
        <path class="cls-2" d="M109.05,116.48c.91.29,1.78.33,2.64,0"/>
        <path class="cls-2" d="M118.31,125.68c.74.6,1.53.96,2.46.96"/>
        <path class="cls-2" d="M116.32,129.35c.74.6,1.53.96,2.46.96"/>
        <path class="cls-2" d="M101.05,121.14c.43.15.84.19,1.25.05"/>
        <path class="cls-2" d="M109.36,123.09c.43.15.84.19,1.25.05"/>
        <path class="cls-2" d="M117.15,129.04c.37.26.75.41,1.19.38"/>
        <path class="cls-7" d="M89.07,112.1c-1.74.35-1.64,1.01-1.53,3.02.04,1.23,2.62.02,3.18-.19.18-.09.42-.23.45-.46.05-.45-.63-1.49-.95-1.89-.79-.85-1.73-.09-2.62.35"/>
        <path class="cls-7" d="M102.33,106.92c-2.29.03-2.36.97-2.81,3.8-.32,1.72,3.28.72,4.05.59.25-.08.59-.21.7-.53.2-.61-.35-2.24-.64-2.88-.74-1.39-2.14-.59-3.39-.21"/>
        <path class="cls-8" d="M113.31,109.85c-1.92-.53-2.29.34-3.61,2.88-.84,1.54,2.49,1.47,3.18,1.53.23-.01.56-.06.76-.32.37-.52.46-2.18.43-2.85-.15-1.48-1.59-1.07-2.76-1.02"/>
        <path class="cls-3" d="M121.92,120.75c-1.92-.53-2.29.34-3.61,2.88-.84,1.54,2.49,1.47,3.18,1.53.23-.01.56-.06.76-.32.37-.52.46-2.18.43-2.85-.15-1.48-1.59-1.07-2.76-1.02"/>
        <path class="cls-22" d="M112.12,135.71c2.74-4.76,4.54-10.28,7.98-14.41,1.16-1.25,3.32-1.18,3.49,1.13.08,1.15-.44,2.49-.93,3.53-1.25,2.48-2.56,5.23-3.95,7.58-1.18,1.93-3.05,2.36-5.81,2.13"/>
        <path class="cls-22" d="M105.31,132.51c1.71-6.93,2.32-14.41,4.85-20.85.88-1.99,3.04-2.78,3.7,0,.33,1.38.09,3.23-.17,4.69-.71,3.54-1.43,7.43-2.31,10.86-.76,2.84-2.53,4.11-5.31,4.94"/>
        <path class="cls-22" d="M99.47,129.76c.4-7.13-.37-14.59.93-21.38.5-2.12,2.48-3.29,3.63-.69.58,1.3.68,3.16.69,4.64-.05,3.61-.04,7.57-.27,11.1-.23,2.93-1.73,4.51-4.31,5.84"/>
        <path class="cls-22" d="M92.32,136.21c-1.54-6.97-4.28-13.95-4.87-20.84-.1-2.17,1.45-3.83,3.24-1.62.89,1.1,1.49,2.86,1.9,4.29.93,3.49,2,7.3,2.73,10.76.57,2.88-.41,4.8-2.49,6.76"/>
        <g>
          <path class="cls-11" d="M112.1,141.94c0-1.09-4.5-2.19-9-2.19-3.33,0-6.66.89-8.17,2.01"/>
          <polygon class="cls-9" points="95.71 142.09 94.1 143 94.34 141.17 95.71 142.09 95.71 142.09"/>
        </g>
        <polygon class="cls-14" points="93.12 144.62 97.65 143.07 94.04 139.92 93.12 144.62"/>
      </g>
      <path class="cls-5" d="M29.58,176c.9-3.04,2.69-6.55,2.93-9.81-.02-1.56-1.15-3.27-2.18-4.89-1.55-2.83-2.7-5.81-5.27-7.9-1.66-1.83-1.67-4.54-3.36-6.38-1.14-1.23-2.6-2.33-4.06-3.11-1.45-.74-2.78-1.19-3.55-2.47-.57-.87.07-1.82.95-2.13,2.52-.96,5.92.66,7.93,2.56,1.54,1.26,2.64,2.97,3.66,4.67,1,1.59,1.97,2.12,2.87.4,2.45-4.42,1.69-9.72.4-14.35-.46-2.17-.56-4.48-1.24-6.57-.7-2.35-1.54-4.62-1.89-7.03-.31-1.42.6-3.48,2.19-2.62.81.49,1.47,1.47,1.92,2.38,2.18,3.55,1.17,7.64,3.41,11,.55.9,1.17,2.41,1.66,3.15,1.53,1.77,2.38-1.81,2.62-3.01.46-5.3.04-10.46.19-15.81-.23-4.03,4.79-4.56,5.05-.47.13,6.48-.08,12.98.06,19.42.07.83.33,1,.81.32,1.01-1.43,1.56-3.53,1.66-5.24.02-2.83.04-5.37,1.31-7.87,1.18-1.99,1.69-6.27,4.11-6.44,3.57,1.29.24,7.82.71,10.8-.03,3.04-1.75,5.77-1.28,8.78.22,1.01.52,1.95,1.56,1.73,3.59-.68,5.02-12.05,8.52-10.48,3.81,3.79-4.66,13.35-5.69,17.36-.48,2.06-.24,4.11-.43,6.24-.32,2.71-.84,5.32-1.33,8.04-1.96,9.21-5.3,8.96-3.67,19.73"/>
      <path class="cls-2" d="M28.64,122.73c.95.04,1.8-.15,2.55-.7"/>
      <path class="cls-2" d="M29.65,126.91c.95.04,1.8-.15,2.55-.7"/>
      <path class="cls-2" d="M30.32,126.15c.45.02.85-.07,1.21-.33"/>
      <path class="cls-2" d="M39.75,119.04c.91.29,1.78.33,2.64,0"/>
      <path class="cls-2" d="M39.9,125.65c.91.29,1.78.33,2.64,0"/>
      <path class="cls-2" d="M48.17,127.17c.91.29,1.78.33,2.64,0"/>
      <path class="cls-2" d="M48.56,120.04c.91.29,1.78.33,2.64,0"/>
      <path class="cls-2" d="M57.82,129.24c.74.6,1.53.96,2.46.96"/>
      <path class="cls-2" d="M55.82,132.91c.74.6,1.53.96,2.46.96"/>
      <path class="cls-2" d="M40.56,124.7c.43.15.84.19,1.25.05"/>
      <path class="cls-2" d="M48.86,126.65c.43.15.84.19,1.25.05"/>
      <path class="cls-2" d="M56.66,132.6c.37.26.75.41,1.19.38"/>
      <path class="cls-7" d="M28.58,115.66c-1.74.35-1.64,1.01-1.53,3.02.04,1.23,2.62.02,3.18-.19.18-.09.42-.23.45-.46.05-.45-.63-1.49-.95-1.89-.79-.85-1.73-.09-2.62.35"/>
      <path class="cls-7" d="M41.84,110.48c-2.29.03-2.36.97-2.81,3.8-.32,1.72,3.28.72,4.05.59.25-.08.59-.21.7-.53.2-.61-.35-2.24-.64-2.88-.74-1.39-2.14-.59-3.39-.21"/>
      <path class="cls-8" d="M52.81,113.41c-1.92-.53-2.29.34-3.61,2.88-.84,1.54,2.49,1.47,3.18,1.53.23-.01.56-.06.76-.32.37-.52.46-2.18.43-2.85-.15-1.48-1.59-1.07-2.76-1.02"/>
      <path class="cls-3" d="M61.42,124.31c-1.92-.53-2.29.34-3.61,2.88-.84,1.54,2.49,1.47,3.18,1.53.23-.01.56-.06.76-.32.37-.52.46-2.18.43-2.85-.15-1.48-1.59-1.07-2.76-1.02"/>
      <path class="cls-22" d="M51.63,139.27c2.74-4.76,4.54-10.28,7.98-14.41,1.16-1.25,3.32-1.18,3.49,1.13.08,1.15-.44,2.49-.93,3.53-1.25,2.48-2.56,5.23-3.95,7.58-1.18,1.93-3.05,2.36-5.81,2.13"/>
      <path class="cls-22" d="M44.81,136.07c1.71-6.93,2.32-14.41,4.85-20.85.88-1.99,3.04-2.78,3.7,0,.33,1.38.09,3.23-.17,4.69-.71,3.54-1.43,7.43-2.31,10.86-.76,2.84-2.53,4.11-5.31,4.94"/>
      <path class="cls-22" d="M38.98,133.32c.4-7.13-.37-14.59.93-21.38.5-2.12,2.48-3.29,3.63-.69.58,1.3.68,3.16.69,4.64-.05,3.61-.04,7.57-.27,11.1-.23,2.93-1.73,4.51-4.31,5.84"/>
      <path class="cls-22" d="M31.82,139.77c-1.54-6.97-4.28-13.95-4.87-20.84-.1-2.17,1.45-3.83,3.24-1.62.89,1.1,1.49,2.86,1.9,4.29.93,3.49,2,7.3,2.73,10.76.57,2.88-.41,4.8-2.49,6.76"/>
      <g>
        <path class="cls-11" d="M50.48,143.9c0-1.09-4.5-2.19-9-2.19-3.33,0-6.66.89-8.17,2.01"/>
        <polygon class="cls-9" points="34.08 144.05 32.48 144.96 32.71 143.13 34.08 144.05 34.08 144.05"/>
      </g>
      <polygon class="cls-14" points="48.49 145.58 53.02 144.03 49.41 140.88 48.49 145.58"/>
      <g>
        <g>
          <path class="cls-11" d="M102.59,267.39c-.56-.39-2.95,1.24-4.77,3.26-1.35,1.5-2.25,3.31-2.28,4.38"/>
          <polygon class="cls-9" points="96.02 274.8 95.84 275.85 94.99 275.09 96.02 274.8 96.02 274.8"/>
        </g>
        <polygon class="cls-14" points="102.65 268.87 103.69 266.29 100.62 266.79 102.65 268.87"/>
      </g>
      <g>
        <g>
          <path class="cls-11" d="M176.38,265.37c-.56-.39-2.95,1.24-4.77,3.26-1.35,1.5-2.25,3.31-2.28,4.38"/>
          <polygon class="cls-9" points="169.81 272.79 169.62 273.84 168.78 273.08 169.81 272.79 169.81 272.79"/>
        </g>
        <polygon class="cls-14" points="176.43 266.86 177.48 264.28 174.4 264.78 176.43 266.86"/>
      </g>
      <g>
        <g>
          <path class="cls-11" d="M252.38,265.37c-.56-.39-2.95,1.24-4.77,3.26-1.35,1.5-2.25,3.31-2.28,4.38"/>
          <polygon class="cls-9" points="245.81 272.79 245.62 273.84 244.78 273.08 245.81 272.79 245.81 272.79"/>
        </g>
        <polygon class="cls-14" points="252.43 266.86 253.48 264.28 250.4 264.78 252.43 266.86"/>
      </g>
      <g>
        <g>
          <path class="cls-11" d="M328.38,265.37c-.56-.39-2.95,1.24-4.77,3.26-1.35,1.5-2.25,3.31-2.28,4.38"/>
          <polygon class="cls-9" points="321.81 272.79 321.62 273.84 320.78 273.08 321.81 272.79 321.81 272.79"/>
        </g>
        <polygon class="cls-14" points="328.43 266.86 329.48 264.28 326.4 264.78 328.43 266.86"/>
      </g>
      <text class="cls-23" transform="translate(7.18 201.61)"><tspan x="0" y="0">Bend Set</tspan></text>
      <text class="cls-23" transform="translate(7.18 344.61)"><tspan x="0" y="0">Multi-Finger Set</tspan></text>
      <g>
        <path class="cls-4" d="M71.62,224.95c-7.31,2.88-13.68,1.35-19.95-3.24-5.25-3.55-10.47-8.47-14.66-12.99-3.56-3.27-4.29,3.27-3.12,5.63.93,2.78,3.62,4.55,5.36,6.72,2.76,3.47-.68,4.48-3.67,4.24-5.31-.34-10.37-2.21-15.51-3.67-3.46-.69-7.3-2.48-10.65-1.21-2.1,1.38-.41,3.61,1.54,4.75,3.81,2.01,8.67,2.42,12.57,4.34,6.28,3.27-3.37,3.65-6.16,3.55-3.75.17-9.54-.69-12.21,1.46-1.37,1.08-1.19,2.93.33,3.87,2.39,1.56,5.74,1.17,8.62,1.21,2.33.02,4.87-.09,7.19.06,5.56.36,3.67,1.58-.46,2.33-3.19.89-14.94,1.17-14.59,5.41,2.05,5.19,12.45.71,16.52,0,1.89-.35,4.66-1.18,6.24.09.74,2.23-7.18,3.91-8.78,5.15-2.52,1.43-4.38,3.36-3.32,5.27,4.47,4.54,14.1-5.97,19.27-6.56,4.69-1.12,9.73-.18,14.47-1.02,2.86-.44,5.43-1.8,7.98-2.97,4.05-1.88,8.63-1.77,13-1.84"/>
        <path class="cls-13" d="M61.1,242.48c.04-3.96-1.07-7.76-.39-11.63"/>
        <path class="cls-12" d="M35.53,232.74c-.19,4.92,1.69,9.69,4.53,13.64"/>
        <path class="cls-12" d="M37.92,226.98c-.59,5.91,3.09,10.9,6.36,15.49"/>
        <path class="cls-12" d="M40.06,230.84c4.43,4.73,11.37,5.85,17.6,5.82"/>
        <path class="cls-4" d="M63.58,234.73h2.57"/>
        <path class="cls-4" d="M63.58,239.56h2.57"/>
        <path class="cls-13" d="M33.21,252.01c-2.01-2.53-3.97-5.02-5.03-8.11-.75-2.41-1.98-4.71-2.57-7.15-.93-4.16,1.1-8.57,3.57-12.02"/>
        <path class="cls-13" d="M51.93,222.14c-1.55-1.11-3.54-2.02-5.41-1.6-1.09.26-2.13.82-3.21,1.15-1.39.48-2.51,1.36-3.65,2.26"/>
        <path class="cls-10" d="M14.62,225.39l.88-3.74"/>
        <path class="cls-10" d="M19.89,226.74l.88-3.74"/>
        <g>
          <path class="cls-10" d="M22.15,257.43c-.37-.77-1.38-2.9-1.65-3.47"/>
          <path class="cls-10" d="M27.12,255.18l-1.65-3.47"/>
        </g>
        <g>
          <path class="cls-10" d="M14.39,248.25l-.88-3.74"/>
          <path class="cls-10" d="M19.71,247.1l-.88-3.74"/>
        </g>
        <g>
          <path class="cls-10" d="M12.84,238.05l.09-3.84"/>
          <path class="cls-10" d="M18.28,238.29l.09-3.84"/>
        </g>
      </g>
      <g>
        <path class="cls-4" d="M147.2,224.95c-7.31,2.88-13.68,1.35-19.95-3.24-5.25-3.55-10.47-8.47-14.66-12.99-3.56-3.27-4.29,3.27-3.12,5.63.93,2.78,3.62,4.55,5.36,6.72,2.76,3.47-.68,4.48-3.67,4.24-5.31-.34-10.37-2.21-15.51-3.67-3.46-.69-7.3-2.48-10.65-1.21-2.1,1.38-.41,3.61,1.54,4.75,3.81,2.01,8.67,2.42,12.57,4.34,6.28,3.27-3.37,3.65-6.16,3.55-3.75.17-9.54-.69-12.21,1.46-1.37,1.08-1.19,2.93.33,3.87,2.39,1.56,5.74,1.17,8.62,1.21,2.33.02,4.87-.09,7.19.06,5.56.36,3.67,1.58-.46,2.33-3.19.89-14.94,1.17-14.59,5.41,2.05,5.19,12.45.71,16.52,0,1.89-.35,4.66-1.18,6.24.09.74,2.23-7.18,3.91-8.78,5.15-2.52,1.43-4.38,3.36-3.32,5.27,4.47,4.54,14.1-5.97,19.27-6.56,4.69-1.12,9.73-.18,14.47-1.02,2.86-.44,5.43-1.8,7.98-2.97,4.05-1.88,8.63-1.77,13-1.84"/>
        <path class="cls-13" d="M136.69,242.48c.04-3.96-1.07-7.76-.39-11.63"/>
        <path class="cls-12" d="M111.12,232.74c-.19,4.92,1.69,9.69,4.53,13.64"/>
        <path class="cls-12" d="M113.5,226.98c-.59,5.91,3.09,10.9,6.36,15.49"/>
        <path class="cls-12" d="M115.65,230.84c4.43,4.73,11.37,5.85,17.6,5.82"/>
        <path class="cls-4" d="M139.17,234.73h2.57"/>
        <path class="cls-4" d="M139.17,239.56h2.57"/>
        <path class="cls-13" d="M108.8,252.01c-2.01-2.53-3.97-5.02-5.03-8.11-.75-2.41-1.98-4.71-2.57-7.15-.93-4.16,1.1-8.57,3.57-12.02"/>
        <path class="cls-13" d="M127.52,222.14c-1.55-1.11-3.54-2.02-5.41-1.6-1.09.26-2.13.82-3.21,1.15-1.39.48-2.51,1.36-3.65,2.26"/>
        <path class="cls-10" d="M90.2,225.39l.88-3.74"/>
        <path class="cls-10" d="M95.48,226.74l.88-3.74"/>
        <g>
          <path class="cls-10" d="M97.74,257.43c-.37-.77-1.38-2.9-1.65-3.47"/>
          <path class="cls-10" d="M102.71,255.18l-1.65-3.47"/>
        </g>
        <g>
          <path class="cls-10" d="M89.97,248.25l-.88-3.74"/>
          <path class="cls-10" d="M95.3,247.1l-.88-3.74"/>
        </g>
        <g>
          <path class="cls-10" d="M88.43,238.05l.09-3.84"/>
          <path class="cls-10" d="M93.87,238.29l.09-3.84"/>
        </g>
      </g>
      <g>
        <path class="cls-4" d="M222.79,224.95c-7.31,2.88-13.68,1.35-19.95-3.24-5.25-3.55-10.47-8.47-14.66-12.99-3.56-3.27-4.29,3.27-3.12,5.63.93,2.78,3.62,4.55,5.36,6.72,2.76,3.47-.68,4.48-3.67,4.24-5.31-.34-10.37-2.21-15.51-3.67-3.46-.69-7.3-2.48-10.65-1.21-2.1,1.38-.41,3.61,1.54,4.75,3.81,2.01,8.67,2.42,12.57,4.34,6.28,3.27-3.37,3.65-6.16,3.55-3.75.17-9.54-.69-12.21,1.46-1.37,1.08-1.19,2.93.33,3.87,2.39,1.56,5.74,1.17,8.62,1.21,2.33.02,4.87-.09,7.19.06,5.56.36,3.67,1.58-.46,2.33-3.19.89-14.94,1.17-14.59,5.41,2.05,5.19,12.45.71,16.52,0,1.89-.35,4.66-1.18,6.24.09.74,2.23-7.18,3.91-8.78,5.15-2.52,1.43-4.38,3.36-3.32,5.27,4.47,4.54,14.1-5.97,19.27-6.56,4.69-1.12,9.73-.18,14.47-1.02,2.86-.44,5.43-1.8,7.98-2.97,4.05-1.88,8.63-1.77,13-1.84"/>
        <path class="cls-13" d="M212.27,242.48c.04-3.96-1.07-7.76-.39-11.63"/>
        <path class="cls-12" d="M186.71,232.74c-.19,4.92,1.69,9.69,4.53,13.64"/>
        <path class="cls-12" d="M189.09,226.98c-.59,5.91,3.09,10.9,6.36,15.49"/>
        <path class="cls-12" d="M191.23,230.84c4.43,4.73,11.37,5.85,17.6,5.82"/>
        <path class="cls-4" d="M214.76,234.73h2.57"/>
        <path class="cls-4" d="M214.76,239.56h2.57"/>
        <path class="cls-13" d="M184.39,252.01c-2.01-2.53-3.97-5.02-5.03-8.11-.75-2.41-1.98-4.71-2.57-7.15-.93-4.16,1.1-8.57,3.57-12.02"/>
        <path class="cls-13" d="M203.1,222.14c-1.55-1.11-3.54-2.02-5.41-1.6-1.09.26-2.13.82-3.21,1.15-1.39.48-2.51,1.36-3.65,2.26"/>
        <path class="cls-10" d="M165.79,225.39l.88-3.74"/>
        <path class="cls-10" d="M171.07,226.74l.88-3.74"/>
        <g>
          <path class="cls-10" d="M173.33,257.43c-.37-.77-1.38-2.9-1.65-3.47"/>
          <path class="cls-10" d="M178.29,255.18l-1.65-3.47"/>
        </g>
        <g>
          <path class="cls-10" d="M165.56,248.25l-.88-3.74"/>
          <path class="cls-10" d="M170.89,247.1c-.2-.83-.74-3.13-.88-3.74"/>
        </g>
        <g>
          <path class="cls-10" d="M164.01,238.05l.09-3.84"/>
          <path class="cls-10" d="M169.46,238.29l.09-3.84"/>
        </g>
      </g>
      <g>
        <path class="cls-4" d="M298.38,224.95c-7.31,2.88-13.68,1.35-19.95-3.24-5.25-3.55-10.47-8.47-14.66-12.99-3.56-3.27-4.29,3.27-3.12,5.63.93,2.78,3.62,4.55,5.36,6.72,2.76,3.47-.68,4.48-3.67,4.24-5.31-.34-10.37-2.21-15.51-3.67-3.46-.69-7.3-2.48-10.65-1.21-2.1,1.38-.41,3.61,1.54,4.75,3.81,2.01,8.67,2.42,12.57,4.34,6.28,3.27-3.37,3.65-6.16,3.55-3.75.17-9.54-.69-12.21,1.46-1.37,1.08-1.19,2.93.33,3.87,2.39,1.56,5.74,1.17,8.62,1.21,2.33.02,4.87-.09,7.19.06,5.56.36,3.67,1.58-.46,2.33-3.19.89-14.94,1.17-14.59,5.41,2.05,5.19,12.45.71,16.52,0,1.89-.35,4.66-1.18,6.24.09.74,2.23-7.18,3.91-8.78,5.15-2.52,1.43-4.38,3.36-3.32,5.27,4.47,4.54,14.1-5.97,19.27-6.56,4.69-1.12,9.73-.18,14.47-1.02,2.86-.44,5.43-1.8,7.98-2.97,4.05-1.88,8.63-1.77,13-1.84"/>
        <path class="cls-13" d="M287.86,242.48c.04-3.96-1.07-7.76-.39-11.63"/>
        <path class="cls-12" d="M262.29,232.74c-.19,4.92,1.69,9.69,4.53,13.64"/>
        <path class="cls-12" d="M264.68,226.98c-.59,5.91,3.09,10.9,6.36,15.49"/>
        <path class="cls-12" d="M266.82,230.84c4.43,4.73,11.37,5.85,17.6,5.82"/>
        <path class="cls-4" d="M290.34,234.73h2.57"/>
        <path class="cls-4" d="M290.34,239.56h2.57"/>
        <path class="cls-13" d="M259.97,252.01c-2.01-2.53-3.97-5.02-5.03-8.11-.75-2.41-1.98-4.71-2.57-7.15-.93-4.16,1.1-8.57,3.57-12.02"/>
        <path class="cls-13" d="M278.69,222.14c-1.55-1.11-3.54-2.02-5.41-1.6-1.09.26-2.13.82-3.21,1.15-1.39.48-2.51,1.36-3.65,2.26"/>
        <path class="cls-10" d="M241.38,225.39l.88-3.74"/>
        <path class="cls-10" d="M246.65,226.74l.88-3.74"/>
        <g>
          <path class="cls-10" d="M248.92,257.43c-.37-.77-1.38-2.9-1.65-3.47"/>
          <path class="cls-10" d="M253.88,255.18c-.37-.77-1.38-2.9-1.65-3.47"/>
        </g>
        <g>
          <path class="cls-10" d="M241.15,248.25c-.2-.83-.74-3.13-.88-3.74"/>
          <path class="cls-10" d="M246.48,247.1c-.2-.83-.74-3.13-.88-3.74"/>
        </g>
        <g>
          <path class="cls-10" d="M239.6,238.05l.09-3.84"/>
          <path class="cls-10" d="M245.05,238.29c.02-.85.08-3.21.09-3.84"/>
        </g>
      </g>
      <g>
        <path class="cls-4" d="M374.83,224.95c-7.31,2.88-13.68,1.35-19.95-3.24-5.25-3.55-10.47-8.47-14.66-12.99-3.56-3.27-4.29,3.27-3.12,5.63.93,2.78,3.62,4.55,5.36,6.72,2.76,3.47-.68,4.48-3.67,4.24-5.31-.34-10.37-2.21-15.51-3.67-3.46-.69-7.3-2.48-10.65-1.21-2.1,1.38-.41,3.61,1.54,4.75,3.81,2.01,8.67,2.42,12.57,4.34,6.28,3.27-3.37,3.65-6.16,3.55-3.75.17-9.54-.69-12.21,1.46-1.37,1.08-1.19,2.93.33,3.87,2.39,1.56,5.74,1.17,8.62,1.21,2.33.02,4.87-.09,7.19.06,5.56.36,3.67,1.58-.46,2.33-3.19.89-14.94,1.17-14.59,5.41,2.05,5.19,12.45.71,16.52,0,1.89-.35,4.66-1.18,6.24.09.74,2.23-7.18,3.91-8.78,5.15-2.52,1.43-4.38,3.36-3.32,5.27,4.47,4.54,14.1-5.97,19.27-6.56,4.69-1.12,9.73-.18,14.47-1.02,2.86-.44,5.43-1.8,7.98-2.97,4.05-1.88,8.63-1.77,13-1.84"/>
        <path class="cls-13" d="M364.31,242.48c.04-3.96-1.07-7.76-.39-11.63"/>
        <path class="cls-12" d="M338.75,232.74c-.19,4.92,1.69,9.69,4.53,13.64"/>
        <path class="cls-12" d="M341.13,226.98c-.59,5.91,3.09,10.9,6.36,15.49"/>
        <path class="cls-12" d="M343.27,230.84c4.43,4.73,11.37,5.85,17.6,5.82"/>
        <path class="cls-4" d="M366.8,234.73h2.57"/>
        <path class="cls-4" d="M366.8,239.56h2.57"/>
        <path class="cls-13" d="M336.43,252.01c-2.01-2.53-3.97-5.02-5.03-8.11-.75-2.41-1.98-4.71-2.57-7.15-.93-4.16,1.1-8.57,3.57-12.02"/>
        <path class="cls-13" d="M355.14,222.14c-1.55-1.11-3.54-2.02-5.41-1.6-1.09.26-2.13.82-3.21,1.15-1.39.48-2.51,1.36-3.65,2.26"/>
        <path class="cls-10" d="M317.83,225.39l.88-3.74"/>
        <path class="cls-10" d="M323.11,226.74l.88-3.74"/>
        <g>
          <path class="cls-10" d="M325.37,257.43l-1.65-3.47"/>
          <path class="cls-10" d="M330.33,255.18c-.37-.77-1.38-2.9-1.65-3.47"/>
        </g>
        <g>
          <path class="cls-10" d="M317.6,248.25l-.88-3.74"/>
          <path class="cls-10" d="M322.93,247.1c-.2-.83-.74-3.13-.88-3.74"/>
        </g>
        <g>
          <path class="cls-10" d="M316.05,238.05c.02-.85.08-3.21.09-3.84"/>
          <path class="cls-10" d="M321.5,238.29l.09-3.84"/>
        </g>
      </g>
      <g>
        <path class="cls-4" d="M71.62,281.26c-7.31,2.88-13.68,1.35-19.95-3.24-5.25-3.55-10.47-8.47-14.66-12.99-3.56-3.27-4.29,3.27-3.12,5.63.93,2.78,3.62,4.55,5.36,6.72,2.76,3.47-.68,4.48-3.67,4.24-5.31-.34-10.37-2.21-15.51-3.67-3.46-.69-7.3-2.48-10.65-1.21-2.1,1.38-.41,3.61,1.54,4.75,3.81,2.01,8.67,2.42,12.57,4.34,6.28,3.27-3.37,3.65-6.16,3.55-3.75.17-9.54-.69-12.21,1.46-1.37,1.08-1.19,2.93.33,3.87,2.39,1.56,5.74,1.17,8.62,1.21,2.33.02,4.87-.09,7.19.06,5.56.36,3.67,1.58-.46,2.33-3.19.89-14.94,1.17-14.59,5.41,2.05,5.19,12.45.71,16.52,0,1.89-.35,4.66-1.18,6.24.09.74,2.23-7.18,3.91-8.78,5.15-2.52,1.43-4.38,3.36-3.32,5.27,4.47,4.54,14.1-5.97,19.27-6.56,4.69-1.12,9.73-.18,14.47-1.02,2.86-.44,5.43-1.8,7.98-2.97,4.05-1.88,8.63-1.77,13-1.84"/>
        <path class="cls-13" d="M61.1,298.79c.04-3.96-1.07-7.76-.39-11.63"/>
        <path class="cls-12" d="M35.53,289.05c-.19,4.92,1.69,9.69,4.53,13.64"/>
        <path class="cls-12" d="M37.92,283.3c-.59,5.91,3.09,10.9,6.36,15.49"/>
        <path class="cls-12" d="M40.06,287.16c4.43,4.73,11.37,5.85,17.6,5.82"/>
        <path class="cls-4" d="M63.58,291.04h2.57"/>
        <path class="cls-4" d="M63.58,295.87h2.57"/>
        <path class="cls-13" d="M33.21,308.32c-2.01-2.53-3.97-5.02-5.03-8.11-.75-2.41-1.98-4.71-2.57-7.15-.93-4.16,1.1-8.57,3.57-12.02"/>
        <path class="cls-13" d="M51.93,278.46c-1.55-1.11-3.54-2.02-5.41-1.6-1.09.26-2.13.82-3.21,1.15-1.39.48-2.51,1.36-3.65,2.26"/>
        <path class="cls-10" d="M14.62,281.7l.88-3.74"/>
        <path class="cls-10" d="M19.89,283.06l.88-3.74"/>
        <g>
          <path class="cls-10" d="M22.15,313.74c-.37-.77-1.38-2.9-1.65-3.47"/>
          <path class="cls-10" d="M27.12,311.5l-1.65-3.47"/>
        </g>
        <g>
          <path class="cls-10" d="M14.39,304.56l-.88-3.74"/>
          <path class="cls-10" d="M19.71,303.42l-.88-3.74"/>
        </g>
        <g>
          <path class="cls-10" d="M12.84,294.36l.09-3.84"/>
          <path class="cls-10" d="M18.28,294.6l.09-3.84"/>
        </g>
      </g>
      <g>
        <path class="cls-4" d="M147.2,281.26c-7.31,2.88-13.68,1.35-19.95-3.24-5.25-3.55-10.47-8.47-14.66-12.99-3.56-3.27-4.29,3.27-3.12,5.63.93,2.78,3.62,4.55,5.36,6.72,2.76,3.47-.68,4.48-3.67,4.24-5.31-.34-10.37-2.21-15.51-3.67-3.46-.69-7.3-2.48-10.65-1.21-2.1,1.38-.41,3.61,1.54,4.75,3.81,2.01,8.67,2.42,12.57,4.34,6.28,3.27-3.37,3.65-6.16,3.55-3.75.17-9.54-.69-12.21,1.46-1.37,1.08-1.19,2.93.33,3.87,2.39,1.56,5.74,1.17,8.62,1.21,2.33.02,4.87-.09,7.19.06,5.56.36,3.67,1.58-.46,2.33-3.19.89-14.94,1.17-14.59,5.41,2.05,5.19,12.45.71,16.52,0,1.89-.35,4.66-1.18,6.24.09.74,2.23-7.18,3.91-8.78,5.15-2.52,1.43-4.38,3.36-3.32,5.27,4.47,4.54,14.1-5.97,19.27-6.56,4.69-1.12,9.73-.18,14.47-1.02,2.86-.44,5.43-1.8,7.98-2.97,4.05-1.88,8.63-1.77,13-1.84"/>
        <path class="cls-13" d="M136.69,298.79c.04-3.96-1.07-7.76-.39-11.63"/>
        <path class="cls-12" d="M111.12,289.05c-.19,4.92,1.69,9.69,4.53,13.64"/>
        <path class="cls-12" d="M113.5,283.3c-.59,5.91,3.09,10.9,6.36,15.49"/>
        <path class="cls-12" d="M115.65,287.16c4.43,4.73,11.37,5.85,17.6,5.82"/>
        <path class="cls-4" d="M139.17,291.04h2.57"/>
        <path class="cls-4" d="M139.17,295.87h2.57"/>
        <path class="cls-13" d="M108.8,308.32c-2.01-2.53-3.97-5.02-5.03-8.11-.75-2.41-1.98-4.71-2.57-7.15-.93-4.16,1.1-8.57,3.57-12.02"/>
        <path class="cls-13" d="M127.52,278.46c-1.55-1.11-3.54-2.02-5.41-1.6-1.09.26-2.13.82-3.21,1.15-1.39.48-2.51,1.36-3.65,2.26"/>
        <path class="cls-10" d="M90.2,281.7l.88-3.74"/>
        <path class="cls-10" d="M95.48,283.06l.88-3.74"/>
        <g>
          <path class="cls-10" d="M97.74,313.74c-.37-.77-1.38-2.9-1.65-3.47"/>
          <path class="cls-10" d="M102.71,311.5l-1.65-3.47"/>
        </g>
        <g>
          <path class="cls-10" d="M89.97,304.56l-.88-3.74"/>
          <path class="cls-10" d="M95.3,303.42l-.88-3.74"/>
        </g>
        <g>
          <path class="cls-10" d="M88.43,294.36l.09-3.84"/>
          <path class="cls-10" d="M93.87,294.6l.09-3.84"/>
        </g>
      </g>
      <g>
        <path class="cls-4" d="M222.79,281.26c-7.31,2.88-13.68,1.35-19.95-3.24-5.25-3.55-10.47-8.47-14.66-12.99-3.56-3.27-4.29,3.27-3.12,5.63.93,2.78,3.62,4.55,5.36,6.72,2.76,3.47-.68,4.48-3.67,4.24-5.31-.34-10.37-2.21-15.51-3.67-3.46-.69-7.3-2.48-10.65-1.21-2.1,1.38-.41,3.61,1.54,4.75,3.81,2.01,8.67,2.42,12.57,4.34,6.28,3.27-3.37,3.65-6.16,3.55-3.75.17-9.54-.69-12.21,1.46-1.37,1.08-1.19,2.93.33,3.87,2.39,1.56,5.74,1.17,8.62,1.21,2.33.02,4.87-.09,7.19.06,5.56.36,3.67,1.58-.46,2.33-3.19.89-14.94,1.17-14.59,5.41,2.05,5.19,12.45.71,16.52,0,1.89-.35,4.66-1.18,6.24.09.74,2.23-7.18,3.91-8.78,5.15-2.52,1.43-4.38,3.36-3.32,5.27,4.47,4.54,14.1-5.97,19.27-6.56,4.69-1.12,9.73-.18,14.47-1.02,2.86-.44,5.43-1.8,7.98-2.97,4.05-1.88,8.63-1.77,13-1.84"/>
        <path class="cls-13" d="M212.27,298.79c.04-3.96-1.07-7.76-.39-11.63"/>
        <path class="cls-12" d="M186.71,289.05c-.19,4.92,1.69,9.69,4.53,13.64"/>
        <path class="cls-12" d="M189.09,283.3c-.59,5.91,3.09,10.9,6.36,15.49"/>
        <path class="cls-12" d="M191.23,287.16c4.43,4.73,11.37,5.85,17.6,5.82"/>
        <path class="cls-4" d="M214.76,291.04h2.57"/>
        <path class="cls-4" d="M214.76,295.87h2.57"/>
        <path class="cls-13" d="M184.39,308.32c-2.01-2.53-3.97-5.02-5.03-8.11-.75-2.41-1.98-4.71-2.57-7.15-.93-4.16,1.1-8.57,3.57-12.02"/>
        <path class="cls-13" d="M203.1,278.46c-1.55-1.11-3.54-2.02-5.41-1.6-1.09.26-2.13.82-3.21,1.15-1.39.48-2.51,1.36-3.65,2.26"/>
        <path class="cls-10" d="M165.79,281.7l.88-3.74"/>
        <path class="cls-10" d="M171.07,283.06l.88-3.74"/>
        <g>
          <path class="cls-10" d="M173.33,313.74c-.37-.77-1.38-2.9-1.65-3.47"/>
          <path class="cls-10" d="M178.29,311.5l-1.65-3.47"/>
        </g>
        <g>
          <path class="cls-10" d="M165.56,304.56l-.88-3.74"/>
          <path class="cls-10" d="M170.89,303.42c-.2-.83-.74-3.13-.88-3.74"/>
        </g>
        <g>
          <path class="cls-10" d="M164.01,294.36l.09-3.84"/>
          <path class="cls-10" d="M169.46,294.6l.09-3.84"/>
        </g>
      </g>
      <g>
        <path class="cls-4" d="M298.38,281.26c-7.31,2.88-13.68,1.35-19.95-3.24-5.25-3.55-10.47-8.47-14.66-12.99-3.56-3.27-4.29,3.27-3.12,5.63.93,2.78,3.62,4.55,5.36,6.72,2.76,3.47-.68,4.48-3.67,4.24-5.31-.34-10.37-2.21-15.51-3.67-3.46-.69-7.3-2.48-10.65-1.21-2.1,1.38-.41,3.61,1.54,4.75,3.81,2.01,8.67,2.42,12.57,4.34,6.28,3.27-3.37,3.65-6.16,3.55-3.75.17-9.54-.69-12.21,1.46-1.37,1.08-1.19,2.93.33,3.87,2.39,1.56,5.74,1.17,8.62,1.21,2.33.02,4.87-.09,7.19.06,5.56.36,3.67,1.58-.46,2.33-3.19.89-14.94,1.17-14.59,5.41,2.05,5.19,12.45.71,16.52,0,1.89-.35,4.66-1.18,6.24.09.74,2.23-7.18,3.91-8.78,5.15-2.52,1.43-4.38,3.36-3.32,5.27,4.47,4.54,14.1-5.97,19.27-6.56,4.69-1.12,9.73-.18,14.47-1.02,2.86-.44,5.43-1.8,7.98-2.97,4.05-1.88,8.63-1.77,13-1.84"/>
        <path class="cls-13" d="M287.86,298.79c.04-3.96-1.07-7.76-.39-11.63"/>
        <path class="cls-12" d="M262.29,289.05c-.19,4.92,1.69,9.69,4.53,13.64"/>
        <path class="cls-12" d="M264.68,283.3c-.59,5.91,3.09,10.9,6.36,15.49"/>
        <path class="cls-12" d="M266.82,287.16c4.43,4.73,11.37,5.85,17.6,5.82"/>
        <path class="cls-4" d="M290.34,291.04h2.57"/>
        <path class="cls-4" d="M290.34,295.87h2.57"/>
        <path class="cls-13" d="M259.97,308.32c-2.01-2.53-3.97-5.02-5.03-8.11-.75-2.41-1.98-4.71-2.57-7.15-.93-4.16,1.1-8.57,3.57-12.02"/>
        <path class="cls-13" d="M278.69,278.46c-1.55-1.11-3.54-2.02-5.41-1.6-1.09.26-2.13.82-3.21,1.15-1.39.48-2.51,1.36-3.65,2.26"/>
        <path class="cls-10" d="M241.38,281.7l.88-3.74"/>
        <path class="cls-10" d="M246.65,283.06l.88-3.74"/>
        <g>
          <path class="cls-10" d="M248.92,313.74c-.37-.77-1.38-2.9-1.65-3.47"/>
          <path class="cls-10" d="M253.88,311.5c-.37-.77-1.38-2.9-1.65-3.47"/>
        </g>
        <g>
          <path class="cls-10" d="M241.15,304.56c-.2-.83-.74-3.13-.88-3.74"/>
          <path class="cls-10" d="M246.48,303.42c-.2-.83-.74-3.13-.88-3.74"/>
        </g>
        <g>
          <path class="cls-10" d="M239.6,294.36l.09-3.84"/>
          <path class="cls-10" d="M245.05,294.6c.02-.85.08-3.21.09-3.84"/>
        </g>
      </g>
      <g>
        <path class="cls-4" d="M374.83,281.26c-7.31,2.88-13.68,1.35-19.95-3.24-5.25-3.55-10.47-8.47-14.66-12.99-3.56-3.27-4.29,3.27-3.12,5.63.93,2.78,3.62,4.55,5.36,6.72,2.76,3.47-.68,4.48-3.67,4.24-5.31-.34-10.37-2.21-15.51-3.67-3.46-.69-7.3-2.48-10.65-1.21-2.1,1.38-.41,3.61,1.54,4.75,3.81,2.01,8.67,2.42,12.57,4.34,6.28,3.27-3.37,3.65-6.16,3.55-3.75.17-9.54-.69-12.21,1.46-1.37,1.08-1.19,2.93.33,3.87,2.39,1.56,5.74,1.17,8.62,1.21,2.33.02,4.87-.09,7.19.06,5.56.36,3.67,1.58-.46,2.33-3.19.89-14.94,1.17-14.59,5.41,2.05,5.19,12.45.71,16.52,0,1.89-.35,4.66-1.18,6.24.09.74,2.23-7.18,3.91-8.78,5.15-2.52,1.43-4.38,3.36-3.32,5.27,4.47,4.54,14.1-5.97,19.27-6.56,4.69-1.12,9.73-.18,14.47-1.02,2.86-.44,5.43-1.8,7.98-2.97,4.05-1.88,8.63-1.77,13-1.84"/>
        <path class="cls-13" d="M364.31,298.79c.04-3.96-1.07-7.76-.39-11.63"/>
        <path class="cls-12" d="M338.75,289.05c-.19,4.92,1.69,9.69,4.53,13.64"/>
        <path class="cls-12" d="M341.13,283.3c-.59,5.91,3.09,10.9,6.36,15.49"/>
        <path class="cls-12" d="M343.27,287.16c4.43,4.73,11.37,5.85,17.6,5.82"/>
        <path class="cls-4" d="M366.8,291.04h2.57"/>
        <path class="cls-4" d="M366.8,295.87h2.57"/>
        <path class="cls-13" d="M336.43,308.32c-2.01-2.53-3.97-5.02-5.03-8.11-.75-2.41-1.98-4.71-2.57-7.15-.93-4.16,1.1-8.57,3.57-12.02"/>
        <path class="cls-13" d="M355.14,278.46c-1.55-1.11-3.54-2.02-5.41-1.6-1.09.26-2.13.82-3.21,1.15-1.39.48-2.51,1.36-3.65,2.26"/>
        <path class="cls-10" d="M317.83,281.7l.88-3.74"/>
        <path class="cls-10" d="M323.11,283.06l.88-3.74"/>
        <g>
          <path class="cls-10" d="M325.37,313.74l-1.65-3.47"/>
          <path class="cls-10" d="M330.33,311.5c-.37-.77-1.38-2.9-1.65-3.47"/>
        </g>
        <g>
          <path class="cls-10" d="M317.6,304.56l-.88-3.74"/>
          <path class="cls-10" d="M322.93,303.42c-.2-.83-.74-3.13-.88-3.74"/>
        </g>
        <g>
          <path class="cls-10" d="M316.05,294.36c.02-.85.08-3.21.09-3.84"/>
          <path class="cls-10" d="M321.5,294.6l.09-3.84"/>
        </g>
      </g>
      <g>
        <path class="cls-4" d="M71.62,373.88c-7.31,2.88-13.68,1.35-19.95-3.24-5.25-3.55-10.47-8.47-14.66-12.99-3.56-3.27-4.29,3.27-3.12,5.63.93,2.78,3.62,4.55,5.36,6.72,2.76,3.47-.68,4.48-3.67,4.24-5.31-.34-10.37-2.21-15.51-3.67-3.46-.69-7.3-2.48-10.65-1.21-2.1,1.38-.41,3.61,1.54,4.75,3.81,2.01,8.67,2.42,12.57,4.34,6.28,3.27-3.37,3.65-6.16,3.55-3.75.17-9.54-.69-12.21,1.46-1.37,1.08-1.19,2.93.33,3.87,2.39,1.56,5.74,1.17,8.62,1.21,2.33.02,4.87-.09,7.19.06,5.56.36,3.67,1.58-.46,2.33-3.19.89-14.94,1.17-14.59,5.41,2.05,5.19,12.45.71,16.52,0,1.89-.35,4.66-1.18,6.24.09.74,2.23-7.18,3.91-8.78,5.15-2.52,1.43-4.38,3.36-3.32,5.27,4.47,4.54,14.1-5.97,19.27-6.56,4.69-1.12,9.73-.18,14.47-1.02,2.86-.44,5.43-1.8,7.98-2.97,4.05-1.88,8.63-1.77,13-1.84"/>
        <path class="cls-13" d="M61.1,391.41c.04-3.96-1.07-7.76-.39-11.63"/>
        <path class="cls-12" d="M35.53,381.67c-.19,4.92,1.69,9.69,4.53,13.64"/>
        <path class="cls-12" d="M37.92,375.92c-.59,5.91,3.09,10.9,6.36,15.49"/>
        <path class="cls-12" d="M40.06,379.78c4.43,4.73,11.37,5.85,17.6,5.82"/>
        <path class="cls-4" d="M63.58,383.67h2.57"/>
        <path class="cls-4" d="M63.58,388.49h2.57"/>
        <path class="cls-13" d="M33.21,400.94c-2.01-2.53-3.97-5.02-5.03-8.11-.75-2.41-1.98-4.71-2.57-7.15-.93-4.16,1.1-8.57,3.57-12.02"/>
        <path class="cls-13" d="M51.93,371.08c-1.55-1.11-3.54-2.02-5.41-1.6-1.09.26-2.13.82-3.21,1.15-1.39.48-2.51,1.36-3.65,2.26"/>
        <path class="cls-10" d="M14.62,374.32l.88-3.74"/>
        <path class="cls-10" d="M19.89,375.68l.88-3.74"/>
        <g>
          <path class="cls-10" d="M22.15,406.36c-.37-.77-1.38-2.9-1.65-3.47"/>
          <path class="cls-10" d="M27.12,404.12l-1.65-3.47"/>
        </g>
        <g>
          <path class="cls-10" d="M14.39,397.18l-.88-3.74"/>
          <path class="cls-10" d="M19.71,396.04l-.88-3.74"/>
        </g>
        <g>
          <path class="cls-10" d="M12.84,386.98l.09-3.84"/>
          <path class="cls-10" d="M18.28,387.23l.09-3.84"/>
        </g>
      </g>
      <g>
        <path class="cls-4" d="M147.2,373.88c-7.31,2.88-13.68,1.35-19.95-3.24-5.25-3.55-10.47-8.47-14.66-12.99-3.56-3.27-4.29,3.27-3.12,5.63.93,2.78,3.62,4.55,5.36,6.72,2.76,3.47-.68,4.48-3.67,4.24-5.31-.34-10.37-2.21-15.51-3.67-3.46-.69-7.3-2.48-10.65-1.21-2.1,1.38-.41,3.61,1.54,4.75,3.81,2.01,8.67,2.42,12.57,4.34,6.28,3.27-3.37,3.65-6.16,3.55-3.75.17-9.54-.69-12.21,1.46-1.37,1.08-1.19,2.93.33,3.87,2.39,1.56,5.74,1.17,8.62,1.21,2.33.02,4.87-.09,7.19.06,5.56.36,3.67,1.58-.46,2.33-3.19.89-14.94,1.17-14.59,5.41,2.05,5.19,12.45.71,16.52,0,1.89-.35,4.66-1.18,6.24.09.74,2.23-7.18,3.91-8.78,5.15-2.52,1.43-4.38,3.36-3.32,5.27,4.47,4.54,14.1-5.97,19.27-6.56,4.69-1.12,9.73-.18,14.47-1.02,2.86-.44,5.43-1.8,7.98-2.97,4.05-1.88,8.63-1.77,13-1.84"/>
        <path class="cls-13" d="M136.69,391.41c.04-3.96-1.07-7.76-.39-11.63"/>
        <path class="cls-12" d="M111.12,381.67c-.19,4.92,1.69,9.69,4.53,13.64"/>
        <path class="cls-12" d="M113.5,375.92c-.59,5.91,3.09,10.9,6.36,15.49"/>
        <path class="cls-12" d="M115.65,379.78c4.43,4.73,11.37,5.85,17.6,5.82"/>
        <path class="cls-4" d="M139.17,383.67h2.57"/>
        <path class="cls-4" d="M139.17,388.49h2.57"/>
        <path class="cls-13" d="M108.8,400.94c-2.01-2.53-3.97-5.02-5.03-8.11-.75-2.41-1.98-4.71-2.57-7.15-.93-4.16,1.1-8.57,3.57-12.02"/>
        <path class="cls-13" d="M127.52,371.08c-1.55-1.11-3.54-2.02-5.41-1.6-1.09.26-2.13.82-3.21,1.15-1.39.48-2.51,1.36-3.65,2.26"/>
        <path class="cls-10" d="M90.2,374.32l.88-3.74"/>
        <path class="cls-10" d="M95.48,375.68l.88-3.74"/>
        <g>
          <path class="cls-10" d="M97.74,406.36c-.37-.77-1.38-2.9-1.65-3.47"/>
          <path class="cls-10" d="M102.71,404.12l-1.65-3.47"/>
        </g>
        <g>
          <path class="cls-10" d="M89.97,397.18l-.88-3.74"/>
          <path class="cls-10" d="M95.3,396.04l-.88-3.74"/>
        </g>
        <g>
          <path class="cls-10" d="M88.43,386.98l.09-3.84"/>
          <path class="cls-10" d="M93.87,387.23l.09-3.84"/>
        </g>
      </g>
      <g>
        <path class="cls-4" d="M222.79,373.88c-7.31,2.88-13.68,1.35-19.95-3.24-5.25-3.55-10.47-8.47-14.66-12.99-3.56-3.27-4.29,3.27-3.12,5.63.93,2.78,3.62,4.55,5.36,6.72,2.76,3.47-.68,4.48-3.67,4.24-5.31-.34-10.37-2.21-15.51-3.67-3.46-.69-7.3-2.48-10.65-1.21-2.1,1.38-.41,3.61,1.54,4.75,3.81,2.01,8.67,2.42,12.57,4.34,6.28,3.27-3.37,3.65-6.16,3.55-3.75.17-9.54-.69-12.21,1.46-1.37,1.08-1.19,2.93.33,3.87,2.39,1.56,5.74,1.17,8.62,1.21,2.33.02,4.87-.09,7.19.06,5.56.36,3.67,1.58-.46,2.33-3.19.89-14.94,1.17-14.59,5.41,2.05,5.19,12.45.71,16.52,0,1.89-.35,4.66-1.18,6.24.09.74,2.23-7.18,3.91-8.78,5.15-2.52,1.43-4.38,3.36-3.32,5.27,4.47,4.54,14.1-5.97,19.27-6.56,4.69-1.12,9.73-.18,14.47-1.02,2.86-.44,5.43-1.8,7.98-2.97,4.05-1.88,8.63-1.77,13-1.84"/>
        <path class="cls-13" d="M212.27,391.41c.04-3.96-1.07-7.76-.39-11.63"/>
        <path class="cls-12" d="M186.71,381.67c-.19,4.92,1.69,9.69,4.53,13.64"/>
        <path class="cls-12" d="M189.09,375.92c-.59,5.91,3.09,10.9,6.36,15.49"/>
        <path class="cls-12" d="M191.23,379.78c4.43,4.73,11.37,5.85,17.6,5.82"/>
        <path class="cls-4" d="M214.76,383.67h2.57"/>
        <path class="cls-4" d="M214.76,388.49h2.57"/>
        <path class="cls-13" d="M184.39,400.94c-2.01-2.53-3.97-5.02-5.03-8.11-.75-2.41-1.98-4.71-2.57-7.15-.93-4.16,1.1-8.57,3.57-12.02"/>
        <path class="cls-13" d="M203.1,371.08c-1.55-1.11-3.54-2.02-5.41-1.6-1.09.26-2.13.82-3.21,1.15-1.39.48-2.51,1.36-3.65,2.26"/>
        <path class="cls-10" d="M165.79,374.32l.88-3.74"/>
        <path class="cls-10" d="M171.07,375.68l.88-3.74"/>
        <g>
          <path class="cls-10" d="M173.33,406.36c-.37-.77-1.38-2.9-1.65-3.47"/>
          <path class="cls-10" d="M178.29,404.12l-1.65-3.47"/>
        </g>
        <g>
          <path class="cls-10" d="M165.56,397.18l-.88-3.74"/>
          <path class="cls-10" d="M170.89,396.04c-.2-.83-.74-3.13-.88-3.74"/>
        </g>
        <g>
          <path class="cls-10" d="M164.01,386.98l.09-3.84"/>
          <path class="cls-10" d="M169.46,387.23l.09-3.84"/>
        </g>
      </g>
      <g>
        <path class="cls-4" d="M298.38,373.88c-7.31,2.88-13.68,1.35-19.95-3.24-5.25-3.55-10.47-8.47-14.66-12.99-3.56-3.27-4.29,3.27-3.12,5.63.93,2.78,3.62,4.55,5.36,6.72,2.76,3.47-.68,4.48-3.67,4.24-5.31-.34-10.37-2.21-15.51-3.67-3.46-.69-7.3-2.48-10.65-1.21-2.1,1.38-.41,3.61,1.54,4.75,3.81,2.01,8.67,2.42,12.57,4.34,6.28,3.27-3.37,3.65-6.16,3.55-3.75.17-9.54-.69-12.21,1.46-1.37,1.08-1.19,2.93.33,3.87,2.39,1.56,5.74,1.17,8.62,1.21,2.33.02,4.87-.09,7.19.06,5.56.36,3.67,1.58-.46,2.33-3.19.89-14.94,1.17-14.59,5.41,2.05,5.19,12.45.71,16.52,0,1.89-.35,4.66-1.18,6.24.09.74,2.23-7.18,3.91-8.78,5.15-2.52,1.43-4.38,3.36-3.32,5.27,4.47,4.54,14.1-5.97,19.27-6.56,4.69-1.12,9.73-.18,14.47-1.02,2.86-.44,5.43-1.8,7.98-2.97,4.05-1.88,8.63-1.77,13-1.84"/>
        <path class="cls-13" d="M287.86,391.41c.04-3.96-1.07-7.76-.39-11.63"/>
        <path class="cls-12" d="M262.29,381.67c-.19,4.92,1.69,9.69,4.53,13.64"/>
        <path class="cls-12" d="M264.68,375.92c-.59,5.91,3.09,10.9,6.36,15.49"/>
        <path class="cls-12" d="M266.82,379.78c4.43,4.73,11.37,5.85,17.6,5.82"/>
        <path class="cls-4" d="M290.34,383.67h2.57"/>
        <path class="cls-4" d="M290.34,388.49h2.57"/>
        <path class="cls-13" d="M259.97,400.94c-2.01-2.53-3.97-5.02-5.03-8.11-.75-2.41-1.98-4.71-2.57-7.15-.93-4.16,1.1-8.57,3.57-12.02"/>
        <path class="cls-13" d="M278.69,371.08c-1.55-1.11-3.54-2.02-5.41-1.6-1.09.26-2.13.82-3.21,1.15-1.39.48-2.51,1.36-3.65,2.26"/>
        <path class="cls-10" d="M241.38,374.32l.88-3.74"/>
        <path class="cls-10" d="M246.65,375.68l.88-3.74"/>
        <g>
          <path class="cls-10" d="M248.92,406.36c-.37-.77-1.38-2.9-1.65-3.47"/>
          <path class="cls-10" d="M253.88,404.12c-.37-.77-1.38-2.9-1.65-3.47"/>
        </g>
        <g>
          <path class="cls-10" d="M241.15,397.18c-.2-.83-.74-3.13-.88-3.74"/>
          <path class="cls-10" d="M246.48,396.04c-.2-.83-.74-3.13-.88-3.74"/>
        </g>
        <g>
          <path class="cls-10" d="M239.6,386.98l.09-3.84"/>
          <path class="cls-10" d="M245.05,387.23c.02-.85.08-3.21.09-3.84"/>
        </g>
      </g>
      <g>
        <path class="cls-4" d="M374.83,373.88c-7.31,2.88-13.68,1.35-19.95-3.24-5.25-3.55-10.47-8.47-14.66-12.99-3.56-3.27-4.29,3.27-3.12,5.63.93,2.78,3.62,4.55,5.36,6.72,2.76,3.47-.68,4.48-3.67,4.24-5.31-.34-10.37-2.21-15.51-3.67-3.46-.69-7.3-2.48-10.65-1.21-2.1,1.38-.41,3.61,1.54,4.75,3.81,2.01,8.67,2.42,12.57,4.34,6.28,3.27-3.37,3.65-6.16,3.55-3.75.17-9.54-.69-12.21,1.46-1.37,1.08-1.19,2.93.33,3.87,2.39,1.56,5.74,1.17,8.62,1.21,2.33.02,4.87-.09,7.19.06,5.56.36,3.67,1.58-.46,2.33-3.19.89-14.94,1.17-14.59,5.41,2.05,5.19,12.45.71,16.52,0,1.89-.35,4.66-1.18,6.24.09.74,2.23-7.18,3.91-8.78,5.15-2.52,1.43-4.38,3.36-3.32,5.27,4.47,4.54,14.1-5.97,19.27-6.56,4.69-1.12,9.73-.18,14.47-1.02,2.86-.44,5.43-1.8,7.98-2.97,4.05-1.88,8.63-1.77,13-1.84"/>
        <path class="cls-13" d="M364.31,391.41c.04-3.96-1.07-7.76-.39-11.63"/>
        <path class="cls-12" d="M338.75,381.67c-.19,4.92,1.69,9.69,4.53,13.64"/>
        <path class="cls-12" d="M341.13,375.92c-.59,5.91,3.09,10.9,6.36,15.49"/>
        <path class="cls-12" d="M343.27,379.78c4.43,4.73,11.37,5.85,17.6,5.82"/>
        <path class="cls-4" d="M366.8,383.67h2.57"/>
        <path class="cls-4" d="M366.8,388.49h2.57"/>
        <path class="cls-13" d="M336.43,400.94c-2.01-2.53-3.97-5.02-5.03-8.11-.75-2.41-1.98-4.71-2.57-7.15-.93-4.16,1.1-8.57,3.57-12.02"/>
        <path class="cls-13" d="M355.14,371.08c-1.55-1.11-3.54-2.02-5.41-1.6-1.09.26-2.13.82-3.21,1.15-1.39.48-2.51,1.36-3.65,2.26"/>
        <path class="cls-10" d="M317.83,374.32l.88-3.74"/>
        <path class="cls-10" d="M323.11,375.68l.88-3.74"/>
        <g>
          <path class="cls-10" d="M325.37,406.36l-1.65-3.47"/>
          <path class="cls-10" d="M330.33,404.12c-.37-.77-1.38-2.9-1.65-3.47"/>
        </g>
        <g>
          <path class="cls-10" d="M317.6,397.18l-.88-3.74"/>
          <path class="cls-10" d="M322.93,396.04c-.2-.83-.74-3.13-.88-3.74"/>
        </g>
        <g>
          <path class="cls-10" d="M316.05,386.98c.02-.85.08-3.21.09-3.84"/>
          <path class="cls-10" d="M321.5,387.23l.09-3.84"/>
        </g>
      </g>
      <g>
        <path class="cls-4" d="M71.62,430.2c-7.31,2.88-13.68,1.35-19.95-3.24-5.25-3.55-10.47-8.47-14.66-12.99-3.56-3.27-4.29,3.27-3.12,5.63.93,2.78,3.62,4.55,5.36,6.72,2.76,3.47-.68,4.48-3.67,4.24-5.31-.34-10.37-2.21-15.51-3.67-3.46-.69-7.3-2.48-10.65-1.21-2.1,1.38-.41,3.61,1.54,4.75,3.81,2.01,8.67,2.42,12.57,4.34,6.28,3.27-3.37,3.65-6.16,3.55-3.75.17-9.54-.69-12.21,1.46-1.37,1.08-1.19,2.93.33,3.87,2.39,1.56,5.74,1.17,8.62,1.21,2.33.02,4.87-.09,7.19.06,5.56.36,3.67,1.58-.46,2.33-3.19.89-14.94,1.17-14.59,5.41,2.05,5.19,12.45.71,16.52,0,1.89-.35,4.66-1.18,6.24.09.74,2.23-7.18,3.91-8.78,5.15-2.52,1.43-4.38,3.36-3.32,5.27,4.47,4.54,14.1-5.97,19.27-6.56,4.69-1.12,9.73-.18,14.47-1.02,2.86-.44,5.43-1.8,7.98-2.97,4.05-1.88,8.63-1.77,13-1.84"/>
        <path class="cls-13" d="M61.1,447.73c.04-3.96-1.07-7.76-.39-11.63"/>
        <path class="cls-12" d="M35.53,437.99c-.19,4.92,1.69,9.69,4.53,13.64"/>
        <path class="cls-12" d="M37.92,432.23c-.59,5.91,3.09,10.9,6.36,15.49"/>
        <path class="cls-12" d="M40.06,436.09c4.43,4.73,11.37,5.85,17.6,5.82"/>
        <path class="cls-4" d="M63.58,439.98h2.57"/>
        <path class="cls-4" d="M63.58,444.81h2.57"/>
        <path class="cls-13" d="M29.19,429.98c-2.47,3.45-4.5,7.86-3.57,12.02.59,2.43,1.82,4.74,2.57,7.15,1.06,3.08,3.01,5.57,5.03,8.11"/>
        <path class="cls-13" d="M51.93,427.39c-1.55-1.11-3.54-2.02-5.41-1.6-1.09.26-2.13.82-3.21,1.15-1.39.48-2.51,1.36-3.65,2.26"/>
        <path class="cls-10" d="M14.62,430.64l.88-3.74"/>
        <path class="cls-10" d="M19.89,431.99l.88-3.74"/>
        <g>
          <path class="cls-10" d="M22.15,462.68c-.37-.77-1.38-2.9-1.65-3.47"/>
          <path class="cls-10" d="M27.12,460.43l-1.65-3.47"/>
        </g>
        <g>
          <path class="cls-10" d="M14.39,453.49l-.88-3.74"/>
          <path class="cls-10" d="M19.71,452.35l-.88-3.74"/>
        </g>
        <g>
          <path class="cls-10" d="M12.84,443.3l.09-3.84"/>
          <path class="cls-10" d="M18.28,443.54l.09-3.84"/>
        </g>
      </g>
      <g>
        <path class="cls-4" d="M147.2,430.2c-7.31,2.88-13.68,1.35-19.95-3.24-5.25-3.55-10.47-8.47-14.66-12.99-3.56-3.27-4.29,3.27-3.12,5.63.93,2.78,3.62,4.55,5.36,6.72,2.76,3.47-.68,4.48-3.67,4.24-5.31-.34-10.37-2.21-15.51-3.67-3.46-.69-7.3-2.48-10.65-1.21-2.1,1.38-.41,3.61,1.54,4.75,3.81,2.01,8.67,2.42,12.57,4.34,6.28,3.27-3.37,3.65-6.16,3.55-3.75.17-9.54-.69-12.21,1.46-1.37,1.08-1.19,2.93.33,3.87,2.39,1.56,5.74,1.17,8.62,1.21,2.33.02,4.87-.09,7.19.06,5.56.36,3.67,1.58-.46,2.33-3.19.89-14.94,1.17-14.59,5.41,2.05,5.19,12.45.71,16.52,0,1.89-.35,4.66-1.18,6.24.09.74,2.23-7.18,3.91-8.78,5.15-2.52,1.43-4.38,3.36-3.32,5.27,4.47,4.54,14.1-5.97,19.27-6.56,4.69-1.12,9.73-.18,14.47-1.02,2.86-.44,5.43-1.8,7.98-2.97,4.05-1.88,8.63-1.77,13-1.84"/>
        <path class="cls-13" d="M136.69,447.73c.04-3.96-1.07-7.76-.39-11.63"/>
        <path class="cls-12" d="M111.12,437.99c-.19,4.92,1.69,9.69,4.53,13.64"/>
        <path class="cls-12" d="M113.5,432.23c-.59,5.91,3.09,10.9,6.36,15.49"/>
        <path class="cls-12" d="M115.65,436.09c4.43,4.73,11.37,5.85,17.6,5.82"/>
        <path class="cls-4" d="M139.17,439.98h2.57"/>
        <path class="cls-4" d="M139.17,444.81h2.57"/>
        <path class="cls-13" d="M108.8,457.25c-2.01-2.53-3.97-5.02-5.03-8.11-.75-2.41-1.98-4.71-2.57-7.15-.93-4.16,1.1-8.57,3.57-12.02"/>
        <path class="cls-13" d="M127.52,427.39c-1.55-1.11-3.54-2.02-5.41-1.6-1.09.26-2.13.82-3.21,1.15-1.39.48-2.51,1.36-3.65,2.26"/>
        <path class="cls-10" d="M90.2,430.64l.88-3.74"/>
        <path class="cls-10" d="M95.48,431.99l.88-3.74"/>
        <g>
          <path class="cls-10" d="M97.74,462.68c-.37-.77-1.38-2.9-1.65-3.47"/>
          <path class="cls-10" d="M102.71,460.43l-1.65-3.47"/>
        </g>
        <g>
          <path class="cls-10" d="M89.97,453.49l-.88-3.74"/>
          <path class="cls-10" d="M95.3,452.35l-.88-3.74"/>
        </g>
        <g>
          <path class="cls-10" d="M88.43,443.3l.09-3.84"/>
          <path class="cls-10" d="M93.87,443.54l.09-3.84"/>
        </g>
      </g>
      <g>
        <path class="cls-4" d="M222.79,430.2c-7.31,2.88-13.68,1.35-19.95-3.24-5.25-3.55-10.47-8.47-14.66-12.99-3.56-3.27-4.29,3.27-3.12,5.63.93,2.78,3.62,4.55,5.36,6.72,2.76,3.47-.68,4.48-3.67,4.24-5.31-.34-10.37-2.21-15.51-3.67-3.46-.69-7.3-2.48-10.65-1.21-2.1,1.38-.41,3.61,1.54,4.75,3.81,2.01,8.67,2.42,12.57,4.34,6.28,3.27-3.37,3.65-6.16,3.55-3.75.17-9.54-.69-12.21,1.46-1.37,1.08-1.19,2.93.33,3.87,2.39,1.56,5.74,1.17,8.62,1.21,2.33.02,4.87-.09,7.19.06,5.56.36,3.67,1.58-.46,2.33-3.19.89-14.94,1.17-14.59,5.41,2.05,5.19,12.45.71,16.52,0,1.89-.35,4.66-1.18,6.24.09.74,2.23-7.18,3.91-8.78,5.15-2.52,1.43-4.38,3.36-3.32,5.27,4.47,4.54,14.1-5.97,19.27-6.56,4.69-1.12,9.73-.18,14.47-1.02,2.86-.44,5.43-1.8,7.98-2.97,4.05-1.88,8.63-1.77,13-1.84"/>
        <path class="cls-13" d="M212.27,447.73c.04-3.96-1.07-7.76-.39-11.63"/>
        <path class="cls-12" d="M186.71,437.99c-.19,4.92,1.69,9.69,4.53,13.64"/>
        <path class="cls-12" d="M189.09,432.23c-.59,5.91,3.09,10.9,6.36,15.49"/>
        <path class="cls-12" d="M191.23,436.09c4.43,4.73,11.37,5.85,17.6,5.82"/>
        <path class="cls-4" d="M214.76,439.98h2.57"/>
        <path class="cls-4" d="M214.76,444.81h2.57"/>
        <path class="cls-13" d="M184.39,457.25c-2.01-2.53-3.97-5.02-5.03-8.11-.75-2.41-1.98-4.71-2.57-7.15-.93-4.16,1.1-8.57,3.57-12.02"/>
        <path class="cls-13" d="M203.1,427.39c-1.55-1.11-3.54-2.02-5.41-1.6-1.09.26-2.13.82-3.21,1.15-1.39.48-2.51,1.36-3.65,2.26"/>
        <path class="cls-10" d="M165.79,430.64l.88-3.74"/>
        <path class="cls-10" d="M171.07,431.99l.88-3.74"/>
        <g>
          <path class="cls-10" d="M173.33,462.68c-.37-.77-1.38-2.9-1.65-3.47"/>
          <path class="cls-10" d="M178.29,460.43l-1.65-3.47"/>
        </g>
        <g>
          <path class="cls-10" d="M165.56,453.49l-.88-3.74"/>
          <path class="cls-10" d="M170.89,452.35c-.2-.83-.74-3.13-.88-3.74"/>
        </g>
        <g>
          <path class="cls-10" d="M164.01,443.3l.09-3.84"/>
          <path class="cls-10" d="M169.46,443.54l.09-3.84"/>
        </g>
      </g>
      <g>
        <path class="cls-4" d="M298.38,430.2c-7.31,2.88-13.68,1.35-19.95-3.24-5.25-3.55-10.47-8.47-14.66-12.99-3.56-3.27-4.29,3.27-3.12,5.63.93,2.78,3.62,4.55,5.36,6.72,2.76,3.47-.68,4.48-3.67,4.24-5.31-.34-10.37-2.21-15.51-3.67-3.46-.69-7.3-2.48-10.65-1.21-2.1,1.38-.41,3.61,1.54,4.75,3.81,2.01,8.67,2.42,12.57,4.34,6.28,3.27-3.37,3.65-6.16,3.55-3.75.17-9.54-.69-12.21,1.46-1.37,1.08-1.19,2.93.33,3.87,2.39,1.56,5.74,1.17,8.62,1.21,2.33.02,4.87-.09,7.19.06,5.56.36,3.67,1.58-.46,2.33-3.19.89-14.94,1.17-14.59,5.41,2.05,5.19,12.45.71,16.52,0,1.89-.35,4.66-1.18,6.24.09.74,2.23-7.18,3.91-8.78,5.15-2.52,1.43-4.38,3.36-3.32,5.27,4.47,4.54,14.1-5.97,19.27-6.56,4.69-1.12,9.73-.18,14.47-1.02,2.86-.44,5.43-1.8,7.98-2.97,4.05-1.88,8.63-1.77,13-1.84"/>
        <path class="cls-13" d="M287.86,447.73c.04-3.96-1.07-7.76-.39-11.63"/>
        <path class="cls-12" d="M262.29,437.99c-.19,4.92,1.69,9.69,4.53,13.64"/>
        <path class="cls-12" d="M264.68,432.23c-.59,5.91,3.09,10.9,6.36,15.49"/>
        <path class="cls-12" d="M266.82,436.09c4.43,4.73,11.37,5.85,17.6,5.82"/>
        <path class="cls-4" d="M290.34,439.98h2.57"/>
        <path class="cls-4" d="M290.34,444.81h2.57"/>
        <path class="cls-13" d="M259.97,457.25c-2.01-2.53-3.97-5.02-5.03-8.11-.75-2.41-1.98-4.71-2.57-7.15-.93-4.16,1.1-8.57,3.57-12.02"/>
        <path class="cls-13" d="M278.69,427.39c-1.55-1.11-3.54-2.02-5.41-1.6-1.09.26-2.13.82-3.21,1.15-1.39.48-2.51,1.36-3.65,2.26"/>
        <path class="cls-10" d="M241.38,430.64l.88-3.74"/>
        <path class="cls-10" d="M246.65,431.99l.88-3.74"/>
        <g>
          <path class="cls-10" d="M248.92,462.68c-.37-.77-1.38-2.9-1.65-3.47"/>
          <path class="cls-10" d="M253.88,460.43c-.37-.77-1.38-2.9-1.65-3.47"/>
        </g>
        <g>
          <path class="cls-10" d="M241.15,453.49c-.2-.83-.74-3.13-.88-3.74"/>
          <path class="cls-10" d="M246.48,452.35c-.2-.83-.74-3.13-.88-3.74"/>
        </g>
        <g>
          <path class="cls-10" d="M239.6,443.3l.09-3.84"/>
          <path class="cls-10" d="M245.05,443.54c.02-.85.08-3.21.09-3.84"/>
        </g>
      </g>
      <g>
        <path class="cls-4" d="M374.83,430.2c-7.31,2.88-13.68,1.35-19.95-3.24-5.25-3.55-10.47-8.47-14.66-12.99-3.56-3.27-4.29,3.27-3.12,5.63.93,2.78,3.62,4.55,5.36,6.72,2.76,3.47-.68,4.48-3.67,4.24-5.31-.34-10.37-2.21-15.51-3.67-3.46-.69-7.3-2.48-10.65-1.21-2.1,1.38-.41,3.61,1.54,4.75,3.81,2.01,8.67,2.42,12.57,4.34,6.28,3.27-3.37,3.65-6.16,3.55-3.75.17-9.54-.69-12.21,1.46-1.37,1.08-1.19,2.93.33,3.87,2.39,1.56,5.74,1.17,8.62,1.21,2.33.02,4.87-.09,7.19.06,5.56.36,3.67,1.58-.46,2.33-3.19.89-14.94,1.17-14.59,5.41,2.05,5.19,12.45.71,16.52,0,1.89-.35,4.66-1.18,6.24.09.74,2.23-7.18,3.91-8.78,5.15-2.52,1.43-4.38,3.36-3.32,5.27,4.47,4.54,14.1-5.97,19.27-6.56,4.69-1.12,9.73-.18,14.47-1.02,2.86-.44,5.43-1.8,7.98-2.97,4.05-1.88,8.63-1.77,13-1.84"/>
        <path class="cls-13" d="M364.31,447.73c.04-3.96-1.07-7.76-.39-11.63"/>
        <path class="cls-12" d="M338.75,437.99c-.19,4.92,1.69,9.69,4.53,13.64"/>
        <path class="cls-12" d="M341.13,432.23c-.59,5.91,3.09,10.9,6.36,15.49"/>
        <path class="cls-12" d="M343.27,436.09c4.43,4.73,11.37,5.85,17.6,5.82"/>
        <path class="cls-4" d="M366.8,439.98h2.57"/>
        <path class="cls-4" d="M366.8,444.81h2.57"/>
        <path class="cls-13" d="M336.43,457.25c-2.01-2.53-3.97-5.02-5.03-8.11-.75-2.41-1.98-4.71-2.57-7.15-.93-4.16,1.1-8.57,3.57-12.02"/>
        <path class="cls-13" d="M355.14,427.39c-1.55-1.11-3.54-2.02-5.41-1.6-1.09.26-2.13.82-3.21,1.15-1.39.48-2.51,1.36-3.65,2.26"/>
        <path class="cls-10" d="M317.83,430.64l.88-3.74"/>
        <path class="cls-10" d="M323.11,431.99l.88-3.74"/>
        <g>
          <path class="cls-10" d="M325.37,462.68l-1.65-3.47"/>
          <path class="cls-10" d="M330.33,460.43c-.37-.77-1.38-2.9-1.65-3.47"/>
        </g>
        <g>
          <path class="cls-10" d="M317.6,453.49l-.88-3.74"/>
          <path class="cls-10" d="M322.93,452.35c-.2-.83-.74-3.13-.88-3.74"/>
        </g>
        <g>
          <path class="cls-10" d="M316.05,443.3c.02-.85.08-3.21.09-3.84"/>
          <path class="cls-10" d="M321.5,443.54l.09-3.84"/>
        </g>
      </g>
      <g>
        <path class="cls-4" d="M71.62,495.04c-7.31,2.88-13.68,1.35-19.95-3.24-5.25-3.55-10.47-8.47-14.66-12.99-3.56-3.27-4.29,3.27-3.12,5.63.93,2.78,3.62,4.55,5.36,6.72,2.76,3.47-.68,4.48-3.67,4.24-5.31-.34-10.37-2.21-15.51-3.67-3.46-.69-7.3-2.48-10.65-1.21-2.1,1.38-.41,3.61,1.54,4.75,3.81,2.01,8.67,2.42,12.57,4.34,6.28,3.27-3.37,3.65-6.16,3.55-3.75.17-9.54-.69-12.21,1.46-1.37,1.08-1.19,2.93.33,3.87,2.39,1.56,5.74,1.17,8.62,1.21,2.33.02,4.87-.09,7.19.06,5.56.36,3.67,1.58-.46,2.33-3.19.89-14.94,1.17-14.59,5.41,2.05,5.19,12.45.71,16.52,0,1.89-.35,4.66-1.18,6.24.09.74,2.23-7.18,3.91-8.78,5.15-2.52,1.43-4.38,3.36-3.32,5.27,4.47,4.54,14.1-5.97,19.27-6.56,4.69-1.12,9.73-.18,14.47-1.02,2.86-.44,5.43-1.8,7.98-2.97,4.05-1.88,8.63-1.77,13-1.84"/>
        <path class="cls-13" d="M61.1,512.57c.04-3.96-1.07-7.76-.39-11.63"/>
        <path class="cls-12" d="M35.53,502.83c-.19,4.92,1.69,9.69,4.53,13.64"/>
        <path class="cls-12" d="M37.92,497.08c-.59,5.91,3.09,10.9,6.36,15.49"/>
        <path class="cls-12" d="M40.06,500.94c4.43,4.73,11.37,5.85,17.6,5.82"/>
        <path class="cls-4" d="M63.58,504.82h2.57"/>
        <path class="cls-4" d="M63.58,509.65h2.57"/>
        <path class="cls-13" d="M33.21,522.1c-2.01-2.53-3.97-5.02-5.03-8.11-.75-2.41-1.98-4.71-2.57-7.15-.93-4.16,1.1-8.57,3.57-12.02"/>
        <path class="cls-13" d="M51.93,492.24c-1.55-1.11-3.54-2.02-5.41-1.6-1.09.26-2.13.82-3.21,1.15-1.39.48-2.51,1.36-3.65,2.26"/>
        <path class="cls-10" d="M14.62,495.48l.88-3.74"/>
        <path class="cls-10" d="M19.89,496.84l.88-3.74"/>
        <g>
          <path class="cls-10" d="M22.15,527.52l-1.65-3.47"/>
          <path class="cls-10" d="M27.12,525.28c-.37-.77-1.38-2.9-1.65-3.47"/>
        </g>
        <g>
          <path class="cls-10" d="M14.39,518.34l-.88-3.74"/>
          <path class="cls-10" d="M19.71,517.2c-.2-.83-.74-3.13-.88-3.74"/>
        </g>
        <g>
          <path class="cls-10" d="M12.84,508.14c.02-.85.08-3.21.09-3.84"/>
          <path class="cls-10" d="M18.28,508.38l.09-3.84"/>
        </g>
      </g>
      <path class="cls-16" d="M175.52,229.99c-4.69-1.39-10.5-2.74-14.45-5.67-1.61-1.27-2.37-3.94-.06-4.87,1.76-.86,4.59-.23,7.11.44,2.1.56,4.18,1.22,6.27,1.79,1.83.54,3.79.92,4.52,1.92,1.3,2.05-.32,4.45-.92,6.51"/>
      <path class="cls-16" d="M248.65,239.97c-4.89-.11-10.85.13-15.43-1.65-1.89-.8-3.33-3.18-1.34-4.68,1.47-1.3,4.36-1.43,6.98-1.46,2.17-.02,4.35.07,6.52.06,1.9.03,3.89-.11,4.86.65,1.8,1.63.87,4.38.83,6.52"/>
      <path class="cls-16" d="M328.77,247.2c-5.29.86-11.75,2.19-16.72,1.67-2.06-.26-3.64-1.85-1.5-3.41,1.58-1.3,4.71-1.97,7.54-2.48,2.35-.43,4.71-.78,7.06-1.2,2.06-.34,4.21-.83,5.27-.42,1.96.94.99,3.27.96,4.96"/>
      <path class="cls-16" d="M116.9,222.34c-2.77-3.02-6.38-6.46-7.91-10.42-.59-1.68.08-4.14,2.19-3.95,1.68.01,3.44,1.67,4.98,3.23,1.27,1.3,2.48,2.67,3.75,3.98,1.08,1.17,2.33,2.28,2.41,3.37,0,2.18-2.27,3.46-3.66,4.88"/>
      <path class="cls-16" d="M31.47,311.31c-3.53,1.35-7.74,3.26-11.56,3.31-1.6-.03-3.35-1.33-2.37-3,.66-1.37,2.69-2.32,4.56-3.09,1.55-.65,3.14-1.22,4.69-1.86,1.37-.53,2.76-1.22,3.68-.95,1.78.66,1.95,2.92,2.57,4.49"/>
      <path class="cls-16" d="M115.53,278.27c-2.39-3.06-5.55-6.56-6.68-10.46-.43-1.65.42-4.01,2.42-3.72,1.6.09,3.15,1.78,4.48,3.37,1.11,1.32,2.14,2.71,3.25,4.03.94,1.19,2.04,2.31,2.02,3.38-.17,2.11-2.46,3.25-3.9,4.55"/>
      <path class="cls-16" d="M100.73,286.25c-4.75-1.19-10.64-2.29-14.7-4.99-1.67-1.17-2.53-3.73-.23-4.71,1.73-.9,4.59-.38,7.15.18,2.13.47,4.24,1.03,6.36,1.51,1.85.46,3.83.76,4.6,1.7,1.38,1.94-.15,4.32-.69,6.33"/>
      <path class="cls-16" d="M172.82,296.88c-4.9-.04-10.88.27-15.46-1.4-1.89-.75-3.33-3.04-1.33-4.52,1.47-1.28,4.38-1.45,7-1.51,2.18-.05,4.36.01,6.54-.03,1.91,0,3.9-.16,4.87.57,1.8,1.56.86,4.23.82,6.32"/>
      <path class="cls-16" d="M191.28,277.88c-2.39-3.06-5.55-6.56-6.68-10.46-.43-1.65.42-4.01,2.42-3.72,1.6.09,3.15,1.78,4.48,3.37,1.11,1.32,2.14,2.71,3.25,4.03.94,1.19,2.04,2.31,2.02,3.38-.17,2.11-2.46,3.25-3.9,4.55"/>
      <path class="cls-16" d="M250.82,304.81c-4.73,1.27-10.41,3.15-15.28,2.77-2.02-.22-4.02-2.04-2.49-4,1.08-1.63,3.83-2.56,6.34-3.31,2.09-.62,4.21-1.15,6.3-1.76,1.84-.5,3.72-1.19,4.85-.75,2.15,1.03,1.96,3.85,2.47,5.87"/>
      <path class="cls-16" d="M267.28,278.88c-2.39-3.06-5.55-6.56-6.68-10.46-.43-1.65.42-4.01,2.42-3.72,1.6.09,3.15,1.78,4.48,3.37,1.11,1.32,2.14,2.71,3.25,4.03.94,1.19,2.04,2.31,2.02,3.38-.17,2.11-2.46,3.25-3.9,4.55"/>
      <path class="cls-16" d="M334.92,310.13c-3.39,1.79-7.38,4.23-11.22,4.74-1.61.17-3.54-.94-2.78-2.74.49-1.46,2.42-2.66,4.2-3.68,1.48-.84,3.01-1.61,4.49-2.45,1.32-.7,2.62-1.56,3.59-1.4,1.88.45,2.34,2.71,3.16,4.22"/>
      <path class="cls-16" d="M343.29,278.63c-2.39-3.06-5.55-6.56-6.68-10.46-.43-1.65.42-4.01,2.42-3.72,1.6.09,3.15,1.78,4.48,3.37,1.11,1.32,2.14,2.71,3.25,4.03.94,1.19,2.04,2.31,2.02,3.38-.17,2.11-2.46,3.25-3.9,4.55"/>
      <path class="cls-16" d="M98.32,389.23c-4.89-.1-10.85.15-15.43-1.62-1.89-.79-3.34-3.17-1.35-4.67,1.46-1.3,4.36-1.44,6.97-1.47,2.17-.02,4.35.06,6.52.05,1.9.03,3.89-.12,4.87.64,1.8,1.63.88,4.37.84,6.52"/>
      <path class="cls-16" d="M100.08,380.04c-4.69-1.39-10.5-2.74-14.45-5.67-1.61-1.27-2.37-3.94-.06-4.87,1.76-.86,4.59-.23,7.11.44,2.1.56,4.18,1.22,6.27,1.79,1.83.54,3.79.92,4.52,1.92,1.3,2.05-.32,4.45-.92,6.51"/>
      <path class="cls-16" d="M177.39,396.44c-5.29.86-11.75,2.19-16.72,1.67-2.06-.26-3.64-1.85-1.5-3.41,1.58-1.3,4.71-1.97,7.54-2.48,2.35-.43,4.71-.78,7.06-1.2,2.06-.34,4.21-.83,5.27-.42,1.96.94.99,3.27.96,4.96"/>
      <path class="cls-16" d="M182.68,402.79c-3.39,1.79-7.38,4.23-11.22,4.74-1.61.17-3.54-.94-2.78-2.74.49-1.46,2.42-2.66,4.2-3.68,1.48-.84,3.01-1.61,4.49-2.45,1.32-.7,2.62-1.56,3.59-1.4,1.88.45,2.34,2.71,3.16,4.22"/>
      <path class="cls-16" d="M251.83,395.91c-5.29.86-11.75,2.19-16.72,1.67-2.06-.26-3.64-1.85-1.5-3.41,1.58-1.3,4.71-1.97,7.54-2.48,2.35-.43,4.71-.78,7.06-1.2,2.06-.34,4.21-.83,5.27-.42,1.96.94.99,3.27.96,4.96"/>
      <path class="cls-16" d="M257.13,403.25c-3.39,1.79-7.38,4.23-11.22,4.74-1.61.17-3.54-.94-2.78-2.74.49-1.46,2.42-2.66,4.2-3.68,1.48-.84,3.01-1.61,4.49-2.45,1.32-.7,2.62-1.56,3.59-1.4,1.88.45,2.34,2.71,3.16,4.22"/>
      <path class="cls-16" d="M249.04,388.86c-4.89-.1-10.85.15-15.43-1.62-1.89-.79-3.34-3.17-1.35-4.67,1.46-1.3,4.36-1.44,6.97-1.47,2.17-.02,4.35.06,6.52.05,1.9.03,3.89-.12,4.87.64,1.8,1.63.88,4.37.84,6.52"/>
      <path class="cls-16" d="M250.8,379.67c-4.69-1.39-10.5-2.74-14.45-5.67-1.61-1.27-2.37-3.94-.06-4.87,1.76-.86,4.59-.23,7.11.44,2.1.56,4.18,1.22,6.27,1.79,1.83.54,3.79.92,4.52,1.92,1.3,2.05-.32,4.45-.92,6.51"/>
      <path class="cls-16" d="M333.06,394.7c-6.67,1.33-14.83,3.24-21,3.13-2.54-.1-4.38-1.6-1.58-3.39,2.08-1.47,6.04-2.42,9.61-3.19,2.97-.64,5.94-1.2,8.91-1.83,2.6-.52,5.33-1.21,6.61-.88,2.37.8.95,3.28.78,5.02"/>
      <path class="cls-16" d="M333.59,403.68c-3.39,1.79-7.38,4.23-11.22,4.74-1.61.17-3.54-.94-2.78-2.74.49-1.46,2.42-2.66,4.2-3.68,1.48-.84,3.01-1.61,4.49-2.45,1.32-.7,2.62-1.56,3.59-1.4,1.88.45,2.34,2.71,3.16,4.22"/>
      <path class="cls-16" d="M332.1,387.78c-6.8.34-15.14,1.12-21.37-.27-2.57-.64-4.37-2.94-1.46-4.65,2.16-1.46,6.2-1.86,9.85-2.12,3.03-.22,6.06-.32,9.09-.53,2.65-.14,5.44-.47,6.72.22,2.36,1.5.84,4.38.59,6.58"/>
      <path class="cls-16" d="M331.5,380.29c-5.92-1.45-13.25-2.87-18.26-5.85-2.05-1.29-3.04-3.97-.13-4.87,2.2-.84,5.77-.18,8.96.52,2.65.58,5.27,1.27,7.92,1.86,2.31.56,4.78.97,5.71,1.97,1.66,2.07-.34,4.45-1.09,6.5"/>
      <path class="cls-16" d="M344.84,372.14c-2.73-3.3-6.3-7.1-7.72-11.21-.54-1.74.24-4.14,2.4-3.73,1.72.18,3.47,2.01,4.98,3.73,1.26,1.43,2.44,2.92,3.69,4.35,1.07,1.28,2.31,2.51,2.34,3.62-.08,2.18-2.46,3.24-3.94,4.52"/>
      <path class="cls-16" d="M331.47,398.42c-.25-6.22-1.15-13.7,1.37-20.08,1.14-2.66,4.9-5.27,7.52-3.24,2.25,1.43,2.72,5.05,2.98,8.35.22,2.75.26,5.53.46,8.28.11,2.42.52,4.9-.65,6.37-2.51,2.81-7.07,2.54-10.58,3.2"/>
      <path class="cls-16" d="M24.86,452.99c-5.49.93-12.19,2.34-17.34,1.88-2.13-.24-3.75-1.82-1.51-3.41,1.65-1.33,4.9-2.03,7.84-2.59,2.44-.46,4.89-.84,7.33-1.29,2.14-.37,4.38-.89,5.47-.49,2.02.92.98,3.27.93,4.97"/>
      <path class="cls-16" d="M31.46,459.58c-3.39,1.79-7.38,4.23-11.22,4.74-1.61.17-3.54-.94-2.78-2.74.49-1.46,2.42-2.66,4.2-3.68,1.48-.84,3.01-1.61,4.49-2.45,1.32-.7,2.62-1.56,3.59-1.4,1.88.45,2.34,2.71,3.16,4.22"/>
      <path class="cls-16" d="M22.8,445.85c-5.3,0-11.78.36-16.72-1.33-2.04-.76-3.56-3.12-1.37-4.67,1.61-1.34,4.76-1.53,7.6-1.61,2.36-.06,4.72-.02,7.08-.07,2.06,0,4.23-.19,5.27.55,1.92,1.6.87,4.38.79,6.53"/>
      <path class="cls-16" d="M24.64,435.12c-4.83-1.3-10.81-2.56-14.88-5.26-1.67-1.17-2.46-3.62-.08-4.45,1.8-.78,4.71-.19,7.32.44,2.16.52,4.3,1.14,6.46,1.66,1.88.5,3.9.86,4.66,1.77,1.35,1.88-.3,4.06-.92,5.94"/>
      <path class="cls-16" d="M41.63,428.78c-3.01-3.03-6.93-6.44-8.65-10.66-.67-1.79-.02-4.61,2.22-4.64,1.78-.18,3.69,1.46,5.35,3.02,1.38,1.3,2.7,2.68,4.07,3.99,1.18,1.18,2.53,2.26,2.64,3.47.06,2.42-2.32,4.11-3.76,5.84"/>
      <path class="cls-21" d="M33.21,455.89"/>
      <path class="cls-16" d="M31.09,455.2c-4.55-4.12-8.62-19.81-2.72-24.36,2.81-1.84,6.35-.53,9.37-1.68,3.75-1.18,7.33-3.69,11.27-2.6,2.52.63,4.75,2.19,7.14,3.23,1.86.84,3.88,1.18,5.64,2.15,2.49,1.2,2.73,5.28,2.6,8.43.2,3.87-.37,8.27-3.76,10.08-6.2,3.1-12.72,5.09-19.49,5.39-3.41.18-7.15,1.17-9.91-.56l-.14-.09Z"/>
      <path class="cls-17" d="M176.87,453.32c-5.49.93-12.19,2.34-17.34,1.88-2.13-.24-3.75-1.82-1.51-3.41,1.65-1.33,4.9-2.03,7.84-2.59,2.44-.46,4.89-.84,7.33-1.29,2.14-.37,4.38-.89,5.47-.49,2.02.92.98,3.27.93,4.97"/>
      <path class="cls-17" d="M183.47,459.91c-3.39,1.79-7.38,4.23-11.22,4.74-1.61.17-3.54-.94-2.78-2.74.49-1.46,2.42-2.66,4.2-3.68,1.48-.84,3.01-1.61,4.49-2.45,1.32-.7,2.62-1.56,3.59-1.4,1.88.45,2.34,2.71,3.16,4.22"/>
      <path class="cls-17" d="M174.81,446.18c-5.3,0-11.78.36-16.72-1.33-2.04-.76-3.56-3.12-1.37-4.67,1.61-1.34,4.76-1.53,7.6-1.61,2.36-.06,4.72-.02,7.08-.07,2.06,0,4.23-.19,5.27.55,1.92,1.6.87,4.38.79,6.53"/>
      <path class="cls-17" d="M176.65,435.45c-4.83-1.3-10.81-2.56-14.88-5.26-1.67-1.17-2.46-3.62-.08-4.45,1.8-.78,4.71-.19,7.32.44,2.16.52,4.3,1.14,6.46,1.66,1.88.5,3.9.86,4.66,1.77,1.35,1.88-.3,4.06-.92,5.94"/>
      <path class="cls-17" d="M193.64,429.12c-3.01-3.03-6.93-6.44-8.65-10.66-.67-1.79-.02-4.61,2.22-4.64,1.78-.18,3.69,1.46,5.35,3.02,1.38,1.3,2.7,2.68,4.07,3.99,1.18,1.18,2.53,2.26,2.64,3.47.06,2.42-2.32,4.11-3.76,5.84"/>
      <path class="cls-17" d="M182.8,455.53c-4.32-4.12-8.18-19.81-2.58-24.36,2.66-1.84,6.03-.53,8.89-1.68,3.56-1.18,6.95-3.69,10.69-2.6,2.39.63,4.5,2.19,6.77,3.23,1.77.84,3.68,1.18,5.35,2.15,2.36,1.2,2.59,5.28,2.47,8.43.19,3.87-.35,8.27-3.57,10.08-5.89,3.1-12.07,5.09-18.49,5.39-3.23.18-6.79,1.17-9.4-.56l-.13-.09Z"/>
      <g>
        <g>
          <path class="cls-11" d="M331.38,413.93c-.56-.39-2.95,1.24-4.77,3.26-1.35,1.5-2.25,3.31-2.28,4.38"/>
          <polygon class="cls-9" points="324.81 421.34 324.62 422.39 323.78 421.63 324.81 421.34 324.81 421.34"/>
        </g>
        <polygon class="cls-14" points="331.43 415.41 332.48 412.83 329.4 413.33 331.43 415.41"/>
      </g>
      <g>
        <g>
          <path class="cls-11" d="M25.38,478.93c-.56-.39-2.95,1.24-4.77,3.26-1.35,1.5-2.25,3.31-2.28,4.38"/>
          <polygon class="cls-9" points="18.81 486.34 18.62 487.39 17.78 486.63 18.81 486.34 18.81 486.34"/>
        </g>
        <polygon class="cls-14" points="25.43 480.41 26.48 477.83 23.4 478.33 25.43 480.41"/>
      </g>
      <path class="cls-17" d="M100.34,452.87c-5.49.93-12.19,2.34-17.34,1.88-2.13-.24-3.75-1.82-1.51-3.41,1.65-1.33,4.9-2.03,7.84-2.59,2.44-.46,4.89-.84,7.33-1.29,2.14-.37,4.38-.89,5.47-.49,2.02.92.98,3.27.93,4.97"/>
      <path class="cls-17" d="M106.94,459.46c-3.39,1.79-7.38,4.23-11.22,4.74-1.61.17-3.54-.94-2.78-2.74.49-1.46,2.42-2.66,4.2-3.68,1.48-.84,3.01-1.61,4.49-2.45,1.32-.7,2.62-1.56,3.59-1.4,1.88.45,2.34,2.71,3.16,4.22"/>
      <path class="cls-17" d="M98.27,445.73c-5.3,0-11.78.36-16.72-1.33-2.04-.76-3.56-3.12-1.37-4.67,1.61-1.34,4.76-1.53,7.6-1.61,2.36-.06,4.72-.02,7.08-.07,2.06,0,4.23-.19,5.27.55,1.92,1.6.87,4.38.79,6.53"/>
      <path class="cls-17" d="M100.11,435c-4.83-1.3-10.81-2.56-14.88-5.26-1.67-1.17-2.46-3.62-.08-4.45,1.8-.78,4.71-.19,7.32.44,2.16.52,4.3,1.14,6.46,1.66,1.88.5,3.9.86,4.66,1.77,1.35,1.88-.3,4.06-.92,5.94"/>
      <path class="cls-17" d="M117.1,428.67c-3.01-3.03-6.93-6.44-8.65-10.66-.67-1.79-.02-4.61,2.22-4.64,1.78-.18,3.69,1.46,5.35,3.02,1.38,1.3,2.7,2.68,4.07,3.99,1.18,1.18,2.53,2.26,2.64,3.47.06,2.42-2.32,4.11-3.76,5.84"/>
      <path class="cls-17" d="M250.27,445.73c-5.3,0-11.78.36-16.72-1.33-2.04-.76-3.56-3.12-1.37-4.67,1.61-1.34,4.76-1.53,7.6-1.61,2.36-.06,4.72-.02,7.08-.07,2.06,0,4.23-.19,5.27.55,1.92,1.6.87,4.38.79,6.53"/>
      <path class="cls-17" d="M252.11,435c-4.83-1.3-10.81-2.56-14.88-5.26-1.67-1.17-2.46-3.62-.08-4.45,1.8-.78,4.71-.19,7.32.44,2.16.52,4.3,1.14,6.46,1.66,1.88.5,3.9.86,4.66,1.77,1.35,1.88-.3,4.06-.92,5.94"/>
      <path class="cls-17" d="M269.1,428.67c-3.01-3.03-6.93-6.44-8.65-10.66-.67-1.79-.02-4.61,2.22-4.64,1.78-.18,3.69,1.46,5.35,3.02,1.38,1.3,2.7,2.68,4.07,3.99,1.18,1.18,2.53,2.26,2.64,3.47.06,2.42-2.32,4.11-3.76,5.84"/>
      <path class="cls-16" d="M25.34,517.87c-5.49.93-12.19,2.34-17.34,1.88-2.13-.24-3.75-1.82-1.51-3.41,1.65-1.33,4.9-2.03,7.84-2.59,2.44-.46,4.89-.84,7.33-1.29,2.14-.37,4.38-.89,5.47-.49,2.02.92.98,3.27.93,4.97"/>
      <path class="cls-16" d="M31.94,524.46c-3.39,1.79-7.38,4.23-11.22,4.74-1.61.17-3.54-.94-2.78-2.74.49-1.46,2.42-2.66,4.2-3.68,1.48-.84,3.01-1.61,4.49-2.45,1.32-.7,2.62-1.56,3.59-1.4,1.88.45,2.34,2.71,3.16,4.22"/>
      <path class="cls-16" d="M23.27,510.73c-5.3,0-11.78.36-16.72-1.33-2.04-.76-3.56-3.12-1.37-4.67,1.61-1.34,4.76-1.53,7.6-1.61,2.36-.06,4.72-.02,7.08-.07,2.06,0,4.23-.19,5.27.55,1.92,1.6.87,4.38.79,6.53"/>
      <path class="cls-16" d="M25.11,500c-4.83-1.3-10.81-2.56-14.88-5.26-1.67-1.17-2.46-3.62-.08-4.45,1.8-.78,4.71-.19,7.32.44,2.16.52,4.3,1.14,6.46,1.66,1.88.5,3.9.86,4.66,1.77,1.35,1.88-.3,4.06-.92,5.94"/>
      <path class="cls-16" d="M42.1,493.67c-3.01-3.03-6.93-6.44-8.65-10.66-.67-1.79-.02-4.61,2.22-4.64,1.78-.18,3.69,1.46,5.35,3.02,1.38,1.3,2.7,2.68,4.07,3.99,1.18,1.18,2.53,2.26,2.64,3.47.06,2.42-2.32,4.11-3.76,5.84"/>
      <g>
        <line class="cls-1" x1="94.7" y1="414.29" x2="94.7" y2="425.29"/>
        <polygon class="cls-19" points="94.55 410.79 90.72 416.79 98.68 416.97 94.55 410.79"/>
      </g>
      <g>
        <line class="cls-1" x1="176.43" y1="414.29" x2="176.43" y2="425.29"/>
        <polygon class="cls-19" points="176.27 410.79 172.45 416.79 180.4 416.97 176.27 410.79"/>
      </g>
      <g>
        <line class="cls-1" x1="250.43" y1="414.29" x2="250.43" y2="425.29"/>
        <polygon class="cls-19" points="250.27 410.79 246.45 416.79 254.4 416.97 250.27 410.79"/>
      </g>
      <path class="cls-16" d="M325.75,445.37c-5.3,0-11.78.36-16.72-1.33-2.04-.76-3.56-3.12-1.37-4.67,1.61-1.34,4.76-1.53,7.6-1.61,2.36-.06,4.72-.02,7.08-.07,2.06,0,4.23-.19,5.27.55,1.92,1.6.87,4.38.79,6.53"/>
      <path class="cls-16" d="M327.59,434.64c-4.83-1.3-10.81-2.56-14.88-5.26-1.67-1.17-2.46-3.62-.08-4.45,1.8-.78,4.71-.19,7.32.44,2.16.52,4.3,1.14,6.46,1.66,1.88.5,3.9.86,4.66,1.77,1.35,1.88-.3,4.06-.92,5.94"/>
      <path class="cls-16" d="M344.58,428.31c-3.01-3.03-6.93-6.44-8.65-10.66-.67-1.79-.02-4.61,2.22-4.64,1.78-.18,3.69,1.46,5.35,3.02,1.38,1.3,2.7,2.68,4.07,3.99,1.18,1.18,2.53,2.26,2.64,3.47.06,2.42-2.32,4.11-3.76,5.84"/>
      <g class="cls-18">
        <line class="cls-6" x1="328.48" y1="365.22" x2="319.53" y2="358.82"/>
        <polygon class="cls-15" points="331.41 367.13 328.75 360.53 323.98 366.9 331.41 367.13"/>
      </g>
      <g class="cls-18">
        <line class="cls-6" x1="251.42" y1="361.41" x2="242.47" y2="355.01"/>
        <polygon class="cls-15" points="254.36 363.32 251.7 356.72 246.93 363.09 254.36 363.32"/>
      </g>
    </g>
  </g>
</svg>