<?xml version="1.0" encoding="UTF-8"?>
<svg data-name="Layer 2" xmlns="http://www.w3.org/2000/svg" viewBox="0 0 474.46 527.18">
  <defs>
    <style>
      .cls-1 {
        fill: #231f20;
        font-size: 36px;
      }

      .cls-1, .cls-2 {
        font-family: SegoeUIVariable, 'Segoe UI Variable';
        font-variation-settings: 'wght' 400, 'opsz' 10;
      }

      .cls-3 {
        letter-spacing: -.03em;
      }

      .cls-2 {
        fill: #fff;
        font-size: 14px;
      }
    </style>
  </defs>
  <g data-name="Layer 1">
    <g>
      <path d="M411.54,185.26l-21.52,5.97c-2.77.84-5.61,1.57-8.38,2.41l-1.15.3c-.96.3-1.99.54-2.95.84l-2.05.6c-10.31,2.89-20.55,5.85-30.98,8.68l-2.29.6-9.52,2.59c-1.33.36-2.65.72-4.04,1.02-13.44,3.62-27.06,6.93-40.8,9.76-1.02.24-1.99.42-3.01.66-21.88,4.4-44.06,7.65-66.54,8.74-12.42.54-24.83.6-37.31.48-14.16-.24-28.39-.6-42.61-.54-4.1,0-8.2,0-12.36.06-9.88.3-19.89.78-29.77,1.81-2.95.3-7.35.78-12.11,1.39-8.32,1.02-17.78,2.47-22.36,3.86-2.11.72-5.61,4.34-9.04,5.85-8.92,4.04-10.73,1.15-18.99.06-10.01-1.39-17.42,2.29-26.58,3.92-2.41.42-4.76.78-7.17,1.15v1.93c2.53-.42,5.06-.9,7.59-1.33,16.88-2.89,14.71-5.54,33.21-1.87,7.9,1.57,15.49-4.4,22.78-6.87,6.51-2.17,13.5-3.92,20.85-5.18,12.96-2.35,27.06-3.44,41.77-3.86,4.04-.12,8.14-.18,12.3-.24,14.04-.12,28.39.18,42.61.42,24.77.42,49,.6,69.98-2.05,11.21-1.51,22.42-3.44,33.69-5.67,15.97-3.19,32-7.11,47.92-11.45,3.07-.78,6.15-1.57,9.34-2.41,16.03-4.46,32.06-9.16,47.92-13.74,10.25-2.89,20.55-5.79,30.68-8.56,5.24-1.39,9.58-2.11,14.83-3.74-8.86.48-15.31,2.05-23.93,4.4ZM295.15,80.56q-.06-.06-.12,0c-.96-.06-2.11.06-3.44.3-.84.06-1.69.24-2.71.54-9.94,2.23-25.86,9.1-38.94,15.01-7.96,3.62-14.83,6.87-18.68,8.56-24.11,10.73-49.36,18.8-74.56,26.7-8.68,2.65-17.42,5.3-26.1,8.08-4.82,1.51-9.34,2.95-13.74,4.4-2.77.9-5.54,1.81-8.26,2.65-.42.12-.72.3-1.15.42-6.75,2.11-13.2,4.1-19.71,5.85-6.39,1.57-12.72,2.95-19.65,3.98-7.41,1.15-15.43,1.87-24.47,2.11-2.83,0-21.22.24-22.18-.3-3.01-1.57-4.22-6.39-6.15-8.68-3.44-4.22-9.16-9.34-15.31-13.68v1.87c5.42,4.34,11.39,9.76,14.04,13.26,1.63,2.11,2.05,5.12,3.74,6.87,6.63,6.87,8.5,2.89,15.37,2.23,11.69-1.21,23.26.24,35.38-1.21.06-.06.18-.06.24,0,.9-.12,1.75-.24,2.71-.36,13.26-2.11,24.83-5.97,36.52-10.13.3-.06.66-.24.96-.3,2.77-.96,5.54-1.93,8.38-2.89,2.53-.9,5-1.69,7.59-2.53,10.73-3.38,21.46-6.63,32.25-9.88,15.85-4.88,31.7-9.94,47.19-15.67,15.49-5.73,30.92-12.48,46.29-19.05,9.64-4.16,19.35-8.26,29.05-11.99,3.19-1.33,6.51-2.59,9.76-3.74,2.11-.84,4.28-1.57,6.45-2.35-.24-.06-.54-.06-.78-.06ZM326.67,72h-.06c-.72.06-1.45.12-2.17.24-3.8.72-7.71,1.75-11.63,2.83l-.24.06c-2.29.66-4.52,1.39-6.75,2.11-2.95.96-5.91,1.99-8.62,2.89-.18.06-.3.06-.3.06-.36.18-.72.24-.96.42,2.47.36,6.45-.66,10.43-1.87,1.02-.3,2.05-.66,3.01-.96l.18-.06c2.23-.72,4.4-1.45,6.03-1.81,1.81-.48,13.86-1.99,13.56-3.56-.78-.24-1.63-.3-2.47-.36ZM454.15,180.8c-1.27-.66-1.33-.78-.36-1.81l9.82-1.93c-.42-3.86-4.4-.84-6.51-.6-7.96,1.02-14.22,2.05-21.64,4.4,9.94-.54,11.81.42,21.1,2.47,6.63,1.45,12.54,2.05,17.9,1.87v-2.35c-7.23-.06-17.72-.72-20.31-2.05Z"/>
      <path d="M474.46,12.82v1.57c-10.25,11.81-19.77,25.62-30.5,36.34-13.92,13.86-44.06,11.15-63.04,13.5-10.49,1.27-21.52,3.19-32,4.88-.18.06-.72.12-1.69.3-5.54,1.27-23.57,5.36-37.67,8.32l-.18.06c-1.02.18-2.17.42-3.19.6-3.5.72-6.57,1.33-8.98,1.75-.18.06-.3.06-.3.06-.66.12-1.21.24-1.75.36q-.06-.06-.12,0c-2.05.36-3.38.42-3.44.3.3-.66,6.51-2.29,14.1-4.1,2.23-.54,4.58-1.08,6.87-1.63l.24-.06c5.12-1.15,10.13-2.23,13.8-3.07h.06c3.25-.66,5.42-1.15,5.73-1.21,4.16-1.21,8.98-2.23,14.22-3.19,13.08-2.47,28.33-4.4,39.24-5.73,14.59-1.69,42.49.06,53.34-9.46,13.86-12.11,23.63-26.4,35.26-39.6Z"/>
      <path d="M6.63,198.03c-1.21,2.89-3.8,3.98-6.63,4.46v-1.99c2.29-.48,4.52-1.27,6.63-2.47Z"/>
      <path id="electrode_28" d="M112.88,164.15l-39.78,12.66-4.72-14.64-.7-2.37,1.11-.3c6.67-1.87,12.83-4.04,18.98-6.46,6.53-1.71,12.92-3.69,19.71-5.84l.56,1.85,4.85,15.11Z"/>
      <rect id="electrode_23" x="86.93" y="170.51" width="21.74" height="41.73" transform="translate(256.9 46.9) rotate(74.83)"/>
      <path id="electrode_24" d="M122.39,208.22l3.66,19.24.16.83c-14.69.42-28.82,1.51-41.8,3.84l-.28-1.49-2.78-14.61,41.03-7.82Z"/>
      <path id="electrode_22" d="M156.71,131.66l5.24,19.31-40.25,10.92-4.81-17.74c4.36-1.43,8.89-2.91,13.73-4.41,8.69-2.73,17.39-5.4,26.1-8.08Z"/>
      <rect id="electrode_17" x="137.32" y="157.43" width="20.84" height="41.73" transform="translate(281.15 -10.96) rotate(74.83)"/>
      <polygon id="electrode_18" points="138.07 227.15 138 226.55 135.53 207.73 176.74 201.14 180.13 227.04 180.17 227.49 138.07 227.15"/>
      <polygon id="electrode_16" points="249.95 96.44 250.68 98.68 255.83 113.96 295.38 100.68 289.46 82.99 288.9 81.39 249.95 96.44"/>
      <rect id="electrode_9" x="273.05" y="113.85" width="23.48" height="41.73" transform="translate(321.99 -178.12) rotate(71.46)"/>
      <rect id="electrode_10" x="285.16" y="148.76" width="23.06" height="41.73" transform="translate(363.2 -165.59) rotate(71.46)"/>
      <path id="electrode_11" d="M328.65,209.78c-13.56,3.47-27.18,6.55-40.78,9.11v-1.78s.1-14.52.1-14.52l40.81-12.01-.12,17.41v1.78Z"/>
      <path id="electrode_8" d="M351.26,81.53l-39.55,13.29-5.35-16.04-.17-.39-.37-1.15-.13-.47c2.23-.54,4.57-1.11,6.87-1.61l.23-.06c3.94-1.13,7.85-2.13,11.65-2.85.71-.13,1.44-.2,2.19-.22l.06-.02c3.25-.69,5.43-1.16,5.72-1.24,4.11-1.18,8.96-2.18,14.19-3.16l.62,1.83,4.03,12.08Z"/>
      <rect id="electrode_1" x="330.27" y="95.64" width="21.46" height="41.73" transform="translate(343.06 -243.84) rotate(71.46)"/>
      <rect id="electrode_2" x="341.63" y="130.49" width="22.1" height="41.73" transform="translate(384.07 -231.15) rotate(71.46)"/>
      <polygon id="electrode_3" points="342.22 205.3 342.27 203.48 342.77 187.63 383.99 174.27 383.46 191.34 383.37 193.02 342.22 205.3"/>
    </g>
    <path d="M165.08,381.2c-.36-.06-.72-.06-1.15-.12-.24,0-.54,0-.78-.06-.54,0-1.15-.06-1.69-.12-.48,0-.9-.06-1.39-.12-.9-.06-1.81-.12-2.53-.18-.42-.06-.78-.06-1.08-.12-.42-.06-.78-.06-1.02-.12-.3-.06-.54-.06-.72-.12v.06h-.06c-7.35-.96-14.95-1.57-23.87-1.93-2.47-.12-4.94-.24-7.23-.54,10.13,1.81,20.37,2.23,30.98,2.83h.12c.84.06,3.5.24,6.45.48,1.87.12,3.86.18,5.79.24-.6-.06-1.21-.12-1.81-.18ZM397.49,427.61c-.18,0-.3,0-.42-.06-8.26-2.05-20.25-4.82-26.7-6.09v-.06c-2.59-.42-5.18-.78-7.96-1.21h-.06c-1.99-.24-3.98-.42-6.09-.6-.18-.06-.3-.06-.48-.06-1.75-.12-3.5-.24-5.18-.36-3.44-.3-6.75-.6-10.07-.9-3.31-.36-6.57-.72-9.76-1.15-2.41-.3-4.82-.6-7.17-.96-2.41-.36-4.82-.72-7.23-1.09-8.98-1.45-17.96-3.19-27.54-5.3-12.05-2.59-23.75-5.79-35.38-9.22h-.06c-2.77-.78-5.61-1.63-8.38-2.41-5.54-1.63-11.15-3.25-16.76-4.76-2.77-.78-5.54-1.57-8.38-2.29h-.06c-.06-.06-.18-.06-.24-.06l-.18-.06c-3.68-1.02-7.17-1.93-10.85-2.77-2.71-.6-5.36-1.27-8.02-1.81h-.06c-.78-.18-1.51-.36-2.29-.48-2.83-.6-5.61-1.15-8.44-1.63-3.56-.66-7.17-1.21-10.85-1.69-2.95-.3-5.97-.72-8.98-.96l-.48-.06c-.12,0-.12.06-.18,0h-.36c-.54-.06-1.21-.12-1.99-.18-1.93-.06-3.92-.12-5.79-.24,9.46,1.27,18.93,2.95,30.62,4.88,2.89.48,5.73.9,8.56,1.51,2.77.54,5.42,1.08,8.08,1.69,1.02.24,1.99.42,3.01.66,14.89,3.31,28.81,7.35,42.01,11.09,22.66,6.63,43.03,12.78,61.54,14.22.48.06,1.02.06,1.45.18,10.73,1.08,17.84,4.28,28.87,5,5.97.42,11.51,1.21,17.06,2.17h.06c2.65.42,5.18.9,7.9,1.39h.06c6.33,1.15,20.31,3.74,29.11,4.88,1.51.18,2.89.3,3.98.36-1.51-.42-3.56-.9-5.91-1.57ZM472.59,412.96c-1.39-.3-1.81-.3-.54.72.48.3,1.39.66,2.41.9v-1.27c-.6-.12-1.27-.24-1.87-.36ZM473.31,403.38c-5.06,1.51-11.99,1.93-16.64,4.16-17.36,8.5-20.85,20.55-40.44,22.42-1.39.12-2.83.18-4.34.24-.6-.06-2.77-.3-4.82-.54h-.06c-1.69-.24-3.13-.48-3.62-.48.66.24,1.51.42,2.53.66.06,0,.18.06.18.06,3.31.78,8.08,1.69,10.07,1.81h.06c1.02.06,2.05-.06,3.07-.18,10.43-1.93,23.57-13.32,32.79-19.41,6.09-4.04,14.28-5.97,22.36-7.96v-1.15c-.42.12-.78.24-1.15.36ZM407.08,429.66h-.06c-3.01-.96-6.15-1.93-9.52-2.05-.18,0-.3,0-.42-.06-1.39,0-2.77-.12-4.16-.3,2.17.54,4.34,1.15,6.51,1.57,2.17.48,4.4.78,6.51,1.02.06,0,.18.06.18.06.78.06,1.51.12,2.23.18-.42-.12-.78-.24-1.27-.42ZM81.61,357.21c-21.28-20.85-38.09-46.23-63.71-62.98l-17.9-11.93v1.57c15.49,10.55,30.26,21.94,44.54,34.23,24.95,27.72,41.35,55.15,79.02,59.73-14.95-2.65-29.11-8.08-41.95-20.61Z"/>
    <path d="M430.1,509.28l-1.02.9c-.06,1.15,13.68,5.18,11.63,6.03-1.99.42-3.98.24-6.09-.12-6.63-1.21-12.72-2.59-18.68-3.92-.96-.24-1.87-.48-2.77-.6h-.06c-9.82-2.35-19.47-4.52-31.34-5.12-3.92-.24-7.84-.3-11.87-.42-.9,0-1.87,0-2.77-.06-1.75,0-3.44-.06-5.18,0h-1.69c-14.77-.06-29.59.54-44.54,1.33-.54.06-1.08.06-1.63.12h-.06c-25.07,1.27-50.33,3.13-75.4,3.25h-3.38c-14.34,0-28.75-.66-42.79-2.29l-.72-.12c-2.65-.3-5.24-.66-7.84-1.02-8.62-1.08-17.24-2.29-25.8-3.62-6.45-.96-12.84-1.93-19.23-2.95l-.6-.06c-4.7-.72-9.28-1.39-13.86-2.05-8.74-1.27-16.76-3.98-25.86-3.8-13.2.06-22,6.15-33.21-5.06-4.28-4.22-6.51-8.86-9.82-13.56-1.75,1.02-.54,1.08,0,2.05.6,1.27,1.39,2.59,2.29,3.74-.54.48-.96.9-1.69,1.08-1.08.18-17.12-7.77-19.41-9.1-11.57-6.33-23.87-14.46-35.14-21.64-.54-.36-1.08-.66-1.57-1.02v2.71c18.56,11.87,38.03,23.26,55.09,30.2,7.96,3.31,5.61,3.44,11.39,8.86,10,9.28,27.24,2.05,40.38,3.68,10.37,1.21,20.79,2.95,31.22,4.76,15.19,2.59,30.32,5.36,45.57,7.41,2.41.36,5,.66,7.47.96l1.08.12c8.38.96,16.76,1.57,25.19,1.87,5.73.24,11.51.3,17.24.3,1.27,0,2.53.06,3.86,0,25.68-.18,51.47-2.17,77.15-3.5,15.49-.84,30.92-1.45,46.23-1.33,2.59,0,5.36.06,8.02.18,4.82.12,9.64.3,14.53.6,3.62.24,7.11.66,10.49,1.21h.18c6.27.96,12.18,2.35,18.02,3.74.96.24,1.81.42,2.77.66,6.09,1.45,12.18,2.89,18.74,3.92,4.04.54,7.41-.78,11.15-.06,5.67,1.09,13.5,5.12,19.47,7.05,3.13,1.02,6.21,1.87,9.22,2.59v-1.57c-15.19-4.28-30.02-10.19-44.36-16.33Z"/>
    <path d="M106.5,485.24c-7.45-1.63-13.08-8.76-19.77-12.71-3.12-1.84-6.58-2.71-9.67-4.53,11.82,1.06,19.74,11.5,29.44,17.23Z"/>
    <path id="electrode_21" d="M413.8,490.9l-.68,20.81-.03,1.54c-9.99-2.4-19.88-4.88-31.45-5.62-4.85-.29-9.71-.5-14.53-.58l.03-1.45.53-16.16,46.14,1.46Z"/>
    <rect id="electrode_20" x="382.5" y="445.01" width="20.23" height="46.17" transform="translate(-87.8 845.53) rotate(-88.17)"/>
    <path id="electrode_27" d="M360.85,490.06l-.53,14.96-.02,1.37c-15.34-.13-30.77.46-46.27,1.27l.06-1.32.57-17.78,46.18,1.51Z"/>
    <rect id="electrode_26" x="327.68" y="443.26" width="20.23" height="46.17" transform="translate(-139.12 789.03) rotate(-88.17)"/>
    <path id="electrode_25" d="M362.38,420.2l-.09,2.3-.62,19.96-46.14-1.46.84-25.63-.02-.3c12.79,2.07,25.37,3.52,39.45,4.49,2.29.18,4.46.39,6.58.64Z"/>
    <path id="electrode_19" d="M416.25,429.96l-.05,1.71-.54,17.36-46.18-1.51.77-23.58.11-2.47c6.48,1.27,18.45,4.05,26.71,6.1.12.05.26.02.42.03,3.37.13,6.5,1.11,9.54,2.07,2.03.24,4.24.5,4.88.51,1.5-.01,2.95-.07,4.33-.22Z"/>
    <rect id="electrode_6" x="156.59" y="439.43" width="20.23" height="46.17" transform="translate(-314.14 564.95) rotate(-82.21)"/>
    <rect id="electrode_5" x="161.26" y="405.33" width="20.23" height="46.17" transform="translate(-276.32 540.1) rotate(-82.21)"/>
    <path id="electrode_4" d="M200.43,386.33l.04.05-.18,1.18-2.94,21.23-45.72-6.26,2.94-21.87.07-.38h.08c1.78.23,11.34.93,14.52,1.31.04.05.09,0,.17.01.17.01.34.03.51.04,2.97.23,5.98.59,8.99.96,7.32.96,14.36,2.23,21.51,3.73Z"/>
    <rect id="electrode_14" x="212.04" y="445.73" width="20.23" height="46.17" transform="translate(-272.45 625.34) rotate(-82.21)"/>
    <rect id="electrode_13" x="215.46" y="412.75" width="20.23" height="46.17" transform="translate(-236.82 600.21) rotate(-82.21)"/>
    <path id="electrode_12" d="M253.39,400.59l-.03.43-2.33,17.22-45.77-6.22,3.08-22.54,3.05.41,8.37,1.17h.09c11.22,3.02,22.38,6.33,33.54,9.55Z"/>
    <polygon id="electrode_7" points="143.5 485.24 136.21 501.93 178.72 507.64 186 490.94 143.5 485.24"/>
    <path id="electrode_15" d="M241.38,495.77l-6.14,14.89-.59,1.45c-5.76,0-11.52-.05-17.26-.28l-25.75-3.44.07-.11,7.36-18.14,42.3,5.65Z"/>
    <text class="cls-2" transform="translate(337.19 122.4)"><tspan x="0" y="0">1</tspan></text>
    <text class="cls-2" transform="translate(346.69 157.24)"><tspan x="0" y="0">2</tspan></text>
    <text class="cls-2" transform="translate(359.12 195.82)"><tspan x="0" y="0">3</tspan></text>
    <text class="cls-2" transform="translate(171.45 398.63)"><tspan x="0" y="0">4</tspan></text>
    <text class="cls-2" transform="translate(166.37 432.72)"><tspan x="0" y="0">5</tspan></text>
    <text class="cls-2" transform="translate(161.91 466.81)"><tspan x="0" y="0">6</tspan></text>
    <text class="cls-2" transform="translate(157.11 501.48)"><tspan x="0" y="0">7</tspan></text>
    <text class="cls-2" transform="translate(321.13 85.85)"><tspan x="0" y="0">8</tspan></text>
    <text class="cls-2" transform="translate(280.85 138.81)"><tspan x="0" y="0">9</tspan></text>
    <text class="cls-2" transform="translate(289.35 173.64)"><tspan x="0" y="0">10</tspan></text>
    <text class="cls-2" transform="translate(302.78 211.22)"><tspan x="0" y="0">11</tspan></text>
    <text class="cls-2" transform="translate(264.79 102.25)"><tspan x="0" y="0">16</tspan></text>
    <text class="cls-2" transform="translate(220.9 407.82)"><tspan x="0" y="0">12</tspan></text>
    <text class="cls-2" transform="translate(219.83 439.92)"><tspan x="0" y="0">13</tspan></text>
    <text class="cls-2" transform="translate(215.36 474)"><tspan x="0" y="0">14</tspan></text>
    <text class="cls-2" transform="translate(210.56 506.67)"><tspan x="0" y="0">15</tspan></text>
    <text class="cls-2" transform="translate(140.99 182.67)"><tspan x="0" y="0">17</tspan></text>
    <text class="cls-2" transform="translate(149.46 219.84)"><tspan x="0" y="0">18</tspan></text>
    <text class="cls-2" transform="translate(131.32 151.48)"><tspan x="0" y="0">22</tspan></text>
    <text class="cls-2" transform="translate(329.84 471.02)"><tspan x="0" y="0">26</tspan></text>
    <text class="cls-2" transform="translate(329.9 503.67)"><tspan x="0" y="0">27</tspan></text>
    <text class="cls-2" transform="translate(330.75 433.63)"><tspan x="0" y="0">25</tspan></text>
    <text class="cls-2" transform="translate(383.07 473.37)"><tspan x="0" y="0">20</tspan></text>
    <text class="cls-2" transform="translate(383.14 504.02)"><tspan x="0" y="0">21</tspan></text>
    <text class="cls-2" transform="translate(383.99 440.99)"><tspan x="0" y="0">19</tspan></text>
    <text class="cls-2" transform="translate(89.87 196.28)"><tspan x="0" y="0">23</tspan></text>
    <text class="cls-2" transform="translate(96.35 225.44)"><tspan x="0" y="0">24</tspan></text>
    <text class="cls-2" transform="translate(83.2 166.08)"><tspan x="0" y="0">28</tspan></text>
    <text class="cls-1" transform="translate(150.45 350)"><tspan x="0" y="0">Dorsal View</tspan></text>
    <text class="cls-1" transform="translate(147.13 30.6)"><tspan class="cls-3" x="0" y="0">P</tspan><tspan x="18.93" y="0">almar View</tspan></text>
  </g>
</svg>