<?xml version="1.0" encoding="UTF-8"?>
<svg id="Layer_1" xmlns="http://www.w3.org/2000/svg" viewBox="0 0 666.14 212.6">
  <defs>
    <style>
      .cls-1 {
        fill: #ff7bac;
      }
    </style>
  </defs>
  <circle id='1' class="cls-1" cx="7.09" cy="7.09" r="7.09"/>
  <circle id='2' class="cls-1" cx="35.43" cy="7.09" r="7.09"/>
  <circle id='3' class="cls-1" cx="63.78" cy="7.09" r="7.09"/>
  <circle id='4' class="cls-1" cx="92.13" cy="7.09" r="7.09"/>
  <circle id='5' class="cls-1" cx="120.47" cy="7.09" r="7.09"/>
  <circle id='6' class="cls-1" cx="148.82" cy="7.09" r="7.09"/>
  <circle id='7' class="cls-1" cx="177.17" cy="7.09" r="7.09"/>
  <circle id='8' class="cls-1" cx="205.51" cy="7.09" r="7.09"/>
  <circle class="cls-1" cx="233.86" cy="7.09" r="7.09"/>
  <circle class="cls-1" cx="262.2" cy="7.09" r="7.09"/>
  <circle class="cls-1" cx="290.55" cy="7.09" r="7.09"/>
  <circle class="cls-1" cx="318.9" cy="7.09" r="7.09"/>
  <circle class="cls-1" cx="347.24" cy="7.09" r="7.09"/>
  <circle class="cls-1" cx="375.59" cy="7.09" r="7.09"/>
  <circle class="cls-1" cx="403.94" cy="7.09" r="7.09"/>
  <circle class="cls-1" cx="432.28" cy="7.09" r="7.09"/>
  <circle class="cls-1" cx="7.09" cy="35.43" r="7.09"/>
  <circle class="cls-1" cx="35.43" cy="35.43" r="7.09"/>
  <circle class="cls-1" cx="63.78" cy="35.43" r="7.09"/>
  <circle class="cls-1" cx="92.13" cy="35.43" r="7.09"/>
  <circle class="cls-1" cx="120.47" cy="35.43" r="7.09"/>
  <circle class="cls-1" cx="148.82" cy="35.43" r="7.09"/>
  <circle class="cls-1" cx="177.17" cy="35.43" r="7.09"/>
  <circle class="cls-1" cx="205.51" cy="35.43" r="7.09"/>
  <circle class="cls-1" cx="233.86" cy="35.43" r="7.09"/>
  <circle class="cls-1" cx="262.2" cy="35.43" r="7.09"/>
  <circle class="cls-1" cx="290.55" cy="35.43" r="7.09"/>
  <circle class="cls-1" cx="318.9" cy="35.43" r="7.09"/>
  <circle class="cls-1" cx="347.24" cy="35.43" r="7.09"/>
  <circle class="cls-1" cx="375.59" cy="35.43" r="7.09"/>
  <circle class="cls-1" cx="403.94" cy="35.43" r="7.09"/>
  <circle class="cls-1" cx="432.28" cy="35.43" r="7.09"/>
  <circle class="cls-1" cx="7.09" cy="63.78" r="7.09"/>
  <circle class="cls-1" cx="35.43" cy="63.78" r="7.09"/>
  <circle class="cls-1" cx="63.78" cy="63.78" r="7.09"/>
  <circle class="cls-1" cx="92.13" cy="63.78" r="7.09"/>
  <circle class="cls-1" cx="120.47" cy="63.78" r="7.09"/>
  <circle class="cls-1" cx="148.82" cy="63.78" r="7.09"/>
  <circle class="cls-1" cx="177.17" cy="63.78" r="7.09"/>
  <circle class="cls-1" cx="205.51" cy="63.78" r="7.09"/>
  <circle class="cls-1" cx="233.86" cy="63.78" r="7.09"/>
  <circle class="cls-1" cx="262.2" cy="63.78" r="7.09"/>
  <circle class="cls-1" cx="290.55" cy="63.78" r="7.09"/>
  <circle class="cls-1" cx="318.9" cy="63.78" r="7.09"/>
  <circle class="cls-1" cx="347.24" cy="63.78" r="7.09"/>
  <circle class="cls-1" cx="375.59" cy="63.78" r="7.09"/>
  <circle class="cls-1" cx="403.94" cy="63.78" r="7.09"/>
  <circle class="cls-1" cx="432.28" cy="63.78" r="7.09"/>
  <circle class="cls-1" cx="7.09" cy="92.13" r="7.09"/>
  <circle class="cls-1" cx="35.43" cy="92.13" r="7.09"/>
  <circle class="cls-1" cx="63.78" cy="92.13" r="7.09"/>
  <circle class="cls-1" cx="92.13" cy="92.13" r="7.09"/>
  <circle class="cls-1" cx="120.47" cy="92.13" r="7.09"/>
  <circle class="cls-1" cx="148.82" cy="92.13" r="7.09"/>
  <circle class="cls-1" cx="177.17" cy="92.13" r="7.09"/>
  <circle class="cls-1" cx="205.51" cy="92.13" r="7.09"/>
  <circle class="cls-1" cx="233.86" cy="92.13" r="7.09"/>
  <circle class="cls-1" cx="262.2" cy="92.13" r="7.09"/>
  <circle class="cls-1" cx="290.55" cy="92.13" r="7.09"/>
  <circle class="cls-1" cx="318.9" cy="92.13" r="7.09"/>
  <circle class="cls-1" cx="347.24" cy="92.13" r="7.09"/>
  <circle class="cls-1" cx="375.59" cy="92.13" r="7.09"/>
  <circle class="cls-1" cx="403.94" cy="92.13" r="7.09"/>
  <circle class="cls-1" cx="432.28" cy="92.13" r="7.09"/>
  <circle class="cls-1" cx="7.09" cy="120.47" r="7.09"/>
  <circle class="cls-1" cx="35.43" cy="120.47" r="7.09"/>
  <circle class="cls-1" cx="63.78" cy="120.47" r="7.09"/>
  <circle class="cls-1" cx="92.13" cy="120.47" r="7.09"/>
  <circle class="cls-1" cx="120.47" cy="120.47" r="7.09"/>
  <circle class="cls-1" cx="148.82" cy="120.47" r="7.09"/>
  <circle class="cls-1" cx="177.17" cy="120.47" r="7.09"/>
  <circle class="cls-1" cx="205.51" cy="120.47" r="7.09"/>
  <circle class="cls-1" cx="233.86" cy="120.47" r="7.09"/>
  <circle class="cls-1" cx="262.2" cy="120.47" r="7.09"/>
  <circle class="cls-1" cx="290.55" cy="120.47" r="7.09"/>
  <circle class="cls-1" cx="318.9" cy="120.47" r="7.09"/>
  <circle class="cls-1" cx="347.24" cy="120.47" r="7.09"/>
  <circle class="cls-1" cx="375.59" cy="120.47" r="7.09"/>
  <circle class="cls-1" cx="403.94" cy="120.47" r="7.09"/>
  <circle class="cls-1" cx="432.28" cy="120.47" r="7.09"/>
  <circle class="cls-1" cx="7.09" cy="148.82" r="7.09"/>
  <circle class="cls-1" cx="35.43" cy="148.82" r="7.09"/>
  <circle class="cls-1" cx="63.78" cy="148.82" r="7.09"/>
  <circle class="cls-1" cx="92.13" cy="148.82" r="7.09"/>
  <circle class="cls-1" cx="120.47" cy="148.82" r="7.09"/>
  <circle class="cls-1" cx="148.82" cy="148.82" r="7.09"/>
  <circle class="cls-1" cx="177.17" cy="148.82" r="7.09"/>
  <circle class="cls-1" cx="205.51" cy="148.82" r="7.09"/>
  <circle class="cls-1" cx="233.86" cy="148.82" r="7.09"/>
  <circle class="cls-1" cx="262.2" cy="148.82" r="7.09"/>
  <circle class="cls-1" cx="290.55" cy="148.82" r="7.09"/>
  <circle class="cls-1" cx="318.9" cy="148.82" r="7.09"/>
  <circle class="cls-1" cx="347.24" cy="148.82" r="7.09"/>
  <circle class="cls-1" cx="375.59" cy="148.82" r="7.09"/>
  <circle class="cls-1" cx="403.94" cy="148.82" r="7.09"/>
  <circle class="cls-1" cx="432.28" cy="148.82" r="7.09"/>
  <circle class="cls-1" cx="7.09" cy="177.17" r="7.09"/>
  <circle class="cls-1" cx="35.43" cy="177.17" r="7.09"/>
  <circle class="cls-1" cx="63.78" cy="177.17" r="7.09"/>
  <circle class="cls-1" cx="92.13" cy="177.17" r="7.09"/>
  <circle class="cls-1" cx="120.47" cy="177.17" r="7.09"/>
  <circle class="cls-1" cx="148.82" cy="177.17" r="7.09"/>
  <circle class="cls-1" cx="177.17" cy="177.17" r="7.09"/>
  <circle class="cls-1" cx="205.51" cy="177.17" r="7.09"/>
  <circle class="cls-1" cx="233.86" cy="177.17" r="7.09"/>
  <circle class="cls-1" cx="262.2" cy="177.17" r="7.09"/>
  <circle class="cls-1" cx="290.55" cy="177.17" r="7.09"/>
  <circle class="cls-1" cx="318.9" cy="177.17" r="7.09"/>
  <circle class="cls-1" cx="347.24" cy="177.17" r="7.09"/>
  <circle class="cls-1" cx="375.59" cy="177.17" r="7.09"/>
  <circle class="cls-1" cx="403.94" cy="177.17" r="7.09"/>
  <circle class="cls-1" cx="432.28" cy="177.17" r="7.09"/>
  <circle class="cls-1" cx="7.09" cy="205.51" r="7.09"/>
  <circle class="cls-1" cx="35.43" cy="205.51" r="7.09"/>
  <circle class="cls-1" cx="63.78" cy="205.51" r="7.09"/>
  <circle class="cls-1" cx="92.13" cy="205.51" r="7.09"/>
  <circle class="cls-1" cx="120.47" cy="205.51" r="7.09"/>
  <circle class="cls-1" cx="148.82" cy="205.51" r="7.09"/>
  <circle class="cls-1" cx="177.17" cy="205.51" r="7.09"/>
  <circle class="cls-1" cx="205.51" cy="205.51" r="7.09"/>
  <circle class="cls-1" cx="233.86" cy="205.51" r="7.09"/>
  <circle class="cls-1" cx="262.2" cy="205.51" r="7.09"/>
  <circle class="cls-1" cx="290.55" cy="205.51" r="7.09"/>
  <circle class="cls-1" cx="318.9" cy="205.51" r="7.09"/>
  <circle class="cls-1" cx="347.24" cy="205.51" r="7.09"/>
  <circle class="cls-1" cx="375.59" cy="205.51" r="7.09"/>
  <circle class="cls-1" cx="403.94" cy="205.51" r="7.09"/>
  <circle class="cls-1" cx="432.28" cy="205.51" r="7.09"/>
  <circle class="cls-1" cx="460.63" cy="7.09" r="7.09"/>
  <circle class="cls-1" cx="488.98" cy="7.09" r="7.09"/>
  <circle class="cls-1" cx="517.32" cy="7.09" r="7.09"/>
  <circle class="cls-1" cx="545.67" cy="7.09" r="7.09"/>
  <circle class="cls-1" cx="574.02" cy="7.09" r="7.09"/>
  <circle class="cls-1" cx="602.36" cy="7.09" r="7.09"/>
  <circle class="cls-1" cx="630.71" cy="7.09" r="7.09"/>
  <circle class="cls-1" cx="659.06" cy="7.09" r="7.09"/>
  <circle class="cls-1" cx="460.63" cy="35.43" r="7.09"/>
  <circle class="cls-1" cx="488.98" cy="35.43" r="7.09"/>
  <circle class="cls-1" cx="517.32" cy="35.43" r="7.09"/>
  <circle class="cls-1" cx="545.67" cy="35.43" r="7.09"/>
  <circle class="cls-1" cx="574.02" cy="35.43" r="7.09"/>
  <circle class="cls-1" cx="602.36" cy="35.43" r="7.09"/>
  <circle class="cls-1" cx="630.71" cy="35.43" r="7.09"/>
  <circle class="cls-1" cx="659.06" cy="35.43" r="7.09"/>
  <circle class="cls-1" cx="460.63" cy="63.78" r="7.09"/>
  <circle class="cls-1" cx="488.98" cy="63.78" r="7.09"/>
  <circle class="cls-1" cx="517.32" cy="63.78" r="7.09"/>
  <circle class="cls-1" cx="545.67" cy="63.78" r="7.09"/>
  <circle class="cls-1" cx="574.02" cy="63.78" r="7.09"/>
  <circle class="cls-1" cx="602.36" cy="63.78" r="7.09"/>
  <circle class="cls-1" cx="630.71" cy="63.78" r="7.09"/>
  <circle class="cls-1" cx="659.06" cy="63.78" r="7.09"/>
  <circle class="cls-1" cx="460.63" cy="92.13" r="7.09"/>
  <circle class="cls-1" cx="488.98" cy="92.13" r="7.09"/>
  <circle class="cls-1" cx="517.32" cy="92.13" r="7.09"/>
  <circle class="cls-1" cx="545.67" cy="92.13" r="7.09"/>
  <circle class="cls-1" cx="574.02" cy="92.13" r="7.09"/>
  <circle class="cls-1" cx="602.36" cy="92.13" r="7.09"/>
  <circle class="cls-1" cx="630.71" cy="92.13" r="7.09"/>
  <circle class="cls-1" cx="659.06" cy="92.13" r="7.09"/>
  <circle class="cls-1" cx="460.63" cy="120.47" r="7.09"/>
  <circle class="cls-1" cx="488.98" cy="120.47" r="7.09"/>
  <circle class="cls-1" cx="517.32" cy="120.47" r="7.09"/>
  <circle class="cls-1" cx="545.67" cy="120.47" r="7.09"/>
  <circle class="cls-1" cx="574.02" cy="120.47" r="7.09"/>
  <circle class="cls-1" cx="602.36" cy="120.47" r="7.09"/>
  <circle class="cls-1" cx="630.71" cy="120.47" r="7.09"/>
  <circle class="cls-1" cx="659.06" cy="120.47" r="7.09"/>
  <circle class="cls-1" cx="460.63" cy="148.82" r="7.09"/>
  <circle class="cls-1" cx="488.98" cy="148.82" r="7.09"/>
  <circle class="cls-1" cx="517.32" cy="148.82" r="7.09"/>
  <circle class="cls-1" cx="545.67" cy="148.82" r="7.09"/>
  <circle class="cls-1" cx="574.02" cy="148.82" r="7.09"/>
  <circle class="cls-1" cx="602.36" cy="148.82" r="7.09"/>
  <circle class="cls-1" cx="630.71" cy="148.82" r="7.09"/>
  <circle class="cls-1" cx="659.06" cy="148.82" r="7.09"/>
  <circle class="cls-1" cx="460.63" cy="177.17" r="7.09"/>
  <circle class="cls-1" cx="488.98" cy="177.17" r="7.09"/>
  <circle class="cls-1" cx="517.32" cy="177.17" r="7.09"/>
  <circle class="cls-1" cx="545.67" cy="177.17" r="7.09"/>
  <circle class="cls-1" cx="574.02" cy="177.17" r="7.09"/>
  <circle class="cls-1" cx="602.36" cy="177.17" r="7.09"/>
  <circle class="cls-1" cx="630.71" cy="177.17" r="7.09"/>
  <circle class="cls-1" cx="659.06" cy="177.17" r="7.09"/>
  <circle class="cls-1" cx="460.63" cy="205.51" r="7.09"/>
  <circle class="cls-1" cx="488.98" cy="205.51" r="7.09"/>
  <circle class="cls-1" cx="517.32" cy="205.51" r="7.09"/>
  <circle class="cls-1" cx="545.67" cy="205.51" r="7.09"/>
  <circle class="cls-1" cx="574.02" cy="205.51" r="7.09"/>
  <circle class="cls-1" cx="602.36" cy="205.51" r="7.09"/>
  <circle class="cls-1" cx="630.71" cy="205.51" r="7.09"/>
  <circle class="cls-1" cx="659.06" cy="205.51" r="7.09"/>
</svg>