<?xml version="1.0" encoding="UTF-8"?>
<svg xmlns="http://www.w3.org/2000/svg" version="1.1" viewBox="0 0 300 300">
  <defs>
    <style>
      .cls-1, .cls-2, .cls-3, .cls-4, .cls-5, .cls-6 {
        stroke: #000;
        stroke-miterlimit: 10;
      }

      .cls-1, .cls-3 {
        fill: none;
      }

      .cls-1, .cls-5 {
        stroke-width: .5px;
      }

      .cls-2 {
        stroke-width: .25px;
      }

      .cls-2, .cls-4, .cls-5, .cls-6 {
        fill: #c7b299;
      }

      .cls-3, .cls-6 {
        stroke-width: .75px;
      }
    </style>
  </defs>
  <!-- Generator: Adobe Illustrator 28.7.5, SVG Export Plug-In . SVG Version: 1.2.0 Build 176)  -->
  <g>
    <g id="Layer_1">
      <g id="tap_set_g0">
        <path class="cls-3" d="M98.98,294.36c4.09-13.52,12.22-29.13,13.31-43.63-.09-6.94-5.22-14.54-9.9-21.75-7.04-12.59-12.26-25.84-23.94-35.13-7.54-8.14-7.59-20.19-15.26-28.37-5.18-5.47-11.81-10.36-18.44-13.83-6.59-3.29-12.63-5.29-16.13-10.98-2.59-3.87.32-8.09,4.32-9.47,11.45-4.27,26.89,2.94,36.02,11.38,7,5.6,11.99,13.21,16.63,20.77,4.54,7.07,8.95,9.43,13.04,1.78,11.13-19.66,7.68-43.23,1.82-63.82-2.09-9.65-2.54-19.92-5.63-29.22-3.18-10.45-7-20.55-8.59-31.26-1.41-6.31,2.73-15.48,9.95-11.65,3.68,2.18,6.68,6.54,8.72,10.58,9.9,15.79,5.31,33.98,15.49,48.92,2.5,4,5.31,10.72,7.54,14.01,6.95,7.87,10.81-8.05,11.9-13.39,2.09-23.57.18-46.52.86-70.31-1.04-17.92,21.76-20.28,22.94-2.09.59,28.82-.36,57.72.27,86.36.32,3.69,1.5,4.45,3.68,1.42,4.59-6.36,7.09-15.7,7.54-23.3.09-12.59.18-23.88,5.95-35,5.36-8.85,7.68-27.88,18.67-28.64,16.22,5.74,1.09,34.78,3.23,48.03-.14,13.52-7.95,25.66-5.81,39.05,1,4.49,2.36,8.67,7.09,7.69,16.31-3.02,22.8-53.59,38.7-46.61,17.31,16.85-21.17,59.37-25.85,77.2-2.18,9.16-1.09,18.28-1.95,27.75-1.45,12.05-3.82,23.66-6.04,35.75-8.9,40.96-24.07,39.85-16.67,87.74"/>
        <path class="cls-1" d="M94.71,66.4c4.32.18,8.18-.67,11.58-3.11"/>
        <path class="cls-1" d="M99.3,84.99c4.32.18,8.18-.67,11.58-3.11"/>
        <path class="cls-1" d="M102.35,81.61c2.04.09,3.86-.31,5.5-1.47"/>
        <path class="cls-1" d="M145.18,49.99c4.13,1.29,8.09,1.47,11.99,0"/>
        <path class="cls-1" d="M145.86,79.34c4.13,1.29,8.09,1.47,11.99,0"/>
        <path class="cls-1" d="M183.43,86.15c4.13,1.29,8.09,1.47,11.99,0"/>
        <path class="cls-1" d="M185.2,54.44c4.13,1.29,8.09,1.47,11.99,0"/>
        <path class="cls-1" d="M227.26,95.31c3.36,2.67,6.95,4.27,11.17,4.27"/>
        <path class="cls-1" d="M218.18,111.63c3.36,2.67,6.95,4.27,11.17,4.27"/>
        <path class="cls-1" d="M148.86,75.16c1.95.67,3.82.84,5.68.22"/>
        <path class="cls-1" d="M186.56,83.83c1.95.67,3.82.84,5.68.22"/>
        <path class="cls-1" d="M221.99,110.29c1.68,1.16,3.41,1.82,5.41,1.69"/>
        <path class="cls-4" d="M94.44,31.94c-7.9,1.56-7.45,4.49-6.95,13.43.18,5.47,11.9.09,14.44-.84.82-.4,1.91-1.02,2.04-2.05.23-2-2.86-6.63-4.32-8.4-3.59-3.78-7.86-.4-11.9,1.56"/>
        <path class="cls-6" d="M154.26,6.85c-10.9.16-11.23,5.05-13.37,19.77-1.52,8.95,15.61,3.75,19.28,3.07,1.19-.42,2.81-1.09,3.33-2.76.95-3.17-1.67-11.65-3.05-14.98-3.52-7.23-10.19-3.07-16.13-1.09"/>
        <path class="cls-5" d="M203.48,20.93c-8.72-2.36-10.4,1.51-16.4,12.81-3.82,6.85,11.31,6.54,14.44,6.8,1.04-.04,2.54-.27,3.45-1.42,1.68-2.31,2.09-9.69,1.95-12.67-.68-6.58-7.22-4.76-12.54-4.54"/>
        <path class="cls-2" d="M245.2,68.69c-8.17-3.81-10.51-.29-18.43,9.81-4.98,6.09,9.97,8.37,13.01,9.17,1.04.13,2.55.17,3.65-.81,2.07-1.99,3.79-9.19,4.18-12.15.5-6.6-6.26-5.92-11.54-6.61"/>
      </g>
    </g>
  </g>
</svg>