<?xml version="1.0" encoding="UTF-8"?>
<svg xmlns="http://www.w3.org/2000/svg" version="1.1" viewBox="0 0 300 300">
  <defs>
    <style>
      .cls-1 {
        stroke-width: 3px;
      }

      .cls-1, .cls-2, .cls-3, .cls-4, .cls-5 {
        fill: none;
      }

      .cls-1, .cls-2, .cls-3, .cls-4, .cls-5, .cls-6 {
        stroke-miterlimit: 10;
      }

      .cls-1, .cls-6 {
        stroke: #ed1c24;
      }

      .cls-2 {
        stroke: #000;
      }

      .cls-7 {
        isolation: isolate;
        opacity: .66;
      }

      .cls-7, .cls-6 {
        fill: #ed1c24;
      }

      .cls-3 {
        stroke: #666;
        stroke-width: .5px;
      }

      .cls-4 {
        stroke: #4d4d4d;
      }

      .cls-5 {
        stroke: #1a1a1a;
      }
    </style>
  </defs>
  <!-- Generator: Adobe Illustrator 28.7.5, SVG Export Plug-In . SVG Version: 1.2.0 Build 176)  -->
  <g>
    <g id="Layer_1">
      <g>
        <path class="cls-2" d="M295.21,102.72c-31.06,12.31-58.13,5.77-84.77-13.85-22.31-15.17-44.49-36.2-62.29-55.52-15.13-13.98-18.23,13.98-13.26,24.06,3.95,11.88,15.38,19.45,22.77,28.72,11.73,14.83-2.89,19.15-15.59,18.12-22.56-1.45-44.06-9.45-65.9-15.69-14.7-2.95-31.02-10.6-45.25-5.17-8.92,5.9-1.74,15.43,6.54,20.3,16.19,8.59,36.84,10.34,53.41,18.55,26.68,13.98-14.32,15.6-26.17,15.17-15.93.73-40.53-2.95-51.88,6.24-5.82,4.62-5.06,12.52,1.4,16.54,10.15,6.67,24.39,5,36.63,5.17,9.9.09,20.69-.38,30.55.26,23.62,1.54,15.59,6.75-1.95,9.96-13.55,3.8-63.48,5-61.99,23.12,8.71,22.18,52.9,3.03,70.19,0,8.03-1.5,19.8-5.04,26.51.38,3.14,9.53-30.51,16.71-37.31,22.01-10.71,6.11-18.61,14.36-14.11,22.52,18.99,19.4,59.91-25.52,81.88-28.04,19.93-4.79,41.34-.77,61.48-4.36,12.15-1.88,23.07-7.69,33.91-12.69,17.21-8.04,36.67-7.56,55.24-7.86"/>
        <path class="cls-5" d="M250.51,177.65c.17-16.92-4.55-33.17-1.66-49.71"/>
        <path class="cls-4" d="M141.91,136.02c-.81,21.03,7.18,41.41,19.25,58.3"/>
        <path class="cls-4" d="M152.02,111.4c-2.51,25.26,13.13,46.59,27.02,66.2"/>
        <path class="cls-4" d="M161.11,127.9c18.82,20.22,48.31,25,74.78,24.87"/>
        <path class="cls-2" d="M261.09,144.52h10.92"/>
        <path class="cls-2" d="M261.09,165.17h10.92"/>
        <path class="cls-5" d="M132.05,218.33c-8.54-10.81-16.87-21.46-21.37-34.66-3.19-10.3-8.41-20.13-10.92-30.56-3.95-17.78,4.67-36.63,15.17-51.37"/>
        <path class="cls-5" d="M211.55,90.71c-6.59-4.74-15.04-8.63-22.99-6.84-4.63,1.11-9.05,3.5-13.64,4.92-5.91,2.05-10.66,5.81-15.51,9.66"/>
        <path class="cls-3" d="M53.02,104.61l3.74-15.98"/>
        <path class="cls-3" d="M75.46,110.38l3.74-15.98"/>
        <g>
          <path class="cls-3" d="M85.06,241.54l-7.01-14.83"/>
          <path class="cls-3" d="M106.13,231.93c-1.57-3.29-5.86-12.39-7.01-14.83"/>
        </g>
        <g>
          <path class="cls-3" d="M52.04,202.26l-3.74-15.98"/>
          <path class="cls-3" d="M74.69,197.39c-.85-3.55-3.14-13.38-3.74-15.98"/>
        </g>
        <g>
          <path class="cls-3" d="M45.46,158.71c.08-3.63.34-13.72.38-16.41"/>
          <path class="cls-3" d="M68.62,159.74l.38-16.41"/>
        </g>
      </g>
      <path class="cls-1" d="M110.59,33.19c-2.38-1.67-12.53,5.3-20.27,13.93-5.74,6.41-9.56,14.15-9.69,18.72"/>
      <polygon class="cls-6" points="110.81 39.51 115.27 28.49 102.18 30.62 110.81 39.51"/>
      <path class="cls-7" d="M87.18,167.56c-21.62,0-48.06,1.54-68.21-5.68-8.32-3.25-14.52-13.33-5.59-19.96,6.57-5.73,19.42-6.54,31.01-6.88,9.63-.26,19.26-.09,28.89-.3,8.4,0,17.26-.81,21.5,2.35,7.83,6.84,3.55,18.72,3.22,27.91"/>
      <path class="cls-7" d="M94.77,121.75c-20.18-4.93-45.18-9.71-62.18-19.95-6.98-4.44-10.28-13.73-.33-16.88,7.52-2.96,19.68-.72,30.59,1.67,9.03,1.97,17.97,4.32,27,6.3,7.86,1.9,16.3,3.26,19.47,6.71,5.64,7.13-1.25,15.4-3.84,22.53"/>
      <path class="cls-7" d="M166.68,94.65c-12.79-12.95-29.44-27.52-36.75-45.56-2.85-7.65-.08-19.7,9.43-19.83,7.56-.77,15.68,6.24,22.73,12.91,5.86,5.56,11.47,11.45,17.29,17.05,5.01,5.04,10.75,9.66,11.22,14.83.25,10.34-9.86,17.57-15.98,24.96"/>
    </g>
  </g>
</svg>