<?xml version="1.0" encoding="UTF-8"?>
<svg xmlns="http://www.w3.org/2000/svg" version="1.1" viewBox="0 0 300 300">
  <defs>
    <style>
      .cls-1, .cls-2, .cls-3, .cls-4, .cls-5 {
        stroke: #000;
        stroke-miterlimit: 10;
      }

      .cls-1, .cls-3 {
        fill: none;
      }

      .cls-1, .cls-5 {
        stroke-width: .5px;
      }

      .cls-2 {
        stroke-width: .25px;
      }

      .cls-2, .cls-4, .cls-5 {
        fill: #c7b299;
      }

      .cls-3 {
        stroke-width: .75px;
      }

      .cls-6 {
        fill: #ed1c24;
        isolation: isolate;
        opacity: .68;
      }
    </style>
  </defs>
  <!-- Generator: Adobe Illustrator 28.7.5, SVG Export Plug-In . SVG Version: 1.2.0 Build 176)  -->
  <g>
    <g id="Layer_1">
      <g>
        <path class="cls-3" d="M102.98,294.55c4.09-13.46,12.23-28.99,13.32-43.42-.09-6.9-5.23-14.47-9.91-21.64-7.05-12.53-12.28-25.72-23.97-34.97-7.55-8.1-7.59-20.09-15.28-28.24-5.18-5.44-11.82-10.31-18.46-13.77-6.59-3.28-12.64-5.27-16.14-10.93-2.59-3.85.32-8.06,4.32-9.43,11.46-4.25,26.92,2.92,36.06,11.33,7,5.58,12.01,13.15,16.64,20.67,4.55,7.04,8.96,9.38,13.05,1.77,11.14-19.56,7.69-43.02,1.82-63.51-2.09-9.6-2.55-19.83-5.64-29.08-3.18-10.4-7-20.45-8.6-31.12-1.41-6.29,2.73-15.4,9.96-11.6,3.68,2.17,6.69,6.51,8.73,10.53,9.91,15.71,5.32,33.82,15.51,48.69,2.5,3.98,5.32,10.67,7.55,13.94,6.96,7.83,10.82-8.01,11.92-13.32,2.09-23.46.18-46.3.86-69.98-1.05-17.84,21.78-20.18,22.97-2.08.59,28.68-.36,57.45.27,85.96.32,3.67,1.5,4.43,3.68,1.42,4.59-6.33,7.09-15.62,7.55-23.19.09-12.53.18-23.77,5.96-34.83,5.37-8.81,7.69-27.75,18.69-28.5,16.24,5.71,1.09,34.61,3.23,47.8-.14,13.46-7.96,25.54-5.82,38.86,1,4.47,2.36,8.63,7.09,7.66,16.33-3.01,22.83-53.33,38.75-46.39,17.33,16.78-21.19,59.09-25.88,76.84-2.18,9.12-1.09,18.19-1.96,27.62-1.46,11.99-3.82,23.55-6.05,35.59-8.91,40.76-24.1,39.66-16.69,87.33"/>
        <path class="cls-1" d="M98.71,58.77c4.32.18,8.19-.66,11.6-3.1"/>
        <path class="cls-1" d="M103.3,77.32c4.32.18,8.19-.66,11.6-3.1"/>
        <path class="cls-1" d="M106.3,73.95c2.05.09,3.87-.31,5.5-1.46"/>
        <path class="cls-1" d="M149.23,42.48c4.14,1.28,8.1,1.46,12.01,0"/>
        <path class="cls-1" d="M149.87,71.69c4.14,1.28,8.1,1.46,12.01,0"/>
        <path class="cls-1" d="M187.48,78.47c4.14,1.28,8.1,1.46,12.01,0"/>
        <path class="cls-1" d="M189.25,46.91c4.14,1.28,8.1,1.46,12.01,0"/>
        <path class="cls-1" d="M231.36,87.58c3.37,2.66,6.96,4.25,11.19,4.25"/>
        <path class="cls-1" d="M222.31,103.83c3.37,2.66,6.96,4.25,11.19,4.25"/>
        <path class="cls-1" d="M152.87,67.53c1.96.66,3.82.84,5.68.22"/>
        <path class="cls-1" d="M190.66,76.17c1.96.66,3.82.84,5.68.22"/>
        <path class="cls-1" d="M226.09,102.5c1.68,1.15,3.41,1.81,5.41,1.68"/>
        <path class="cls-4" d="M98.39,27.48c-7.91,1.55-7.46,4.47-6.96,13.37.18,5.44,11.92.09,14.46-.84.82-.4,1.91-1.02,2.05-2.04.23-1.99-2.87-6.59-4.32-8.37-3.59-3.76-7.87-.4-11.92,1.55"/>
        <path class="cls-4" d="M158.69,4.55c-10.41.13-10.73,4.29-12.78,16.82-1.46,7.61,14.92,3.19,18.42,2.61,1.14-.35,2.68-.93,3.18-2.35.91-2.7-1.59-9.91-2.91-12.75-3.37-6.15-9.73-2.61-15.42-.93"/>
        <path class="cls-5" d="M208.58,17.56c-8.73-2.35-10.41,1.5-16.42,12.75-3.82,6.82,11.32,6.51,14.46,6.77,1.05-.04,2.55-.27,3.46-1.42,1.68-2.3,2.09-9.65,1.96-12.61-.68-6.55-7.23-4.74-12.55-4.51"/>
        <path class="cls-2" d="M247.78,65.81c-8.73-2.35-10.41,1.5-16.42,12.75-3.82,6.82,11.32,6.51,14.46,6.77,1.05-.04,2.55-.27,3.46-1.42,1.68-2.3,2.09-9.65,1.96-12.61-.68-6.55-7.23-4.74-12.55-4.51"/>
        <path class="cls-6" d="M176.02,110.07c6.78-28.64,8.5-59.49,19.1-86.09,3.73-8.23,13.42-11.51,16.78-.09,1.68,5.71.86,13.32-.14,19.34-2.73,14.61-5.46,30.67-8.96,44.84-3.05,11.73-10.87,17-23.38,20.49"/>
      </g>
    </g>
  </g>
</svg>