<?xml version="1.0" encoding="UTF-8"?>
<svg xmlns="http://www.w3.org/2000/svg" version="1.1" viewBox="0 0 300 300">
  <defs>
    <style>
      .cls-1 {
        stroke-width: 3px;
      }

      .cls-1, .cls-2, .cls-3, .cls-4, .cls-5 {
        fill: none;
      }

      .cls-1, .cls-2, .cls-3, .cls-4, .cls-5, .cls-6 {
        stroke-miterlimit: 10;
      }

      .cls-1, .cls-6 {
        stroke: #ed1c24;
      }

      .cls-2 {
        stroke: #000;
      }

      .cls-7 {
        isolation: isolate;
        opacity: .66;
      }

      .cls-7, .cls-6 {
        fill: #ed1c24;
      }

      .cls-3 {
        stroke: #666;
        stroke-width: .5px;
      }

      .cls-4 {
        stroke: #4d4d4d;
      }

      .cls-5 {
        stroke: #1a1a1a;
      }
    </style>
  </defs>
  <!-- Generator: Adobe Illustrator 28.7.5, SVG Export Plug-In . SVG Version: 1.2.0 Build 176)  -->
  <g>
    <g id="Layer_1">
      <path class="cls-1" d="M93.97,33.92c-2.41-1.67-12.69,5.32-20.52,14-5.81,6.44-9.68,14.21-9.81,18.81"/>
      <polygon class="cls-6" points="94.18 40.32 98.7 29.24 85.45 31.39 94.18 40.32"/>
      <g>
        <path class="cls-2" d="M291.9,102.16c-31.45,12.37-58.86,5.8-85.84-13.91-22.59-15.24-45.05-36.37-63.08-55.78-15.32-14.04-18.46,14.04-13.42,24.18,4,11.94,15.58,19.54,23.06,28.86,11.88,14.9-2.93,19.24-15.79,18.21-22.85-1.46-44.62-9.49-66.74-15.76-14.89-2.96-31.41-10.65-45.83-5.2-9.04,5.93-1.76,15.5,6.63,20.4,16.39,8.63,37.31,10.39,54.09,18.64,27.02,14.04-14.5,15.67-26.51,15.24-16.14.73-41.05-2.96-52.54,6.27-5.89,4.64-5.12,12.58,1.42,16.62,10.28,6.7,24.7,5.02,37.09,5.2,10.03.09,20.95-.39,30.94.26,23.92,1.55,15.79,6.78-1.98,10.01-13.73,3.82-64.28,5.02-62.78,23.23,8.82,22.29,53.57,3.05,71.08,0,8.13-1.5,20.05-5.07,26.85.39,3.18,9.58-30.89,16.79-37.78,22.11-10.84,6.14-18.85,14.43-14.29,22.63,19.23,19.5,60.67-25.64,82.92-28.17,20.18-4.81,41.87-.77,62.26-4.38,12.31-1.89,23.36-7.73,34.34-12.75,17.43-8.07,37.13-7.6,55.94-7.9"/>
        <path class="cls-5" d="M246.63,177.43c.17-17-4.6-33.32-1.68-49.94"/>
        <path class="cls-4" d="M136.61,135.61c-.82,21.13,7.27,41.61,19.49,58.57"/>
        <path class="cls-4" d="M146.89,110.92c-2.54,25.38,13.3,46.81,27.37,66.52"/>
        <path class="cls-4" d="M156.1,127.49c19.06,20.31,48.92,25.12,75.73,24.99"/>
        <path class="cls-2" d="M257.31,144.15h11.06"/>
        <path class="cls-2" d="M257.31,164.89h11.06"/>
        <path class="cls-5" d="M126.63,218.36c-8.65-10.86-17.08-21.56-21.64-34.83-3.23-10.35-8.52-20.23-11.06-30.7-4-17.86,4.73-36.8,15.36-51.62"/>
        <path class="cls-5" d="M207.18,90.13c-6.67-4.77-15.23-8.67-23.28-6.87-4.69,1.12-9.17,3.52-13.81,4.94-5.98,2.06-10.8,5.84-15.71,9.7"/>
        <path class="cls-3" d="M46.64,104.05l3.79-16.06"/>
        <path class="cls-3" d="M69.31,109.89l3.79-16.06"/>
        <g>
          <path class="cls-3" d="M79.08,241.63c-1.59-3.31-5.94-12.45-7.1-14.9"/>
          <path class="cls-3" d="M100.42,232.01c-1.59-3.31-5.94-12.45-7.1-14.9"/>
        </g>
        <g>
          <path class="cls-3" d="M45.65,202.21c-.86-3.56-3.18-13.44-3.79-16.06"/>
          <path class="cls-3" d="M68.58,197.32c-.86-3.56-3.18-13.44-3.79-16.06"/>
        </g>
        <g>
          <path class="cls-3" d="M38.98,158.41l.39-16.49"/>
          <path class="cls-3" d="M62.43,159.44c.09-3.65.34-13.78.39-16.49"/>
        </g>
      </g>
      <path class="cls-7" d="M89.26,197.8c-20.35,4.82-44.79,11.96-65.75,10.52-8.69-.84-17.3-7.74-10.71-15.18,4.65-6.19,16.48-9.72,27.28-12.57,8.99-2.35,18.12-4.37,27.11-6.68,7.92-1.9,16.01-4.52,20.87-2.85,9.25,3.91,8.43,14.62,10.63,22.28"/>
      <path class="cls-7" d="M155.74,91.97c-10.5-13.79-23.91-27.96-28.5-45.23-2.89-14.58,9.61-20.94,20.51-11.36,9.3,7.97,16.11,18.34,23.86,27.6,14.98,16.85,4.96,23.14-9.09,34.01"/>
    </g>
  </g>
</svg>