<?xml version="1.0" encoding="UTF-8"?>
<svg xmlns="http://www.w3.org/2000/svg" version="1.1" viewBox="0 0 300 300">
  <defs>
    <style>
      .cls-1 {
        stroke: #000;
      }

      .cls-1, .cls-2, .cls-3, .cls-4, .cls-5 {
        fill: none;
        stroke-miterlimit: 10;
      }

      .cls-2 {
        stroke: blue;
        stroke-width: 2px;
      }

      .cls-2, .cls-6 {
        opacity: .66;
      }

      .cls-2, .cls-6, .cls-7 {
        isolation: isolate;
      }

      .cls-3 {
        stroke: #666;
        stroke-width: .5px;
      }

      .cls-4 {
        stroke: #4d4d4d;
      }

      .cls-5 {
        stroke: #1a1a1a;
      }

      .cls-6, .cls-7 {
        fill: blue;
      }

      .cls-7 {
        opacity: .69;
      }
    </style>
  </defs>
  <!-- Generator: Adobe Illustrator 28.7.5, SVG Export Plug-In . SVG Version: 1.2.0 Build 176)  -->
  <g>
    <g id="Layer_1">
      <g>
        <path class="cls-1" d="M293.09,102.91c-31.45,11.76-58.86,5.51-85.84-13.23-22.59-14.5-45.05-34.59-63.08-53.04-15.32-13.35-18.46,13.35-13.42,22.99,4,11.35,15.58,18.58,23.06,27.44,11.88,14.17-2.93,18.29-15.79,17.31-22.85-1.39-44.62-9.02-66.74-14.99-14.89-2.82-31.41-10.13-45.83-4.94-9.04,5.64-1.76,14.74,6.63,19.4,16.39,8.21,37.31,9.88,54.09,17.72,27.02,13.35-14.5,14.9-26.51,14.5-16.14.69-41.05-2.82-52.54,5.96-5.89,4.41-5.12,11.96,1.42,15.8,10.28,6.37,24.7,4.78,37.09,4.94,10.03.08,20.95-.37,30.94.24,23.92,1.47,15.79,6.45-1.98,9.51-13.73,3.63-64.28,4.78-62.78,22.09,8.82,21.19,53.57,2.9,71.08,0,8.13-1.43,20.05-4.82,26.85.37,3.18,9.11-30.89,15.97-37.78,21.03-10.84,5.84-18.85,13.72-14.29,21.52,19.23,18.54,60.67-24.38,82.92-26.79,20.18-4.57,41.87-.73,62.26-4.16,12.31-1.8,23.36-7.35,34.34-12.13,17.43-7.68,37.13-7.23,55.94-7.51"/>
        <path class="cls-5" d="M247.82,174.49c.17-16.17-4.6-31.69-1.68-47.49"/>
        <path class="cls-4" d="M137.84,134.71c-.82,20.09,7.27,39.57,19.49,55.7"/>
        <path class="cls-4" d="M148.08,111.19c-2.54,24.13,13.3,44.51,27.37,63.25"/>
        <path class="cls-4" d="M157.29,126.96c19.06,19.31,48.92,23.89,75.73,23.77"/>
        <path class="cls-1" d="M258.53,142.84h11.06"/>
        <path class="cls-1" d="M258.53,162.56h11.06"/>
        <path class="cls-5" d="M127.86,213.36c-8.65-10.33-17.08-20.5-21.64-33.12-3.23-9.84-8.52-19.23-11.06-29.2-4-16.99,4.73-34.99,15.36-49.08"/>
        <path class="cls-5" d="M208.36,91.43c-6.67-4.53-15.23-8.25-23.28-6.53-4.69,1.06-9.17,3.35-13.81,4.7-5.98,1.96-10.8,5.55-15.71,9.23"/>
        <path class="cls-3" d="M47.82,104.7l3.79-15.27"/>
        <path class="cls-3" d="M70.54,110.21l3.79-15.27"/>
        <g>
          <path class="cls-3" d="M80.27,235.53c-1.59-3.14-5.94-11.84-7.1-14.17"/>
          <path class="cls-3" d="M101.61,226.35l-7.1-14.17"/>
        </g>
        <g>
          <path class="cls-3" d="M46.83,198.01l-3.79-15.27"/>
          <path class="cls-3" d="M69.77,193.35c-.86-3.39-3.18-12.78-3.79-15.27"/>
        </g>
        <g>
          <path class="cls-3" d="M40.16,156.4l.39-15.68"/>
          <path class="cls-3" d="M63.62,157.38l.39-15.68"/>
        </g>
      </g>
      <path class="cls-6" d="M95.5,195.31c-23.62,3.8-52.45,9.56-74.61,7.68-9.17-.98-16.14-7.43-6.5-13.92,7.1-5.43,21.08-8.29,33.73-10.58,10.5-1.88,21.04-3.43,31.54-5.27,9.21-1.51,18.85-3.63,23.54-2,8.69,3.76,4.22,13.35,4,20.29"/>
      <path class="cls-6" d="M118.9,221.22c-14.59,7.31-31.76,17.27-48.28,19.36-6.93.69-15.23-3.84-11.96-11.19,2.11-5.96,10.41-10.86,18.07-15.03,6.37-3.43,12.95-6.57,19.32-10,5.68-2.86,11.27-6.37,15.45-5.72,8.09,1.84,10.07,11.07,13.6,17.23"/>
      <path class="cls-6" d="M85.27,166.16c-22.43,0-49.85,1.47-70.75-5.43-8.63-3.1-15.06-12.74-5.8-19.07,6.81-5.47,20.14-6.25,32.16-6.57,9.99-.24,19.97-.08,29.96-.29,8.72,0,17.9-.78,22.3,2.25,8.12,6.53,3.68,17.89,3.34,26.66"/>
      <path class="cls-6" d="M92.14,123.34c-20.37-5.31-45.59-10.45-62.75-21.48-7.04-4.78-10.37-14.78-.34-18.17,7.59-3.19,19.86-.78,30.87,1.8,9.11,2.12,18.13,4.66,27.24,6.78,7.93,2.04,16.45,3.51,19.65,7.23,5.69,7.68-1.27,16.58-3.88,24.26"/>
      <path class="cls-6" d="M158.46,90.69c-10.98-11.32-25.27-24.05-31.55-39.81-2.44-6.69-.07-17.22,8.1-17.33,6.49-.67,13.46,5.45,19.51,11.28,5.03,4.85,9.85,10.01,14.84,14.9,4.3,4.41,9.23,8.44,9.63,12.96.22,9.04-8.46,15.35-13.71,21.81"/>
      <path class="cls-6" d="M121.02,206.34c-18.59-16.82-35.2-80.89-11.1-99.47,11.45-7.51,25.95-2.16,38.25-6.86,15.32-4.82,29.9-15.07,46-10.62,10.28,2.57,19.36,8.94,29.13,13.19,7.62,3.43,15.83,4.82,23.02,8.78,10.15,4.9,11.14,21.56,10.63,34.42.82,15.8-1.51,33.77-15.36,41.16-25.34,12.66-51.94,20.78-79.56,22.01-13.9.73-29.22,4.78-40.45-2.29l-.56-.37v.04Z"/>
      <g>
        <line class="cls-2" x1="93.61" y1="37.94" x2="93.61" y2="82.86"/>
        <polygon class="cls-7" points="92.92 23.65 76.48 48.15 110.69 48.88 92.92 23.65"/>
      </g>
    </g>
  </g>
</svg>