<?xml version="1.0" encoding="UTF-8"?>
<svg xmlns="http://www.w3.org/2000/svg" version="1.1" viewBox="0 0 300 300">
  <defs>
    <style>
      .cls-1 {
        stroke-width: 3px;
      }

      .cls-1, .cls-2, .cls-3, .cls-4, .cls-5 {
        fill: none;
      }

      .cls-1, .cls-2, .cls-3, .cls-4, .cls-5, .cls-6 {
        stroke-miterlimit: 10;
      }

      .cls-1, .cls-6 {
        stroke: #ed1c24;
      }

      .cls-2 {
        stroke: #000;
      }

      .cls-7 {
        isolation: isolate;
        opacity: .66;
      }

      .cls-7, .cls-6 {
        fill: #ed1c24;
      }

      .cls-3 {
        stroke: #666;
        stroke-width: .5px;
      }

      .cls-4 {
        stroke: #4d4d4d;
      }

      .cls-5 {
        stroke: #1a1a1a;
      }
    </style>
  </defs>
  <!-- Generator: Adobe Illustrator 28.7.5, SVG Export Plug-In . SVG Version: 1.2.0 Build 176)  -->
  <g>
    <g id="Layer_1">
      <path class="cls-1" d="M103.95,42.83c-2.41-1.67-12.69,5.32-20.52,13.98-5.81,6.43-9.68,14.2-9.81,18.78"/>
      <polygon class="cls-6" points="104.21 49.18 108.68 38.11 95.47 40.26 104.21 49.18"/>
      <g>
        <path class="cls-2" d="M295.9,102.31c-31.45,12.35-58.86,5.79-85.84-13.89-22.59-15.22-45.05-36.32-63.08-55.71-15.32-14.02-18.46,14.02-13.42,24.14,4,11.92,15.58,19.51,23.06,28.82,11.88,14.88-2.93,19.21-15.79,18.18-22.85-1.46-44.62-9.48-66.74-15.74-14.89-2.96-31.41-10.64-45.83-5.19-9.04,5.92-1.76,15.48,6.63,20.37,16.39,8.62,37.31,10.38,54.09,18.61,27.02,14.02-14.5,15.65-26.51,15.22-16.14.73-41.05-2.96-52.54,6.26-5.89,4.63-5.12,12.57,1.42,16.6,10.28,6.69,24.7,5.02,37.09,5.19,10.03.09,20.95-.39,30.94.26,23.92,1.54,15.79,6.78-1.98,9.99-13.73,3.82-64.28,5.02-62.78,23.2,8.82,22.26,53.57,3.04,71.08,0,8.13-1.5,20.05-5.06,26.85.39,3.18,9.56-30.89,16.77-37.78,22.09-10.84,6.13-18.85,14.41-14.29,22.6,19.23,19.47,60.67-25.6,82.92-28.13,20.18-4.8,41.87-.77,62.26-4.37,12.31-1.89,23.36-7.72,34.34-12.74,17.43-8.06,37.13-7.59,55.94-7.89"/>
        <path class="cls-5" d="M250.68,177.49c.17-16.98-4.6-33.28-1.68-49.88"/>
        <path class="cls-4" d="M140.65,135.72c-.82,21.1,7.27,41.56,19.49,58.5"/>
        <path class="cls-4" d="M150.89,111.06c-2.54,25.35,13.3,46.75,27.37,66.43"/>
        <path class="cls-4" d="M160.15,127.62c19.06,20.29,48.92,25.09,75.73,24.96"/>
        <path class="cls-2" d="M261.35,144.26h11.06"/>
        <path class="cls-2" d="M261.35,164.97h11.06"/>
        <path class="cls-5" d="M130.67,218.36c-8.65-10.85-17.08-21.53-21.64-34.78-3.23-10.34-8.52-20.2-11.06-30.66-4-17.84,4.73-36.75,15.36-51.55"/>
        <path class="cls-5" d="M211.22,90.31c-6.67-4.76-15.23-8.66-23.28-6.86-4.69,1.12-9.17,3.52-13.81,4.93-5.98,2.06-10.8,5.83-15.71,9.69"/>
        <path class="cls-3" d="M50.64,104.2l3.79-16.04"/>
        <path class="cls-3" d="M73.36,110.03l3.79-16.04"/>
        <g>
          <path class="cls-3" d="M83.08,241.61c-1.59-3.3-5.94-12.44-7.1-14.88"/>
          <path class="cls-3" d="M104.47,232l-7.1-14.88"/>
        </g>
        <g>
          <path class="cls-3" d="M49.65,202.24l-3.79-16.04"/>
          <path class="cls-3" d="M72.58,197.35l-3.79-16.04"/>
        </g>
        <g>
          <path class="cls-3" d="M43.02,158.49l.39-16.47"/>
          <path class="cls-3" d="M66.43,159.52l.39-16.47"/>
        </g>
      </g>
      <path class="cls-7" d="M160.62,89.63c-11.48-12.95-26.67-27.77-32.1-44.28-2.07-6.98,2.02-16.98,11.63-15.75,7.69.38,15.14,7.54,21.53,14.27,5.33,5.59,10.28,11.47,15.62,17.06,4.52,5.04,9.8,9.78,9.71,14.31-.82,8.93-11.82,13.76-18.74,19.26"/>
      <path class="cls-7" d="M95.95,123.71c-20.44-5.1-45.78-9.82-63.25-21.4-7.19-5.02-10.89-16-.99-20.2,7.44-3.86,19.75-1.63,30.77.77,9.17,2.02,18.24,4.42,27.37,6.48,7.96,1.97,16.48,3.26,19.79,7.29,5.94,8.32-.65,18.53-2.97,27.15"/>
    </g>
  </g>
</svg>