<?xml version="1.0" encoding="UTF-8"?>
<svg xmlns="http://www.w3.org/2000/svg" version="1.1" viewBox="0 0 300 300">
  <defs>
    <style>
      .cls-1 {
        stroke: #000;
      }

      .cls-1, .cls-2, .cls-3, .cls-4, .cls-5 {
        fill: none;
      }

      .cls-1, .cls-2, .cls-3, .cls-4, .cls-5, .cls-6 {
        stroke-miterlimit: 10;
      }

      .cls-7 {
        isolation: isolate;
        opacity: .66;
      }

      .cls-7, .cls-6 {
        fill: #ed1c24;
      }

      .cls-2 {
        stroke: #666;
        stroke-width: .5px;
      }

      .cls-3, .cls-6 {
        stroke: #ed1c24;
      }

      .cls-4 {
        stroke: #4d4d4d;
      }

      .cls-5 {
        stroke: #1a1a1a;
      }
    </style>
  </defs>
  <!-- Generator: Adobe Illustrator 28.7.5, SVG Export Plug-In . SVG Version: 1.2.0 Build 176)  -->
  <g>
    <g id="Layer_1">
      <path class="cls-3" d="M93.47,40.59c-2.4-1.66-12.63,5.28-20.42,13.88-5.78,6.38-9.63,14.09-9.76,18.64"/>
      <polygon class="cls-6" points="93.68 46.93 98.18 35.95 84.99 38.08 93.68 46.93"/>
      <g>
        <path class="cls-1" d="M292.17,108.22c-31.3,12.26-58.57,5.75-85.41-13.79-22.48-15.11-44.83-36.05-62.77-55.29-15.24-13.92-18.37,13.92-13.36,23.96,3.98,11.83,15.5,19.37,22.95,28.6,11.82,14.77-2.91,19.07-15.71,18.05-22.73-1.45-44.4-9.41-66.4-15.62-14.81-2.94-31.25-10.56-45.6-5.15-8.99,5.87-1.76,15.36,6.59,20.22,16.31,8.56,37.12,10.3,53.82,18.47,26.89,13.92-14.43,15.54-26.37,15.11-16.06.72-40.84-2.94-52.28,6.21-5.87,4.6-5.09,12.47,1.41,16.47,10.23,6.64,24.58,4.98,36.91,5.15,9.98.09,20.85-.38,30.78.26,23.8,1.53,15.71,6.72-1.97,9.92-13.66,3.79-63.96,4.98-62.47,23.03,8.78,22.09,53.3,3.02,70.73,0,8.09-1.49,19.95-5.02,26.72.38,3.17,9.49-30.74,16.64-37.59,21.92-10.79,6.09-18.75,14.3-14.21,22.43,19.14,19.32,60.37-25.41,82.5-27.92,20.08-4.77,41.66-.77,61.95-4.34,12.24-1.87,23.25-7.66,34.17-12.64,17.34-8,36.95-7.53,55.66-7.83"/>
        <path class="cls-5" d="M247.13,182.83c.17-16.85-4.58-33.03-1.67-49.5"/>
        <path class="cls-4" d="M137.69,141.38c-.81,20.94,7.24,41.24,19.39,58.05"/>
        <path class="cls-4" d="M147.88,116.9c-2.53,25.15,13.23,46.39,27.23,65.93"/>
        <path class="cls-4" d="M157.05,133.33c18.97,20.13,48.68,24.9,75.35,24.77"/>
        <path class="cls-1" d="M257.79,149.85h11"/>
        <path class="cls-1" d="M257.79,170.41h11"/>
        <path class="cls-5" d="M127.76,223.4c-8.61-10.77-17-21.37-21.54-34.52-3.21-10.26-8.48-20.05-11-30.43-3.98-17.71,4.71-36.48,15.28-51.16"/>
        <path class="cls-5" d="M207.87,96.3c-6.64-4.72-15.16-8.6-23.16-6.81-4.67,1.11-9.12,3.49-13.74,4.89-5.95,2.04-10.75,5.79-15.63,9.62"/>
        <path class="cls-2" d="M48.13,110.09l3.77-15.92"/>
        <path class="cls-2" d="M70.73,115.88l3.77-15.92"/>
        <g>
          <path class="cls-2" d="M80.41,246.46c-1.58-3.28-5.91-12.34-7.06-14.77"/>
          <path class="cls-2" d="M101.64,236.93l-7.06-14.77"/>
        </g>
        <g>
          <path class="cls-2" d="M47.14,207.39l-3.77-15.92"/>
          <path class="cls-2" d="M69.96,202.54c-.86-3.53-3.17-13.32-3.77-15.92"/>
        </g>
        <g>
          <path class="cls-2" d="M40.51,163.98l.39-16.34"/>
          <path class="cls-2" d="M63.84,165l.39-16.34"/>
        </g>
      </g>
      <path class="cls-7" d="M78.23,170.5c-20.98-.15-46.58,1-66.19-5.17-8.09-2.77-14.26-11.23-5.69-16.7,6.29-4.73,18.75-5.36,29.97-5.58,9.33-.18,18.67.04,28-.11,8.18,0,16.7-.59,20.85,2.11,7.71,5.76,3.68,15.62,3.51,23.34"/>
      <path class="cls-7" d="M155.26,94.84c-10.23-13.02-23.76-27.92-28.6-44.52-1.84-7.02,1.8-17.07,10.36-15.83,6.85.38,13.49,7.58,19.18,14.34,4.75,5.62,9.16,11.53,13.91,17.15,4.02,5.06,8.73,9.83,8.65,14.39-.73,8.98-10.53,13.83-16.7,19.37"/>
    </g>
  </g>
</svg>