<?xml version="1.0" encoding="UTF-8"?>
<svg xmlns="http://www.w3.org/2000/svg" version="1.1" viewBox="0 0 300 300">
  <defs>
    <style>
      .cls-1, .cls-2, .cls-3, .cls-4, .cls-5 {
        stroke: #000;
        stroke-miterlimit: 10;
      }

      .cls-1, .cls-3 {
        fill: none;
      }

      .cls-1, .cls-5 {
        stroke-width: .5px;
      }

      .cls-2 {
        stroke-width: .25px;
      }

      .cls-2, .cls-4, .cls-5 {
        fill: #c7b299;
      }

      .cls-3 {
        stroke-width: .75px;
      }

      .cls-6 {
        fill: #ed1c24;
        isolation: isolate;
        opacity: .68;
      }
    </style>
  </defs>
  <!-- Generator: Adobe Illustrator 28.7.5, SVG Export Plug-In . SVG Version: 1.2.0 Build 176)  -->
  <g>
    <g id="Layer_1">
      <g>
        <path class="cls-3" d="M99.17,294.55c4.02-13.46,12.02-28.99,13.1-43.42-.09-6.9-5.14-14.47-9.74-21.64-6.93-12.53-12.07-25.72-23.55-34.97-7.42-8.1-7.46-20.09-15.02-28.24-5.1-5.44-11.62-10.31-18.15-13.77-6.48-3.28-12.42-5.27-15.87-10.93-2.55-3.85.31-8.06,4.25-9.43,11.26-4.25,26.46,2.92,35.44,11.33,6.88,5.58,11.8,13.15,16.36,20.67,4.47,7.04,8.8,9.38,12.83,1.77,10.95-19.56,7.55-43.02,1.79-63.51-2.06-9.6-2.5-19.83-5.54-29.08-3.13-10.4-6.88-20.45-8.45-31.12-1.39-6.29,2.68-15.4,9.79-11.6,3.62,2.17,6.57,6.51,8.58,10.53,9.74,15.71,5.23,33.82,15.24,48.69,2.46,3.98,5.23,10.67,7.42,13.94,6.84,7.83,10.64-8.01,11.71-13.32,2.06-23.46.18-46.3.85-69.98-1.03-17.84,21.41-20.18,22.57-2.08.58,28.68-.36,57.45.27,85.96.31,3.67,1.47,4.43,3.62,1.42,4.51-6.33,6.97-15.62,7.42-23.19.09-12.53.18-23.77,5.85-34.83,5.27-8.81,7.55-27.75,18.37-28.5,15.96,5.71,1.07,34.61,3.17,47.8-.13,13.46-7.82,25.54-5.72,38.86.98,4.47,2.32,8.63,6.97,7.66,16.04-3.01,22.44-53.33,38.08-46.39,17.03,16.78-20.83,59.09-25.43,76.84-2.15,9.12-1.07,18.19-1.92,27.62-1.43,11.99-3.75,23.55-5.94,35.59-8.76,40.76-23.69,39.66-16.4,87.33"/>
        <path class="cls-1" d="M94.97,58.77c4.25.18,8.04-.66,11.4-3.1"/>
        <path class="cls-1" d="M99.49,77.32c4.25.18,8.04-.66,11.4-3.1"/>
        <path class="cls-1" d="M102.48,73.95c2.01.09,3.8-.31,5.41-1.46"/>
        <path class="cls-1" d="M144.63,42.48c4.07,1.28,7.96,1.46,11.8,0"/>
        <path class="cls-1" d="M145.25,71.69c4.07,1.28,7.96,1.46,11.8,0"/>
        <path class="cls-1" d="M182.21,78.47c4.07,1.28,7.96,1.46,11.8,0"/>
        <path class="cls-1" d="M183.96,46.91c4.07,1.28,7.96,1.46,11.8,0"/>
        <path class="cls-1" d="M225.34,87.58c3.31,2.66,6.84,4.25,10.99,4.25"/>
        <path class="cls-1" d="M216.45,103.83c3.31,2.66,6.84,4.25,10.99,4.25"/>
        <path class="cls-1" d="M148.25,67.53c1.92.66,3.75.84,5.59.22"/>
        <path class="cls-1" d="M185.34,76.17c1.92.66,3.75.84,5.59.22"/>
        <path class="cls-1" d="M220.16,102.5c1.65,1.15,3.35,1.81,5.32,1.68"/>
        <path class="cls-4" d="M94.66,27.48c-7.78,1.55-7.33,4.47-6.84,13.37.18,5.44,11.71.09,14.21-.84.8-.4,1.88-1.02,2.01-2.04.22-1.99-2.82-6.59-4.25-8.37-3.53-3.76-7.73-.4-11.71,1.55"/>
        <path class="cls-4" d="M153.92,4.55c-10.23.13-10.55,4.29-12.56,16.82-1.43,7.61,14.66,3.19,18.1,2.61,1.12-.35,2.64-.93,3.13-2.35.89-2.7-1.56-9.91-2.86-12.75-3.31-6.15-9.56-2.61-15.15-.93"/>
        <path class="cls-5" d="M203,17.56c-8.58-2.35-10.23,1.5-16.13,12.75-3.75,6.82,11.13,6.51,14.21,6.77,1.03-.04,2.5-.27,3.4-1.42,1.65-2.3,2.06-9.65,1.92-12.61-.67-6.55-7.11-4.74-12.34-4.51"/>
        <path class="cls-2" d="M241.48,65.81c-8.58-2.35-10.23,1.5-16.13,12.75-3.75,6.82,11.13,6.51,14.21,6.77,1.03-.04,2.5-.27,3.4-1.42,1.65-2.3,2.06-9.65,1.92-12.61-.67-6.55-7.11-4.74-12.34-4.51"/>
        <path class="cls-6" d="M197.68,132.02c12.25-21.07,20.29-45.5,35.67-63.78,5.18-5.53,14.84-5.22,15.6,5,.36,5.09-1.97,11.02-4.16,15.62-5.59,10.98-11.44,23.15-17.65,33.55-5.27,8.54-13.63,10.45-25.97,9.43"/>
      </g>
    </g>
  </g>
</svg>