<?xml version="1.0" encoding="UTF-8"?>
<svg xmlns="http://www.w3.org/2000/svg" version="1.1" viewBox="0 0 300 300">
  <defs>
    <style>
      .cls-1 {
        stroke: #000;
      }

      .cls-1, .cls-2, .cls-3, .cls-4 {
        fill: none;
        stroke-miterlimit: 10;
      }

      .cls-5 {
        fill: #ed1c24;
        isolation: isolate;
        opacity: .66;
      }

      .cls-2 {
        stroke: #666;
        stroke-width: .5px;
      }

      .cls-3 {
        stroke: #4d4d4d;
      }

      .cls-4 {
        stroke: #1a1a1a;
      }
    </style>
  </defs>
  <!-- Generator: Adobe Illustrator 28.7.5, SVG Export Plug-In . SVG Version: 1.2.0 Build 176)  -->
  <g>
    <g id="Layer_1">
      <g>
        <path class="cls-1" d="M294.9,99.16c-31.45,12.37-58.86,5.8-85.84-13.91-22.59-15.24-45.05-36.37-63.08-55.78-15.32-14.04-18.46,14.04-13.42,24.18,4,11.94,15.58,19.54,23.06,28.86,11.88,14.9-2.93,19.24-15.79,18.21-22.85-1.46-44.62-9.49-66.74-15.76-14.89-2.96-31.41-10.65-45.83-5.2-9.04,5.93-1.76,15.5,6.63,20.4,16.39,8.63,37.31,10.39,54.09,18.64,27.02,14.04-14.5,15.67-26.51,15.24-16.14.73-41.05-2.96-52.54,6.27-5.89,4.64-5.12,12.58,1.42,16.62,10.28,6.7,24.7,5.02,37.09,5.2,10.03.09,20.95-.39,30.94.26,23.92,1.55,15.79,6.78-1.98,10.01-13.73,3.82-64.28,5.02-62.78,23.23,8.82,22.29,53.57,3.05,71.08,0,8.13-1.5,20.05-5.07,26.85.39,3.18,9.58-30.89,16.79-37.78,22.11-10.84,6.14-18.85,14.43-14.29,22.63,19.23,19.5,60.67-25.64,82.92-28.17,20.18-4.81,41.87-.77,62.26-4.38,12.31-1.89,23.36-7.73,34.34-12.75,17.43-8.07,37.13-7.6,55.94-7.9"/>
        <path class="cls-4" d="M249.63,174.43c.17-17-4.6-33.32-1.68-49.94"/>
        <path class="cls-3" d="M139.65,132.61c-.82,21.13,7.27,41.61,19.49,58.57"/>
        <path class="cls-3" d="M149.89,107.92c-2.54,25.38,13.3,46.81,27.37,66.52"/>
        <path class="cls-3" d="M159.1,124.49c19.06,20.31,48.92,25.12,75.73,24.99"/>
        <path class="cls-1" d="M260.35,141.2h11.06"/>
        <path class="cls-1" d="M260.35,161.89h11.06"/>
        <path class="cls-4" d="M129.67,215.36c-8.65-10.86-17.08-21.56-21.64-34.83-3.23-10.35-8.52-20.23-11.06-30.7-4-17.86,4.73-36.8,15.36-51.62"/>
        <path class="cls-4" d="M210.18,87.13c-6.67-4.77-15.23-8.67-23.28-6.87-4.69,1.12-9.17,3.52-13.81,4.94-5.98,2.06-10.8,5.84-15.71,9.7"/>
        <path class="cls-2" d="M49.64,101.05l3.79-16.06"/>
        <path class="cls-2" d="M72.36,106.89l3.79-16.06"/>
        <g>
          <path class="cls-2" d="M82.08,238.63c-1.59-3.31-5.94-12.45-7.1-14.9"/>
          <path class="cls-2" d="M103.42,229.01l-7.1-14.9"/>
        </g>
        <g>
          <path class="cls-2" d="M48.65,199.21l-3.79-16.06"/>
          <path class="cls-2" d="M71.58,194.32c-.86-3.56-3.18-13.44-3.79-16.06"/>
        </g>
        <g>
          <path class="cls-2" d="M41.98,155.41l.39-16.49"/>
          <path class="cls-2" d="M65.43,156.48l.39-16.49"/>
        </g>
      </g>
      <path class="cls-5" d="M88.91,195.87c-20.39,3.67-45.28,9.35-64.44,7.13-7.94-1.11-14.03-7.9-5.78-14.55,6.09-5.55,18.15-8.41,29.06-10.58,9.06-1.84,18.15-3.33,27.21-5.12,7.94-1.45,16.23-3.54,20.31-1.79,7.55,4.01,3.82,13.95,3.7,21.17"/>
      <path class="cls-5" d="M121.31,223.3c-14.59,7.69-31.76,18.16-48.28,20.35-6.93.73-15.23-4.04-11.96-11.77,2.11-6.27,10.41-11.42,18.07-15.8,6.37-3.61,12.95-6.91,19.32-10.52,5.68-3.01,11.27-6.7,15.45-6.01,8.09,1.93,10.07,11.64,13.6,18.12"/>
    </g>
  </g>
</svg>