<?xml version="1.0" encoding="UTF-8"?>
<svg xmlns="http://www.w3.org/2000/svg" version="1.1" viewBox="0 0 300 300">
  <defs>
    <style>
      .cls-1, .cls-2, .cls-3, .cls-4, .cls-5 {
        stroke: #000;
        stroke-miterlimit: 10;
      }

      .cls-1, .cls-3 {
        fill: none;
      }

      .cls-1, .cls-5 {
        stroke-width: .5px;
      }

      .cls-2 {
        stroke-width: .25px;
      }

      .cls-2, .cls-4, .cls-5 {
        fill: #c7b299;
      }

      .cls-3 {
        stroke-width: .75px;
      }

      .cls-6 {
        fill: #ed1c24;
        isolation: isolate;
        opacity: .7;
      }
    </style>
  </defs>
  <!-- Generator: Adobe Illustrator 28.7.5, SVG Export Plug-In . SVG Version: 1.2.0 Build 176)  -->
  <g>
    <g id="Layer_1">
      <path class="cls-3" d="M102.65,295.39c4.09-13.46,12.23-28.99,13.32-43.42-.09-6.9-5.23-14.47-9.91-21.64-7.05-12.53-12.28-25.72-23.97-34.97-7.55-8.1-7.59-20.09-15.28-28.24-5.18-5.44-11.82-10.31-18.46-13.77-6.59-3.28-12.64-5.27-16.14-10.93-2.59-3.85.32-8.06,4.32-9.43,11.46-4.25,26.92,2.92,36.06,11.33,7,5.58,12.01,13.15,16.64,20.67,4.55,7.04,8.96,9.38,13.05,1.77,11.14-19.56,7.69-43.02,1.82-63.51-2.09-9.6-2.55-19.83-5.64-29.08-3.18-10.4-7-20.45-8.6-31.12-1.41-6.29,2.73-15.4,9.96-11.6,3.68,2.17,6.69,6.51,8.73,10.53,9.91,15.71,5.32,33.82,15.51,48.69,2.5,3.98,5.32,10.67,7.55,13.94,6.96,7.83,10.82-8.01,11.92-13.32,2.09-23.46.18-46.3.86-69.98-1.05-17.84,21.78-20.18,22.97-2.08.59,28.68-.36,57.45.27,85.96.32,3.67,1.5,4.43,3.68,1.42,4.59-6.33,7.09-15.62,7.55-23.19.09-12.53.18-23.77,5.96-34.83,5.37-8.81,7.69-27.75,18.69-28.5,16.24,5.71,1.09,34.61,3.23,47.8-.14,13.46-7.96,25.54-5.82,38.86,1,4.47,2.36,8.63,7.09,7.66,16.33-3.01,22.83-53.33,38.75-46.39,17.33,16.78-21.19,59.09-25.88,76.84-2.18,9.12-1.09,18.19-1.96,27.62-1.46,11.99-3.82,23.55-6.05,35.59-8.91,40.76-24.1,39.66-16.69,87.33"/>
      <path class="cls-1" d="M98.38,59.61c4.32.18,8.19-.66,11.6-3.1"/>
      <path class="cls-1" d="M102.97,78.15c4.32.18,8.19-.66,11.6-3.1"/>
      <path class="cls-1" d="M106.02,74.79c2.05.09,3.87-.31,5.5-1.46"/>
      <path class="cls-6" d="M108.85,117.38c5.11,2.29,10.1-3.12,12.62-7.95,3.4-6.79,2.68-14.73,1.75-22.05-1.42-10.49-3.39-21.56-7.74-31.64-2.14-4.93-4.94-10.16-9.01-13.62-7.17-6.2-14.28-1.65-14.2,7.06-.07,8.34,4.16,16.26,6.98,23.99,2.91,7.63,4.77,15.62,5.29,23.86.79,5.97-.86,16.58,4.22,20.3l.1.06Z"/>
      <path class="cls-1" d="M148.9,43.32c4.14,1.28,8.1,1.46,12.01,0"/>
      <path class="cls-1" d="M149.54,72.53c4.14,1.28,8.1,1.46,12.01,0"/>
      <path class="cls-1" d="M187.15,79.3c4.14,1.28,8.1,1.46,12.01,0"/>
      <path class="cls-1" d="M188.92,47.74c4.14,1.28,8.1,1.46,12.01,0"/>
      <path class="cls-1" d="M231.03,88.42c3.37,2.66,6.96,4.25,11.19,4.25"/>
      <path class="cls-1" d="M221.98,104.66c3.37,2.66,6.96,4.25,11.19,4.25"/>
      <path class="cls-1" d="M152.59,68.37c1.96.66,3.82.84,5.68.22"/>
      <path class="cls-1" d="M190.33,77c1.96.66,3.82.84,5.68.22"/>
      <path class="cls-1" d="M225.76,103.34c1.68,1.15,3.41,1.81,5.41,1.68"/>
      <path class="cls-4" d="M98.1,28.31c-7.91,1.55-7.46,4.47-6.96,13.37.18,5.44,11.92.09,14.46-.84.82-.4,1.91-1.02,2.05-2.04.23-1.99-2.87-6.59-4.32-8.37-3.59-3.76-7.87-.4-11.92,1.55"/>
      <path class="cls-4" d="M158.36,5.39c-10.41.13-10.73,4.29-12.78,16.82-1.46,7.61,14.92,3.19,18.42,2.61,1.14-.35,2.68-.93,3.18-2.35.91-2.7-1.59-9.91-2.91-12.75-3.37-6.15-9.73-2.61-15.42-.93"/>
      <path class="cls-5" d="M208.3,18.4c-8.73-2.35-10.41,1.5-16.42,12.75-3.82,6.82,11.32,6.51,14.46,6.77,1.05-.04,2.55-.27,3.46-1.42,1.68-2.3,2.09-9.65,1.96-12.61-.68-6.55-7.23-4.74-12.55-4.51"/>
      <path class="cls-2" d="M247.45,66.64c-8.73-2.35-10.41,1.5-16.42,12.75-3.82,6.82,11.32,6.51,14.46,6.77,1.05-.04,2.55-.27,3.46-1.42,1.68-2.3,2.09-9.65,1.96-12.61-.68-6.55-7.23-4.74-12.55-4.51"/>
    </g>
  </g>
</svg>