<?xml version="1.0" encoding="UTF-8"?>
<svg xmlns="http://www.w3.org/2000/svg" version="1.1" viewBox="0 0 300 300">
  <defs>
    <style>
      .cls-1 {
        stroke: #000;
      }

      .cls-1, .cls-2, .cls-3, .cls-4 {
        fill: none;
        stroke-miterlimit: 10;
      }

      .cls-5 {
        fill: #ed1c24;
        isolation: isolate;
        opacity: .66;
      }

      .cls-2 {
        stroke: #666;
        stroke-width: .5px;
      }

      .cls-3 {
        stroke: #4d4d4d;
      }

      .cls-4 {
        stroke: #1a1a1a;
      }
    </style>
  </defs>
  <!-- Generator: Adobe Illustrator 28.7.5, SVG Export Plug-In . SVG Version: 1.2.0 Build 176)  -->
  <g>
    <g id="Layer_1">
      <g>
        <path class="cls-1" d="M293.9,94.16c-31.45,12.37-58.86,5.8-85.84-13.91-22.59-15.24-45.05-36.37-63.08-55.78-15.32-14.04-18.46,14.04-13.42,24.18,4,11.94,15.58,19.54,23.06,28.86,11.88,14.9-2.93,19.24-15.79,18.21-22.85-1.46-44.62-9.49-66.74-15.76-14.89-2.96-31.41-10.65-45.83-5.2-9.04,5.93-1.76,15.5,6.63,20.4,16.39,8.63,37.31,10.39,54.09,18.64,27.02,14.04-14.5,15.67-26.51,15.24-16.14.73-41.05-2.96-52.54,6.27-5.89,4.64-5.12,12.58,1.42,16.62,10.28,6.7,24.7,5.02,37.09,5.2,10.03.09,20.95-.39,30.94.26,23.92,1.55,15.79,6.78-1.98,10.01-13.73,3.82-64.28,5.02-62.78,23.23,8.82,22.29,53.57,3.05,71.08,0,8.13-1.5,20.05-5.07,26.85.39,3.18,9.58-30.89,16.79-37.78,22.11-10.84,6.14-18.85,14.43-14.29,22.63,19.23,19.5,60.67-25.64,82.92-28.17,20.18-4.81,41.87-.77,62.26-4.38,12.31-1.89,23.36-7.73,34.34-12.75,17.43-8.07,37.13-7.6,55.94-7.9"/>
        <path class="cls-4" d="M248.63,169.43c.17-17-4.6-33.32-1.68-49.94"/>
        <path class="cls-3" d="M138.65,127.61c-.82,21.13,7.27,41.61,19.49,58.57"/>
        <path class="cls-3" d="M148.89,102.87c-2.54,25.38,13.3,46.81,27.37,66.52"/>
        <path class="cls-3" d="M158.1,119.45c19.06,20.31,48.92,25.12,75.73,24.99"/>
        <path class="cls-1" d="M259.35,136.15h11.06"/>
        <path class="cls-1" d="M259.35,156.89h11.06"/>
        <path class="cls-4" d="M128.67,210.36c-8.65-10.86-17.08-21.56-21.64-34.83-3.23-10.35-8.52-20.23-11.06-30.7-4-17.86,4.73-36.8,15.36-51.62"/>
        <path class="cls-4" d="M209.18,82.09c-6.67-4.77-15.23-8.67-23.28-6.87-4.69,1.12-9.17,3.52-13.81,4.94-5.98,2.06-10.8,5.84-15.71,9.7"/>
        <path class="cls-2" d="M48.64,96.05l3.79-16.06"/>
        <path class="cls-2" d="M71.36,101.84l3.79-16.06"/>
        <g>
          <path class="cls-2" d="M81.08,233.63l-7.1-14.9"/>
          <path class="cls-2" d="M102.42,223.97c-1.59-3.31-5.94-12.45-7.1-14.9"/>
        </g>
        <g>
          <path class="cls-2" d="M47.65,194.21l-3.79-16.06"/>
          <path class="cls-2" d="M70.58,189.27c-.86-3.56-3.18-13.44-3.79-16.06"/>
        </g>
        <g>
          <path class="cls-2" d="M40.98,150.41c.09-3.65.34-13.78.39-16.49"/>
          <path class="cls-2" d="M64.43,151.44l.39-16.49"/>
        </g>
      </g>
      <path class="cls-5" d="M90.42,191.7c-21.31,3.69-47.32,9.4-67.34,7.17-8.3-1.12-14.66-7.94-6.04-14.64,6.36-5.58,18.97-8.46,30.37-10.65,9.46-1.85,18.97-3.35,28.44-5.15,8.3-1.46,16.96-3.56,21.23-1.8,7.89,4.04,3.99,14.04,3.87,21.3"/>
    </g>
  </g>
</svg>