<?xml version="1.0" encoding="UTF-8"?>
<svg xmlns="http://www.w3.org/2000/svg" version="1.1" viewBox="0 0 300 300">
  <defs>
    <style>
      .cls-1 {
        stroke: #000;
      }

      .cls-1, .cls-2, .cls-3, .cls-4, .cls-5 {
        fill: none;
        stroke-miterlimit: 10;
      }

      .cls-2 {
        stroke: blue;
        stroke-width: 2px;
      }

      .cls-2, .cls-6 {
        opacity: .66;
      }

      .cls-2, .cls-6, .cls-7 {
        isolation: isolate;
      }

      .cls-3 {
        stroke: #666;
        stroke-width: .5px;
      }

      .cls-4 {
        stroke: #4d4d4d;
      }

      .cls-5 {
        stroke: #1a1a1a;
      }

      .cls-6, .cls-7 {
        fill: blue;
      }

      .cls-7 {
        opacity: .69;
      }
    </style>
  </defs>
  <!-- Generator: Adobe Illustrator 28.7.5, SVG Export Plug-In . SVG Version: 1.2.0 Build 176)  -->
  <g>
    <g id="Layer_1">
      <g>
        <path class="cls-1" d="M293.15,114.26c-31.45,11.84-58.86,5.55-85.84-13.32-22.59-14.59-45.05-34.82-63.08-53.4-15.32-13.44-18.46,13.44-13.42,23.15,4,11.43,15.58,18.71,23.06,27.63,11.88,14.27-2.93,18.42-15.79,17.43-22.85-1.4-44.62-9.09-66.74-15.09-14.89-2.84-31.41-10.2-45.83-4.97-9.04,5.67-1.76,14.84,6.63,19.53,16.39,8.26,37.31,9.95,54.09,17.84,27.02,13.44-14.5,15.01-26.51,14.59-16.14.7-41.05-2.84-52.54,6-5.89,4.44-5.12,12.05,1.42,15.91,10.28,6.41,24.7,4.81,37.09,4.97,10.03.08,20.95-.37,30.94.25,23.92,1.48,15.79,6.5-1.98,9.58-13.73,3.66-64.28,4.81-62.78,22.24,8.82,21.34,53.57,2.92,71.08,0,8.13-1.44,20.05-4.85,26.85.37,3.18,9.17-30.89,16.07-37.78,21.17-10.84,5.88-18.85,13.81-14.29,21.67,19.23,18.66,60.67-24.54,82.92-26.97,20.18-4.6,41.87-.74,62.26-4.19,12.31-1.81,23.36-7.4,34.34-12.21,17.43-7.73,37.13-7.28,55.94-7.56"/>
        <path class="cls-5" d="M247.89,186.33c.17-16.28-4.6-31.9-1.68-47.81"/>
        <path class="cls-4" d="M137.86,146.29c-.82,20.23,7.27,39.84,19.49,56.07"/>
        <path class="cls-4" d="M148.15,122.61c-2.54,24.3,13.3,44.81,27.37,63.68"/>
        <path class="cls-4" d="M157.35,138.48c19.06,19.45,48.92,24.05,75.73,23.93"/>
        <path class="cls-1" d="M258.56,154.47h11.06"/>
        <path class="cls-1" d="M258.56,174.32h11.06"/>
        <path class="cls-5" d="M127.88,225.46c-8.65-10.4-17.08-20.64-21.64-33.34-3.23-9.91-8.52-19.36-11.06-29.39-4-17.1,4.73-35.23,15.36-49.41"/>
        <path class="cls-5" d="M208.43,102.71c-6.67-4.56-15.23-8.3-23.28-6.58-4.69,1.07-9.17,3.37-13.81,4.73-5.98,1.97-10.8,5.59-15.71,9.29"/>
        <path class="cls-3" d="M47.89,116.07l3.79-15.38"/>
        <path class="cls-3" d="M70.57,121.62l3.79-15.38"/>
        <g>
          <path class="cls-3" d="M80.33,247.79c-1.59-3.17-5.94-11.92-7.1-14.27"/>
          <path class="cls-3" d="M101.67,238.54c-1.59-3.17-5.94-11.92-7.1-14.27"/>
        </g>
        <g>
          <path class="cls-3" d="M46.9,210.01c-.86-3.41-3.18-12.87-3.79-15.38"/>
          <path class="cls-3" d="M69.83,205.32c-.86-3.41-3.18-12.87-3.79-15.38"/>
        </g>
        <g>
          <path class="cls-3" d="M40.23,168.12l.39-15.79"/>
          <path class="cls-3" d="M63.68,169.1c.09-3.49.34-13.2.39-15.79"/>
        </g>
      </g>
      <path class="cls-6" d="M85.14,174.38c-22.81,0-50.69,1.31-71.94-4.82-8.78-2.76-15.32-11.32-5.89-16.94,6.93-4.86,20.48-5.55,32.7-5.84,10.15-.22,20.31-.07,30.46-.25,8.86,0,18.2-.69,22.68,2,8.26,5.8,3.74,15.89,3.4,23.69"/>
      <path class="cls-6" d="M89.02,134.09c-19.31-5.36-43.21-10.55-59.47-21.67-6.67-4.82-9.83-14.92-.32-18.34,7.19-3.21,18.83-.78,29.26,1.81,8.63,2.14,17.19,4.7,25.82,6.84,7.51,2.06,15.59,3.54,18.63,7.29,5.4,7.75-1.2,16.73-3.68,24.47"/>
      <path class="cls-6" d="M163.25,107.97c-11.63-12.46-26.77-26.48-33.41-43.82-2.59-7.36-.08-18.95,8.58-19.08,6.88-.74,14.25,6,20.67,12.42,5.33,5.34,10.43,11.02,15.72,16.4,4.56,4.85,9.77,9.29,10.2,14.27.23,9.95-8.96,16.9-14.52,24.01"/>
      <g>
        <line class="cls-2" x1="86.83" y1="48.85" x2="86.83" y2="94.08"/>
        <polygon class="cls-7" points="86.14 34.47 69.7 59.13 103.91 59.87 86.14 34.47"/>
      </g>
    </g>
  </g>
</svg>