<?xml version="1.0" encoding="UTF-8"?>
<svg xmlns="http://www.w3.org/2000/svg" version="1.1" viewBox="0 0 300 300">
  <defs>
    <style>
      .cls-1 {
        stroke: #000;
      }

      .cls-1, .cls-2, .cls-3, .cls-4 {
        fill: none;
        stroke-miterlimit: 10;
      }

      .cls-5 {
        isolation: isolate;
        opacity: .66;
      }

      .cls-5, .cls-6 {
        fill: #ed1c24;
      }

      .cls-2 {
        stroke: #666;
        stroke-width: .5px;
      }

      .cls-3 {
        stroke: #4d4d4d;
      }

      .cls-4 {
        stroke: #1a1a1a;
      }
    </style>
  </defs>
  <!-- Generator: Adobe Illustrator 28.7.5, SVG Export Plug-In . SVG Version: 1.2.0 Build 176)  -->
  <g>
    <g id="Layer_1">
      <g>
        <path class="cls-1" d="M296.21,94.13c-31.18,12.36-58.35,5.79-85.09-13.9-22.39-15.23-44.66-36.35-62.53-55.75-15.18-14.03-18.3,14.03-13.31,24.16,3.97,11.93,15.44,19.53,22.86,28.84,11.77,14.89-2.9,19.23-15.65,18.2-22.65-1.46-44.23-9.48-66.15-15.75-14.76-2.96-31.14-10.64-45.42-5.19-8.96,5.92-1.75,15.49,6.57,20.38,16.25,8.63,36.98,10.39,53.61,18.62,26.79,14.03-14.37,15.66-26.27,15.23-15.99.73-40.69-2.96-52.08,6.27-5.84,4.63-5.08,12.57,1.41,16.61,10.19,6.69,24.48,5.02,36.77,5.19,9.94.09,20.77-.39,30.67.26,23.71,1.54,15.65,6.78-1.96,10-13.61,3.82-63.72,5.02-62.23,23.22,8.74,22.27,53.1,3.05,70.46,0,8.06-1.5,19.88-5.06,26.61.39,3.16,9.57-30.62,16.78-37.45,22.1-10.75,6.14-18.68,14.42-14.16,22.62,19.07,19.48,60.14-25.62,82.19-28.15,20-4.81,41.5-.77,61.72-4.38,12.2-1.89,23.16-7.72,34.04-12.75,17.27-8.07,36.81-7.6,55.45-7.9"/>
        <path class="cls-4" d="M251.34,169.36c.17-16.99-4.56-33.3-1.66-49.91"/>
        <path class="cls-3" d="M142.28,127.56c-.81,21.11,7.21,41.58,19.32,58.54"/>
        <path class="cls-3" d="M152.47,102.84c-2.52,25.36,13.18,46.78,27.13,66.47"/>
        <path class="cls-3" d="M161.6,119.4c18.89,20.3,48.49,25.11,75.07,24.98"/>
        <path class="cls-1" d="M261.92,136.1h10.96"/>
        <path class="cls-1" d="M261.92,156.82h10.96"/>
        <path class="cls-4" d="M115.24,93.18c-10.53,14.81-19.19,33.73-15.23,51.58,2.52,10.43,7.76,20.34,10.96,30.68,4.52,13.22,12.84,23.9,21.45,34.8"/>
        <path class="cls-4" d="M212.23,82.07c-6.61-4.76-15.1-8.67-23.07-6.87-4.65,1.12-9.08,3.52-13.69,4.94-5.93,2.06-10.71,5.84-15.57,9.7"/>
        <path class="cls-2" d="M53.1,96.01l3.75-16.05"/>
        <path class="cls-2" d="M75.57,101.81l3.75-16.05"/>
        <g>
          <path class="cls-2" d="M85.21,233.51c-1.58-3.3-5.89-12.45-7.04-14.89"/>
          <path class="cls-2" d="M106.41,223.86l-7.04-14.89"/>
        </g>
        <g>
          <path class="cls-2" d="M52.11,194.07l-3.75-16.05"/>
          <path class="cls-2" d="M74.81,189.18l-3.75-16.05"/>
        </g>
        <g>
          <path class="cls-2" d="M45.5,150.34l.38-16.48"/>
          <path class="cls-2" d="M68.71,151.37l.38-16.48"/>
        </g>
      </g>
      <path class="cls-5" d="M97.33,191.93c-22.41,3.99-49.75,10.04-70.77,8.07-8.69-1.03-15.3-7.81-6.16-14.63,6.73-5.71,20-8.71,32-11.11,9.96-1.97,19.96-3.6,29.91-5.54,8.73-1.59,17.88-3.82,22.32-2.1,8.24,3.95,4,14.03,3.8,21.33"/>
      <path class="cls-5" d="M123.92,219.21c-14.46,7.68-31.48,18.15-47.85,20.34-6.87.73-15.1-4.03-11.86-11.76,2.09-6.27,10.32-11.42,17.91-15.79,6.31-3.6,12.84-6.91,19.15-10.51,5.63-3,11.17-6.69,15.31-6.01,8.02,1.93,9.98,11.63,13.48,18.11"/>
      <path class="cls-5" d="M87.98,157.38c-22.61,0-50.24,1.36-71.31-5.03-8.7-2.88-15.18-11.81-5.84-17.67,6.87-5.07,20.3-5.79,32.42-6.09,10.07-.23,20.13-.08,30.2-.26,8.79,0,18.04-.72,22.48,2.08,8.19,6.05,3.71,16.57,3.37,24.71"/>
      <path class="cls-5" d="M95.83,115.24c-20.6-5.58-46.11-10.99-63.47-22.57-7.12-5.02-10.49-15.54-.34-19.1,7.68-3.35,20.09-.82,31.22,1.89,9.21,2.23,18.34,4.89,27.55,7.12,8.02,2.15,16.63,3.69,19.88,7.6,5.76,8.07-1.28,17.42-3.92,25.49"/>
      <path class="cls-5" d="M168.3,88.03c-12.84-13-29.56-27.64-36.89-45.75-2.86-7.68-.09-19.78,9.47-19.91,7.59-.77,15.74,6.27,22.82,12.96,5.89,5.58,11.52,11.5,17.36,17.12,5.03,5.06,10.79,9.7,11.26,14.89.26,10.39-9.9,17.64-16.04,25.06"/>
      <path class="cls-6" d="M132.38,204.37"/>
      <path class="cls-5" d="M123.34,201.41c-19.41-17.68-36.77-85.01-11.6-104.54,11.99-7.9,27.08-2.27,39.96-7.21,15.99-5.06,31.26-15.84,48.07-11.16,10.75,2.7,20.26,9.4,30.45,13.86,7.93,3.6,16.55,5.06,24.06,9.23,10.62,5.15,11.64,22.66,11.09,36.18.85,16.61-1.58,35.49-16.04,43.26-26.44,13.3-54.25,21.84-83.13,23.13-14.54.77-30.5,5.02-42.27-2.4l-.6-.39v.04Z"/>
    </g>
  </g>
</svg>