<?xml version="1.0" encoding="UTF-8"?>
<svg xmlns="http://www.w3.org/2000/svg" version="1.1" viewBox="0 0 300 300">
  <defs>
    <style>
      .cls-1, .cls-2, .cls-3, .cls-4, .cls-5 {
        stroke: #000;
      }

      .cls-1, .cls-2, .cls-3, .cls-4, .cls-5, .cls-6, .cls-7 {
        stroke-miterlimit: 10;
      }

      .cls-1, .cls-3, .cls-6 {
        fill: none;
      }

      .cls-1, .cls-5 {
        stroke-width: .5px;
      }

      .cls-2 {
        stroke-width: .25px;
      }

      .cls-2, .cls-4, .cls-5 {
        fill: #c7b299;
      }

      .cls-3 {
        stroke-width: .75px;
      }

      .cls-6, .cls-7 {
        stroke: #ed1c24;
      }

      .cls-7, .cls-8 {
        fill: #ed1c24;
      }

      .cls-8 {
        isolation: isolate;
        opacity: .68;
      }
    </style>
  </defs>
  <!-- Generator: Adobe Illustrator 28.7.5, SVG Export Plug-In . SVG Version: 1.2.0 Build 176)  -->
  <g>
    <g id="Layer_1">
      <path class="cls-3" d="M99.16,294.63c4.02-13.31,12.02-28.68,13.09-42.95-.09-6.83-5.14-14.32-9.74-21.41-6.93-12.39-12.06-25.44-23.55-34.59-7.42-8.01-7.46-19.88-15.01-27.93-5.09-5.38-11.62-10.2-18.14-13.62-6.48-3.24-12.42-5.21-15.86-10.81-2.55-3.81.31-7.97,4.24-9.33,11.26-4.2,26.45,2.89,35.43,11.21,6.88,5.52,11.8,13,16.35,20.44,4.47,6.96,8.8,9.28,12.82,1.75,10.95-19.35,7.55-42.55,1.79-62.82-2.06-9.5-2.5-19.61-5.54-28.76-3.13-10.29-6.88-20.23-8.45-30.78-1.39-6.22,2.68-15.24,9.79-11.47,3.62,2.15,6.57,6.44,8.58,10.42,9.74,15.54,5.23,33.45,15.24,48.16,2.46,3.94,5.23,10.55,7.42,13.79,6.84,7.75,10.63-7.92,11.71-13.18,2.06-23.2.18-45.79.85-69.22-1.03-17.64,21.4-19.96,22.57-2.06.58,28.37-.36,56.83.27,85.02.31,3.63,1.47,4.38,3.62,1.4,4.51-6.26,6.97-15.45,7.42-22.94.09-12.39.18-23.51,5.85-34.45,5.27-8.71,7.55-27.45,18.37-28.19,15.95,5.65,1.07,34.24,3.17,47.28-.13,13.31-7.82,25.26-5.72,38.44.98,4.42,2.32,8.54,6.97,7.57,16.04-2.98,22.43-52.75,38.07-45.88,17.02,16.59-20.82,58.45-25.43,76-2.14,9.02-1.07,17.99-1.92,27.32-1.43,11.86-3.75,23.29-5.94,35.2-8.76,40.32-23.68,39.23-16.4,86.38"/>
      <path class="cls-1" d="M94.96,61.41c4.24.18,8.04-.66,11.39-3.06"/>
      <path class="cls-1" d="M99.48,79.71c4.24.18,8.04-.66,11.39-3.06"/>
      <path class="cls-1" d="M102.47,76.38c2.01.09,3.8-.31,5.41-1.44"/>
      <path class="cls-1" d="M144.61,45.26c4.07,1.27,7.95,1.44,11.8,0"/>
      <path class="cls-1" d="M145.28,74.2c4.07,1.27,7.95,1.44,11.8,0"/>
      <path class="cls-1" d="M182.23,80.85c4.07,1.27,7.95,1.44,11.8,0"/>
      <path class="cls-1" d="M183.97,49.64c4.07,1.27,7.95,1.44,11.8,0"/>
      <path class="cls-1" d="M225.35,89.91c3.31,2.63,6.84,4.2,10.99,4.2"/>
      <path class="cls-1" d="M216.41,105.98c3.31,2.63,6.84,4.2,10.99,4.2"/>
      <path class="cls-1" d="M148.23,70.04c1.92.66,3.75.83,5.59.22"/>
      <path class="cls-1" d="M185.31,78.57c1.92.66,3.75.83,5.59.22"/>
      <path class="cls-1" d="M220.17,104.62c1.65,1.14,3.35,1.79,5.32,1.66"/>
      <path class="cls-4" d="M94.7,30.46c-7.78,1.53-7.33,4.42-6.84,13.22.18,5.38,11.71.09,14.21-.83.8-.39,1.88-1.01,2.01-2.01.22-1.97-2.82-6.52-4.24-8.27-3.53-3.72-7.73-.39-11.71,1.53"/>
      <path class="cls-4" d="M153.95,7.78c-10.23.13-10.55,4.25-12.56,16.64-1.43,7.53,14.66,3.15,18.1,2.58,1.12-.35,2.64-.92,3.13-2.32.89-2.67-1.56-9.81-2.86-12.61-3.31-6.09-9.56-2.58-15.15-.92"/>
      <path class="cls-5" d="M202.96,20.61c-8.58-2.32-10.23,1.49-16.13,12.61-3.75,6.74,11.13,6.44,14.21,6.7,1.03-.04,2.5-.26,3.4-1.4,1.65-2.28,2.06-9.54,1.92-12.48-.67-6.48-7.1-4.68-12.33-4.47"/>
      <path class="cls-2" d="M241.44,68.33c-8.58-2.32-10.23,1.49-16.13,12.61-3.75,6.74,11.13,6.44,14.21,6.7,1.03-.04,2.5-.26,3.4-1.4,1.65-2.28,2.06-9.54,1.92-12.48-.67-6.48-7.1-4.68-12.33-4.47"/>
      <path class="cls-8" d="M197.69,133.82c12.24-20.84,20.29-45.01,35.66-63.09,5.18-5.47,14.84-5.17,15.59,4.95.36,5.03-1.97,10.9-4.16,15.45-5.59,10.86-11.44,22.9-17.65,33.18-5.27,8.45-13.63,10.33-25.96,9.33"/>
      <path class="cls-8" d="M167.22,119.81c7.64-30.34,10.37-63.09,21.67-91.28,3.93-8.71,13.58-12.17,16.53,0,1.47,6.04.4,14.14-.76,20.53-3.17,15.5-6.39,32.53-10.32,47.54-3.4,12.43-11.31,17.99-23.73,21.63"/>
      <path class="cls-8" d="M140.17,107.77c1.79-31.21-1.65-63.87,4.16-93.6,2.23-9.28,11.08-14.4,16.22-3.02,2.59,5.69,3.04,13.83,3.08,20.31-.22,15.8-.18,33.14-1.21,48.6-1.03,12.83-7.73,19.74-19.26,25.57"/>
      <path class="cls-8" d="M109.17,136.01c-6.88-30.51-19.12-61.07-21.76-91.24-.45-9.5,6.48-16.77,14.48-7.09,3.98,4.82,6.66,12.52,8.49,18.78,4.16,15.28,8.94,31.96,12.2,47.11,2.55,12.61-1.83,21.01-11.13,29.59"/>
      <path class="cls-6" d="M192.55,154.09c0-4.77-20.11-9.59-40.22-9.59-14.88,0-29.76,3.9-36.51,8.8"/>
      <polygon class="cls-7" points="183.66 161.45 203.9 154.66 187.77 140.87 183.66 161.45"/>
    </g>
  </g>
</svg>