<?xml version="1.0" encoding="UTF-8"?>
<svg xmlns="http://www.w3.org/2000/svg" version="1.1" viewBox="0 0 300 300">
  <defs>
    <style>
      .cls-1 {
        stroke: #000;
      }

      .cls-1, .cls-2, .cls-3, .cls-4 {
        fill: none;
        stroke-miterlimit: 10;
      }

      .cls-5 {
        fill: #ed1c24;
        isolation: isolate;
        opacity: .66;
      }

      .cls-2 {
        stroke: #666;
        stroke-width: .5px;
      }

      .cls-3 {
        stroke: #4d4d4d;
      }

      .cls-4 {
        stroke: #1a1a1a;
      }
    </style>
  </defs>
  <!-- Generator: Adobe Illustrator 28.7.5, SVG Export Plug-In . SVG Version: 1.2.0 Build 176)  -->
  <g>
    <g id="Layer_1">
      <g>
        <path class="cls-1" d="M294.17,100.16c-31.42,12.37-58.8,5.8-85.75-13.91-22.57-15.24-45-36.37-63.01-55.78-15.3-14.04-18.44,14.04-13.41,24.18,4,11.94,15.56,19.54,23.04,28.86,11.86,14.9-2.92,19.24-15.78,18.21-22.82-1.46-44.57-9.49-66.67-15.76-14.87-2.96-31.38-10.65-45.78-5.2-9.03,5.93-1.76,15.5,6.62,20.4,16.38,8.63,37.27,10.39,54.03,18.64,26.99,14.04-14.49,15.67-26.48,15.24-16.12.73-41.01-2.96-52.48,6.27-5.89,4.64-5.12,12.58,1.42,16.62,10.27,6.7,24.67,5.02,37.05,5.2,10.02.09,20.93-.39,30.91.26,23.9,1.55,15.78,6.78-1.98,10.01-13.71,3.82-64.22,5.02-62.71,23.23,8.81,22.29,53.51,3.05,71.01,0,8.12-1.5,20.03-5.07,26.82.39,3.18,9.58-30.86,16.79-37.74,22.11-10.83,6.14-18.83,14.43-14.27,22.63,19.21,19.5,60.61-25.64,82.83-28.17,20.16-4.81,41.82-.77,62.2-4.38,12.29-1.89,23.34-7.73,34.3-12.75,17.41-8.07,37.09-7.6,55.88-7.9"/>
        <path class="cls-4" d="M248.95,175.43c.17-17-4.6-33.32-1.68-49.94"/>
        <path class="cls-3" d="M139.04,133.61c-.82,21.13,7.26,41.61,19.47,58.57"/>
        <path class="cls-3" d="M149.31,108.87c-2.54,25.38,13.28,46.81,27.34,66.52"/>
        <path class="cls-3" d="M158.51,125.45c19.04,20.31,48.87,25.12,75.65,24.99"/>
        <path class="cls-1" d="M259.61,142.15h11.05"/>
        <path class="cls-1" d="M259.61,162.89h11.05"/>
        <path class="cls-4" d="M129.07,216.36c-8.64-10.86-17.06-21.56-21.62-34.83-3.22-10.35-8.51-20.23-11.05-30.7-4-17.86,4.73-36.8,15.35-51.62"/>
        <path class="cls-4" d="M209.53,88.09c-6.66-4.77-15.22-8.67-23.25-6.87-4.69,1.12-9.16,3.52-13.8,4.94-5.97,2.06-10.79,5.84-15.69,9.7"/>
        <path class="cls-2" d="M49.16,102.05l3.78-16.06"/>
        <path class="cls-2" d="M71.81,107.84l3.78-16.06"/>
        <g>
          <path class="cls-2" d="M81.57,239.63c-1.59-3.31-5.93-12.45-7.09-14.9"/>
          <path class="cls-2" d="M102.89,229.97c-1.59-3.31-5.93-12.45-7.09-14.9"/>
        </g>
        <g>
          <path class="cls-2" d="M48.17,200.21c-.86-3.56-3.18-13.44-3.78-16.06"/>
          <path class="cls-2" d="M71.08,195.27c-.86-3.56-3.18-13.44-3.78-16.06"/>
        </g>
        <g>
          <path class="cls-2" d="M41.51,156.41l.39-16.49"/>
          <path class="cls-2" d="M64.93,157.44c.09-3.65.34-13.78.39-16.49"/>
        </g>
      </g>
      <path class="cls-5" d="M80.41,165.65c-21.02-.47-46.64.56-66.32-7.09-8.12-3.44-14.31-13.66-5.76-20.1,6.32-5.58,18.74-6.14,30-6.27,9.33-.09,18.7.3,28.03.26,8.17.13,16.72-.47,20.89,2.79,7.74,7,3.74,18.81,3.57,28"/>
    </g>
  </g>
</svg>