<?xml version="1.0" encoding="UTF-8"?>
<svg xmlns="http://www.w3.org/2000/svg" version="1.1" viewBox="0 0 300 300">
  <defs>
    <style>
      .cls-1 {
        stroke: #000;
      }

      .cls-1, .cls-2, .cls-3, .cls-4, .cls-5 {
        fill: none;
        stroke-miterlimit: 10;
      }

      .cls-2 {
        stroke: blue;
        stroke-width: 2px;
      }

      .cls-2, .cls-6 {
        opacity: .66;
      }

      .cls-2, .cls-6, .cls-7 {
        isolation: isolate;
      }

      .cls-3 {
        stroke: #666;
        stroke-width: .5px;
      }

      .cls-4 {
        stroke: #4d4d4d;
      }

      .cls-5 {
        stroke: #1a1a1a;
      }

      .cls-6, .cls-7 {
        fill: blue;
      }

      .cls-7 {
        opacity: .69;
      }
    </style>
  </defs>
  <!-- Generator: Adobe Illustrator 28.7.5, SVG Export Plug-In . SVG Version: 1.2.0 Build 176)  -->
  <g>
    <g id="Layer_1">
      <g>
        <path class="cls-1" d="M295.21,114.26c-31.13,11.84-58.25,5.55-84.95-13.32-22.36-14.59-44.58-34.82-62.43-53.4-15.16-13.44-18.27,13.44-13.29,23.15,3.96,11.43,15.41,18.71,22.82,27.63,11.75,14.27-2.9,18.42-15.63,17.43-22.61-1.4-44.16-9.09-66.05-15.09-14.73-2.84-31.09-10.2-45.35-4.97-8.94,5.67-1.75,14.84,6.56,19.53,16.22,8.26,36.92,9.95,53.53,17.84,26.74,13.44-14.35,15.01-26.23,14.59-15.97.7-40.62-2.84-51.99,6-5.83,4.44-5.07,12.05,1.41,15.91,10.18,6.41,24.44,4.81,36.71,4.97,9.92.08,20.74-.37,30.62.25,23.68,1.48,15.63,6.5-1.96,9.58-13.58,3.66-63.62,4.81-62.13,22.24,8.73,21.34,53.02,2.92,70.35,0,8.05-1.44,19.84-4.85,26.57.37,3.15,9.17-30.57,16.07-37.39,21.17-10.73,5.88-18.65,13.81-14.14,21.67,19.03,18.66,60.04-24.54,82.06-26.97,19.97-4.6,41.43-.74,61.62-4.19,12.18-1.81,23.12-7.4,33.98-12.21,17.25-7.73,36.75-7.28,55.36-7.56"/>
        <path class="cls-5" d="M250.45,186.33c.17-16.28-4.56-31.9-1.66-47.81"/>
        <path class="cls-4" d="M141.57,146.29c-.81,20.23,7.2,39.84,19.29,56.07"/>
        <path class="cls-4" d="M151.71,122.61c-2.51,24.3,13.16,44.81,27.08,63.68"/>
        <path class="cls-4" d="M160.86,138.48c18.86,19.45,48.42,24.05,74.95,23.93"/>
        <path class="cls-1" d="M261.02,154.47h10.94"/>
        <path class="cls-1" d="M261.02,174.32h10.94"/>
        <path class="cls-5" d="M131.69,225.46c-8.56-10.4-16.91-20.64-21.42-33.34-3.19-9.91-8.43-19.36-10.94-29.39-3.96-17.1,4.68-35.23,15.2-49.41"/>
        <path class="cls-5" d="M211.41,102.71c-6.6-4.56-15.07-8.3-23.04-6.58-4.64,1.07-9.07,3.37-13.67,4.73-5.92,1.97-10.69,5.59-15.54,9.29"/>
        <path class="cls-3" d="M52.49,116.07l3.75-15.38"/>
        <path class="cls-3" d="M74.97,121.62l3.75-15.38"/>
        <g>
          <path class="cls-3" d="M84.6,247.79c-1.58-3.17-5.88-11.92-7.03-14.27"/>
          <path class="cls-3" d="M105.76,238.54l-7.03-14.27"/>
        </g>
        <g>
          <path class="cls-3" d="M51.51,210.01l-3.75-15.38"/>
          <path class="cls-3" d="M74.21,205.32l-3.75-15.38"/>
        </g>
        <g>
          <path class="cls-3" d="M44.95,168.12l.38-15.79"/>
          <path class="cls-3" d="M68.12,169.1l.38-15.79"/>
        </g>
      </g>
      <path class="cls-6" d="M96.22,207.46c-22.38,3.82-49.68,9.62-70.67,7.73-8.68-.99-15.28-7.48-6.15-14.02,6.72-5.47,19.97-8.35,31.95-10.65,9.94-1.89,19.93-3.45,29.88-5.3,8.72-1.52,17.85-3.66,22.29-2.01,8.23,3.78,3.99,13.44,3.79,20.43"/>
      <path class="cls-6" d="M123.77,234.55c-14.44,7.36-31.43,17.39-47.78,19.49-6.86.7-15.07-3.86-11.84-11.26,2.09-6,10.3-10.94,17.88-15.13,6.3-3.45,12.82-6.62,19.12-10.07,5.62-2.88,11.16-6.41,15.29-5.76,8.01,1.85,9.96,11.14,13.46,17.35"/>
      <path class="cls-6" d="M86.85,178.11c-22.57,0-50.16,1.48-71.2-5.47-8.69-3.12-15.16-12.83-5.83-19.2,6.86-5.51,20.27-6.29,32.36-6.62,10.05-.25,20.1-.08,30.15-.29,8.77,0,18.01-.78,22.44,2.26,8.18,6.58,3.7,18.01,3.36,26.84"/>
      <path class="cls-6" d="M94.69,133.99c-20.57-5.34-46.03-10.52-63.36-21.62-7.11-4.81-10.48-14.88-.34-18.29,7.66-3.21,20.06-.78,31.17,1.81,9.2,2.14,18.31,4.69,27.51,6.82,8.01,2.06,16.61,3.54,19.84,7.28,5.75,7.73-1.28,16.69-3.92,24.42"/>
      <path class="cls-6" d="M167.04,107.97c-12.82-12.46-29.51-26.48-36.83-43.82-2.85-7.36-.09-18.95,9.45-19.08,7.58-.74,15.71,6,22.78,12.42,5.88,5.34,11.5,11.02,17.33,16.4,5.02,4.85,10.77,9.29,11.24,14.27.26,9.95-9.88,16.9-16.01,24.01"/>
      <g>
        <line class="cls-2" x1="71.65" y1="48.85" x2="71.65" y2="94.08"/>
        <polygon class="cls-7" points="71.01 34.47 54.7 59.13 88.6 59.87 71.01 34.47"/>
      </g>
    </g>
  </g>
</svg>