<?xml version="1.0" encoding="UTF-8"?>
<svg xmlns="http://www.w3.org/2000/svg" version="1.1" viewBox="0 0 300 300">
  <defs>
    <style>
      .cls-1, .cls-2, .cls-3, .cls-4, .cls-5 {
        stroke: #000;
        stroke-miterlimit: 10;
      }

      .cls-1, .cls-3 {
        fill: none;
      }

      .cls-1, .cls-5 {
        stroke-width: .5px;
      }

      .cls-2 {
        stroke-width: .25px;
      }

      .cls-2, .cls-4, .cls-5 {
        fill: #c7b299;
      }

      .cls-3 {
        stroke-width: .75px;
      }

      .cls-6 {
        fill: #ed1c24;
        isolation: isolate;
        opacity: .7;
      }
    </style>
  </defs>
  <!-- Generator: Adobe Illustrator 28.7.5, SVG Export Plug-In . SVG Version: 1.2.0 Build 176)  -->
  <g>
    <g id="Layer_1">
      <g>
        <path class="cls-3" d="M97.65,295.62c4.09-13.5,12.23-29.08,13.33-43.56-.09-6.93-5.23-14.52-9.91-21.71-7.05-12.57-12.28-25.8-23.97-35.08-7.55-8.13-7.59-20.16-15.28-28.33-5.18-5.46-11.82-10.35-18.46-13.81-6.59-3.29-12.64-5.28-16.14-10.97-2.59-3.86.32-8.08,4.32-9.46,11.46-4.26,26.92,2.93,36.06,11.37,7,5.59,12.01,13.19,16.64,20.74,4.55,7.06,8.96,9.41,13.05,1.78,11.14-19.63,7.69-43.16,1.82-63.72-2.09-9.64-2.55-19.89-5.64-29.17-3.18-10.43-7-20.51-8.6-31.22-1.41-6.31,2.73-15.45,9.96-11.63,3.68,2.18,6.69,6.53,8.73,10.57,9.91,15.76,5.32,33.92,15.51,48.84,2.5,4,5.32,10.7,7.55,13.99,6.96,7.86,10.82-8.04,11.92-13.37,2.09-23.53.18-46.45.86-70.2-1.05-17.89,21.78-20.25,22.97-2.09.59,28.77-.36,57.64.27,86.23.32,3.69,1.5,4.44,3.68,1.42,4.59-6.35,7.09-15.67,7.55-23.27.09-12.57.18-23.84,5.96-34.95,5.37-8.84,7.69-27.84,18.69-28.6,16.24,5.73,1.09,34.72,3.23,47.96-.14,13.5-7.96,25.62-5.82,38.99,1,4.48,2.36,8.66,7.09,7.68,16.33-3.02,22.83-53.51,38.75-46.53,17.33,16.83-21.19,59.28-25.88,77.08-2.18,9.15-1.09,18.25-1.96,27.71-1.46,12.03-3.82,23.62-6.05,35.7-8.91,40.9-24.1,39.79-16.69,87.61"/>
        <path class="cls-1" d="M93.38,60.02c4.32.18,8.19-.67,11.6-3.11"/>
        <path class="cls-1" d="M97.97,78.58c4.32.18,8.19-.67,11.6-3.11"/>
        <path class="cls-1" d="M101.02,75.25c2.05.09,3.87-.31,5.5-1.47"/>
        <path class="cls-6" d="M76.05,185.59c4.5.22,8.19-6.22,10.51-10.3,2.64-4.35,1.86-9.95-1.86-13.32-6.64-5.73-11.23-14.16-17.65-19.27-9.82-7.06-20.6-15.94-32.43-11.99-7.14,2-7.64,9.46-1.36,14.52,3.55,3.15,8.69,5.37,12.78,7.73,6,3.37,11.55,7.46,16.24,12.79,3.64,4.09,6.23,9.55,8.91,14.74,1.09,2.09,2.41,4.66,4.64,5.02h.27l-.05.09Z"/>
        <path class="cls-1" d="M143.9,43.63c4.14,1.29,8.1,1.47,12.01,0"/>
        <path class="cls-1" d="M144.54,72.98c4.14,1.29,8.1,1.47,12.01,0"/>
        <path class="cls-1" d="M182.15,79.78c4.14,1.29,8.1,1.47,12.01,0"/>
        <path class="cls-1" d="M183.92,48.07c4.14,1.29,8.1,1.47,12.01,0"/>
        <path class="cls-1" d="M226.03,88.92c3.37,2.66,6.96,4.26,11.19,4.26"/>
        <path class="cls-1" d="M216.98,105.22c3.37,2.66,6.96,4.26,11.19,4.26"/>
        <path class="cls-1" d="M147.54,68.76c1.96.67,3.82.84,5.68.22"/>
        <path class="cls-1" d="M185.33,77.42c1.96.67,3.82.84,5.68.22"/>
        <path class="cls-1" d="M220.76,103.84c1.68,1.15,3.41,1.82,5.41,1.69"/>
        <path class="cls-4" d="M93.06,28.62c-7.91,1.55-7.46,4.48-6.96,13.41.18,5.46,11.92.09,14.46-.84.82-.4,1.91-1.02,2.05-2.04.23-2-2.87-6.62-4.32-8.39-3.59-3.77-7.87-.4-11.92,1.55"/>
        <path class="cls-4" d="M153.36,5.62c-10.41.13-10.73,4.31-12.78,16.87-1.46,7.64,14.92,3.2,18.42,2.62,1.14-.36,2.68-.93,3.18-2.35.91-2.71-1.59-9.95-2.91-12.79-3.37-6.17-9.73-2.62-15.42-.93"/>
        <path class="cls-5" d="M203.25,18.63c-8.73-2.35-10.41,1.51-16.42,12.79-3.82,6.84,11.32,6.53,14.46,6.79,1.05-.04,2.55-.27,3.46-1.42,1.68-2.31,2.09-9.68,1.96-12.66-.68-6.57-7.23-4.75-12.55-4.53"/>
        <path class="cls-2" d="M242.45,67.03c-8.73-2.35-10.41,1.51-16.42,12.79-3.82,6.84,11.32,6.53,14.46,6.79,1.05-.04,2.55-.27,3.46-1.42,1.68-2.31,2.09-9.68,1.96-12.66-.68-6.57-7.23-4.75-12.55-4.53"/>
      </g>
    </g>
  </g>
</svg>