<?xml version="1.0" encoding="UTF-8"?>
<svg id="Layer_1" xmlns="http://www.w3.org/2000/svg" viewBox="0 0 214.61 288.77">
  <defs>
    <style>
      .cls-1, .cls-2, .cls-3, .cls-4, .cls-5, .cls-6 {
        stroke: #000;
        stroke-miterlimit: 10;
      }

      .cls-1, .cls-3 {
        fill: none;
      }

      .cls-1, .cls-5 {
        stroke-width: .5px;
      }

      .cls-2 {
        stroke-width: .25px;
      }

      .cls-2, .cls-4, .cls-5, .cls-6 {
        fill: #c7b299;
      }

      .cls-3, .cls-6 {
        stroke-width: .75px;
      }
    </style>
  </defs>
  <g id="tap_set_g0">
    <path class="cls-3" d="M69.81,288.66c3.98-13.44,11.89-28.96,12.95-43.37-.09-6.9-5.08-14.46-9.64-21.62-6.85-12.51-11.94-25.68-23.3-34.92-7.34-8.09-7.38-20.07-14.85-28.2-5.04-5.44-11.49-10.3-17.95-13.75-6.41-3.27-12.29-5.26-15.69-10.92-2.52-3.85.31-8.05,4.2-9.42,11.14-4.24,26.17,2.92,35.06,11.32,6.81,5.57,11.67,13.13,16.18,20.65,4.42,7.03,8.71,9.37,12.69,1.77,10.83-19.54,7.47-42.97,1.77-63.44-2.03-9.59-2.48-19.81-5.48-29.04-3.09-10.39-6.81-20.42-8.36-31.08-1.37-6.28,2.65-15.38,9.68-11.58,3.58,2.17,6.5,6.5,8.49,10.52,9.64,15.69,5.17,33.77,15.07,48.63,2.43,3.98,5.17,10.65,7.34,13.93,6.76,7.82,10.52-8,11.58-13.31,2.03-23.43.18-46.24.84-69.89-1.02-17.82,21.18-20.16,22.32-2.08.57,28.65-.35,57.38.27,85.85.31,3.67,1.46,4.42,3.58,1.41,4.46-6.32,6.9-15.61,7.34-23.16.09-12.51.18-23.74,5.79-34.79,5.22-8.8,7.47-27.72,18.17-28.47,15.78,5.7,1.06,34.57,3.14,47.74-.13,13.44-7.74,25.51-5.66,38.81.97,4.46,2.3,8.62,6.9,7.65,15.87-3.01,22.19-53.27,37.67-46.33,16.84,16.75-20.6,59.02-25.15,76.74-2.12,9.11-1.06,18.17-1.9,27.59-1.41,11.98-3.71,23.52-5.88,35.54-8.66,40.72-23.43,39.61-16.22,87.22"/>
    <path class="cls-1" d="M65.65,62.05c4.2.18,7.96-.66,11.27-3.09"/>
    <path class="cls-1" d="M70.12,80.53c4.2.18,7.96-.66,11.27-3.09"/>
    <path class="cls-1" d="M73.08,77.17c1.99.09,3.76-.31,5.35-1.46"/>
    <path class="cls-1" d="M114.77,45.74c4.02,1.28,7.87,1.46,11.67,0"/>
    <path class="cls-1" d="M115.43,74.92c4.02,1.28,7.87,1.46,11.67,0"/>
    <path class="cls-1" d="M151.99,81.68c4.02,1.28,7.87,1.46,11.67,0"/>
    <path class="cls-1" d="M153.72,50.16c4.02,1.28,7.87,1.46,11.67,0"/>
    <path class="cls-1" d="M194.65,90.79c3.27,2.65,6.76,4.24,10.88,4.24"/>
    <path class="cls-1" d="M185.81,107.01c3.27,2.65,6.76,4.24,10.88,4.24"/>
    <path class="cls-1" d="M118.35,70.76c1.9.66,3.71.84,5.53.22"/>
    <path class="cls-1" d="M155.04,79.38c1.9.66,3.71.84,5.53.22"/>
    <path class="cls-1" d="M189.52,105.68c1.64,1.15,3.32,1.81,5.26,1.68"/>
    <path class="cls-4" d="M65.39,27.8c-7.69,1.55-7.25,4.46-6.76,13.35.18,5.44,11.58.09,14.06-.84.8-.4,1.86-1.02,1.99-2.03.22-1.99-2.79-6.59-4.2-8.36-3.49-3.76-7.65-.4-11.58,1.55"/>
    <path class="cls-6" d="M123.61,2.85c-10.61.16-10.93,5.02-13.02,19.65-1.48,8.9,15.19,3.72,18.76,3.05,1.16-.41,2.73-1.09,3.24-2.74.93-3.15-1.62-11.58-2.96-14.89-3.43-7.19-9.91-3.05-15.7-1.09"/>
    <path class="cls-5" d="M171.5,16.85c-8.49-2.34-10.12,1.5-15.96,12.73-3.71,6.81,11.01,6.5,14.06,6.76,1.02-.04,2.48-.27,3.36-1.41,1.64-2.3,2.03-9.64,1.9-12.6-.66-6.54-7.03-4.73-12.2-4.51"/>
    <path class="cls-2" d="M212.11,64.33c-7.95-3.79-10.23-.29-17.94,9.75-4.84,6.06,9.7,8.32,12.66,9.11,1.01.13,2.48.17,3.56-.81,2.01-1.98,3.68-9.13,4.07-12.07.49-6.56-6.1-5.88-11.23-6.57"/>
  </g>
</svg>