<?xml version="1.0" encoding="UTF-8"?>
<svg xmlns="http://www.w3.org/2000/svg" version="1.1" viewBox="0 0 300 300">
  <defs>
    <style>
      .cls-1 {
        stroke: #000;
      }

      .cls-1, .cls-2, .cls-3, .cls-4, .cls-5, .cls-6 {
        stroke-miterlimit: 10;
      }

      .cls-1, .cls-3, .cls-4, .cls-5, .cls-6 {
        fill: none;
      }

      .cls-2 {
        opacity: .69;
      }

      .cls-2, .cls-7 {
        fill: #ed1c24;
      }

      .cls-2, .cls-7, .cls-4 {
        isolation: isolate;
      }

      .cls-2, .cls-4 {
        stroke: #ed1c24;
        stroke-width: 2px;
      }

      .cls-7, .cls-4 {
        opacity: .66;
      }

      .cls-3 {
        stroke: #666;
        stroke-width: .5px;
      }

      .cls-5 {
        stroke: #4d4d4d;
      }

      .cls-6 {
        stroke: #1a1a1a;
      }
    </style>
  </defs>
  <!-- Generator: Adobe Illustrator 28.7.5, SVG Export Plug-In . SVG Version: 1.2.0 Build 176)  -->
  <g>
    <g id="Layer_1">
      <g>
        <path class="cls-1" d="M294.19,99.74c-31.45,12.26-58.86,5.75-85.84-13.79-22.59-15.11-45.05-36.05-63.08-55.29-15.32-13.92-18.46,13.92-13.42,23.96,4,11.83,15.58,19.37,23.06,28.6,11.88,14.77-2.93,19.07-15.79,18.05-22.85-1.45-44.62-9.41-66.74-15.62-14.89-2.94-31.41-10.56-45.83-5.15-9.04,5.87-1.76,15.37,6.63,20.22,16.39,8.56,37.31,10.3,54.09,18.47,27.02,13.92-14.5,15.54-26.51,15.11-16.14.72-41.05-2.94-52.54,6.21-5.89,4.6-5.12,12.47,1.42,16.47,10.28,6.64,24.7,4.98,37.09,5.15,10.03.09,20.95-.38,30.94.26,23.92,1.53,15.79,6.73-1.98,9.92-13.73,3.79-64.28,4.98-62.78,23.03,8.82,22.09,53.57,3.02,71.08,0,8.13-1.49,20.05-5.02,26.85.38,3.18,9.49-30.89,16.64-37.78,21.92-10.84,6.09-18.85,14.3-14.29,22.43,19.23,19.32,60.67-25.41,82.92-27.92,20.18-4.77,41.87-.77,62.26-4.34,12.31-1.87,23.36-7.66,34.34-12.64,17.43-8,37.13-7.53,55.94-7.83"/>
        <path class="cls-6" d="M248.93,174.36c.17-16.86-4.6-33.03-1.68-49.5"/>
        <path class="cls-5" d="M138.94,132.9c-.82,20.94,7.27,41.25,19.49,58.06"/>
        <path class="cls-5" d="M149.19,108.42c-2.54,25.16,13.3,46.4,27.37,65.93"/>
        <path class="cls-5" d="M158.39,124.85c19.06,20.13,48.92,24.9,75.73,24.77"/>
        <path class="cls-1" d="M259.64,141.41h11.06"/>
        <path class="cls-1" d="M259.64,161.93h11.06"/>
        <path class="cls-6" d="M128.96,214.92c-8.65-10.77-17.08-21.37-21.64-34.52-3.23-10.26-8.52-20.05-11.06-30.43-4-17.71,4.73-36.48,15.36-51.16"/>
        <path class="cls-6" d="M209.47,87.82c-6.67-4.72-15.23-8.6-23.28-6.81-4.69,1.11-9.17,3.49-13.81,4.9-5.98,2.04-10.8,5.79-15.71,9.62"/>
        <path class="cls-3" d="M48.93,101.61l3.79-15.92"/>
        <path class="cls-3" d="M71.65,107.4l3.79-15.92"/>
        <g>
          <path class="cls-3" d="M81.37,237.99l-7.1-14.77"/>
          <path class="cls-3" d="M102.71,228.46c-1.59-3.28-5.94-12.34-7.1-14.77"/>
        </g>
        <g>
          <path class="cls-3" d="M47.94,198.92l-3.79-15.92"/>
          <path class="cls-3" d="M70.87,194.06c-.86-3.53-3.18-13.32-3.79-15.92"/>
        </g>
        <g>
          <path class="cls-3" d="M41.27,155.5c.09-3.62.34-13.66.39-16.35"/>
          <path class="cls-3" d="M64.72,156.56l.39-16.35"/>
        </g>
      </g>
      <path class="cls-7" d="M114.46,188.36c-28.7,5.66-63.81,13.79-90.36,13.32-10.93-.43-18.85-6.81-6.8-14.43,8.95-6.26,25.99-10.3,41.35-13.58,12.78-2.72,25.56-5.11,38.34-7.79,11.19-2.21,22.93-5.15,28.44-3.75,10.2,3.41,4.09,13.96,3.36,21.37"/>
      <path class="cls-7" d="M116.74,226.58c-14.59,7.62-31.76,18.01-48.28,20.18-6.93.72-15.23-4-11.96-11.66,2.11-6.21,10.41-11.32,18.07-15.66,6.37-3.58,12.95-6.85,19.32-10.43,5.68-2.98,11.27-6.64,15.45-5.96,8.09,1.92,10.07,11.54,13.6,17.96"/>
      <path class="cls-7" d="M110.33,158.91c-29.26,1.45-65.15,4.77-91.95-1.15-11.06-2.72-18.8-12.51-6.28-19.79,9.29-6.21,26.68-7.92,42.38-9.02,13.04-.94,26.08-1.36,39.11-2.26,11.4-.6,23.41-2,28.92.94,10.15,6.38,3.61,18.64,2.54,28.01"/>
      <path class="cls-7" d="M107.75,127.02c-25.47-6.17-57.01-12.22-78.57-24.9-8.82-5.49-13.08-16.9-.56-20.73,9.47-3.58,24.83-.77,38.55,2.21,11.4,2.47,22.68,5.41,34.08,7.92,9.94,2.38,20.57,4.13,24.57,8.39,7.14,8.81-1.46,18.94-4.69,27.67"/>
      <path class="cls-7" d="M156.09,85.41c-10.9-13.57-25.38-29.43-29.98-45.25-1.67-6.66,2.92-15.02,12.52-12.33,7.71,1.6,14.82,9.26,20.89,16.38,5.07,5.92,9.75,12.02,14.78,17.94,4.28,5.27,9.35,10.45,8.99,14.53-1.33,7.93-12.57,10.51-19.84,14.38"/>
      <path class="cls-7" d="M107.62,204.2c-1.08-26.48-4.95-58.32,5.89-85.47,4.91-11.32,21.08-22.43,32.36-13.79,9.68,6.09,11.7,21.5,12.82,35.54.95,11.71,1.12,23.54,1.98,35.24.47,10.3,2.24,20.86-2.8,27.11-10.8,11.96-30.42,10.81-45.52,13.62"/>
      <g>
        <line class="cls-4" x1="94.75" y1="62.88" x2="56.24" y2="35.63"/>
        <polygon class="cls-2" points="107.36 71.01 95.92 42.91 75.39 70.03 107.36 71.01"/>
      </g>
    </g>
  </g>
</svg>