<?xml version="1.0" encoding="UTF-8"?>
<svg xmlns="http://www.w3.org/2000/svg" version="1.1" viewBox="0 0 300 300">
  <defs>
    <style>
      .cls-1 {
        stroke: #000;
      }

      .cls-1, .cls-2, .cls-3, .cls-4, .cls-5, .cls-6 {
        stroke-miterlimit: 10;
      }

      .cls-1, .cls-3, .cls-4, .cls-5, .cls-6 {
        fill: none;
      }

      .cls-2 {
        opacity: .69;
      }

      .cls-2, .cls-7 {
        fill: #ed1c24;
      }

      .cls-2, .cls-7, .cls-4 {
        isolation: isolate;
      }

      .cls-2, .cls-4 {
        stroke: #ed1c24;
        stroke-width: 4px;
      }

      .cls-7, .cls-4 {
        opacity: .66;
      }

      .cls-3 {
        stroke: #666;
        stroke-width: .5px;
      }

      .cls-5 {
        stroke: #4d4d4d;
      }

      .cls-6 {
        stroke: #1a1a1a;
      }
    </style>
  </defs>
  <!-- Generator: Adobe Illustrator 28.7.5, SVG Export Plug-In . SVG Version: 1.2.0 Build 176)  -->
  <g>
    <g id="Layer_1">
      <g>
        <path class="cls-1" d="M294.01,104.17c-31.45,11.96-58.86,5.6-85.84-13.45-22.59-14.74-45.05-35.16-63.08-53.92-15.32-13.57-18.46,13.57-13.42,23.37,4,11.54,15.58,18.89,23.06,27.9,11.88,14.4-2.93,18.6-15.79,17.6-22.85-1.41-44.62-9.17-66.74-15.23-14.89-2.86-31.41-10.29-45.83-5.02-9.04,5.73-1.76,14.99,6.63,19.72,16.39,8.34,37.31,10.05,54.09,18.02,27.02,13.57-14.5,15.15-26.51,14.74-16.14.71-41.05-2.86-52.54,6.06-5.89,4.48-5.12,12.16,1.42,16.07,10.28,6.48,24.7,4.86,37.09,5.02,10.03.08,20.95-.37,30.94.25,23.92,1.49,15.79,6.56-1.98,9.67-13.73,3.69-64.28,4.86-62.78,22.46,8.82,21.54,53.57,2.95,71.08,0,8.13-1.45,20.05-4.9,26.85.37,3.18,9.26-30.89,16.23-37.78,21.38-10.84,5.94-18.85,13.95-14.29,21.88,19.23,18.85,60.67-24.78,82.92-27.23,20.18-4.65,41.87-.75,62.26-4.23,12.31-1.83,23.36-7.47,34.34-12.33,17.43-7.8,37.13-7.35,55.94-7.64"/>
        <path class="cls-6" d="M248.75,176.94c.17-16.44-4.6-32.21-1.68-48.28"/>
        <path class="cls-5" d="M138.72,136.51c-.82,20.42,7.27,40.22,19.49,56.62"/>
        <path class="cls-5" d="M149.01,112.64c-2.54,24.53,13.3,45.25,27.37,64.3"/>
        <path class="cls-5" d="M158.21,128.66c19.06,19.64,48.92,24.28,75.73,24.16"/>
        <path class="cls-1" d="M259.42,144.81h11.06"/>
        <path class="cls-1" d="M259.42,164.82h11.06"/>
        <path class="cls-6" d="M128.74,216.5c-8.65-10.5-17.08-20.84-21.64-33.67-3.23-10-8.52-19.55-11.06-29.68-4-17.27,4.73-35.58,15.36-49.9"/>
        <path class="cls-6" d="M209.29,92.55c-6.67-4.61-15.23-8.39-23.28-6.64-4.69,1.08-9.17,3.4-13.81,4.77-5.98,1.99-10.8,5.65-15.71,9.38"/>
        <path class="cls-3" d="M48.75,106l3.79-15.53"/>
        <path class="cls-3" d="M71.43,111.64l3.79-15.53"/>
        <g>
          <path class="cls-3" d="M81.19,239c-1.59-3.2-5.94-12.04-7.1-14.4"/>
          <path class="cls-3" d="M102.53,229.7c-1.59-3.2-5.94-12.04-7.1-14.4"/>
        </g>
        <g>
          <path class="cls-3" d="M47.76,200.89c-.86-3.45-3.18-12.99-3.79-15.53"/>
          <path class="cls-3" d="M70.69,196.16c-.86-3.45-3.18-12.99-3.79-15.53"/>
        </g>
        <g>
          <path class="cls-3" d="M41.09,158.55l.39-15.94"/>
          <path class="cls-3" d="M64.54,159.59c.09-3.53.34-13.33.39-15.94"/>
        </g>
      </g>
      <path class="cls-7" d="M84.07,197.62c-20.11,3.57-44.67,9.09-63.56,6.93-7.83-1.08-13.84-7.68-5.7-14.16,6.01-5.4,17.9-8.18,28.66-10.29,8.93-1.78,17.9-3.24,26.84-4.98,7.83-1.41,16-3.45,20.03-1.74,7.45,3.9,3.76,13.57,3.65,20.59"/>
      <path class="cls-7" d="M116.52,226.09c-14.59,7.43-31.76,17.56-48.28,19.68-6.93.71-15.23-3.9-11.96-11.37,2.11-6.06,10.41-11.04,18.07-15.28,6.37-3.49,12.95-6.68,19.32-10.17,5.68-2.91,11.27-6.48,15.45-5.81,8.09,1.87,10.07,11.25,13.6,17.52"/>
      <path class="cls-7" d="M81.71,167.5c-21.04-.38-46.69.57-66.39-6.13-8.13-2.99-14.37-11.99-5.81-17.67,6.28-4.92,18.76-5.45,29.99-5.56,9.34-.08,18.72.23,28.05.19,8.18.11,16.74-.45,20.95,2.42,7.75,6.17,3.79,16.53,3.61,24.67"/>
      <path class="cls-7" d="M89.28,124.05c-20.18-5.24-45.18-10.33-62.18-21.38-6.93-4.79-10.2-14.86-.26-18.37,7.57-3.24,19.75-.87,30.59,1.66,9.04,2.11,17.99,4.6,26.98,6.75,7.87,2.04,16.31,3.47,19.45,7.24,5.59,7.73-1.38,16.78-3.96,24.55"/>
      <g>
        <line class="cls-4" x1="91.95" y1="52.41" x2="53.44" y2="25.84"/>
        <polygon class="cls-2" points="104.6 60.34 93.15 32.94 72.63 59.38 104.6 60.34"/>
      </g>
    </g>
  </g>
</svg>