<?xml version="1.0" encoding="UTF-8"?>
<svg xmlns="http://www.w3.org/2000/svg" version="1.1" viewBox="0 0 300 300">
  <defs>
    <style>
      .cls-1 {
        stroke-width: 3px;
      }

      .cls-1, .cls-2, .cls-3, .cls-4, .cls-5 {
        fill: none;
      }

      .cls-1, .cls-2, .cls-3, .cls-4, .cls-5, .cls-6 {
        stroke-miterlimit: 10;
      }

      .cls-1, .cls-6 {
        stroke: #ed1c24;
      }

      .cls-2 {
        stroke: #000;
      }

      .cls-7 {
        isolation: isolate;
        opacity: .66;
      }

      .cls-7, .cls-6 {
        fill: #ed1c24;
      }

      .cls-3 {
        stroke: #666;
        stroke-width: .5px;
      }

      .cls-4 {
        stroke: #4d4d4d;
      }

      .cls-5 {
        stroke: #1a1a1a;
      }
    </style>
  </defs>
  <!-- Generator: Adobe Illustrator 28.7.5, SVG Export Plug-In . SVG Version: 1.2.0 Build 176)  -->
  <g>
    <g id="Layer_1">
      <g>
        <path class="cls-2" d="M292.21,109.28c-31.4,12.33-58.75,5.78-85.68-13.87-22.55-15.2-44.97-36.26-62.96-55.61-15.29-14-18.42,14-13.4,24.1,3.99,11.9,15.55,19.48,23.02,28.77,11.85,14.86-2.92,19.18-15.76,18.15-22.81-1.46-44.54-9.46-66.61-15.71-14.86-2.95-31.35-10.62-45.74-5.18-9.02,5.91-1.76,15.46,6.61,20.34,16.36,8.61,37.24,10.36,53.99,18.58,26.97,14-14.47,15.63-26.46,15.2-16.11.73-40.97-2.95-52.44,6.25-5.88,4.62-5.11,12.54,1.42,16.57,10.26,6.68,24.65,5.01,37.02,5.18,10.01.09,20.92-.39,30.88.26,23.88,1.54,15.76,6.76-1.98,9.98-13.7,3.81-64.16,5.01-62.66,23.16,8.8,22.22,53.47,3.04,70.95,0,8.12-1.5,20.01-5.05,26.8.39,3.18,9.55-30.84,16.74-37.71,22.05-10.82,6.12-18.81,14.38-14.26,22.56,19.2,19.44,60.56-25.56,82.76-28.08,20.14-4.79,41.79-.77,62.15-4.37,12.28-1.88,23.32-7.71,34.27-12.72,17.39-8.05,37.06-7.58,55.83-7.88"/>
        <path class="cls-5" d="M247.03,184.33c.17-16.95-4.6-33.22-1.67-49.79"/>
        <path class="cls-4" d="M137.21,142.63c-.82,21.06,7.26,41.48,19.46,58.4"/>
        <path class="cls-4" d="M147.47,118.02c-2.53,25.3,13.27,46.67,27.32,66.32"/>
        <path class="cls-4" d="M156.66,134.54c19.03,20.25,48.83,25.05,75.59,24.92"/>
        <path class="cls-2" d="M257.68,151.15h11.04"/>
        <path class="cls-2" d="M257.68,171.83h11.04"/>
        <path class="cls-5" d="M127.24,225.13c-8.63-10.83-17.05-21.49-21.6-34.72-3.22-10.32-8.5-20.16-11.04-30.61-3.99-17.81,4.72-36.69,15.33-51.46"/>
        <path class="cls-5" d="M207.64,97.29c-6.66-4.75-15.2-8.65-23.24-6.85-4.68,1.11-9.15,3.51-13.79,4.92-5.97,2.06-10.78,5.82-15.68,9.68"/>
        <path class="cls-3" d="M47.4,111.17l3.78-16.01"/>
        <path class="cls-3" d="M70.04,116.99l3.78-16.01"/>
        <g>
          <path class="cls-3" d="M79.74,248.34l-7.09-14.86"/>
          <path class="cls-3" d="M101.09,238.75c-1.59-3.3-5.93-12.42-7.09-14.86"/>
        </g>
        <g>
          <path class="cls-3" d="M46.42,209.04l-3.78-16.01"/>
          <path class="cls-3" d="M69.26,204.15c-.86-3.55-3.18-13.4-3.78-16.01"/>
        </g>
        <g>
          <path class="cls-3" d="M39.76,165.37c.09-3.64.34-13.74.39-16.44"/>
          <path class="cls-3" d="M63.12,166.39l.39-16.44"/>
        </g>
      </g>
      <path class="cls-1" d="M93.62,40.31c-2.41-1.67-12.67,5.31-20.49,13.96-5.8,6.42-9.66,14.17-9.79,18.75"/>
      <polygon class="cls-6" points="93.83 46.65 98.34 35.6 85.11 37.74 93.83 46.65"/>
      <path class="cls-7" d="M85.49,206.02c-20.84,3.98-46.27,10.02-65.81,8.05-8.08-1.03-14.23-7.79-5.73-14.6,6.26-5.69,18.6-8.69,29.76-11.09,9.26-1.97,18.56-3.6,27.82-5.52,8.12-1.58,16.62-3.81,20.76-2.1,7.67,3.94,3.72,14,3.53,21.28"/>
      <path class="cls-7" d="M117.79,234.24c-14.56,7.66-31.7,18.11-48.19,20.29-6.91.73-15.2-4.02-11.94-11.73,2.1-6.25,10.39-11.39,18.04-15.75,6.36-3.6,12.93-6.89,19.28-10.49,5.67-3,11.25-6.68,15.42-5.99,8.07,1.93,10.05,11.6,13.57,18.07"/>
      <path class="cls-7" d="M82.42,172.38c-22.17,0-49.28,1.35-69.95-4.99-8.53-2.85-14.89-11.71-5.73-17.52,6.74-5.03,19.91-5.74,31.79-6.04,9.87-.23,19.75-.08,29.62-.26,8.62,0,17.7-.71,22.05,2.06,8.03,6,3.64,16.43,3.3,24.5"/>
      <path class="cls-7" d="M87.37,129.52c-18.89-5.57-42.28-10.96-58.2-22.52-6.53-5.01-9.62-15.5-.31-19.05,7.04-3.34,18.42-.81,28.63,1.88,8.45,2.23,16.82,4.88,25.27,7.11,7.35,2.14,15.25,3.68,18.23,7.58,5.28,8.05-1.17,17.38-3.6,25.43"/>
      <path class="cls-7" d="M156.16,98.21c-11.43-13.33-26.65-28.74-31.63-45.45-1.85-7.04,2.78-16.84,12.71-15.26,7.99.69,15.42,8.12,21.79,15.07,5.3,5.79,10.28,11.82,15.52,17.64,4.49,5.2,9.79,10.16,9.52,14.66-1.24,8.88-12.83,13.25-20.28,18.48"/>
    </g>
  </g>
</svg>